<svg xmlns="http://www.w3.org/2000/svg" xmlns:xlink="http://www.w3.org/1999/xlink" width="1366" zoomAndPan="magnify" viewBox="0 0 1024.5 576" height="768" preserveAspectRatio="xMidYMid meet" version="1.0"><defs><clipPath id="ec218905be"><path d="M 350 188 L 525 188 L 525 575.859375 L 350 575.859375 Z M 350 188 " clip-rule="nonzero"/></clipPath><clipPath id="7966a53e63"><path d="M 348 187 L 526 187 L 526 575.859375 L 348 575.859375 Z M 348 187 " clip-rule="nonzero"/></clipPath><clipPath id="89fa48d1ee"><path d="M 375 178 L 875 178 L 875 575.859375 L 375 575.859375 Z M 375 178 " clip-rule="nonzero"/></clipPath><clipPath id="c392bd314a"><path d="M 373 177 L 875.023438 177 L 875.023438 575.859375 L 373 575.859375 Z M 373 177 " clip-rule="nonzero"/></clipPath><clipPath id="399c631200"><path d="M 363 183 L 669 183 L 669 575.859375 L 363 575.859375 Z M 363 183 " clip-rule="nonzero"/></clipPath><clipPath id="eb9c9a85d2"><path d="M 361 182 L 670 182 L 670 575.859375 L 361 575.859375 Z M 361 182 " clip-rule="nonzero"/></clipPath></defs><g clip-path="url(#ec218905be)"><path fill="#fae8e0" d="M 524.359375 575.777344 C 465.511719 476.148438 431.136719 412.21875 412.070312 371.464844 C 385.269531 314.15625 379.730469 283.730469 385.160156 264.398438 C 387.507812 256.054688 390.664062 249.566406 393.257812 244.222656 C 399.578125 231.21875 404.292969 221.511719 390.078125 204.121094 C 380 191.789062 367.402344 189.175781 363.757812 188.636719 L 350.816406 194.113281 L 354.261719 194.609375 C 354.65625 194.675781 367.714844 197.003906 375.328125 211.769531 C 378.722656 218.351562 380.289062 224.410156 379.558594 229.671875 C 379.015625 233.601562 377.28125 236.441406 373.972656 241.859375 C 370.722656 247.1875 366.375 254.3125 362.316406 263.996094 C 351.621094 289.511719 350.410156 330.449219 369.375 414.792969 C 377.675781 451.683594 391.128906 503.140625 412.171875 575.777344 Z M 524.359375 575.777344 " fill-opacity="1" fill-rule="nonzero"/></g><g clip-path="url(#7966a53e63)"><path fill="#493931" d="M 412.886719 575.777344 C 393.097656 507.496094 379.039062 454.601562 370.046875 414.644531 C 360.960938 374.246094 356.175781 342.410156 355.410156 317.308594 C 354.738281 295.316406 357.207031 277.964844 362.949219 264.257812 C 366.988281 254.617188 371.367188 247.449219 374.574219 242.191406 C 377.867188 236.800781 379.675781 233.828125 380.238281 229.761719 C 380.964844 224.550781 379.515625 218.390625 375.941406 211.449219 C 368.191406 196.433594 354.9375 194.023438 354.355469 193.925781 L 353.359375 193.78125 L 363.84375 189.34375 C 367.65625 189.933594 379.851562 192.703125 389.542969 204.554688 C 403.476562 221.605469 398.929688 230.960938 392.636719 243.917969 L 392.601562 243.992188 C 390.035156 249.273438 386.847656 255.84375 384.496094 264.207031 C 378.4375 285.773438 386.746094 318.941406 411.441406 371.757812 C 432.625 417.03125 470.304688 485.597656 523.554688 575.773438 L 525.15625 575.773438 C 471.707031 485.289062 433.910156 416.527344 412.6875 371.171875 C 388.144531 318.679688 379.859375 285.808594 385.824219 264.582031 C 388.140625 256.339844 391.300781 249.828125 393.839844 244.59375 L 393.878906 244.519531 C 400.148438 231.613281 405.105469 221.417969 390.613281 203.679688 C 380.445312 191.238281 367.566406 188.5 363.859375 187.953125 L 363.667969 187.921875 L 348.269531 194.441406 L 354.148438 195.285156 C 354.683594 195.375 367.285156 197.667969 374.71875 212.082031 C 378.164062 218.757812 379.5625 224.644531 378.878906 229.570312 C 378.359375 233.355469 376.703125 236.070312 373.390625 241.496094 C 370.171875 246.765625 365.765625 253.984375 361.683594 263.722656 C 355.859375 277.613281 353.359375 295.15625 354.039062 317.347656 C 354.804688 342.535156 359.605469 374.460938 368.707031 414.941406 C 377.6875 454.851562 391.71875 507.652344 411.457031 575.773438 L 412.886719 575.773438 Z M 412.886719 575.777344 " fill-opacity="1" fill-rule="nonzero"/></g><g clip-path="url(#89fa48d1ee)"><path fill="#fd6d2f" d="M 420.023438 220.101562 C 422.074219 229.792969 419.097656 238.484375 416.167969 247.027344 C 414.277344 252.550781 412.371094 258.109375 411.542969 264.863281 C 408.410156 290.488281 472.675781 378.324219 668.082031 575.777344 L 874.09375 575.777344 L 726.15625 480.046875 C 603.480469 400.660156 523.144531 341.378906 483.367188 307.023438 C 452.671875 280.519531 445 268.132812 444.027344 265.019531 C 443.761719 260.425781 444.503906 255.941406 445.394531 250.613281 C 447.164062 239.945312 449.277344 227.3125 443.335938 214.324219 C 438.738281 204.25 430.234375 196.253906 418.621094 189.324219 C 408.613281 183.359375 398.671875 179.988281 388.878906 178.484375 C 388.601562 178.441406 388.324219 178.398438 388.050781 178.359375 L 375.855469 183.519531 C 382.066406 184.515625 393.238281 187.46875 404.265625 196.765625 C 412.707031 203.871094 418.183594 211.429688 420.023438 220.101562 Z M 420.023438 220.101562 " fill-opacity="1" fill-rule="nonzero"/></g><g clip-path="url(#c392bd314a)"><path fill="#493931" d="M 419.351562 220.242188 C 421.359375 229.746094 418.390625 238.417969 415.515625 246.804688 C 413.640625 252.273438 411.703125 257.933594 410.863281 264.777344 C 409.078125 279.335938 428.492188 311.683594 468.558594 360.929688 C 511.613281 413.855469 578.355469 486.066406 667.113281 575.777344 L 669.054688 575.777344 C 579.851562 485.652344 512.8125 413.144531 469.625 360.0625 C 449.042969 334.761719 433.765625 313.714844 424.222656 297.511719 C 415.445312 282.605469 411.410156 271.648438 412.230469 264.949219 C 413.054688 258.246094 414.96875 252.65625 416.824219 247.25 C 419.753906 238.683594 422.789062 229.832031 420.699219 219.957031 C 418.917969 211.554688 413.6875 203.792969 404.714844 196.234375 C 395.140625 188.164062 385.386719 184.710938 378.253906 183.253906 L 388.148438 179.066406 C 388.355469 179.097656 388.566406 179.128906 388.78125 179.160156 C 399.015625 180.730469 408.941406 184.347656 418.273438 189.910156 C 430.449219 197.171875 438.441406 205.25 442.710938 214.601562 C 448.554688 227.375 446.523438 239.621094 444.730469 250.429688 L 444.71875 250.492188 C 443.835938 255.777344 443.070312 260.339844 443.34375 265.054688 L 443.347656 265.136719 L 443.375 265.21875 C 443.734375 266.367188 447.890625 277.292969 482.917969 307.539062 C 529.621094 347.882812 618.144531 410.964844 725.789062 480.621094 L 872.832031 575.773438 L 875.367188 575.773438 L 726.535156 479.464844 C 618.945312 409.84375 530.476562 346.800781 483.820312 306.5 C 449.617188 276.96875 445.09375 265.960938 444.714844 264.886719 C 444.464844 260.359375 445.214844 255.890625 446.078125 250.71875 L 446.089844 250.65625 C 447.824219 240.203125 449.980469 227.1875 443.964844 214.035156 C 439.574219 204.414062 431.402344 196.140625 418.976562 188.726562 C 409.492188 183.074219 399.402344 179.398438 388.992188 177.796875 C 388.707031 177.753906 388.429688 177.714844 388.152344 177.675781 L 387.964844 177.648438 L 373.382812 183.816406 L 375.753906 184.199219 C 382.824219 185.332031 393.433594 188.523438 403.832031 197.289062 C 412.554688 204.648438 417.632812 212.15625 419.351562 220.242188 Z M 419.351562 220.242188 " fill-opacity="1" fill-rule="nonzero"/></g><g clip-path="url(#399c631200)"><path fill="#ffd18c" d="M 385.160156 264.398438 C 379.730469 283.730469 385.269531 314.160156 412.070312 371.464844 C 431.136719 412.21875 465.511719 476.148438 524.359375 575.777344 L 668.085938 575.777344 C 472.679688 378.324219 408.410156 290.488281 411.546875 264.863281 C 412.375 258.109375 414.277344 252.550781 416.171875 247.027344 C 419.097656 238.484375 422.074219 229.792969 420.027344 220.101562 C 418.1875 211.425781 412.707031 203.871094 404.269531 196.761719 C 393.242188 187.46875 382.070312 184.515625 375.859375 183.515625 L 363.761719 188.636719 C 367.40625 189.171875 380 191.785156 390.082031 204.117188 C 404.296875 221.511719 399.578125 231.214844 393.261719 244.21875 C 390.664062 249.566406 387.507812 256.054688 385.160156 264.398438 Z M 385.160156 264.398438 " fill-opacity="1" fill-rule="nonzero"/></g><g clip-path="url(#eb9c9a85d2)"><path fill="#493931" d="M 392.601562 243.996094 C 390.039062 249.277344 386.851562 255.847656 384.5 264.214844 C 378.4375 285.78125 386.75 318.945312 411.445312 371.761719 C 432.625 417.039062 470.304688 485.597656 523.558594 575.777344 L 525.160156 575.777344 C 471.710938 485.296875 433.910156 416.53125 412.691406 371.175781 C 388.144531 318.6875 379.859375 285.8125 385.824219 264.585938 C 388.144531 256.34375 391.304688 249.832031 393.84375 244.601562 L 393.882812 244.523438 C 400.152344 231.617188 405.105469 221.421875 390.617188 203.6875 C 381.988281 193.132812 371.40625 189.554688 366.136719 188.382812 L 375.945312 184.230469 C 383.015625 185.394531 393.523438 188.605469 403.828125 197.289062 C 412.558594 204.648438 417.636719 212.15625 419.351562 220.242188 C 421.363281 229.746094 418.390625 238.417969 415.519531 246.804688 C 413.644531 252.273438 411.703125 257.933594 410.863281 264.777344 C 409.082031 279.335938 428.496094 311.683594 468.558594 360.929688 C 511.617188 413.859375 578.355469 486.066406 667.117188 575.777344 L 669.054688 575.777344 C 579.847656 485.648438 512.8125 413.144531 469.625 360.0625 C 449.042969 334.761719 433.765625 313.714844 424.222656 297.511719 C 415.445312 282.605469 411.410156 271.648438 412.230469 264.949219 C 413.054688 258.246094 414.96875 252.65625 416.824219 247.25 C 419.753906 238.6875 422.789062 229.832031 420.699219 219.957031 C 418.917969 211.554688 413.6875 203.796875 404.714844 196.234375 C 394.074219 187.269531 383.207031 184 375.96875 182.839844 L 375.773438 182.808594 L 361.222656 188.960938 L 363.660156 189.320312 C 367.238281 189.84375 379.691406 192.5 389.546875 204.554688 C 403.480469 221.605469 398.933594 230.964844 392.640625 243.917969 Z M 392.601562 243.996094 " fill-opacity="1" fill-rule="nonzero"/></g><path fill="#dfafdb" d="M 359.371094 193.726562 C 364.683594 192.28125 370.136719 190.542969 375.707031 188.507812 C 371.730469 191.203125 367.734375 193.75 363.730469 196.140625 C 352.089844 203.089844 340.394531 208.75 329.046875 213.054688 C 320.070312 216.46875 311.3125 219.035156 302.980469 220.730469 C 290.09375 223.355469 278.222656 223.890625 268.132812 222.230469 C 256.078125 220.261719 246.558594 215.160156 240.867188 206.765625 C 235.386719 198.6875 234.054688 188.449219 236.289062 177.0625 C 238.214844 167.269531 242.785156 156.628906 249.632812 145.78125 C 262.125 125.992188 282.207031 105.511719 307.683594 88.230469 C 274.78125 125.113281 264.132812 162.191406 280.484375 182.878906 C 280.988281 183.515625 281.515625 184.136719 282.070312 184.742188 C 296.058594 200.003906 324.703125 203.144531 359.371094 193.726562 Z M 359.371094 193.726562 " fill-opacity="1" fill-rule="nonzero"/><path fill="#493931" d="M 280.449219 223.875 C 276.078125 223.875 271.925781 223.554688 268.019531 222.914062 C 255.484375 220.859375 245.898438 215.410156 240.296875 207.152344 C 234.832031 199.097656 233.257812 188.929688 235.613281 176.925781 C 237.550781 167.078125 242.070312 156.472656 249.050781 145.410156 C 262.039062 124.835938 282.726562 104.324219 307.296875 87.65625 L 311.90625 84.53125 L 308.199219 88.6875 C 275.578125 125.253906 264.910156 162.058594 281.023438 182.449219 C 281.515625 183.074219 282.039062 183.6875 282.578125 184.273438 C 289.308594 191.613281 299.839844 196.292969 313.042969 197.804688 C 326.246094 199.316406 342.207031 197.675781 359.191406 193.0625 C 364.5 191.621094 369.976562 189.871094 375.464844 187.863281 L 380.710938 185.945312 L 376.089844 189.078125 C 372.148438 191.753906 368.109375 194.324219 364.082031 196.734375 C 352.597656 203.589844 340.894531 209.300781 329.289062 213.703125 C 320.347656 217.101562 311.539062 219.695312 303.113281 221.410156 C 295.039062 223.054688 287.457031 223.875 280.449219 223.875 Z M 303.535156 91.953125 C 281.117188 107.910156 262.300781 127.007812 250.214844 146.148438 C 243.328125 157.066406 238.867188 167.511719 236.964844 177.195312 C 234.683594 188.820312 236.1875 198.640625 241.433594 206.378906 C 246.820312 214.316406 256.089844 219.566406 268.242188 221.554688 C 278.25 223.199219 289.890625 222.695312 302.84375 220.058594 C 311.195312 218.359375 319.929688 215.785156 328.804688 212.414062 C 340.332031 208.035156 351.964844 202.363281 363.378906 195.550781 C 365.824219 194.089844 368.273438 192.566406 370.703125 190.996094 C 366.941406 192.261719 363.210938 193.398438 359.554688 194.390625 C 342.402344 199.054688 326.265625 200.707031 312.890625 199.175781 C 299.351562 197.625 288.519531 192.796875 281.566406 185.207031 C 281.003906 184.597656 280.457031 183.957031 279.945312 183.308594 C 264.011719 163.148438 273.3125 127.65625 303.535156 91.953125 Z M 303.535156 91.953125 " fill-opacity="1" fill-rule="nonzero"/><path fill="#dfafdb" d="M 442.523438 69.976562 C 447.828125 77.796875 449.25 87.644531 447.296875 98.605469 C 445.519531 108.605469 440.933594 119.519531 433.9375 130.667969 C 429.023438 138.496094 422.917969 146.433594 415.761719 154.242188 C 407.5625 163.191406 397.984375 171.960938 387.226562 180.203125 C 383.523438 183.039062 379.679688 185.8125 375.707031 188.507812 C 379.65625 184.089844 383.289062 179.664062 386.59375 175.261719 C 408.164062 146.527344 415.835938 118.757812 406.828125 100.117188 C 406.472656 99.378906 406.089844 98.660156 405.683594 97.953125 C 392.507812 75.113281 354.121094 71.292969 307.6875 88.230469 C 334.109375 70.308594 361.582031 59.046875 385.167969 55.125 C 397.835938 53.015625 409.375 53.019531 419.03125 55.242188 C 429.300781 57.609375 437.4375 62.476562 442.523438 69.976562 Z M 442.523438 69.976562 " fill-opacity="1" fill-rule="nonzero"/><path fill="#493931" d="M 371.46875 192.214844 L 375.191406 188.046875 C 379.085938 183.6875 382.734375 179.246094 386.039062 174.84375 C 396.609375 160.769531 404.035156 146.546875 407.511719 133.722656 C 410.988281 120.898438 410.539062 109.382812 406.203125 100.417969 C 405.859375 99.699219 405.484375 98.984375 405.085938 98.296875 C 392.097656 75.785156 353.957031 72.085938 307.921875 88.878906 L 302.6875 90.789062 L 307.296875 87.664062 C 332.84375 70.332031 360.460938 58.535156 385.054688 54.445312 C 397.988281 52.292969 409.472656 52.335938 419.183594 54.574219 C 429.972656 57.058594 438.015625 62.109375 443.09375 69.589844 C 448.386719 77.390625 450.027344 87.195312 447.976562 98.726562 C 446.1875 108.789062 441.660156 119.660156 434.523438 131.03125 C 429.550781 138.957031 423.40625 146.921875 416.265625 154.707031 C 407.878906 163.859375 398.246094 172.621094 387.644531 180.75 C 383.917969 183.605469 380.03125 186.40625 376.089844 189.078125 Z M 360.070312 77.082031 C 381.871094 77.082031 398.449219 84.042969 406.277344 97.609375 C 406.691406 98.328125 407.082031 99.070312 407.445312 99.820312 C 411.925781 109.085938 412.40625 120.9375 408.839844 134.089844 C 405.320312 147.082031 397.816406 161.464844 387.140625 175.679688 C 384.867188 178.707031 382.429688 181.753906 379.863281 184.78125 C 382.222656 183.105469 384.542969 181.394531 386.804688 179.660156 C 397.34375 171.582031 406.914062 162.875 415.25 153.78125 C 422.335938 146.054688 428.425781 138.15625 433.355469 130.304688 C 440.398438 119.082031 444.863281 108.378906 446.617188 98.492188 C 448.609375 87.324219 447.035156 77.863281 441.953125 70.367188 C 437.082031 63.183594 429.316406 58.320312 418.875 55.921875 C 409.339844 53.722656 398.035156 53.683594 385.28125 55.804688 C 362.34375 59.621094 336.746094 70.199219 312.675781 85.753906 C 329.996094 79.941406 346.105469 77.082031 360.070312 77.082031 Z M 360.070312 77.082031 " fill-opacity="1" fill-rule="nonzero"/><path fill="#ffd18c" d="M 370.042969 131.8125 C 379.863281 146.292969 384.554688 161.585938 386.589844 175.261719 C 386.839844 176.933594 387.050781 178.585938 387.222656 180.203125 C 383.523438 183.039062 379.675781 185.8125 375.707031 188.507812 C 371.734375 191.203125 367.734375 193.75 363.730469 196.140625 C 362.292969 195.378906 360.835938 194.574219 359.375 193.722656 C 347.417969 186.773438 334.945312 176.761719 325.125 162.28125 C 306.695312 135.109375 306.324219 105.078125 307.6875 88.230469 C 323.84375 93.191406 351.613281 104.640625 370.042969 131.8125 Z M 370.042969 131.8125 " fill-opacity="1" fill-rule="nonzero"/><path fill="#493931" d="M 363.75 196.929688 L 363.40625 196.75 C 361.976562 195.996094 360.503906 195.179688 359.027344 194.320312 C 344.777344 186.039062 333.179688 175.390625 324.550781 162.671875 C 310.765625 142.34375 304.695312 116.585938 307 88.175781 L 307.070312 87.320312 L 307.890625 87.570312 C 335.140625 95.9375 356.828125 111.101562 370.613281 131.425781 C 379.242188 144.148438 384.847656 158.859375 387.273438 175.15625 C 387.527344 176.847656 387.742188 178.523438 387.910156 180.128906 L 387.953125 180.511719 L 387.644531 180.75 C 383.917969 183.605469 380.03125 186.40625 376.09375 189.078125 C 372.152344 191.75 368.113281 194.324219 364.085938 196.730469 Z M 308.304688 89.144531 C 306.214844 116.898438 312.222656 142.039062 325.691406 161.894531 C 334.203125 174.445312 345.652344 184.953125 359.714844 193.128906 C 361.058594 193.910156 362.402344 194.65625 363.707031 195.351562 C 367.601562 193.015625 371.507812 190.519531 375.316406 187.9375 C 379.125 185.355469 382.882812 182.652344 386.496094 179.890625 C 386.332031 178.421875 386.136719 176.898438 385.90625 175.363281 C 383.511719 159.269531 377.980469 144.75 369.46875 132.199219 C 356 112.34375 334.863281 97.464844 308.304688 89.144531 Z M 308.304688 89.144531 " fill-opacity="1" fill-rule="nonzero"/><path fill="#fd6d2f" d="M 411.808594 106.984375 C 419.445312 119.910156 420.585938 136.363281 415.761719 154.242188 C 407.5625 163.191406 397.984375 171.960938 387.226562 180.203125 C 387.050781 178.582031 386.839844 176.933594 386.59375 175.261719 C 384.558594 161.585938 379.863281 146.292969 370.042969 131.8125 C 351.613281 104.640625 323.84375 93.191406 307.6875 88.230469 C 350.898438 74.425781 388.492188 79.210938 406.828125 100.117188 C 408.695312 102.238281 410.355469 104.53125 411.808594 106.984375 Z M 411.808594 106.984375 " fill-opacity="1" fill-rule="nonzero"/><path fill="#493931" d="M 386.667969 181.496094 L 386.539062 180.277344 C 386.371094 178.691406 386.15625 177.039062 385.90625 175.363281 C 383.511719 159.269531 377.980469 144.75 369.46875 132.199219 C 355.859375 112.136719 334.425781 97.164062 307.480469 88.890625 L 305.378906 88.242188 L 307.472656 87.574219 C 328.695312 80.792969 349.164062 78.335938 366.667969 80.46875 C 384.136719 82.601562 398.203125 89.238281 407.339844 99.660156 C 409.230469 101.804688 410.933594 104.148438 412.398438 106.632812 C 420 119.492188 421.390625 136.015625 416.421875 154.417969 L 416.378906 154.582031 L 416.265625 154.703125 C 407.875 163.859375 398.246094 172.621094 387.640625 180.746094 Z M 309.984375 88.230469 C 336.25 96.722656 357.179688 111.625 370.613281 131.425781 C 379.238281 144.148438 384.847656 158.859375 387.273438 175.15625 C 387.460938 176.425781 387.628906 177.683594 387.773438 178.910156 C 397.882812 171.078125 407.085938 162.671875 415.136719 153.898438 C 419.953125 135.929688 418.597656 119.828125 411.214844 107.332031 C 409.789062 104.925781 408.136719 102.648438 406.304688 100.570312 C 397.390625 90.40625 383.625 83.925781 366.5 81.839844 C 349.765625 79.800781 330.269531 82.007812 309.984375 88.230469 Z M 309.984375 88.230469 " fill-opacity="1" fill-rule="nonzero"/><path fill="#fae8e0" d="M 359.371094 193.726562 C 360.832031 194.574219 362.289062 195.382812 363.726562 196.140625 C 352.089844 203.09375 340.390625 208.75 329.046875 213.058594 C 310.65625 210.929688 295.785156 203.78125 286.609375 191.910156 C 284.863281 189.652344 283.351562 187.257812 282.070312 184.738281 C 269.421875 159.976562 278.878906 123.277344 307.683594 88.230469 C 306.316406 105.078125 306.691406 135.113281 325.121094 162.28125 C 334.945312 176.761719 347.414062 186.777344 359.371094 193.726562 Z M 359.371094 193.726562 " fill-opacity="1" fill-rule="nonzero"/><path fill="#493931" d="M 329.132812 213.761719 L 328.96875 213.742188 C 310.035156 211.546875 295.199219 204.144531 286.066406 192.328125 C 284.300781 190.046875 282.753906 187.597656 281.457031 185.050781 C 275.152344 172.703125 274.1875 157.183594 278.667969 140.164062 C 283.15625 123.113281 293.003906 105.003906 307.152344 87.792969 L 308.550781 86.09375 L 308.371094 88.285156 C 306.09375 116.378906 312.085938 141.832031 325.691406 161.894531 C 334.203125 174.445312 345.652344 184.953125 359.714844 193.128906 C 361.175781 193.976562 362.636719 194.785156 364.050781 195.53125 L 365.132812 196.101562 L 364.082031 196.730469 C 352.597656 203.585938 340.894531 209.296875 329.289062 213.699219 Z M 306.835938 90.367188 C 293.554688 106.917969 284.292969 124.214844 280 140.515625 C 275.609375 157.203125 276.535156 172.386719 282.683594 184.425781 C 283.941406 186.898438 285.445312 189.273438 287.15625 191.488281 C 296.027344 202.964844 310.480469 210.179688 328.960938 212.351562 C 340.085938 208.117188 351.300781 202.679688 362.328125 196.171875 C 361.242188 195.582031 360.136719 194.964844 359.027344 194.320312 C 344.785156 186.039062 333.183594 175.394531 324.554688 162.671875 C 311.121094 142.871094 305.015625 117.910156 306.835938 90.367188 Z M 306.835938 90.367188 " fill-opacity="1" fill-rule="nonzero"/><path fill="#fd6d2f" d="M 411.007812 18.089844 L 411.003906 18.085938 C 397.855469 21.925781 383.003906 27.707031 367.101562 35.21875 C 350.476562 43.0625 332.710938 52.796875 314.566406 64.164062 C 308.546875 67.9375 302.480469 71.886719 296.410156 76.007812 C 291.433594 79.382812 286.578125 82.785156 281.832031 86.210938 C 264.5625 98.691406 248.894531 111.441406 235.316406 123.886719 C 222.558594 135.570312 211.636719 146.984375 202.96875 157.628906 C 183.699219 181.285156 175.515625 201.183594 182.859375 212.007812 C 188.789062 220.746094 203.960938 222.265625 224.90625 217.707031 C 238.726562 214.699219 255.066406 209.042969 272.929688 201.070312 C 290.867188 193.050781 310.339844 182.691406 330.328125 170.324219 C 337.242188 166.054688 344.214844 161.53125 351.210938 156.785156 C 359.3125 151.289062 367.128906 145.699219 374.605469 140.082031 C 393.460938 125.902344 410.171875 111.507812 424.035156 97.738281 C 438.039062 83.824219 449.132812 70.554688 456.59375 58.78125 C 466.96875 42.4375 470.335938 28.996094 464.765625 20.789062 C 457.773438 10.492188 437.96875 10.214844 411.007812 18.089844 Z M 411.007812 18.089844 " fill-opacity="1" fill-rule="nonzero"/><path fill="#493931" d="M 204.558594 220.90625 C 193.695312 220.90625 186.121094 218.046875 182.289062 212.398438 C 175.015625 201.675781 182.171875 182.070312 202.433594 157.195312 C 211.203125 146.421875 222.109375 135.046875 234.847656 123.378906 C 248.785156 110.609375 264.457031 97.914062 281.429688 85.652344 C 286.234375 82.183594 291.144531 78.746094 296.023438 75.4375 C 301.96875 71.402344 308.085938 67.414062 314.199219 63.582031 C 332.074219 52.386719 349.773438 42.632812 366.808594 34.59375 C 382.699219 27.089844 397.507812 21.3125 410.8125 17.421875 L 411.304688 17.28125 L 411.308594 17.289062 C 424.84375 13.371094 436.316406 11.570312 445.40625 11.941406 C 455.082031 12.332031 461.785156 15.179688 465.332031 20.40625 C 470.886719 28.59375 468.066406 41.996094 457.171875 59.15625 C 449.632812 71.046875 438.648438 84.191406 424.515625 98.230469 C 410.269531 112.378906 393.617188 126.644531 375.015625 140.632812 C 367.402344 146.351562 359.523438 151.980469 351.59375 157.359375 C 344.613281 162.097656 337.578125 166.65625 330.691406 170.914062 C 311.019531 183.082031 291.683594 193.441406 273.207031 201.703125 C 255.230469 209.730469 239.03125 215.34375 225.054688 218.382812 C 217.300781 220.070312 210.445312 220.90625 204.558594 220.90625 Z M 410.710938 18.886719 C 397.59375 22.753906 383.027344 28.457031 367.394531 35.839844 C 350.410156 43.855469 332.757812 53.582031 314.929688 64.746094 C 308.828125 68.570312 302.726562 72.550781 296.792969 76.578125 C 291.925781 79.878906 287.027344 83.308594 282.234375 86.769531 C 265.304688 99 249.675781 111.65625 235.777344 124.394531 C 223.089844 136.015625 212.230469 147.34375 203.5 158.0625 C 183.65625 182.429688 176.527344 201.449219 183.429688 211.621094 C 188.996094 219.832031 203.289062 221.707031 224.757812 217.035156 C 238.640625 214.011719 254.753906 208.429688 272.644531 200.441406 C 291.058594 192.207031 310.34375 181.878906 329.960938 169.738281 C 336.835938 165.492188 343.851562 160.945312 350.820312 156.21875 C 358.730469 150.851562 366.589844 145.238281 374.1875 139.53125 C 392.742188 125.582031 409.34375 111.355469 423.542969 97.25 C 437.601562 83.285156 448.527344 70.21875 456.007812 58.417969 C 466.585938 41.753906 469.414062 28.878906 464.191406 21.179688 C 457.65625 11.542969 438.839844 10.683594 411.203125 18.753906 L 410.714844 18.894531 Z M 410.710938 18.886719 " fill-opacity="1" fill-rule="nonzero"/><path fill="#dfafdb" d="M 457.929688 10.707031 C 458.378906 11.367188 458.769531 12.066406 459.105469 12.804688 C 459.4375 13.542969 459.714844 14.316406 459.9375 15.125 C 460.15625 15.9375 460.320312 16.785156 460.425781 17.667969 C 460.527344 18.550781 460.578125 19.472656 460.566406 20.425781 C 460.554688 21.378906 460.488281 22.367188 460.363281 23.386719 C 460.238281 24.410156 460.054688 25.460938 459.8125 26.550781 C 459.574219 27.636719 459.273438 28.753906 458.921875 29.902344 C 458.566406 31.054688 458.152344 32.234375 457.683594 33.441406 C 457.214844 34.652344 456.691406 35.890625 456.109375 37.15625 C 455.53125 38.421875 454.894531 39.714844 454.203125 41.035156 C 453.511719 42.359375 452.761719 43.703125 451.960938 45.074219 C 451.160156 46.445312 450.304688 47.839844 449.398438 49.261719 C 448.488281 50.679688 447.527344 52.121094 446.511719 53.582031 C 445.5 55.046875 444.433594 56.53125 443.316406 58.035156 C 442.199219 59.539062 441.035156 61.058594 439.816406 62.601562 C 438.601562 64.140625 437.335938 65.699219 436.019531 67.273438 C 434.707031 68.84375 433.34375 70.433594 431.9375 72.039062 C 430.527344 73.640625 429.074219 75.257812 427.578125 76.886719 C 426.078125 78.515625 424.535156 80.15625 422.949219 81.804688 C 421.363281 83.457031 419.738281 85.117188 418.070312 86.785156 C 416.398438 88.453125 414.691406 90.128906 412.945312 91.808594 C 411.195312 93.492188 409.410156 95.179688 407.585938 96.871094 C 405.765625 98.5625 403.90625 100.253906 402.011719 101.953125 C 400.117188 103.648438 398.191406 105.347656 396.234375 107.046875 C 394.273438 108.746094 392.28125 110.441406 390.261719 112.136719 C 388.242188 113.835938 386.191406 115.527344 384.113281 117.214844 C 382.039062 118.90625 379.933594 120.589844 377.804688 122.265625 C 375.675781 123.945312 373.527344 125.617188 371.351562 127.28125 C 369.175781 128.945312 366.980469 130.597656 364.765625 132.242188 C 362.546875 133.886719 360.316406 135.523438 358.0625 137.144531 C 355.8125 138.765625 353.542969 140.375 351.261719 141.96875 C 348.980469 143.566406 346.6875 145.144531 344.378906 146.710938 C 342.074219 148.273438 339.757812 149.820312 337.429688 151.351562 C 335.105469 152.882812 332.773438 154.394531 330.433594 155.886719 C 328.09375 157.378906 325.75 158.851562 323.402344 160.300781 C 321.054688 161.753906 318.707031 163.179688 316.355469 164.585938 C 314.007812 165.992188 311.65625 167.375 309.3125 168.730469 C 306.964844 170.089844 304.621094 171.417969 302.285156 172.726562 C 299.949219 174.03125 297.617188 175.308594 295.292969 176.558594 C 292.972656 177.808594 290.660156 179.03125 288.355469 180.222656 C 286.054688 181.417969 283.761719 182.578125 281.484375 183.710938 C 279.210938 184.84375 276.949219 185.945312 274.703125 187.011719 C 272.457031 188.082031 270.230469 189.117188 268.019531 190.117188 C 265.8125 191.121094 263.621094 192.089844 261.457031 193.023438 C 259.289062 193.957031 257.144531 194.855469 255.023438 195.71875 C 252.90625 196.582031 250.8125 197.40625 248.742188 198.199219 C 246.675781 198.988281 244.636719 199.742188 242.628906 200.457031 C 240.617188 201.171875 238.636719 201.847656 236.691406 202.488281 C 234.742188 203.125 232.828125 203.726562 230.945312 204.289062 C 229.0625 204.847656 227.21875 205.371094 225.410156 205.851562 C 223.597656 206.332031 221.828125 206.773438 220.09375 207.175781 C 218.359375 207.578125 216.664062 207.9375 215.007812 208.257812 C 213.355469 208.578125 211.742188 208.855469 210.171875 209.09375 C 208.601562 209.332031 207.074219 209.527344 205.589844 209.683594 C 204.109375 209.835938 202.671875 209.949219 201.28125 210.019531 C 199.886719 210.09375 198.542969 210.121094 197.246094 210.109375 C 195.949219 210.097656 194.703125 210.042969 193.503906 209.949219 C 192.304688 209.855469 191.15625 209.71875 190.054688 209.539062 C 188.957031 209.359375 187.910156 209.140625 186.914062 208.878906 C 185.917969 208.621094 184.976562 208.316406 184.085938 207.972656 C 183.195312 207.632812 182.359375 207.246094 181.578125 206.824219 C 180.796875 206.398438 180.070312 205.933594 179.398438 205.429688 C 178.726562 204.925781 178.109375 204.382812 177.546875 203.796875 C 176.984375 203.214844 176.480469 202.59375 176.03125 201.933594 C 175.585938 201.269531 175.191406 200.570312 174.859375 199.835938 C 174.523438 199.097656 174.246094 198.324219 174.027344 197.511719 C 173.804688 196.703125 173.644531 195.855469 173.539062 194.96875 C 173.433594 194.085938 173.386719 193.167969 173.394531 192.214844 C 173.40625 191.261719 173.472656 190.273438 173.601562 189.253906 C 173.726562 188.230469 173.910156 187.175781 174.148438 186.089844 C 174.390625 185.003906 174.6875 183.886719 175.042969 182.734375 C 175.398438 181.585938 175.808594 180.40625 176.277344 179.195312 C 176.746094 177.988281 177.269531 176.75 177.851562 175.484375 C 178.433594 174.214844 179.070312 172.921875 179.761719 171.601562 C 180.453125 170.28125 181.199219 168.9375 182 167.5625 C 182.800781 166.191406 183.65625 164.796875 184.566406 163.378906 C 185.472656 161.960938 186.433594 160.519531 187.449219 159.054688 C 188.464844 157.59375 189.527344 156.109375 190.644531 154.605469 C 191.761719 153.101562 192.929688 151.578125 194.144531 150.039062 C 195.363281 148.5 196.628906 146.941406 197.941406 145.367188 C 199.257812 143.792969 200.617188 142.203125 202.023438 140.601562 C 203.433594 139 204.886719 137.382812 206.386719 135.753906 C 207.882812 134.125 209.425781 132.484375 211.011719 130.832031 C 212.597656 129.183594 214.222656 127.523438 215.894531 125.855469 C 217.5625 124.1875 219.269531 122.511719 221.019531 120.832031 C 222.765625 119.148438 224.550781 117.460938 226.375 115.769531 C 228.199219 114.078125 230.054688 112.382812 231.949219 110.6875 C 233.84375 108.988281 235.769531 107.292969 237.730469 105.59375 C 239.6875 103.894531 241.679688 102.195312 243.699219 100.5 C 245.722656 98.804688 247.769531 97.113281 249.847656 95.421875 C 251.925781 93.734375 254.027344 92.050781 256.15625 90.371094 C 258.285156 88.691406 260.4375 87.023438 262.609375 85.359375 C 264.785156 83.695312 266.980469 82.039062 269.199219 80.394531 C 271.414062 78.75 273.648438 77.117188 275.898438 75.496094 C 278.152344 73.875 280.417969 72.265625 282.699219 70.667969 C 284.980469 69.074219 287.277344 67.496094 289.582031 65.929688 C 291.890625 64.363281 294.207031 62.816406 296.53125 61.285156 C 298.855469 59.757812 301.191406 58.246094 303.53125 56.753906 C 305.871094 55.261719 308.210938 53.789062 310.558594 52.335938 C 312.90625 50.886719 315.257812 49.457031 317.605469 48.050781 C 319.957031 46.648438 322.304688 45.265625 324.652344 43.90625 C 326.996094 42.550781 329.339844 41.21875 331.675781 39.914062 C 334.015625 38.609375 336.34375 37.332031 338.667969 36.078125 C 340.992188 34.828125 343.304688 33.609375 345.605469 32.414062 C 347.910156 31.222656 350.199219 30.058594 352.476562 28.929688 C 354.753906 27.796875 357.015625 26.695312 359.261719 25.628906 C 361.507812 24.558594 363.734375 23.523438 365.941406 22.519531 C 368.152344 21.519531 370.339844 20.550781 372.507812 19.617188 C 374.671875 18.683594 376.816406 17.785156 378.9375 16.921875 C 381.058594 16.058594 383.152344 15.230469 385.21875 14.441406 C 387.285156 13.652344 389.324219 12.898438 391.335938 12.183594 C 393.34375 11.46875 395.324219 10.789062 397.273438 10.152344 C 399.222656 9.511719 401.136719 8.914062 403.015625 8.351562 C 404.898438 7.789062 406.742188 7.269531 408.554688 6.789062 C 410.363281 6.304688 412.136719 5.863281 413.871094 5.460938 C 415.605469 5.0625 417.300781 4.699219 418.953125 4.382812 C 420.609375 4.0625 422.21875 3.78125 423.789062 3.546875 C 425.359375 3.308594 426.886719 3.113281 428.371094 2.957031 C 429.851562 2.804688 431.289062 2.691406 432.683594 2.617188 C 434.074219 2.546875 435.417969 2.515625 436.714844 2.527344 C 438.011719 2.539062 439.261719 2.59375 440.460938 2.691406 C 441.660156 2.785156 442.808594 2.921875 443.90625 3.101562 C 445.003906 3.277344 446.050781 3.496094 447.046875 3.757812 C 448.042969 4.019531 448.984375 4.320312 449.875 4.664062 C 450.765625 5.007812 451.601562 5.390625 452.382812 5.816406 C 453.164062 6.238281 453.894531 6.703125 454.566406 7.207031 C 455.238281 7.714844 455.855469 8.257812 456.414062 8.839844 C 456.976562 9.425781 457.480469 10.046875 457.929688 10.707031 Z M 457.929688 10.707031 " fill-opacity="1" fill-rule="nonzero"/><path fill="#493931" d="M 197.761719 210.84375 C 186.917969 210.84375 179.304688 208.003906 175.453125 202.328125 C 167.949219 191.261719 175.742188 170.875 197.402344 144.933594 C 218.890625 119.199219 251.488281 90.941406 289.1875 65.367188 C 326.890625 39.792969 365.195312 19.957031 397.050781 9.507812 C 429.167969 -1.027344 450.988281 -0.734375 458.496094 10.332031 C 466 21.398438 458.203125 41.78125 436.542969 67.726562 C 415.058594 93.460938 382.460938 121.71875 344.757812 147.292969 C 307.058594 172.867188 268.753906 192.703125 236.894531 203.152344 C 221.257812 208.28125 208.054688 210.84375 197.761719 210.84375 Z M 436.222656 3.199219 C 436.207031 3.199219 436.199219 3.199219 436.1875 3.199219 C 425.898438 3.207031 412.878906 5.769531 397.484375 10.816406 C 365.746094 21.226562 327.5625 41.003906 289.964844 66.507812 C 252.363281 92.011719 219.871094 120.175781 198.464844 145.816406 C 188.082031 158.25 180.886719 169.402344 177.074219 178.960938 C 173.195312 188.699219 173.03125 196.300781 176.59375 201.550781 C 180.152344 206.796875 187.265625 209.457031 197.730469 209.457031 C 197.742188 209.457031 197.75 209.457031 197.765625 209.457031 C 208.054688 209.453125 221.074219 206.890625 236.464844 201.839844 C 268.203125 191.429688 306.386719 171.652344 343.988281 146.148438 C 381.585938 120.644531 414.078125 92.480469 435.488281 66.84375 C 445.867188 54.410156 453.066406 43.257812 456.875 33.699219 C 460.757812 23.960938 460.917969 16.359375 457.359375 11.105469 C 453.800781 5.859375 446.6875 3.199219 436.222656 3.199219 Z M 436.222656 3.199219 " fill-opacity="1" fill-rule="nonzero"/><path fill="#fae8e0" d="M 339.75 122.628906 C 340.273438 123.394531 340.75 124.179688 341.183594 124.984375 C 341.617188 125.789062 342 126.597656 342.328125 127.40625 C 342.660156 128.214844 342.933594 129.015625 343.148438 129.800781 C 343.359375 130.585938 343.515625 131.34375 343.605469 132.074219 C 343.695312 132.804688 343.722656 133.492188 343.683594 134.140625 C 343.648438 134.789062 343.546875 135.382812 343.382812 135.921875 C 343.21875 136.460938 342.996094 136.933594 342.714844 137.34375 C 342.429688 137.753906 342.09375 138.09375 341.699219 138.359375 C 341.308594 138.625 340.871094 138.816406 340.382812 138.925781 C 339.898438 139.039062 339.375 139.070312 338.8125 139.023438 C 338.25 138.972656 337.660156 138.847656 337.046875 138.644531 C 336.429688 138.4375 335.800781 138.160156 335.15625 137.804688 C 334.511719 137.449219 333.863281 137.027344 333.210938 136.539062 C 332.5625 136.050781 331.921875 135.5 331.289062 134.894531 C 330.660156 134.289062 330.050781 133.632812 329.464844 132.933594 C 328.878906 132.234375 328.324219 131.5 327.804688 130.734375 C 327.285156 129.964844 326.808594 129.179688 326.371094 128.375 C 325.9375 127.570312 325.558594 126.765625 325.226562 125.953125 C 324.894531 125.144531 324.625 124.347656 324.410156 123.5625 C 324.195312 122.773438 324.042969 122.015625 323.949219 121.285156 C 323.859375 120.554688 323.832031 119.867188 323.871094 119.21875 C 323.910156 118.574219 324.007812 117.980469 324.171875 117.441406 C 324.335938 116.902344 324.558594 116.425781 324.839844 116.015625 C 325.125 115.605469 325.460938 115.265625 325.855469 115 C 326.246094 114.734375 326.6875 114.546875 327.171875 114.433594 C 327.660156 114.324219 328.183594 114.292969 328.742188 114.339844 C 329.304688 114.386719 329.894531 114.511719 330.507812 114.71875 C 331.125 114.921875 331.753906 115.203125 332.398438 115.554688 C 333.042969 115.910156 333.691406 116.332031 334.34375 116.820312 C 334.992188 117.3125 335.632812 117.859375 336.265625 118.464844 C 336.894531 119.074219 337.503906 119.726562 338.089844 120.425781 C 338.679688 121.128906 339.230469 121.859375 339.75 122.628906 Z M 339.75 122.628906 " fill-opacity="1" fill-rule="nonzero"/><path fill="#493931" d="M 339.289062 139.75 C 335.625 139.75 330.859375 136.484375 327.226562 131.132812 C 325.050781 127.921875 323.640625 124.460938 323.261719 121.382812 C 322.859375 118.140625 323.640625 115.675781 325.460938 114.441406 C 327.28125 113.207031 329.863281 113.390625 332.726562 114.960938 C 335.445312 116.453125 338.140625 119.042969 340.316406 122.25 C 342.492188 125.460938 343.902344 128.921875 344.285156 132 C 344.683594 135.242188 343.902344 137.707031 342.082031 138.941406 C 341.273438 139.488281 340.324219 139.75 339.289062 139.75 Z M 328.253906 115.007812 C 327.480469 115.007812 326.800781 115.199219 326.234375 115.582031 C 324.863281 116.511719 324.292969 118.507812 324.628906 121.210938 C 324.980469 124.078125 326.308594 127.324219 328.367188 130.355469 C 332.453125 136.375 338.375 139.785156 341.308594 137.796875 C 342.679688 136.867188 343.25 134.867188 342.914062 132.167969 C 342.558594 129.300781 341.234375 126.054688 339.175781 123.023438 C 337.117188 119.992188 334.59375 117.558594 332.0625 116.167969 C 330.65625 115.398438 329.363281 115.007812 328.253906 115.007812 Z M 328.253906 115.007812 " fill-opacity="1" fill-rule="nonzero"/><path fill="#fae8e0" d="M 276.074219 158.625 C 276.074219 159.648438 276.027344 160.660156 275.929688 161.660156 C 275.835938 162.660156 275.695312 163.632812 275.507812 164.578125 C 275.320312 165.519531 275.089844 166.414062 274.816406 167.265625 C 274.542969 168.113281 274.234375 168.898438 273.890625 169.621094 C 273.542969 170.34375 273.164062 170.988281 272.757812 171.554688 C 272.351562 172.121094 271.921875 172.601562 271.46875 172.992188 C 271.015625 173.382812 270.546875 173.675781 270.066406 173.875 C 269.585938 174.074219 269.101562 174.175781 268.613281 174.175781 C 268.121094 174.175781 267.636719 174.074219 267.15625 173.875 C 266.675781 173.675781 266.210938 173.382812 265.757812 172.992188 C 265.304688 172.601562 264.875 172.121094 264.464844 171.554688 C 264.058594 170.988281 263.683594 170.34375 263.335938 169.621094 C 262.988281 168.898438 262.679688 168.113281 262.40625 167.265625 C 262.136719 166.414062 261.90625 165.519531 261.71875 164.578125 C 261.53125 163.632812 261.386719 162.660156 261.292969 161.660156 C 261.199219 160.660156 261.148438 159.648438 261.148438 158.625 C 261.148438 157.605469 261.199219 156.59375 261.292969 155.59375 C 261.390625 154.59375 261.53125 153.621094 261.71875 152.675781 C 261.90625 151.734375 262.136719 150.835938 262.40625 149.988281 C 262.679688 149.140625 262.988281 148.355469 263.335938 147.632812 C 263.683594 146.910156 264.058594 146.265625 264.464844 145.699219 C 264.875 145.132812 265.304688 144.652344 265.757812 144.261719 C 266.210938 143.871094 266.675781 143.578125 267.15625 143.378906 C 267.636719 143.179688 268.121094 143.078125 268.613281 143.078125 C 269.101562 143.078125 269.585938 143.179688 270.066406 143.378906 C 270.546875 143.578125 271.015625 143.871094 271.46875 144.261719 C 271.921875 144.652344 272.351562 145.132812 272.757812 145.699219 C 273.164062 146.265625 273.542969 146.910156 273.890625 147.632812 C 274.234375 148.355469 274.542969 149.140625 274.816406 149.988281 C 275.089844 150.835938 275.320312 151.734375 275.507812 152.675781 C 275.695312 153.621094 275.835938 154.59375 275.929688 155.59375 C 276.027344 156.59375 276.074219 157.605469 276.074219 158.625 Z M 276.074219 158.625 " fill-opacity="1" fill-rule="nonzero"/><path fill="#493931" d="M 268.613281 174.863281 C 268.441406 174.863281 268.273438 174.855469 268.101562 174.832031 C 263.574219 174.289062 260.222656 166.765625 260.476562 157.710938 C 260.648438 151.511719 262.503906 146.15625 265.316406 143.730469 C 266.496094 142.714844 267.816406 142.261719 269.128906 142.421875 C 273.65625 142.964844 277.007812 150.488281 276.753906 159.542969 L 276.066406 159.523438 L 276.753906 159.542969 C 276.582031 165.742188 274.726562 171.097656 271.914062 173.523438 C 270.890625 174.410156 269.757812 174.863281 268.613281 174.863281 Z M 268.605469 143.765625 C 267.792969 143.765625 266.992188 144.105469 266.214844 144.773438 C 263.722656 146.921875 262.011719 152.015625 261.851562 157.746094 C 261.628906 165.820312 264.5625 173.015625 268.265625 173.464844 C 269.199219 173.574219 270.125 173.246094 271.011719 172.480469 C 273.503906 170.332031 275.214844 165.238281 275.375 159.507812 C 275.597656 151.433594 272.664062 144.234375 268.960938 143.789062 C 268.84375 143.777344 268.726562 143.765625 268.605469 143.765625 Z M 268.605469 143.765625 " fill-opacity="1" fill-rule="nonzero"/><path fill="#fae8e0" d="M 226.605469 150.773438 C 227.054688 151.019531 227.4375 151.375 227.757812 151.832031 C 228.082031 152.289062 228.332031 152.839844 228.515625 153.488281 C 228.695312 154.136719 228.804688 154.867188 228.839844 155.679688 C 228.878906 156.496094 228.839844 157.378906 228.726562 158.328125 C 228.617188 159.277344 228.433594 160.273438 228.179688 161.320312 C 227.921875 162.371094 227.601562 163.445312 227.214844 164.550781 C 226.824219 165.660156 226.378906 166.773438 225.871094 167.894531 C 225.363281 169.015625 224.808594 170.125 224.203125 171.21875 C 223.59375 172.3125 222.953125 173.371094 222.269531 174.398438 C 221.589844 175.421875 220.882812 176.390625 220.148438 177.308594 C 219.417969 178.226562 218.675781 179.070312 217.925781 179.839844 C 217.171875 180.613281 216.421875 181.296875 215.675781 181.894531 C 214.933594 182.496094 214.203125 182.996094 213.496094 183.398438 C 212.785156 183.796875 212.109375 184.09375 211.460938 184.285156 C 210.816406 184.472656 210.214844 184.554688 209.65625 184.523438 C 209.101562 184.492188 208.597656 184.355469 208.148438 184.105469 C 207.699219 183.859375 207.316406 183.503906 206.996094 183.046875 C 206.671875 182.589844 206.421875 182.039062 206.238281 181.390625 C 206.058594 180.742188 205.949219 180.011719 205.914062 179.199219 C 205.875 178.382812 205.914062 177.5 206.027344 176.550781 C 206.136719 175.601562 206.320312 174.605469 206.578125 173.558594 C 206.832031 172.507812 207.152344 171.433594 207.542969 170.328125 C 207.929688 169.21875 208.378906 168.105469 208.882812 166.984375 C 209.390625 165.863281 209.945312 164.753906 210.554688 163.660156 C 211.160156 162.566406 211.804688 161.507812 212.484375 160.480469 C 213.167969 159.457031 213.871094 158.488281 214.605469 157.570312 C 215.335938 156.65625 216.078125 155.808594 216.832031 155.039062 C 217.582031 154.265625 218.332031 153.582031 219.078125 152.984375 C 219.824219 152.382812 220.550781 151.882812 221.257812 151.484375 C 221.96875 151.082031 222.644531 150.785156 223.292969 150.597656 C 223.9375 150.40625 224.539062 150.328125 225.097656 150.355469 C 225.65625 150.386719 226.15625 150.523438 226.605469 150.773438 Z M 226.605469 150.773438 " fill-opacity="1" fill-rule="nonzero"/><path fill="#493931" d="M 209.890625 185.210938 C 209.011719 185.210938 208.226562 184.984375 207.542969 184.523438 C 203.597656 181.878906 204.804688 172.304688 210.292969 162.730469 C 214.234375 155.839844 219.425781 150.769531 223.515625 149.808594 C 224.960938 149.472656 226.214844 149.644531 227.230469 150.328125 C 231.175781 152.972656 229.96875 162.546875 224.484375 172.125 C 220.539062 179.015625 215.347656 184.085938 211.257812 185.042969 C 210.78125 185.15625 210.324219 185.210938 209.890625 185.210938 Z M 224.871094 151.023438 C 224.546875 151.023438 224.199219 151.066406 223.828125 151.152344 C 220.148438 152.015625 215.191406 156.941406 211.484375 163.414062 C 206.53125 172.070312 205.074219 181.214844 208.308594 183.382812 C 208.996094 183.84375 209.882812 183.953125 210.941406 183.703125 C 214.621094 182.839844 219.582031 177.914062 223.289062 171.441406 C 228.242188 162.785156 229.695312 153.640625 226.460938 151.472656 C 226.011719 151.171875 225.480469 151.023438 224.871094 151.023438 Z M 224.871094 151.023438 " fill-opacity="1" fill-rule="nonzero"/><path fill="#fae8e0" d="M 389.902344 70.429688 C 390.851562 70.808594 391.773438 71.226562 392.667969 71.683594 C 393.5625 72.144531 394.414062 72.636719 395.222656 73.15625 C 396.027344 73.679688 396.777344 74.226562 397.464844 74.792969 C 398.152344 75.359375 398.765625 75.9375 399.308594 76.527344 C 399.851562 77.113281 400.3125 77.703125 400.6875 78.292969 C 401.066406 78.878906 401.351562 79.457031 401.546875 80.023438 C 401.742188 80.585938 401.84375 81.128906 401.851562 81.648438 C 401.859375 82.171875 401.769531 82.65625 401.589844 83.113281 C 401.410156 83.566406 401.136719 83.980469 400.773438 84.355469 C 400.410156 84.726562 399.964844 85.050781 399.433594 85.328125 C 398.902344 85.605469 398.300781 85.828125 397.621094 85.996094 C 396.945312 86.164062 396.207031 86.277344 395.40625 86.332031 C 394.609375 86.386719 393.765625 86.382812 392.875 86.324219 C 391.984375 86.261719 391.070312 86.144531 390.121094 85.96875 C 389.175781 85.792969 388.222656 85.566406 387.257812 85.285156 C 386.289062 85.003906 385.332031 84.675781 384.382812 84.296875 C 383.4375 83.917969 382.515625 83.5 381.621094 83.042969 C 380.722656 82.582031 379.875 82.09375 379.066406 81.570312 C 378.257812 81.046875 377.511719 80.5 376.824219 79.933594 C 376.136719 79.367188 375.519531 78.789062 374.976562 78.199219 C 374.4375 77.613281 373.976562 77.023438 373.601562 76.433594 C 373.222656 75.847656 372.9375 75.269531 372.742188 74.703125 C 372.546875 74.140625 372.445312 73.597656 372.4375 73.078125 C 372.429688 72.558594 372.515625 72.070312 372.699219 71.613281 C 372.878906 71.160156 373.152344 70.746094 373.515625 70.371094 C 373.878906 70 374.324219 69.675781 374.855469 69.398438 C 375.382812 69.121094 375.988281 68.898438 376.667969 68.730469 C 377.34375 68.5625 378.082031 68.449219 378.882812 68.394531 C 379.679688 68.339844 380.523438 68.34375 381.414062 68.40625 C 382.300781 68.464844 383.21875 68.582031 384.164062 68.757812 C 385.109375 68.933594 386.066406 69.160156 387.03125 69.441406 C 388 69.722656 388.957031 70.050781 389.902344 70.429688 Z M 389.902344 70.429688 " fill-opacity="1" fill-rule="nonzero"/><path fill="#493931" d="M 394.226562 87.050781 C 391.453125 87.050781 388.242188 86.441406 384.980469 85.25 C 376.472656 82.132812 370.722656 76.242188 371.886719 71.832031 C 372.226562 70.550781 373.136719 69.492188 374.515625 68.773438 C 377.808594 67.058594 383.472656 67.3125 389.292969 69.445312 C 397.800781 72.558594 403.550781 78.453125 402.386719 82.859375 C 402.046875 84.140625 401.136719 85.199219 399.757812 85.917969 C 398.308594 86.675781 396.40625 87.050781 394.226562 87.050781 Z M 385.457031 83.957031 C 390.84375 85.929688 396.207031 86.222656 399.125 84.699219 C 400.164062 84.15625 400.8125 83.421875 401.054688 82.511719 C 402.007812 78.90625 396.40625 73.515625 388.820312 70.742188 C 383.4375 68.769531 378.070312 68.476562 375.15625 69.996094 C 374.113281 70.539062 373.464844 71.277344 373.222656 72.1875 C 372.269531 75.789062 377.871094 81.179688 385.457031 83.957031 Z M 385.457031 83.957031 " fill-opacity="1" fill-rule="nonzero"/><path fill="#fae8e0" d="M 433.152344 30.589844 C 433.214844 31.097656 433.160156 31.617188 432.980469 32.144531 C 432.804688 32.675781 432.507812 33.203125 432.089844 33.734375 C 431.675781 34.265625 431.152344 34.785156 430.515625 35.296875 C 429.878906 35.804688 429.148438 36.296875 428.316406 36.769531 C 427.484375 37.238281 426.570312 37.679688 425.574219 38.09375 C 424.578125 38.507812 423.519531 38.886719 422.398438 39.226562 C 421.277344 39.566406 420.113281 39.867188 418.910156 40.121094 C 417.707031 40.375 416.484375 40.582031 415.242188 40.738281 C 414 40.898438 412.765625 41.003906 411.535156 41.0625 C 410.304688 41.117188 409.105469 41.121094 407.933594 41.074219 C 406.761719 41.023438 405.644531 40.925781 404.578125 40.773438 C 403.507812 40.625 402.511719 40.425781 401.589844 40.179688 C 400.667969 39.929688 399.832031 39.640625 399.089844 39.304688 C 398.347656 38.972656 397.707031 38.601562 397.171875 38.191406 C 396.636719 37.78125 396.21875 37.34375 395.914062 36.875 C 395.605469 36.410156 395.421875 35.921875 395.355469 35.414062 C 395.292969 34.90625 395.347656 34.386719 395.527344 33.859375 C 395.707031 33.328125 396.003906 32.800781 396.417969 32.269531 C 396.832031 31.738281 397.359375 31.21875 397.992188 30.707031 C 398.628906 30.199219 399.363281 29.707031 400.195312 29.234375 C 401.023438 28.765625 401.9375 28.320312 402.933594 27.90625 C 403.929688 27.492188 404.988281 27.117188 406.109375 26.777344 C 407.230469 26.433594 408.394531 26.136719 409.597656 25.882812 C 410.804688 25.628906 412.027344 25.421875 413.265625 25.265625 C 414.507812 25.105469 415.742188 25 416.972656 24.941406 C 418.203125 24.886719 419.402344 24.882812 420.574219 24.929688 C 421.746094 24.976562 422.863281 25.078125 423.933594 25.226562 C 425 25.378906 425.996094 25.578125 426.917969 25.824219 C 427.84375 26.074219 428.675781 26.363281 429.417969 26.699219 C 430.160156 27.03125 430.800781 27.402344 431.335938 27.8125 C 431.871094 28.222656 432.289062 28.660156 432.597656 29.125 C 432.902344 29.59375 433.085938 30.082031 433.152344 30.589844 Z M 433.152344 30.589844 " fill-opacity="1" fill-rule="nonzero"/><path fill="#493931" d="M 409.542969 41.804688 C 401.589844 41.804688 395.523438 39.519531 394.726562 35.828125 C 394.46875 34.628906 394.769531 33.402344 395.617188 32.183594 C 398.019531 28.738281 404.652344 25.789062 412.511719 24.671875 C 423.441406 23.121094 432.78125 25.539062 433.78125 30.183594 C 434.039062 31.382812 433.738281 32.609375 432.890625 33.828125 C 430.488281 37.273438 423.855469 40.222656 415.996094 41.339844 C 413.757812 41.65625 411.589844 41.804688 409.542969 41.804688 Z M 418.902344 25.59375 C 416.925781 25.59375 414.839844 25.734375 412.707031 26.039062 C 405.324219 27.089844 398.914062 29.875 396.75 32.976562 C 396.128906 33.867188 395.902344 34.730469 396.078125 35.542969 C 396.894531 39.347656 405.929688 41.378906 415.804688 39.972656 C 423.1875 38.921875 429.601562 36.136719 431.761719 33.039062 C 432.382812 32.148438 432.613281 31.28125 432.433594 30.472656 C 431.789062 27.484375 426.09375 25.59375 418.902344 25.59375 Z M 418.902344 25.59375 " fill-opacity="1" fill-rule="nonzero"/><path fill="#ffd18c" d="M 238.152344 136.039062 C 238.152344 136.039062 334.949219 133.835938 373.832031 44.234375 C 373.832031 44.234375 328.914062 -9.292969 264.878906 32.3125 C 200.847656 73.914062 238.152344 136.039062 238.152344 136.039062 Z M 238.152344 136.039062 " fill-opacity="1" fill-rule="nonzero"/><path fill="#493931" d="M 237.769531 136.738281 L 237.566406 136.394531 C 237.472656 136.238281 228.136719 120.484375 226.820312 99.824219 C 226.042969 87.671875 228.148438 76.214844 233.070312 65.78125 C 239.214844 52.753906 249.792969 41.300781 264.507812 31.738281 C 279.214844 22.183594 294.144531 16.867188 308.875 15.941406 C 320.675781 15.195312 332.375 17.25 343.640625 22.042969 C 362.804688 30.195312 374.246094 43.664062 374.359375 43.796875 L 374.632812 44.125 L 374.464844 44.515625 C 365.554688 65.046875 352.84375 82.671875 336.683594 96.902344 C 323.757812 108.28125 308.613281 117.527344 291.671875 124.378906 C 262.828125 136.042969 238.414062 136.722656 238.171875 136.730469 Z M 313.660156 17.234375 C 299.636719 17.234375 283.226562 21.214844 265.257812 32.890625 C 232.480469 54.1875 227.011719 80.96875 228.191406 99.683594 C 229.367188 118.332031 237.183594 132.925781 238.546875 135.335938 C 241.835938 135.195312 264.613281 133.84375 291.203125 123.082031 C 317.503906 112.433594 353.007812 90.144531 373.027344 44.359375 C 371.179688 42.285156 360.289062 30.605469 343.046875 23.285156 C 335.1875 19.949219 325.234375 17.234375 313.660156 17.234375 Z M 313.660156 17.234375 " fill-opacity="1" fill-rule="nonzero"/><path fill="#493931" d="M 236.074219 93.277344 C 236.046875 93.277344 236.019531 93.273438 235.992188 93.269531 C 235.613281 93.226562 235.34375 92.886719 235.386719 92.507812 C 236.679688 81.132812 240.613281 70.304688 246.769531 61.191406 C 246.984375 60.875 247.414062 60.792969 247.726562 61.007812 C 248.042969 61.21875 248.125 61.648438 247.914062 61.964844 C 241.882812 70.894531 238.023438 81.507812 236.757812 92.664062 C 236.71875 93.015625 236.417969 93.277344 236.074219 93.277344 Z M 236.074219 93.277344 " fill-opacity="1" fill-rule="nonzero"/><path fill="#493931" d="M 243.867188 110.949219 C 243.5625 110.949219 243.285156 110.746094 243.203125 110.4375 C 241.253906 103.269531 241.414062 95.628906 243.660156 88.925781 C 243.777344 88.566406 244.171875 88.371094 244.53125 88.492188 C 244.890625 88.613281 245.085938 89.003906 244.964844 89.363281 C 242.804688 95.8125 242.652344 103.164062 244.53125 110.074219 C 244.632812 110.441406 244.417969 110.820312 244.050781 110.917969 C 243.988281 110.941406 243.929688 110.949219 243.867188 110.949219 Z M 243.867188 110.949219 " fill-opacity="1" fill-rule="nonzero"/></svg>