<svg xmlns="http://www.w3.org/2000/svg" xmlns:xlink="http://www.w3.org/1999/xlink" width="1366" zoomAndPan="magnify" viewBox="0 0 1024.5 576" height="768" preserveAspectRatio="xMidYMid meet" version="1.0"><defs><clipPath id="ea5bf5a932"><path d="M 262 134 L 733 134 L 733 555 L 262 555 Z M 262 134 " clip-rule="nonzero"/></clipPath><clipPath id="a063c4d179"><path d="M 226.21875 249.574219 L 649.082031 103.398438 L 797.785156 533.574219 L 374.925781 679.75 Z M 226.21875 249.574219 " clip-rule="nonzero"/></clipPath><clipPath id="a70b06e25c"><path d="M 226.21875 249.574219 L 649.082031 103.398438 L 797.785156 533.574219 L 374.925781 679.75 Z M 226.21875 249.574219 " clip-rule="nonzero"/></clipPath><clipPath id="76608d179b"><path d="M 262 129 L 734 129 L 734 556 L 262 556 Z M 262 129 " clip-rule="nonzero"/></clipPath><clipPath id="f33c48c408"><path d="M 226.21875 249.574219 L 649.082031 103.398438 L 797.785156 533.574219 L 374.925781 679.75 Z M 226.21875 249.574219 " clip-rule="nonzero"/></clipPath><clipPath id="14dc0fae65"><path d="M 226.21875 249.574219 L 649.082031 103.398438 L 797.785156 533.574219 L 374.925781 679.75 Z M 226.21875 249.574219 " clip-rule="nonzero"/></clipPath><clipPath id="5072c13fca"><path d="M 331.28125 191 L 396 191 L 396 262 L 331.28125 262 Z M 331.28125 191 " clip-rule="nonzero"/></clipPath><clipPath id="899875d573"><path d="M 331.28125 259 L 397 259 L 397 330 L 331.28125 330 Z M 331.28125 259 " clip-rule="nonzero"/></clipPath><clipPath id="a595a988e0"><path d="M 484 25.59375 L 495 25.59375 L 495 100 L 484 100 Z M 484 25.59375 " clip-rule="nonzero"/></clipPath><clipPath id="ffbd23f287"><path d="M 627 231 L 665.679688 231 L 665.679688 287 L 627 287 Z M 627 231 " clip-rule="nonzero"/></clipPath><clipPath id="8fa51e859d"><path d="M 375 375 L 422 375 L 422 440.496094 L 375 440.496094 Z M 375 375 " clip-rule="nonzero"/></clipPath></defs><g clip-path="url(#ea5bf5a932)"><g clip-path="url(#a063c4d179)"><g clip-path="url(#a70b06e25c)"><path fill="#fae8e0" d="M 316.71875 291.761719 C 316.71875 291.761719 517.277344 394.21875 545.121094 264.238281 L 572.960938 134.257812 C 572.960938 134.257812 602.136719 299.65625 659.632812 304 L 717.113281 308.347656 C 717.113281 308.347656 593.242188 379.15625 662.828125 467.066406 L 732.402344 554.972656 C 732.402344 554.972656 579.882812 380.976562 514.65625 459.507812 L 449.433594 538.03125 C 449.433594 538.03125 491.308594 417.195312 385.980469 411.617188 L 280.652344 406.042969 C 280.652344 406.042969 391.605469 404.078125 371.292969 369.113281 C 350.980469 334.148438 262.683594 256.910156 262.683594 256.910156 C 262.683594 256.910156 285.378906 277.957031 316.71875 291.761719 Z M 316.71875 291.761719 " fill-opacity="1" fill-rule="nonzero"/></g></g></g><g clip-path="url(#76608d179b)"><g clip-path="url(#f33c48c408)"><g clip-path="url(#14dc0fae65)"><path fill="#fd6d2f" d="M 731.75 555.542969 C 731.496094 555.25 705.792969 526.046875 671.53125 497.347656 C 651.429688 480.503906 632.363281 467.128906 614.855469 457.589844 C 593.042969 445.710938 573.628906 439.792969 557.164062 440.011719 C 540.25 440.238281 526.171875 446.980469 515.3125 460.054688 L 447.082031 542.210938 L 448.621094 537.746094 C 448.675781 537.597656 453.867188 522.4375 455.941406 502.941406 C 457.152344 491.511719 457.074219 480.851562 455.691406 471.253906 C 453.976562 459.300781 450.238281 448.980469 444.582031 440.574219 C 433.011719 423.378906 413.277344 413.921875 385.9375 412.46875 L 280.605469 406.898438 L 280.636719 405.1875 C 281.421875 405.175781 359.675781 403.542969 371.464844 382.621094 C 373.679688 378.695312 373.378906 374.417969 370.542969 369.546875 C 352.273438 338.113281 277.765625 271.40625 264.230469 259.417969 C 262.878906 258.25 262.140625 257.574219 262.101562 257.539062 L 263.25 256.261719 C 263.289062 256.300781 264.058594 256.972656 265.425781 258.1875 C 271.8125 263.671875 291.699219 279.800781 317.0625 290.980469 L 317.105469 291 C 317.40625 291.148438 347.390625 306.371094 385.1875 317.492188 C 407.371094 324.023438 427.84375 327.867188 446.070312 328.949219 C 464.789062 330.0625 481.164062 328.222656 494.871094 323.484375 C 497.726562 322.503906 500.515625 321.363281 503.246094 320.070312 C 524.707031 309.867188 538.519531 291.023438 544.292969 264.054688 L 573.042969 129.785156 L 573.808594 134.105469 C 573.878906 134.519531 581.257812 175.882812 595.554688 217.234375 C 603.9375 241.484375 613.023438 260.976562 622.539062 275.175781 C 634.363281 292.761719 646.847656 302.175781 659.683594 303.15625 L 719.957031 307.71875 L 717.527344 309.109375 C 717.371094 309.199219 701.425781 318.382812 684.445312 333.910156 C 674.488281 343.015625 666.125 352.492188 659.59375 362.070312 C 651.449219 374.015625 646.148438 386.152344 643.828125 398.152344 C 639.335938 421.382812 645.949219 444.398438 663.480469 466.550781 L 733.058594 554.460938 Z M 538.757812 441.394531 C 544.71875 439.371094 550.847656 438.339844 557.144531 438.300781 C 573.914062 438.074219 593.605469 444.0625 615.6875 456.089844 C 633.296875 465.683594 652.460938 479.128906 672.652344 496.046875 C 691.53125 511.863281 707.828125 527.832031 718.703125 539.058594 L 662.148438 467.597656 C 644.292969 445.046875 637.5625 421.550781 642.152344 397.804688 C 644.519531 385.570312 649.917969 373.214844 658.203125 361.070312 C 664.828125 351.371094 673.265625 341.800781 683.328125 332.605469 C 692.972656 323.8125 703.320312 315.941406 714.375 309 L 659.566406 304.851562 C 646.183594 303.839844 633.25 294.171875 621.125 276.113281 C 611.511719 261.789062 602.359375 242.160156 593.929688 217.769531 C 582.246094 183.96875 575.171875 150.175781 572.90625 138.585938 L 545.953125 264.410156 C 540.042969 291.929688 525.929688 311.171875 503.960938 321.617188 C 488.476562 328.980469 468.957031 332.019531 445.941406 330.652344 C 427.585938 329.5625 406.96875 325.683594 384.667969 319.121094 C 347.171875 308.09375 317.324219 293.03125 316.359375 292.535156 C 302.9375 286.621094 291.035156 279.328125 281.828125 272.9375 C 289.828125 280.242188 299.703125 289.40625 309.980469 299.277344 C 342.675781 330.765625 363.558594 354.117188 372.027344 368.683594 C 375.148438 374.054688 375.460938 379.023438 372.964844 383.476562 C 367.777344 392.675781 350.628906 399.414062 322 403.515625 C 313.105469 404.773438 304.4375 405.589844 297.347656 406.09375 L 386.027344 410.761719 C 413.941406 412.238281 434.121094 421.953125 446.007812 439.613281 C 451.8125 448.242188 455.640625 458.8125 457.390625 471.03125 C 458.785156 480.773438 458.867188 491.582031 457.636719 503.15625 C 456.488281 513.664062 454.453125 523.996094 451.523438 534.15625 L 513.992188 458.945312 C 520.984375 450.542969 529.277344 444.671875 538.757812 441.394531 Z M 538.757812 441.394531 " fill-opacity="1" fill-rule="nonzero"/></g></g></g><path fill="#fd6d2f" d="M 536.15625 332.128906 C 530.46875 364.992188 521.039062 391.085938 509.554688 405.3125 C 509.554688 405.3125 509.558594 405.3125 509.558594 405.3125 C 516.964844 405.023438 524.363281 404.566406 531.75 403.929688 C 554.546875 388.894531 573.101562 362.054688 583.980469 328.566406 C 568.082031 330.1875 552.128906 331.367188 536.15625 332.128906 Z M 536.15625 332.128906 " fill-opacity="1" fill-rule="nonzero"/><path fill="#493931" d="M 507.660156 406.523438 L 509 404.867188 C 520.363281 390.78125 529.757812 364.90625 535.449219 332.007812 L 535.550781 331.414062 L 536.136719 331.414062 C 552.171875 330.648438 568.242188 329.453125 583.90625 327.855469 L 584.996094 327.746094 L 584.65625 328.789062 C 573.699219 362.519531 555.046875 389.417969 532.140625 404.527344 L 532.0625 404.578125 L 531.863281 404.644531 L 531.777344 404.644531 C 524.464844 405.269531 517.023438 405.734375 509.65625 406.023438 Z M 536.761719 332.816406 C 531.179688 364.757812 522.089844 390.113281 511.070312 404.539062 C 517.886719 404.25 524.753906 403.8125 531.507812 403.238281 C 553.839844 388.441406 572.082031 362.25 582.957031 329.390625 C 567.796875 330.914062 552.265625 332.066406 536.761719 332.816406 Z M 536.761719 332.816406 " fill-opacity="1" fill-rule="nonzero"/><path fill="#fd6d2f" d="M 489.523438 333.1875 C 489.523438 365.835938 489.523438 391.6875 489.523438 405.683594 C 496.203125 405.699219 502.882812 405.574219 509.554688 405.3125 C 521.039062 391.085938 530.46875 364.992188 536.15625 332.128906 C 520.625 332.871094 505.074219 333.21875 489.523438 333.1875 Z M 489.523438 333.1875 " fill-opacity="1" fill-rule="nonzero"/><path fill="#493931" d="M 490.660156 406.398438 C 490.28125 406.398438 489.902344 406.398438 489.523438 406.394531 L 488.8125 406.394531 L 488.8125 332.472656 L 489.527344 332.472656 C 505.125 332.503906 520.804688 332.148438 536.121094 331.417969 L 537.011719 331.375 L 536.859375 332.25 C 531.125 365.386719 521.625 391.492188 510.109375 405.765625 L 509.90625 406.015625 L 509.582031 406.027344 C 503.296875 406.273438 496.9375 406.398438 490.660156 406.398438 Z M 490.238281 404.96875 C 496.527344 404.96875 502.898438 404.855469 509.203125 404.613281 C 520.375 390.601562 529.625 365.171875 535.296875 332.886719 C 520.476562 333.578125 505.324219 333.925781 490.238281 333.902344 Z M 490.238281 404.96875 " fill-opacity="1" fill-rule="nonzero"/><path fill="#ffd18c" d="M 442.871094 331.992188 C 442.277344 331.964844 441.683594 331.933594 441.089844 331.90625 C 425.765625 331.125 410.394531 330.027344 395.050781 328.503906 C 405.878906 361.875 424.328125 388.652344 447.007812 403.734375 C 454.460938 404.398438 461.933594 404.894531 469.417969 405.222656 C 469.421875 405.222656 469.421875 405.222656 469.421875 405.222656 C 457.957031 390.953125 448.542969 364.851562 442.871094 331.992188 Z M 442.871094 331.992188 " fill-opacity="1" fill-rule="nonzero"/><path fill="#493931" d="M 471.148438 406.234375 L 469.34375 405.933594 C 461.902344 405.609375 454.367188 405.109375 446.941406 404.445312 L 446.761719 404.429688 L 446.609375 404.332031 C 423.824219 389.175781 405.273438 362.324219 394.371094 328.722656 L 394.035156 327.6875 L 395.121094 327.792969 C 409.6875 329.238281 425.164062 330.378906 441.125 331.191406 C 441.667969 331.21875 442.210938 331.246094 442.757812 331.269531 L 443.476562 331.304688 L 443.574219 331.871094 C 449.253906 364.757812 458.628906 390.648438 469.976562 404.773438 Z M 447.25 403.039062 C 454.097656 403.648438 461.035156 404.117188 467.902344 404.441406 C 456.902344 389.976562 447.832031 364.609375 442.265625 332.679688 C 441.859375 332.660156 441.453125 332.640625 441.050781 332.617188 C 425.464844 331.828125 410.339844 330.71875 396.066406 329.324219 C 406.890625 362.054688 425.035156 388.199219 447.25 403.039062 Z M 447.25 403.039062 " fill-opacity="1" fill-rule="nonzero"/><path fill="#ffd18c" d="M 542.03125 260.640625 C 541.976562 286.40625 539.863281 310.707031 536.15625 332.128906 C 552.128906 331.367188 568.082031 330.1875 583.980469 328.566406 C 590.652344 308.027344 594.433594 284.988281 594.535156 260.640625 C 577.03125 260.640625 559.535156 260.640625 542.03125 260.640625 Z M 542.03125 260.640625 " fill-opacity="1" fill-rule="nonzero"/><path fill="#493931" d="M 536.171875 332.84375 L 535.308594 332.84375 L 535.449219 332.007812 C 539.289062 309.820312 541.261719 285.808594 541.316406 260.636719 L 541.316406 259.925781 L 595.25 259.925781 L 595.246094 260.644531 C 595.148438 284.535156 591.585938 307.460938 584.65625 328.789062 L 584.511719 329.230469 L 584.050781 329.277344 C 568.355469 330.878906 552.253906 332.078125 536.191406 332.84375 Z M 542.742188 261.355469 C 542.65625 286.011719 540.726562 309.558594 537.011719 331.375 C 552.597656 330.617188 568.210938 329.449219 583.445312 327.90625 C 590.164062 307.058594 593.652344 284.671875 593.816406 261.355469 Z M 542.742188 261.355469 " fill-opacity="1" fill-rule="nonzero"/><path fill="#f1f2f2" d="M 489.523438 333.1875 C 473.957031 333.160156 458.398438 332.753906 442.871094 331.992188 C 448.542969 364.851562 457.957031 390.953125 469.421875 405.222656 C 476.113281 405.511719 482.820312 405.667969 489.523438 405.683594 C 489.523438 391.6875 489.523438 365.835938 489.523438 333.1875 Z M 489.523438 333.1875 " fill-opacity="1" fill-rule="nonzero"/><path fill="#493931" d="M 490.238281 406.398438 L 489.523438 406.394531 C 482.882812 406.382812 476.105469 406.226562 469.390625 405.933594 L 469.066406 405.921875 L 468.863281 405.667969 C 457.367188 391.359375 447.886719 365.234375 442.167969 332.113281 L 442.015625 331.234375 L 442.90625 331.28125 C 458.5 332.046875 474.183594 332.449219 489.527344 332.472656 L 490.238281 332.476562 Z M 469.777344 404.523438 C 476.128906 404.792969 482.523438 404.945312 488.8125 404.96875 C 488.8125 390.925781 488.8125 365.667969 488.8125 333.902344 C 473.964844 333.863281 458.804688 333.476562 443.726562 332.75 C 449.386719 365.027344 458.621094 390.46875 469.777344 404.523438 Z M 469.777344 404.523438 " fill-opacity="1" fill-rule="nonzero"/><path fill="#fd6d2f" d="M 535.082031 117.644531 C 556.8125 133.367188 574.382812 159.988281 584.640625 192.78125 C 595.320312 193.875 605.976562 195.167969 616.597656 196.667969 C 622.796875 197.542969 628.988281 198.488281 635.167969 199.519531 C 621.40625 166.203125 596.546875 138.636719 565.203125 121.429688 C 555.210938 119.839844 545.160156 118.582031 535.082031 117.644531 Z M 535.082031 117.644531 " fill-opacity="1" fill-rule="nonzero"/><path fill="#493931" d="M 636.320312 200.433594 L 635.050781 200.222656 C 629.015625 199.21875 622.773438 198.261719 616.496094 197.375 C 605.992188 195.894531 595.25 194.585938 584.570312 193.492188 L 584.101562 193.445312 L 583.960938 192.996094 C 573.761719 160.398438 556.257812 133.847656 534.664062 118.226562 L 532.875 116.933594 L 535.148438 116.9375 C 545.265625 117.878906 555.414062 119.152344 565.316406 120.726562 L 565.4375 120.746094 L 565.546875 120.804688 C 597.136719 138.144531 622.097656 166.003906 635.832031 199.246094 Z M 585.183594 192.117188 C 595.726562 193.203125 606.328125 194.496094 616.695312 195.960938 C 622.542969 196.785156 628.359375 197.671875 634.015625 198.601562 C 620.320312 166.222656 595.847656 139.097656 564.96875 122.117188 C 555.96875 120.6875 546.761719 119.507812 537.5625 118.601562 C 558.355469 134.496094 575.203125 160.476562 585.183594 192.117188 Z M 585.183594 192.117188 " fill-opacity="1" fill-rule="nonzero"/><path fill="#fd6d2f" d="M 536.5 189.167969 C 540.039062 210.371094 542.03125 234.304688 542.03125 259.636719 C 542.03125 259.972656 542.03125 260.304688 542.03125 260.640625 C 559.535156 260.640625 577.03125 260.640625 594.535156 260.640625 C 594.539062 260.304688 594.539062 259.972656 594.539062 259.636719 C 594.539062 235.734375 590.992188 213.074219 584.640625 192.78125 C 568.636719 191.136719 552.578125 189.9375 536.5 189.167969 Z M 536.5 189.167969 " fill-opacity="1" fill-rule="nonzero"/><path fill="#493931" d="M 595.246094 261.355469 L 541.316406 261.355469 L 541.316406 260.304688 C 541.316406 260.082031 541.320312 259.859375 541.320312 259.636719 C 541.320312 234.90625 539.460938 211.238281 535.792969 189.285156 L 535.65625 188.453125 L 536.535156 188.453125 C 552.6875 189.226562 568.898438 190.445312 584.714844 192.070312 L 585.183594 192.117188 L 585.324219 192.566406 C 591.914062 213.632812 595.253906 236.199219 595.253906 259.636719 C 595.253906 259.863281 595.253906 260.085938 595.253906 260.3125 Z M 542.746094 259.925781 L 593.824219 259.925781 C 593.824219 259.828125 593.824219 259.734375 593.824219 259.636719 C 593.824219 236.507812 590.554688 214.238281 584.097656 193.441406 C 568.746094 191.875 553.023438 190.691406 537.347656 189.925781 C 540.929688 211.707031 542.746094 235.15625 542.746094 259.636719 C 542.746094 259.734375 542.746094 259.828125 542.746094 259.925781 Z M 542.746094 259.925781 " fill-opacity="1" fill-rule="nonzero"/><path fill="#fd6d2f" d="M 535.082031 117.644531 C 545.160156 118.582031 555.210938 119.839844 565.203125 121.429688 C 542.742188 109.101562 516.953125 102.089844 489.523438 102.089844 C 505.847656 102.089844 521.300781 107.675781 535.082031 117.644531 Z M 535.082031 117.644531 " fill-opacity="1" fill-rule="nonzero"/><path fill="#493931" d="M 569.144531 122.78125 L 565.089844 122.136719 C 555.230469 120.566406 545.125 119.296875 535.046875 118.359375 L 534.851562 118.359375 L 534.664062 118.222656 C 520.519531 107.992188 505.332031 102.800781 489.523438 102.800781 L 489.523438 101.375 C 503.035156 101.375 516.453125 103.082031 529.40625 106.445312 C 541.976562 109.710938 554.136719 114.542969 565.546875 120.804688 Z M 535.339844 116.953125 C 543.976562 117.757812 552.636719 118.808594 561.140625 120.082031 C 544.8125 111.691406 527.03125 106.246094 508.769531 103.988281 C 510.351562 104.425781 511.925781 104.910156 513.492188 105.453125 C 521.019531 108.0625 528.375 111.929688 535.339844 116.953125 Z M 535.339844 116.953125 " fill-opacity="1" fill-rule="nonzero"/><path fill="#ffd18c" d="M 535.082031 117.644531 C 527.121094 116.90625 519.140625 116.367188 511.152344 116.03125 C 522.140625 130.953125 531.109375 156.898438 536.496094 189.167969 C 552.578125 189.9375 568.636719 191.136719 584.640625 192.78125 C 574.382812 159.988281 556.8125 133.367188 535.082031 117.644531 Z M 535.082031 117.644531 " fill-opacity="1" fill-rule="nonzero"/><path fill="#493931" d="M 585.648438 193.601562 L 584.570312 193.492188 C 568.78125 191.871094 552.605469 190.652344 536.480469 189.882812 L 535.894531 189.882812 L 535.792969 189.285156 C 530.421875 157.105469 521.464844 131.242188 510.574219 116.453125 L 509.738281 115.316406 L 511.183594 115.316406 C 519.128906 115.652344 527.179688 116.195312 535.113281 116.929688 L 535.3125 116.929688 L 535.503906 117.066406 C 557.34375 132.867188 575.039062 159.679688 585.324219 192.566406 Z M 537.109375 188.480469 C 552.703125 189.242188 568.347656 190.410156 583.632812 191.957031 C 573.417969 159.917969 556.113281 133.808594 534.820312 118.335938 C 527.449219 117.65625 519.980469 117.140625 512.589844 116.804688 C 523.15625 131.855469 531.832031 157.199219 537.109375 188.480469 Z M 537.109375 188.480469 " fill-opacity="1" fill-rule="nonzero"/><path fill="#fd6d2f" d="M 442.527344 189.304688 C 447.902344 157.042969 456.855469 131.089844 467.824219 116.128906 C 459.761719 116.507812 451.707031 117.082031 443.683594 117.855469 C 422.070312 133.613281 404.601562 160.164062 394.390625 192.84375 C 409.957031 191.285156 425.546875 190.164062 441.089844 189.375 C 441.570312 189.347656 442.046875 189.328125 442.527344 189.304688 Z M 442.527344 189.304688 " fill-opacity="1" fill-rule="nonzero"/><path fill="#493931" d="M 393.386719 193.660156 L 393.707031 192.628906 C 403.941406 159.875 421.542969 133.113281 443.261719 117.277344 L 443.417969 117.160156 L 443.613281 117.144531 C 451.644531 116.371094 459.777344 115.789062 467.789062 115.417969 L 469.230469 115.417969 L 468.398438 116.554688 C 457.527344 131.378906 448.585938 157.257812 443.230469 189.421875 L 443.136719 189.992188 L 442.5625 190.019531 C 442.082031 190.042969 441.601562 190.066406 441.125 190.089844 C 424.941406 190.910156 409.242188 192.078125 394.460938 193.554688 Z M 443.949219 118.546875 C 422.773438 134.050781 405.558594 160.109375 395.394531 192.023438 C 409.886719 190.59375 425.242188 189.464844 441.050781 188.664062 C 441.339844 188.648438 441.628906 188.632812 441.917969 188.621094 C 447.179688 157.351562 455.839844 131.996094 466.386719 116.914062 C 458.941406 117.285156 451.398438 117.832031 443.949219 118.546875 Z M 443.949219 118.546875 " fill-opacity="1" fill-rule="nonzero"/><path fill="#f1f2f2" d="M 489.523438 333.1875 C 505.074219 333.21875 520.625 332.871094 536.15625 332.128906 C 539.863281 310.707031 541.976562 286.40625 542.03125 260.640625 C 524.527344 260.640625 507.027344 260.640625 489.527344 260.640625 C 489.523438 286.832031 489.523438 311.507812 489.523438 333.1875 Z M 489.523438 333.1875 " fill-opacity="1" fill-rule="nonzero"/><path fill="#493931" d="M 491.371094 333.902344 C 490.757812 333.902344 490.140625 333.902344 489.523438 333.902344 L 488.8125 333.898438 L 488.8125 259.925781 L 542.746094 259.925781 L 542.746094 260.640625 C 542.691406 285.890625 540.710938 309.984375 536.859375 332.25 L 536.761719 332.8125 L 536.191406 332.839844 C 521.453125 333.546875 506.382812 333.902344 491.371094 333.902344 Z M 490.238281 332.472656 C 505.410156 332.496094 520.644531 332.144531 535.546875 331.441406 C 539.289062 309.621094 541.226562 286.050781 541.3125 261.355469 L 490.238281 261.355469 Z M 490.238281 332.472656 " fill-opacity="1" fill-rule="nonzero"/><path fill="#fd6d2f" d="M 489.523438 259.636719 C 489.523438 259.972656 489.523438 260.304688 489.523438 260.640625 C 507.027344 260.640625 524.527344 260.640625 542.03125 260.640625 C 542.03125 260.304688 542.03125 259.972656 542.03125 259.636719 C 542.03125 234.304688 540.039062 210.371094 536.496094 189.167969 C 520.851562 188.414062 505.1875 188.0625 489.523438 188.09375 C 489.523438 209.5625 489.523438 233.878906 489.523438 259.636719 Z M 489.523438 259.636719 " fill-opacity="1" fill-rule="nonzero"/><path fill="#493931" d="M 542.742188 261.355469 L 488.8125 261.355469 L 488.8125 187.378906 L 489.523438 187.378906 C 505.265625 187.347656 521.078125 187.710938 536.535156 188.453125 L 537.109375 188.480469 L 537.203125 189.050781 C 540.882812 211.078125 542.746094 234.828125 542.746094 259.636719 C 542.746094 259.859375 542.746094 260.085938 542.746094 260.308594 Z M 490.238281 259.925781 L 541.316406 259.925781 C 541.316406 259.828125 541.316406 259.734375 541.316406 259.636719 C 541.316406 235.121094 539.492188 211.644531 535.886719 189.851562 C 520.871094 189.136719 505.515625 188.785156 490.238281 188.804688 Z M 490.238281 259.925781 " fill-opacity="1" fill-rule="nonzero"/><path fill="#fd6d2f" d="M 437.019531 259.636719 C 437.019531 234.359375 439.003906 210.472656 442.527344 189.304688 C 442.046875 189.328125 441.570312 189.347656 441.089844 189.375 C 425.542969 190.164062 409.953125 191.285156 394.390625 192.84375 C 388.054688 213.121094 384.511719 235.757812 384.511719 259.636719 C 384.511719 259.972656 384.515625 260.304688 384.515625 260.640625 C 402.015625 260.640625 419.519531 260.640625 437.019531 260.640625 C 437.019531 260.304688 437.019531 259.972656 437.019531 259.636719 Z M 437.019531 259.636719 " fill-opacity="1" fill-rule="nonzero"/><path fill="#493931" d="M 437.738281 261.355469 L 383.804688 261.355469 L 383.796875 260.296875 C 383.796875 260.078125 383.796875 259.859375 383.796875 259.636719 C 383.796875 236.21875 387.132812 213.675781 393.707031 192.628906 L 393.847656 192.179688 L 394.320312 192.132812 C 409.125 190.652344 424.847656 189.484375 441.050781 188.664062 C 441.53125 188.640625 442.011719 188.617188 442.496094 188.59375 L 443.378906 188.550781 L 443.230469 189.421875 C 439.582031 211.335938 437.730469 234.960938 437.730469 259.636719 C 437.730469 259.863281 437.730469 260.082031 437.734375 260.304688 Z M 385.226562 259.925781 L 436.304688 259.925781 C 436.304688 259.828125 436.304688 259.734375 436.304688 259.636719 C 436.304688 235.207031 438.113281 211.804688 441.679688 190.058594 C 441.496094 190.070312 441.3125 190.078125 441.125 190.089844 C 425.117188 190.902344 409.578125 192.050781 394.929688 193.507812 C 388.492188 214.285156 385.226562 236.53125 385.226562 259.636719 C 385.226562 259.734375 385.226562 259.828125 385.226562 259.925781 Z M 385.226562 259.925781 " fill-opacity="1" fill-rule="nonzero"/><path fill="#fd6d2f" d="M 489.523438 260.640625 C 489.523438 260.304688 489.523438 259.972656 489.523438 259.636719 C 489.523438 233.878906 489.523438 209.5625 489.523438 188.09375 C 473.84375 188.121094 458.167969 188.53125 442.527344 189.304688 C 439.003906 210.472656 437.019531 234.359375 437.019531 259.636719 C 437.019531 259.972656 437.019531 260.304688 437.019531 260.640625 C 454.523438 260.640625 472.023438 260.640625 489.523438 260.640625 Z M 489.523438 260.640625 " fill-opacity="1" fill-rule="nonzero"/><path fill="#493931" d="M 490.238281 261.355469 L 436.308594 261.355469 L 436.304688 260.367188 C 436.304688 260.125 436.304688 259.882812 436.304688 259.636719 C 436.304688 234.882812 438.160156 211.179688 441.824219 189.183594 L 441.917969 188.617188 L 442.492188 188.589844 C 458.257812 187.8125 474.082031 187.402344 489.523438 187.378906 L 490.238281 187.375 Z M 437.734375 259.925781 L 488.8125 259.925781 L 488.8125 188.808594 C 473.804688 188.847656 458.449219 189.242188 443.140625 189.988281 C 439.550781 211.742188 437.734375 235.171875 437.734375 259.636719 C 437.734375 259.734375 437.734375 259.828125 437.734375 259.925781 Z M 437.734375 259.925781 " fill-opacity="1" fill-rule="nonzero"/><path fill="#ffd18c" d="M 489.523438 260.640625 C 472.023438 260.640625 454.523438 260.640625 437.019531 260.640625 C 437.074219 286.351562 439.179688 310.605469 442.871094 331.992188 C 458.398438 332.753906 473.957031 333.160156 489.523438 333.1875 C 489.523438 311.507812 489.523438 286.832031 489.523438 260.640625 Z M 489.523438 260.640625 " fill-opacity="1" fill-rule="nonzero"/><path fill="#493931" d="M 490.238281 333.902344 L 489.523438 333.902344 C 474.15625 333.875 458.449219 333.472656 442.835938 332.703125 L 442.265625 332.675781 L 442.167969 332.113281 C 438.332031 309.882812 436.359375 285.835938 436.308594 260.640625 L 436.304688 259.925781 L 490.238281 259.925781 Z M 443.476562 331.308594 C 458.640625 332.042969 473.882812 332.433594 488.8125 332.472656 L 488.8125 261.355469 L 437.738281 261.355469 C 437.824219 285.996094 439.753906 309.523438 443.476562 331.308594 Z M 443.476562 331.308594 " fill-opacity="1" fill-rule="nonzero"/><path fill="#fd6d2f" d="M 511.152344 116.03125 C 519.140625 116.367188 527.121094 116.90625 535.082031 117.644531 C 521.304688 107.675781 505.847656 102.089844 489.527344 102.089844 C 497.234375 102.089844 504.558594 107.074219 511.152344 116.03125 Z M 511.152344 116.03125 " fill-opacity="1" fill-rule="nonzero"/><path fill="#493931" d="M 537.285156 118.359375 L 535.015625 118.355469 C 527.101562 117.621094 519.066406 117.078125 511.136719 116.742188 L 510.789062 116.742188 L 510.574219 116.453125 C 503.90625 107.394531 496.824219 102.800781 489.523438 102.800781 L 489.523438 101.375 C 497.617188 101.375 505.679688 102.746094 513.492188 105.453125 C 521.078125 108.082031 528.484375 111.988281 535.5 117.066406 Z M 511.523438 115.332031 C 518.484375 115.632812 525.519531 116.089844 532.488281 116.695312 C 521.515625 109.214844 509.9375 104.726562 497.945312 103.300781 C 502.636719 105.480469 507.179688 109.5 511.523438 115.332031 Z M 511.523438 115.332031 " fill-opacity="1" fill-rule="nonzero"/><path fill="#ffd18c" d="M 442.527344 189.304688 C 458.167969 188.53125 473.84375 188.121094 489.523438 188.09375 C 489.523438 156.007812 489.523438 130.285156 489.523438 115.597656 C 482.285156 115.613281 475.050781 115.792969 467.824219 116.128906 C 456.855469 131.089844 447.902344 157.042969 442.527344 189.304688 Z M 442.527344 189.304688 " fill-opacity="1" fill-rule="nonzero"/><path fill="#493931" d="M 441.679688 190.058594 L 441.824219 189.183594 C 447.21875 156.804688 456.246094 130.710938 467.25 115.707031 L 467.453125 115.433594 L 467.792969 115.414062 C 475.023438 115.078125 482.332031 114.898438 489.523438 114.882812 L 490.238281 114.882812 L 490.238281 188.804688 L 489.527344 188.808594 C 474.105469 188.832031 458.308594 189.242188 442.566406 190.015625 Z M 468.203125 116.828125 C 457.519531 131.5625 448.71875 156.988281 443.378906 188.546875 C 458.609375 187.8125 473.886719 187.417969 488.8125 187.382812 L 488.8125 116.316406 C 481.984375 116.339844 475.058594 116.511719 468.203125 116.828125 Z M 468.203125 116.828125 " fill-opacity="1" fill-rule="nonzero"/><path fill="#f1f2f2" d="M 536.5 189.167969 C 531.113281 156.898438 522.140625 130.953125 511.152344 116.03125 C 503.945312 115.722656 496.734375 115.578125 489.527344 115.597656 C 489.527344 130.285156 489.527344 156.007812 489.527344 188.09375 C 505.1875 188.0625 520.855469 188.414062 536.5 189.167969 Z M 536.5 189.167969 " fill-opacity="1" fill-rule="nonzero"/><path fill="#493931" d="M 537.347656 189.925781 L 536.464844 189.882812 C 521.035156 189.136719 505.246094 188.773438 489.527344 188.808594 L 488.8125 188.808594 L 488.8125 114.886719 L 489.523438 114.882812 C 496.695312 114.867188 503.972656 115.011719 511.164062 115.316406 L 511.511719 115.316406 L 511.726562 115.605469 C 522.746094 130.570312 531.792969 156.65625 537.203125 189.050781 Z M 491.460938 187.378906 C 506.261719 187.378906 521.109375 187.726562 535.648438 188.414062 C 530.292969 156.835938 521.480469 131.425781 510.78125 116.730469 C 503.953125 116.445312 497.054688 116.304688 490.242188 116.3125 L 490.242188 187.378906 C 490.644531 187.378906 491.054688 187.378906 491.460938 187.378906 Z M 491.460938 187.378906 " fill-opacity="1" fill-rule="nonzero"/><path fill="#f1f2f2" d="M 442.871094 331.992188 C 439.179688 310.605469 437.074219 286.351562 437.019531 260.640625 C 419.519531 260.640625 402.015625 260.640625 384.515625 260.640625 C 384.617188 284.964844 388.390625 307.980469 395.050781 328.503906 C 410.398438 330.027344 425.765625 331.125 441.089844 331.90625 C 441.683594 331.933594 442.277344 331.964844 442.871094 331.992188 Z M 442.871094 331.992188 " fill-opacity="1" fill-rule="nonzero"/><path fill="#493931" d="M 443.726562 332.75 L 442.6875 332.699219 C 442.140625 332.671875 441.597656 332.648438 441.050781 332.617188 C 425.070312 331.808594 409.566406 330.660156 394.980469 329.214844 L 394.515625 329.167969 L 394.371094 328.722656 C 387.457031 307.414062 383.902344 284.507812 383.800781 260.644531 L 383.796875 259.925781 L 437.730469 259.925781 L 437.734375 260.636719 C 437.785156 285.753906 439.75 309.71875 443.574219 331.871094 Z M 395.585938 327.839844 C 410.015625 329.261719 425.335938 330.390625 441.125 331.191406 C 441.421875 331.207031 441.71875 331.222656 442.015625 331.238281 C 438.316406 309.460938 436.394531 285.957031 436.308594 261.355469 L 385.234375 261.355469 C 385.398438 284.648438 388.878906 307.007812 395.585938 327.839844 Z M 395.585938 327.839844 " fill-opacity="1" fill-rule="nonzero"/><path fill="#fd6d2f" d="M 531.75 403.929688 C 524.363281 404.566406 516.964844 405.023438 509.558594 405.3125 C 509.558594 405.3125 509.554688 405.3125 509.554688 405.3125 C 503.382812 412.960938 496.617188 417.183594 489.523438 417.183594 C 504.542969 417.183594 518.828125 412.453125 531.75 403.929688 Z M 531.75 403.929688 " fill-opacity="1" fill-rule="nonzero"/><path fill="#493931" d="M 489.523438 417.898438 L 489.523438 416.472656 C 496.234375 416.472656 502.785156 412.566406 509 404.867188 L 509.148438 404.679688 L 509.464844 404.601562 L 509.539062 404.601562 C 516.886719 404.316406 524.3125 403.851562 531.601562 403.226562 L 536.675781 401.535156 L 532.140625 404.527344 C 518.691406 413.402344 504.351562 417.898438 489.523438 417.898438 Z M 509.90625 406.015625 C 506.054688 410.738281 502.050781 414.0625 497.9375 415.972656 C 508.625 414.699219 519.007812 410.984375 528.933594 404.878906 C 522.621094 405.382812 516.238281 405.765625 509.90625 406.015625 Z M 509.90625 406.015625 " fill-opacity="1" fill-rule="nonzero"/><path fill="#fd6d2f" d="M 509.554688 405.3125 C 502.882812 405.574219 496.203125 405.699219 489.523438 405.683594 C 489.523438 413.097656 489.523438 417.183594 489.523438 417.183594 C 496.617188 417.183594 503.382812 412.964844 509.554688 405.3125 Z M 509.554688 405.3125 " fill-opacity="1" fill-rule="nonzero"/><path fill="#493931" d="M 489.523438 417.898438 L 488.8125 417.898438 L 488.8125 404.964844 L 489.527344 404.96875 C 496.152344 404.984375 502.878906 404.859375 509.527344 404.601562 L 511.097656 404.539062 L 510.109375 405.761719 C 503.613281 413.816406 496.6875 417.898438 489.523438 417.898438 Z M 490.238281 406.398438 L 490.238281 416.457031 C 496.335938 416.207031 502.292969 412.722656 507.984375 406.089844 C 502.078125 406.300781 496.113281 406.398438 490.238281 406.398438 Z M 490.238281 406.398438 " fill-opacity="1" fill-rule="nonzero"/><path fill="#ffd18c" d="M 489.523438 405.683594 C 482.820312 405.667969 476.113281 405.511719 469.421875 405.222656 C 475.613281 412.929688 482.402344 417.183594 489.523438 417.183594 C 489.523438 417.183594 489.523438 413.101562 489.523438 405.683594 Z M 489.523438 405.683594 " fill-opacity="1" fill-rule="nonzero"/><path fill="#493931" d="M 490.238281 417.898438 L 489.523438 417.898438 C 482.335938 417.898438 475.386719 413.785156 468.863281 405.667969 L 467.878906 404.441406 L 469.453125 404.507812 C 476.148438 404.800781 482.902344 404.957031 489.527344 404.96875 L 490.238281 404.972656 Z M 470.996094 406.003906 C 476.707031 412.691406 482.6875 416.207031 488.8125 416.457031 L 488.8125 406.394531 C 482.925781 406.371094 476.945312 406.242188 470.996094 406.003906 Z M 470.996094 406.003906 " fill-opacity="1" fill-rule="nonzero"/><path fill="#f1f2f2" d="M 469.421875 405.222656 C 469.421875 405.222656 469.421875 405.222656 469.417969 405.222656 C 461.933594 404.894531 454.460938 404.398438 447.007812 403.734375 C 460.003906 412.378906 474.390625 417.183594 489.523438 417.183594 C 482.402344 417.183594 475.613281 412.929688 469.421875 405.222656 Z M 469.421875 405.222656 " fill-opacity="1" fill-rule="nonzero"/><path fill="#493931" d="M 489.523438 417.898438 C 474.589844 417.898438 460.148438 413.332031 446.609375 404.328125 L 444.273438 402.773438 L 447.070312 403.023438 C 454.480469 403.6875 462.003906 404.1875 469.433594 404.507812 L 469.476562 404.507812 L 469.804688 404.5625 L 469.976562 404.773438 C 476.214844 412.539062 482.789062 416.472656 489.523438 416.472656 Z M 449.820312 404.695312 C 459.832031 410.90625 470.320312 414.6875 481.113281 415.972656 C 476.976562 414.050781 472.945312 410.691406 469.066406 405.921875 C 462.675781 405.640625 456.21875 405.226562 449.820312 404.695312 Z M 449.820312 404.695312 " fill-opacity="1" fill-rule="nonzero"/><path fill="#ffd18c" d="M 489.523438 417.183594 C 514.78125 417.183594 538.644531 411.238281 559.800781 400.671875 C 550.488281 402.042969 541.132812 403.125 531.75 403.929688 C 518.828125 412.453125 504.542969 417.183594 489.523438 417.183594 Z M 489.523438 417.183594 " fill-opacity="1" fill-rule="nonzero"/><path fill="#493931" d="M 489.523438 417.898438 L 489.523438 416.472656 C 504.066406 416.472656 518.140625 412.050781 531.355469 403.335938 L 531.507812 403.234375 L 531.6875 403.21875 C 541.066406 402.414062 550.488281 401.320312 559.699219 399.964844 L 564.113281 399.316406 L 560.121094 401.3125 C 549.382812 406.675781 538.027344 410.800781 526.367188 413.585938 C 514.367188 416.449219 501.972656 417.898438 489.523438 417.898438 Z M 531.992188 404.628906 C 524.464844 409.570312 516.660156 413.144531 508.652344 415.332031 C 524.839844 413.382812 540.472656 408.929688 555.351562 402.027344 C 547.632812 403.082031 539.796875 403.953125 531.992188 404.628906 Z M 531.992188 404.628906 " fill-opacity="1" fill-rule="nonzero"/><path fill="#ffd18c" d="M 511.152344 116.03125 C 504.558594 107.074219 497.234375 102.089844 489.523438 102.089844 C 489.523438 102.089844 489.523438 106.917969 489.523438 115.597656 C 496.734375 115.578125 503.945312 115.722656 511.152344 116.03125 Z M 511.152344 116.03125 " fill-opacity="1" fill-rule="nonzero"/><path fill="#493931" d="M 512.5625 116.742188 L 511.121094 116.742188 C 503.945312 116.441406 496.683594 116.292969 489.527344 116.3125 L 488.8125 116.3125 L 488.8125 101.375 L 489.523438 101.375 C 497.300781 101.375 504.773438 106.164062 511.726562 115.605469 Z M 490.699219 114.882812 C 496.992188 114.882812 503.359375 115.007812 509.671875 115.253906 C 503.488281 107.273438 496.957031 103.09375 490.242188 102.816406 L 490.242188 114.882812 C 490.390625 114.882812 490.542969 114.882812 490.699219 114.882812 Z M 490.699219 114.882812 " fill-opacity="1" fill-rule="nonzero"/><path fill="#fd6d2f" d="M 583.980469 328.566406 C 573.101562 362.054688 554.546875 388.894531 531.75 403.929688 C 541.132812 403.125 550.492188 402.042969 559.804688 400.671875 C 593 384.09375 619.519531 356.136719 634.261719 321.910156 C 628.382812 322.878906 622.492188 323.777344 616.597656 324.609375 C 605.753906 326.140625 594.878906 327.457031 583.980469 328.566406 Z M 583.980469 328.566406 " fill-opacity="1" fill-rule="nonzero"/><path fill="#493931" d="M 529.011719 404.882812 L 531.355469 403.335938 C 553.996094 388.402344 572.441406 361.773438 583.300781 328.347656 L 583.445312 327.90625 L 583.90625 327.859375 C 594.804688 326.75 605.769531 325.417969 616.496094 323.90625 C 622.464844 323.066406 628.402344 322.15625 634.144531 321.207031 L 635.433594 320.996094 L 634.917969 322.195312 C 620.136719 356.507812 593.578125 384.609375 560.121094 401.3125 L 560.019531 401.367188 L 559.910156 401.382812 C 550.671875 402.742188 541.21875 403.839844 531.8125 404.644531 Z M 584.515625 329.230469 C 573.90625 361.632812 556.1875 387.6875 534.417969 402.976562 C 542.855469 402.203125 551.308594 401.199219 559.585938 399.984375 C 592.300781 383.617188 618.351562 356.253906 633.082031 322.828125 C 627.734375 323.699219 622.226562 324.535156 616.695312 325.316406 C 606.101562 326.8125 595.277344 328.128906 584.515625 329.230469 Z M 584.515625 329.230469 " fill-opacity="1" fill-rule="nonzero"/><path fill="#fd6d2f" d="M 594.539062 260.640625 C 594.539062 260.640625 594.535156 260.640625 594.535156 260.640625 C 594.433594 284.988281 590.652344 308.027344 583.980469 328.566406 C 594.878906 327.457031 605.753906 326.140625 616.597656 324.609375 C 622.492188 323.777344 628.382812 322.878906 634.261719 321.910156 C 642.363281 303.097656 646.902344 282.390625 647.039062 260.640625 C 636.976562 260.640625 626.914062 260.640625 616.851562 260.640625 C 609.414062 260.640625 601.976562 260.640625 594.539062 260.640625 Z M 594.539062 260.640625 " fill-opacity="1" fill-rule="nonzero"/><path fill="#493931" d="M 582.960938 329.386719 L 583.300781 328.347656 C 590.183594 307.160156 593.722656 284.378906 593.820312 260.636719 L 593.824219 259.925781 L 647.757812 259.925781 L 647.753906 260.644531 C 647.621094 282.015625 643.300781 302.722656 634.914062 322.195312 L 634.761719 322.550781 L 634.375 322.617188 C 628.621094 323.566406 622.671875 324.476562 616.695312 325.320312 C 605.949219 326.835938 594.964844 328.167969 584.050781 329.28125 Z M 595.246094 261.355469 C 595.082031 284.597656 591.632812 306.925781 584.996094 327.746094 C 595.535156 326.660156 606.125 325.367188 616.5 323.902344 C 622.332031 323.082031 628.136719 322.195312 633.761719 321.269531 C 641.875 302.296875 646.101562 282.144531 646.320312 261.355469 Z M 595.246094 261.355469 " fill-opacity="1" fill-rule="nonzero"/><path fill="#ffd18c" d="M 635.167969 199.519531 C 628.988281 198.488281 622.796875 197.542969 616.597656 196.667969 C 605.976562 195.167969 595.320312 193.875 584.640625 192.78125 C 590.992188 213.074219 594.539062 235.734375 594.539062 259.636719 C 594.539062 259.972656 594.535156 260.304688 594.535156 260.640625 C 594.535156 260.640625 594.539062 260.640625 594.539062 260.640625 C 601.976562 260.640625 609.414062 260.640625 616.851562 260.640625 C 626.914062 260.640625 636.976562 260.640625 647.039062 260.640625 C 647.042969 260.304688 647.046875 259.972656 647.046875 259.636719 C 647.046875 238.347656 642.820312 218.042969 635.167969 199.519531 Z M 635.167969 199.519531 " fill-opacity="1" fill-rule="nonzero"/><path fill="#493931" d="M 647.75 261.355469 L 593.820312 261.355469 L 593.824219 260.300781 C 593.828125 260.082031 593.828125 259.859375 593.828125 259.636719 C 593.828125 236.34375 590.507812 213.921875 583.960938 192.996094 L 583.640625 191.960938 L 584.714844 192.070312 C 595.414062 193.167969 606.175781 194.476562 616.699219 195.960938 C 622.984375 196.847656 629.238281 197.808594 635.289062 198.816406 L 635.679688 198.878906 L 635.832031 199.246094 C 643.75 218.410156 647.761719 238.730469 647.761719 259.636719 C 647.761719 259.863281 647.761719 260.085938 647.757812 260.3125 Z M 595.253906 259.925781 L 646.332031 259.925781 C 646.332031 259.828125 646.332031 259.734375 646.332031 259.636719 C 646.332031 239.050781 642.40625 219.042969 634.65625 200.15625 C 628.742188 199.175781 622.632812 198.238281 616.496094 197.375 C 606.339844 195.941406 595.96875 194.671875 585.640625 193.601562 C 592.019531 214.367188 595.25 236.578125 595.25 259.636719 C 595.253906 259.734375 595.253906 259.828125 595.253906 259.925781 Z M 595.253906 259.925781 " fill-opacity="1" fill-rule="nonzero"/><path fill="#fd6d2f" d="M 443.683594 117.855469 C 457.539062 107.753906 473.089844 102.089844 489.527344 102.089844 C 461.855469 102.089844 435.851562 109.226562 413.253906 121.757812 C 422.636719 120.242188 432.058594 119.019531 441.488281 118.070312 C 442.21875 117.996094 442.949219 117.921875 443.683594 117.855469 Z M 443.683594 117.855469 " fill-opacity="1" fill-rule="nonzero"/><path fill="#493931" d="M 409.335938 123.113281 L 412.90625 121.132812 C 424.386719 114.769531 436.632812 109.855469 449.304688 106.53125 C 462.363281 103.109375 475.894531 101.375 489.523438 101.375 L 489.523438 102.800781 C 473.609375 102.800781 458.328125 108.058594 444.101562 118.429688 L 443.941406 118.546875 L 443.746094 118.5625 C 443.015625 118.632812 442.285156 118.707031 441.554688 118.78125 C 432.074219 119.734375 422.585938 120.972656 413.367188 122.464844 Z M 470.289062 103.988281 C 451.789062 106.273438 433.792969 111.828125 417.285156 120.40625 C 425.222656 119.199219 433.320312 118.175781 441.414062 117.359375 C 442.085938 117.292969 442.753906 117.226562 443.421875 117.160156 C 450.429688 112.074219 457.824219 108.15625 465.398438 105.507812 C 467.019531 104.945312 468.652344 104.4375 470.289062 103.988281 Z M 470.289062 103.988281 " fill-opacity="1" fill-rule="nonzero"/><path fill="#ffd18c" d="M 467.824219 116.128906 C 474.4375 107.113281 481.789062 102.089844 489.523438 102.089844 C 473.089844 102.089844 457.535156 107.753906 443.683594 117.855469 C 451.707031 117.082031 459.761719 116.507812 467.824219 116.128906 Z M 467.824219 116.128906 " fill-opacity="1" fill-rule="nonzero"/><path fill="#493931" d="M 441.15625 118.8125 L 443.265625 117.277344 C 450.316406 112.136719 457.765625 108.175781 465.402344 105.507812 C 473.261719 102.765625 481.378906 101.375 489.523438 101.375 L 489.523438 102.800781 C 482.199219 102.800781 475.09375 107.429688 468.402344 116.550781 L 468.1875 116.84375 L 467.839844 116.84375 C 459.859375 117.214844 451.753906 117.792969 443.753906 118.5625 Z M 481.105469 103.300781 C 469.007812 104.738281 457.332031 109.292969 446.273438 116.894531 C 453.324219 116.257812 460.433594 115.765625 467.453125 115.433594 C 471.820312 109.546875 476.386719 105.492188 481.105469 103.300781 Z M 481.105469 103.300781 " fill-opacity="1" fill-rule="nonzero"/><path fill="#ffd18c" d="M 394.390625 192.84375 C 404.601562 160.164062 422.070312 133.613281 443.683594 117.855469 C 442.949219 117.921875 442.21875 117.996094 441.488281 118.070312 C 432.058594 119.019531 422.636719 120.242188 413.253906 121.757812 C 382.171875 138.996094 357.535156 166.4375 343.863281 199.5625 C 360.613281 196.726562 377.484375 194.527344 394.390625 192.84375 C 394.386719 192.84375 394.386719 192.84375 394.390625 192.84375 Z M 394.390625 192.84375 " fill-opacity="1" fill-rule="nonzero"/><path fill="#493931" d="M 342.710938 200.484375 L 343.203125 199.292969 C 350.019531 182.773438 359.539062 167.609375 371.496094 154.226562 C 383.394531 140.90625 397.328125 129.773438 412.90625 121.132812 L 413.015625 121.074219 L 413.136719 121.054688 C 422.386719 119.558594 431.902344 118.316406 441.414062 117.359375 C 442.148438 117.285156 442.878906 117.214844 443.613281 117.144531 L 446.207031 116.898438 L 444.105469 118.433594 C 422.628906 134.089844 405.214844 160.589844 395.070312 193.058594 L 394.949219 193.4375 L 394.476562 193.554688 L 394.421875 193.554688 C 376.960938 195.300781 359.988281 197.558594 343.980469 200.269531 Z M 413.492188 122.445312 C 382.886719 139.449219 358.617188 166.472656 345.019531 198.648438 C 360.550781 196.050781 376.96875 193.875 393.847656 192.179688 C 403.777344 160.664062 420.53125 134.742188 441.210938 118.816406 C 431.886719 119.761719 422.5625 120.984375 413.492188 122.445312 Z M 413.492188 122.445312 " fill-opacity="1" fill-rule="nonzero"/><path fill="#f1f2f2" d="M 467.824219 116.128906 C 475.050781 115.792969 482.285156 115.613281 489.523438 115.597656 C 489.523438 106.917969 489.523438 102.089844 489.523438 102.089844 C 481.789062 102.089844 474.441406 107.113281 467.824219 116.128906 Z M 467.824219 116.128906 " fill-opacity="1" fill-rule="nonzero"/><path fill="#493931" d="M 466.367188 116.914062 L 467.25 115.707031 C 474.226562 106.195312 481.722656 101.375 489.523438 101.375 L 490.238281 101.375 L 490.238281 116.3125 L 489.527344 116.3125 C 482.355469 116.328125 475.066406 116.507812 467.859375 116.84375 Z M 488.8125 102.816406 C 482.066406 103.097656 475.511719 107.308594 469.308594 115.351562 C 475.804688 115.066406 482.351562 114.910156 488.8125 114.886719 Z M 488.8125 102.816406 " fill-opacity="1" fill-rule="nonzero"/><path fill="#fd6d2f" d="M 447.003906 403.734375 C 447.003906 403.734375 447.007812 403.734375 447.007812 403.734375 C 424.328125 388.652344 405.878906 361.875 395.050781 328.503906 C 378.230469 326.835938 361.445312 324.664062 344.773438 321.867188 C 359.414062 355.894531 385.699219 383.726562 418.609375 400.351562 C 426.21875 401.492188 433.847656 402.441406 441.488281 403.210938 C 443.324219 403.394531 445.164062 403.570312 447.003906 403.734375 Z M 447.003906 403.734375 " fill-opacity="1" fill-rule="nonzero"/><path fill="#493931" d="M 451.859375 406.105469 L 446.859375 404.4375 C 445.0625 404.277344 443.230469 404.101562 441.414062 403.917969 C 433.71875 403.144531 426.011719 402.179688 418.503906 401.054688 L 418.390625 401.039062 L 418.289062 400.984375 C 385.128906 384.234375 358.785156 356.238281 344.117188 322.144531 L 343.597656 320.941406 L 344.890625 321.160156 C 360.84375 323.835938 377.730469 326.066406 395.085938 327.785156 L 395.570312 327.785156 L 395.730469 328.277344 C 406.53125 361.574219 424.886719 388.15625 447.402344 403.136719 Z M 418.828125 399.664062 C 426.277344 400.777344 433.925781 401.730469 441.558594 402.5 C 442.484375 402.59375 443.414062 402.683594 444.34375 402.773438 C 422.695312 387.445312 405.070312 361.441406 394.515625 329.167969 C 377.746094 327.496094 361.417969 325.351562 345.953125 322.789062 C 360.570312 355.992188 386.40625 383.253906 418.828125 399.664062 Z M 418.828125 399.664062 " fill-opacity="1" fill-rule="nonzero"/><path fill="#fd6d2f" d="M 447.003906 403.734375 C 445.164062 403.570312 443.324219 403.394531 441.488281 403.210938 C 433.851562 402.441406 426.21875 401.492188 418.609375 400.351562 C 439.921875 411.117188 464.015625 417.183594 489.523438 417.183594 C 474.390625 417.183594 460.003906 412.378906 447.007812 403.734375 C 447.007812 403.734375 447.003906 403.734375 447.003906 403.734375 Z M 447.003906 403.734375 " fill-opacity="1" fill-rule="nonzero"/><path fill="#493931" d="M 489.523438 417.898438 C 476.953125 417.898438 464.4375 416.417969 452.324219 413.5 C 440.558594 410.664062 429.105469 406.453125 418.285156 400.988281 L 414.324219 398.988281 L 418.714844 399.644531 C 426.199219 400.765625 433.882812 401.726562 441.558594 402.5 C 443.382812 402.683594 445.226562 402.859375 447.035156 403.019531 L 447.121094 403.019531 L 447.324219 403.089844 L 447.402344 403.140625 C 460.703125 411.984375 474.875 416.472656 489.523438 416.472656 Z M 423.03125 401.714844 C 438.109375 408.796875 453.96875 413.351562 470.402344 415.332031 C 462.285156 413.117188 454.382812 409.476562 446.761719 404.429688 C 444.996094 404.273438 443.195312 404.101562 441.414062 403.921875 C 435.257812 403.300781 429.09375 402.558594 423.03125 401.714844 Z M 447.003906 403.738281 Z M 447.003906 403.734375 L 447.003906 403.738281 Z M 447.003906 403.734375 " fill-opacity="1" fill-rule="nonzero"/><path fill="#f1f2f2" d="M 384.515625 260.640625 C 384.515625 260.304688 384.511719 259.972656 384.511719 259.636719 C 384.511719 235.757812 388.054688 213.121094 394.390625 192.84375 C 394.390625 192.84375 394.390625 192.84375 394.386719 192.84375 C 377.484375 194.527344 360.613281 196.726562 343.863281 199.5625 C 336.21875 218.078125 332.003906 238.363281 332.003906 259.636719 C 332.003906 259.972656 332.007812 260.304688 332.011719 260.640625 C 349.511719 260.640625 367.011719 260.640625 384.511719 260.640625 C 384.515625 260.640625 384.515625 260.640625 384.515625 260.640625 Z M 384.515625 260.640625 " fill-opacity="1" fill-rule="nonzero"/><g clip-path="url(#5072c13fca)"><path fill="#493931" d="M 385.230469 261.355469 L 331.300781 261.355469 L 331.292969 260.3125 C 331.292969 260.085938 331.289062 259.863281 331.289062 259.636719 C 331.289062 238.746094 335.296875 218.441406 343.203125 199.292969 L 343.351562 198.925781 L 343.742188 198.859375 C 359.777344 196.144531 376.777344 193.882812 394.265625 192.136719 L 395.449219 191.839844 L 395.070312 193.054688 C 388.539062 213.960938 385.226562 236.363281 385.226562 259.636719 C 385.226562 259.851562 385.226562 260.070312 385.226562 260.285156 Z M 332.71875 259.925781 L 383.796875 259.925781 C 383.796875 259.828125 383.796875 259.734375 383.796875 259.636719 C 383.796875 236.601562 387.023438 214.410156 393.390625 193.660156 C 376.433594 195.375 359.949219 197.574219 344.371094 200.203125 C 336.636719 219.074219 332.71875 239.066406 332.71875 259.636719 C 332.71875 259.734375 332.71875 259.828125 332.71875 259.925781 Z M 332.71875 259.925781 " fill-opacity="1" fill-rule="nonzero"/></g><path fill="#fd6d2f" d="M 395.050781 328.503906 C 388.390625 307.980469 384.617188 284.964844 384.515625 260.640625 C 384.515625 260.640625 384.515625 260.640625 384.511719 260.640625 C 367.011719 260.640625 349.511719 260.640625 332.011719 260.640625 C 332.144531 282.375 336.679688 303.066406 344.773438 321.867188 C 361.445312 324.664062 378.230469 326.835938 395.050781 328.503906 Z M 395.050781 328.503906 " fill-opacity="1" fill-rule="nonzero"/><g clip-path="url(#899875d573)"><path fill="#493931" d="M 396.03125 329.21875 L 394.945312 329.210938 C 377.558594 327.488281 360.636719 325.253906 344.65625 322.570312 L 344.269531 322.507812 L 344.117188 322.152344 C 335.742188 302.691406 331.429688 282 331.296875 260.644531 L 331.289062 259.925781 L 385.222656 259.925781 L 385.226562 260.636719 C 385.328125 284.355469 388.859375 307.113281 395.730469 328.28125 Z M 345.277344 321.226562 C 360.792969 323.824219 377.1875 325.992188 394.035156 327.6875 C 387.410156 306.882812 383.96875 284.578125 383.804688 261.355469 L 332.730469 261.355469 C 332.953125 282.132812 337.171875 302.269531 345.277344 321.226562 Z M 345.277344 321.226562 " fill-opacity="1" fill-rule="nonzero"/></g><path fill="#fd6d2f" d="M 485.667969 26.308594 L 493.867188 26.308594 L 493.867188 98.386719 L 485.667969 98.386719 Z M 485.667969 26.308594 " fill-opacity="1" fill-rule="nonzero"/><g clip-path="url(#a595a988e0)"><path fill="#493931" d="M 494.582031 99.101562 L 484.953125 99.101562 L 484.953125 25.59375 L 494.582031 25.59375 Z M 486.378906 97.675781 L 493.152344 97.675781 L 493.152344 27.023438 L 486.378906 27.023438 Z M 486.378906 97.675781 " fill-opacity="1" fill-rule="nonzero"/></g><path fill="#fd6d2f" d="M 437.140625 111.019531 L 541.90625 111.019531 C 541.007812 108.722656 539.3125 105.28125 536.109375 101.882812 C 535.984375 101.746094 535.855469 101.613281 535.730469 101.484375 C 531.085938 96.734375 524.519531 94.097656 517.691406 94.097656 L 461.613281 94.097656 C 455.347656 94.097656 449.277344 96.3125 444.722656 100.402344 C 444.589844 100.519531 444.460938 100.640625 444.328125 100.761719 C 440.199219 104.601562 438.132812 108.652344 437.140625 111.019531 Z M 437.140625 111.019531 " fill-opacity="1" fill-rule="nonzero"/><path fill="#493931" d="M 542.957031 111.734375 L 436.070312 111.734375 L 436.484375 110.746094 C 438.128906 106.824219 440.671875 103.191406 443.84375 100.242188 C 443.976562 100.117188 444.109375 99.992188 444.246094 99.871094 C 448.90625 95.6875 455.074219 93.386719 461.617188 93.386719 L 517.691406 93.386719 C 524.757812 93.386719 531.519531 96.15625 536.246094 100.988281 C 536.375 101.121094 536.503906 101.253906 536.632812 101.390625 C 539.210938 104.132812 541.210938 107.285156 542.574219 110.761719 Z M 438.238281 110.304688 L 540.839844 110.304688 C 539.5625 107.382812 537.800781 104.71875 535.589844 102.371094 C 535.464844 102.238281 535.34375 102.109375 535.21875 101.984375 C 530.765625 97.425781 524.375 94.8125 517.691406 94.8125 L 461.613281 94.8125 C 455.425781 94.8125 449.59375 96.988281 445.199219 100.933594 C 445.070312 101.050781 444.941406 101.167969 444.816406 101.285156 C 442.058594 103.847656 439.800781 106.949219 438.238281 110.304688 Z M 438.238281 110.304688 " fill-opacity="1" fill-rule="nonzero"/><path fill="#dfafdb" d="M 380.304688 311.425781 C 379.277344 315.128906 377.066406 321.195312 372.125 327.230469 C 368.398438 331.789062 364.421875 334.730469 361.523438 336.53125 C 364.378906 338.257812 368.273438 341.078125 371.9375 345.453125 C 377.105469 351.625 379.316406 357.914062 380.304688 361.628906 C 381.804688 357.523438 384.25 352.164062 388.300781 346.570312 C 391.410156 342.277344 394.644531 338.976562 397.414062 336.527344 C 394.582031 334.078125 391.175781 330.667969 387.929688 326.113281 C 384.015625 320.625 381.699219 315.382812 380.304688 311.425781 Z M 380.304688 311.425781 " fill-opacity="1" fill-rule="nonzero"/><path fill="#493931" d="M 380.199219 364.007812 L 379.617188 361.816406 C 378.0625 355.984375 375.21875 350.484375 371.390625 345.914062 C 368.492188 342.449219 365.050781 339.5 361.15625 337.140625 L 360.164062 336.535156 L 361.148438 335.921875 C 365.125 333.453125 368.628906 330.375 371.574219 326.777344 C 375.316406 322.210938 378.019531 316.976562 379.621094 311.234375 L 380.230469 309.050781 L 380.980469 311.1875 C 382.804688 316.363281 385.339844 321.246094 388.515625 325.699219 C 391.210938 329.484375 394.363281 332.945312 397.882812 335.988281 L 398.5 336.519531 L 397.886719 337.0625 C 394.53125 340.027344 391.503906 343.367188 388.882812 346.984375 C 385.578125 351.550781 382.917969 356.558594 380.980469 361.875 Z M 362.863281 336.523438 C 366.496094 338.855469 369.726562 341.703125 372.484375 344.996094 C 375.996094 349.191406 378.707031 354.136719 380.398438 359.40625 C 382.296875 354.703125 384.753906 350.253906 387.722656 346.152344 C 390.246094 342.667969 393.144531 339.4375 396.335938 336.535156 C 392.976562 333.546875 389.953125 330.1875 387.347656 326.53125 C 384.507812 322.542969 382.164062 318.222656 380.375 313.65625 C 378.679688 318.796875 376.097656 323.507812 372.675781 327.6875 C 369.871094 331.109375 366.574219 334.078125 362.863281 336.523438 Z M 362.863281 336.523438 " fill-opacity="1" fill-rule="nonzero"/><path fill="#dfafdb" d="M 647.875 233.871094 C 646.847656 237.570312 644.636719 243.640625 639.695312 249.675781 C 635.96875 254.230469 631.992188 257.175781 629.097656 258.972656 C 631.949219 260.703125 635.84375 263.523438 639.507812 267.902344 C 644.675781 274.074219 646.886719 280.359375 647.875 284.078125 C 649.375 279.96875 651.820312 274.609375 655.875 269.015625 C 658.980469 264.722656 662.214844 261.421875 664.984375 258.972656 C 662.152344 256.527344 658.746094 253.113281 655.503906 248.5625 C 651.585938 243.070312 649.269531 237.828125 647.875 233.871094 Z M 647.875 233.871094 " fill-opacity="1" fill-rule="nonzero"/><g clip-path="url(#ffbd23f287)"><path fill="#493931" d="M 647.773438 286.449219 L 647.1875 284.261719 C 645.632812 278.429688 642.789062 272.929688 638.964844 268.359375 C 636.066406 264.894531 632.621094 261.941406 628.730469 259.585938 L 627.734375 258.980469 L 628.722656 258.367188 C 632.695312 255.898438 636.203125 252.820312 639.144531 249.222656 C 642.886719 244.65625 645.59375 239.421875 647.191406 233.679688 L 647.800781 231.496094 L 648.554688 233.632812 C 650.375 238.808594 652.910156 243.691406 656.085938 248.144531 C 658.78125 251.929688 661.933594 255.386719 665.453125 258.433594 L 666.070312 258.964844 L 665.460938 259.507812 C 662.105469 262.472656 659.074219 265.8125 656.453125 269.429688 C 653.148438 273.996094 650.488281 279.003906 648.550781 284.316406 Z M 630.433594 258.96875 C 634.066406 261.300781 637.300781 264.148438 640.058594 267.441406 C 643.566406 271.632812 646.277344 276.582031 647.96875 281.851562 C 649.867188 277.144531 652.328125 272.695312 655.296875 268.597656 C 657.820312 265.109375 660.714844 261.878906 663.910156 258.980469 C 660.546875 255.992188 657.527344 252.632812 654.921875 248.976562 C 652.078125 244.988281 649.738281 240.664062 647.945312 236.101562 C 646.253906 241.238281 643.667969 245.949219 640.25 250.128906 C 637.445312 253.554688 634.144531 256.523438 630.433594 258.96875 Z M 630.433594 258.96875 " fill-opacity="1" fill-rule="nonzero"/></g><path fill="#dfafdb" d="M 574.710938 108.375 C 573.683594 112.074219 571.472656 118.144531 566.53125 124.179688 C 562.804688 128.734375 558.828125 131.679688 555.933594 133.480469 C 558.785156 135.207031 562.679688 138.027344 566.34375 142.402344 C 571.511719 148.574219 573.722656 154.863281 574.710938 158.578125 C 576.210938 154.472656 578.65625 149.113281 582.707031 143.519531 C 585.816406 139.226562 589.050781 135.925781 591.820312 133.476562 C 588.988281 131.027344 585.582031 127.617188 582.335938 123.0625 C 578.421875 117.574219 576.105469 112.332031 574.710938 108.375 Z M 574.710938 108.375 " fill-opacity="1" fill-rule="nonzero"/><path fill="#493931" d="M 574.605469 160.957031 L 574.023438 158.765625 C 572.46875 152.933594 569.621094 147.433594 565.796875 142.863281 C 562.898438 139.398438 559.457031 136.445312 555.5625 134.089844 L 554.566406 133.484375 L 555.554688 132.871094 C 559.527344 130.402344 563.035156 127.328125 565.980469 123.726562 C 569.71875 119.160156 572.425781 113.925781 574.023438 108.183594 L 574.632812 106 L 575.386719 108.136719 C 577.210938 113.3125 579.742188 118.195312 582.917969 122.648438 C 585.613281 126.433594 588.765625 129.894531 592.289062 132.9375 L 592.90625 133.472656 L 592.292969 134.011719 C 588.9375 136.980469 585.90625 140.320312 583.289062 143.9375 C 579.984375 148.5 577.324219 153.507812 575.382812 158.824219 Z M 557.269531 133.472656 C 560.902344 135.804688 564.136719 138.652344 566.894531 141.945312 C 570.402344 146.140625 573.113281 151.085938 574.804688 156.355469 C 576.703125 151.652344 579.164062 147.199219 582.128906 143.101562 C 584.65625 139.617188 587.550781 136.382812 590.746094 133.484375 C 587.382812 130.496094 584.363281 127.136719 581.753906 123.480469 C 578.914062 119.492188 576.574219 115.171875 574.78125 110.605469 C 573.089844 115.742188 570.503906 120.453125 567.082031 124.632812 C 564.277344 128.058594 560.980469 131.027344 557.269531 133.472656 Z M 557.269531 133.472656 " fill-opacity="1" fill-rule="nonzero"/><path fill="#dfafdb" d="M 615.945312 102.578125 C 615.410156 104.496094 614.261719 107.640625 611.699219 110.773438 C 609.769531 113.136719 607.703125 114.664062 606.203125 115.597656 C 607.683594 116.492188 609.703125 117.957031 611.605469 120.226562 C 614.285156 123.429688 615.429688 126.691406 615.945312 128.617188 C 616.722656 126.488281 617.988281 123.707031 620.089844 120.804688 C 621.703125 118.582031 623.378906 116.867188 624.816406 115.597656 C 623.347656 114.328125 621.582031 112.554688 619.898438 110.195312 C 617.867188 107.347656 616.667969 104.628906 615.945312 102.578125 Z M 615.945312 102.578125 " fill-opacity="1" fill-rule="nonzero"/><path fill="#493931" d="M 615.839844 130.988281 L 615.253906 128.796875 C 614.460938 125.820312 613.007812 123.015625 611.054688 120.683594 C 609.578125 118.914062 607.820312 117.410156 605.832031 116.207031 L 604.839844 115.601562 L 605.828125 114.988281 C 607.855469 113.726562 609.644531 112.160156 611.148438 110.320312 C 613.058594 107.988281 614.4375 105.320312 615.257812 102.382812 L 615.863281 100.199219 L 616.617188 102.335938 C 617.554688 104.992188 618.851562 107.496094 620.480469 109.777344 C 621.863281 111.71875 623.480469 113.492188 625.285156 115.054688 L 625.902344 115.585938 L 625.289062 116.128906 C 623.570312 117.648438 622.015625 119.363281 620.667969 121.21875 C 618.972656 123.558594 617.609375 126.128906 616.613281 128.859375 Z M 607.515625 115.589844 C 609.253906 116.761719 610.808594 118.164062 612.152344 119.765625 C 613.808594 121.746094 615.128906 124.042969 616.023438 126.496094 C 616.964844 124.339844 618.136719 122.289062 619.511719 120.386719 C 620.761719 118.660156 622.183594 117.054688 623.75 115.601562 C 622.097656 114.097656 620.609375 112.421875 619.320312 110.609375 C 618.003906 108.765625 616.894531 106.785156 616.007812 104.699219 C 615.121094 107.070312 613.863281 109.257812 612.257812 111.226562 C 610.886719 112.898438 609.296875 114.359375 607.515625 115.589844 Z M 607.515625 115.589844 " fill-opacity="1" fill-rule="nonzero"/><path fill="#dfafdb" d="M 399.59375 378.148438 C 398.371094 382.546875 395.742188 389.761719 389.871094 396.9375 C 385.4375 402.351562 380.710938 405.851562 377.269531 407.988281 C 380.664062 410.046875 385.292969 413.398438 389.648438 418.601562 C 395.789062 425.9375 398.417969 433.414062 399.59375 437.832031 C 401.375 432.953125 404.285156 426.578125 409.097656 419.925781 C 412.792969 414.824219 416.640625 410.902344 419.933594 407.988281 C 416.566406 405.078125 412.515625 401.019531 408.660156 395.613281 C 404.003906 389.085938 401.25 382.851562 399.59375 378.148438 Z M 399.59375 378.148438 " fill-opacity="1" fill-rule="nonzero"/><g clip-path="url(#8fa51e859d)"><path fill="#493931" d="M 399.488281 440.207031 L 398.902344 438.015625 C 397.050781 431.066406 393.660156 424.507812 389.101562 419.058594 C 385.644531 414.929688 381.539062 411.414062 376.898438 408.601562 L 375.902344 408 L 376.890625 407.382812 C 381.625 404.441406 385.808594 400.773438 389.316406 396.484375 C 393.773438 391.039062 397 384.804688 398.90625 377.957031 L 399.515625 375.773438 L 400.269531 377.910156 C 402.441406 384.074219 405.460938 389.890625 409.242188 395.199219 C 412.453125 399.703125 416.207031 403.824219 420.398438 407.449219 L 421.015625 407.984375 L 420.40625 408.523438 C 416.410156 412.058594 412.800781 416.035156 409.679688 420.347656 C 405.742188 425.78125 402.574219 431.75 400.265625 438.078125 Z M 378.609375 407.984375 C 382.988281 410.769531 386.878906 414.183594 390.195312 418.140625 C 394.433594 423.207031 397.691406 429.203125 399.6875 435.585938 C 401.957031 429.875 404.925781 424.476562 408.519531 419.507812 C 411.542969 415.332031 415.015625 411.460938 418.851562 407.996094 C 414.816406 404.425781 411.195312 400.402344 408.074219 396.023438 C 404.628906 391.191406 401.804688 385.941406 399.664062 380.398438 C 397.65625 386.628906 394.550781 392.339844 390.417969 397.386719 C 387.050781 401.503906 383.082031 405.066406 378.609375 407.984375 Z M 378.609375 407.984375 " fill-opacity="1" fill-rule="nonzero"/></g><path fill="#dfafdb" d="M 441.40625 247.222656 C 440.371094 250.9375 438.152344 257.03125 433.1875 263.09375 C 429.445312 267.664062 425.453125 270.621094 422.546875 272.429688 C 425.410156 274.164062 429.324219 276.996094 433 281.390625 C 438.191406 287.589844 440.410156 293.902344 441.40625 297.636719 C 442.910156 293.511719 445.363281 288.128906 449.433594 282.511719 C 452.550781 278.199219 455.800781 274.886719 458.582031 272.425781 C 455.738281 269.96875 452.316406 266.539062 449.058594 261.972656 C 445.128906 256.457031 442.804688 251.195312 441.40625 247.222656 Z M 441.40625 247.222656 " fill-opacity="1" fill-rule="nonzero"/><path fill="#493931" d="M 441.296875 300.007812 L 440.714844 297.820312 C 439.152344 291.960938 436.296875 286.4375 432.453125 281.847656 C 429.542969 278.371094 426.085938 275.40625 422.175781 273.039062 L 421.179688 272.433594 L 422.167969 271.820312 C 426.15625 269.339844 429.675781 266.25 432.636719 262.640625 C 436.390625 258.050781 439.109375 252.796875 440.714844 247.027344 L 441.324219 244.84375 L 442.078125 246.980469 C 443.910156 252.179688 446.453125 257.082031 449.640625 261.554688 C 452.347656 265.355469 455.515625 268.828125 459.050781 271.886719 L 459.667969 272.421875 L 459.054688 272.960938 C 455.683594 275.941406 452.640625 279.292969 450.011719 282.929688 C 446.691406 287.507812 444.023438 292.542969 442.074219 297.878906 Z M 423.878906 272.421875 C 427.53125 274.761719 430.777344 277.625 433.546875 280.933594 C 437.074219 285.144531 439.796875 290.113281 441.492188 295.410156 C 443.402344 290.679688 445.871094 286.210938 448.855469 282.09375 C 451.390625 278.59375 454.296875 275.34375 457.503906 272.433594 C 454.128906 269.433594 451.09375 266.058594 448.476562 262.386719 C 445.621094 258.382812 443.269531 254.039062 441.472656 249.453125 C 439.769531 254.617188 437.175781 259.347656 433.738281 263.546875 C 430.921875 266.984375 427.609375 269.96875 423.878906 272.421875 Z M 423.878906 272.421875 " fill-opacity="1" fill-rule="nonzero"/><path fill="#dfafdb" d="M 389.75 141.84375 C 388.714844 145.5625 386.492188 151.65625 381.53125 157.722656 C 377.785156 162.296875 373.789062 165.253906 370.882812 167.0625 C 373.75 168.800781 377.664062 171.632812 381.34375 176.03125 C 386.535156 182.230469 388.753906 188.546875 389.75 192.28125 C 391.257812 188.15625 393.710938 182.769531 397.78125 177.152344 C 400.902344 172.839844 404.152344 169.523438 406.933594 167.0625 C 404.089844 164.605469 400.664062 161.171875 397.40625 156.601562 C 393.476562 151.085938 391.148438 145.820312 389.75 141.84375 Z M 389.75 141.84375 " fill-opacity="1" fill-rule="nonzero"/><path fill="#493931" d="M 389.640625 194.652344 L 389.058594 192.464844 C 387.496094 186.605469 384.640625 181.078125 380.792969 176.484375 C 377.882812 173.007812 374.421875 170.039062 370.511719 167.671875 L 369.519531 167.070312 L 370.503906 166.453125 C 374.496094 163.972656 378.019531 160.882812 380.976562 157.269531 C 384.734375 152.675781 387.457031 147.421875 389.0625 141.648438 L 389.667969 139.464844 L 390.421875 141.605469 C 392.253906 146.804688 394.800781 151.710938 397.992188 156.183594 C 400.699219 159.984375 403.863281 163.460938 407.402344 166.519531 L 408.019531 167.050781 L 407.40625 167.59375 C 404.035156 170.574219 400.992188 173.929688 398.359375 177.5625 C 395.039062 182.148438 392.371094 187.179688 390.417969 192.519531 Z M 372.21875 167.054688 C 375.871094 169.398438 379.117188 172.257812 381.890625 175.570312 C 385.417969 179.785156 388.140625 184.753906 389.839844 190.054688 C 391.75 185.324219 394.222656 180.851562 397.203125 176.730469 C 399.738281 173.226562 402.648438 169.980469 405.859375 167.066406 C 402.480469 164.066406 399.441406 160.6875 396.828125 157.015625 C 393.972656 153.007812 391.617188 148.660156 389.816406 144.074219 C 388.113281 149.238281 385.519531 153.976562 382.082031 158.171875 C 379.265625 161.617188 375.949219 164.601562 372.21875 167.054688 Z M 372.21875 167.054688 " fill-opacity="1" fill-rule="nonzero"/><path fill="#dfafdb" d="M 601.703125 340.441406 C 600.628906 344.296875 598.324219 350.621094 593.175781 356.914062 C 589.292969 361.660156 585.144531 364.726562 582.128906 366.601562 C 585.105469 368.40625 589.164062 371.34375 592.980469 375.90625 C 598.367188 382.339844 600.667969 388.894531 601.703125 392.765625 C 603.261719 388.484375 605.8125 382.898438 610.035156 377.066406 C 613.273438 372.59375 616.644531 369.15625 619.53125 366.601562 C 616.578125 364.054688 613.027344 360.492188 609.648438 355.75 C 605.566406 350.027344 603.152344 344.566406 601.703125 340.441406 Z M 601.703125 340.441406 " fill-opacity="1" fill-rule="nonzero"/><path fill="#493931" d="M 601.59375 395.136719 L 601.011719 392.949219 C 599.386719 386.867188 596.421875 381.128906 592.433594 376.363281 C 589.410156 372.753906 585.816406 369.671875 581.757812 367.214844 L 580.761719 366.609375 L 581.75 365.996094 C 585.894531 363.421875 589.550781 360.210938 592.621094 356.460938 C 596.523438 351.695312 599.347656 346.242188 601.011719 340.25 L 601.621094 338.066406 L 602.375 340.203125 C 604.277344 345.597656 606.917969 350.691406 610.226562 355.335938 C 613.039062 359.277344 616.324219 362.886719 619.996094 366.0625 L 620.613281 366.597656 L 620.003906 367.136719 C 616.503906 370.230469 613.34375 373.710938 610.613281 377.484375 C 607.167969 382.246094 604.394531 387.46875 602.371094 393.007812 Z M 583.464844 366.597656 C 587.265625 369.03125 590.644531 372.003906 593.527344 375.449219 C 597.203125 379.835938 600.035156 385.015625 601.792969 390.535156 C 603.777344 385.605469 606.351562 380.941406 609.457031 376.652344 C 612.089844 373.011719 615.117188 369.636719 618.453125 366.609375 C 614.941406 363.492188 611.785156 359.984375 609.066406 356.167969 C 606.089844 351.992188 603.640625 347.460938 601.769531 342.679688 C 600.007812 348.0625 597.308594 352.996094 593.730469 357.367188 C 590.796875 360.945312 587.347656 364.046875 583.464844 366.597656 Z M 583.464844 366.597656 " fill-opacity="1" fill-rule="nonzero"/></svg>