<svg version="1.0" preserveAspectRatio="xMidYMid meet" viewBox="41.48706411698538 221.184 953.0500562429696 202.75199999999998" zoomAndPan="magnify" xmlns:xlink="http://www.w3.org/1999/xlink" xmlns="http://www.w3.org/2000/svg" style="max-height: 500px" width="953.0500562429696" height="202.75199999999998"><defs><g/><clipPath id="4851b95b50"><path clip-rule="nonzero" d="M 223 175 L 1024 175 L 1024 479 L 223 479 Z M 223 175"/></clipPath></defs><g clip-path="url(#4851b95b50)"><path stroke-miterlimit="4" stroke-opacity="1" stroke-width="6.660776" stroke="#fae8e0" d="M 106.046129 69.441059 C 94.631452 69.441059 86.281023 72.630543 79.061761 81.401119 C 74.153308 71.832667 64.877748 69.441059 56.569738 69.441059 C 46.498321 69.441059 36.089574 74.519186 28.619839 83.204925 C 24.339588 76.658302 17.457655 72.378051 8.266931 70.489408 L 8.266931 144.558558 C 8.266931 146.782512 9.442536 148.000535 11.708908 148.000535 L 30.593319 148.000535 C 32.817272 148.000535 34.033276 146.782512 34.033276 144.558558 L 34.033276 104.355708 C 34.998807 95.502315 39.446713 90.086858 47.253778 90.086858 C 55.856699 90.086858 58.793691 95.920442 58.793691 106.747316 L 58.793691 144.558558 C 58.793691 146.782512 60.009694 148.000535 62.233647 148.000535 L 81.118059 148.000535 C 83.384431 148.000535 84.560035 146.782512 84.560035 144.558558 L 84.560035 106.747316 C 84.560035 95.920442 88.504976 90.086858 97.820936 90.086858 C 107.096497 90.086858 109.488105 95.920442 109.488105 106.747316 L 109.488105 144.558558 C 109.488105 146.782512 110.704108 148.000535 112.928061 148.000535 L 131.854892 148.000535 C 134.078845 148.000535 135.296868 146.782512 135.296868 144.558558 L 135.296868 98.144395 C 135.296868 81.988922 125.811234 69.441059 106.046129 69.441059 Z M 239.592389 69.441059 C 228.177713 69.441059 219.827284 72.630543 212.608021 81.401119 C 207.699569 71.832667 198.424008 69.441059 190.115998 69.441059 C 180.044581 69.441059 169.635835 74.519186 162.1661 83.204925 C 157.885848 76.658302 151.003915 72.378051 141.813192 70.489408 L 141.813192 144.558558 C 141.813192 146.782512 142.988797 148.000535 145.255169 148.000535 L 164.13958 148.000535 C 166.363533 148.000535 167.579537 146.782512 167.579537 144.558558 L 167.579537 104.355708 C 168.545068 95.502315 172.992974 90.086858 180.798019 90.086858 C 189.40094 90.086858 192.339951 95.920442 192.339951 106.747316 L 192.339951 144.558558 C 192.339951 146.782512 193.555955 148.000535 195.779908 148.000535 L 214.66432 148.000535 C 216.930691 148.000535 218.106296 146.782512 218.106296 144.558558 L 218.106296 106.747316 C 218.106296 95.920442 222.051237 90.086858 231.367197 90.086858 C 240.640738 90.086858 243.034366 95.920442 243.034366 106.747316 L 243.034366 144.558558 C 243.034366 146.782512 244.250369 148.000535 246.474322 148.000535 L 265.401153 148.000535 C 267.625106 148.000535 268.843129 146.782512 268.843129 144.558558 L 268.843129 98.144395 C 268.843129 81.988922 259.357494 69.441059 239.592389 69.441059 Z M 340.23788 84.505766 C 333.523602 75.106989 322.864383 69.441059 309.896373 69.441059 C 287.529587 69.441059 272.085131 86.101518 272.085131 110.021638 C 272.085131 134.066994 287.529587 150.769872 309.896373 150.769872 C 322.864383 150.769872 333.523602 145.061523 340.23788 135.620327 C 344.433294 144.055594 351.652557 148.671155 361.639136 149.721523 L 361.639136 70.489408 C 351.652557 71.497357 344.433294 76.155337 340.23788 84.505766 Z M 317.786256 130.122053 C 307.294692 130.122053 299.740119 121.856462 299.740119 110.189293 C 299.740119 98.481725 307.294692 90.256533 317.786256 90.256533 C 328.27782 90.256533 335.830373 98.481725 335.830373 110.189293 C 335.830373 121.856462 328.27782 130.122053 317.786256 130.122053 Z M 317.786256 130.122053" stroke-linejoin="miter" fill="none" transform="matrix(1.933845, 0, 0, 1.933845, 280.462252, 113.95392)" stroke-linecap="butt"/></g><g fill-opacity="1" fill="#dfafdb"><g transform="translate(280.462252, 400.163028)"><g><path d="M 205.09375 -151.90625 C 182.984375 -151.90625 166.875 -145.765625 152.90625 -128.8125 C 143.4375 -147.25 125.484375 -151.90625 109.359375 -151.90625 C 89.921875 -151.90625 69.8125 -142.109375 55.34375 -125.3125 C 47.03125 -137.953125 33.734375 -146.265625 15.953125 -149.921875 L 15.953125 -6.640625 C 15.953125 -2.328125 18.28125 0 22.609375 0 L 59.171875 0 C 63.484375 0 65.8125 -2.328125 65.8125 -6.640625 L 65.8125 -84.4375 C 67.640625 -101.546875 76.28125 -112.015625 91.40625 -112.015625 C 108.03125 -112.015625 113.6875 -100.71875 113.6875 -79.78125 L 113.6875 -6.640625 C 113.6875 -2.328125 116.015625 0 120.328125 0 L 156.890625 0 C 161.21875 0 163.546875 -2.328125 163.546875 -6.640625 L 163.546875 -79.78125 C 163.546875 -100.71875 171.1875 -112.015625 189.140625 -112.015625 C 207.09375 -112.015625 211.75 -100.71875 211.75 -79.78125 L 211.75 -6.640625 C 211.75 -2.328125 214.0625 0 218.390625 0 L 254.953125 0 C 259.28125 0 261.609375 -2.328125 261.609375 -6.640625 L 261.609375 -96.390625 C 261.609375 -127.640625 243.328125 -151.90625 205.09375 -151.90625 Z M 205.09375 -151.90625"/></g></g></g><g fill-opacity="1" fill="#dfafdb"><g transform="translate(538.719601, 400.163028)"><g><path d="M 205.09375 -151.90625 C 182.984375 -151.90625 166.875 -145.765625 152.90625 -128.8125 C 143.4375 -147.25 125.484375 -151.90625 109.359375 -151.90625 C 89.921875 -151.90625 69.8125 -142.109375 55.34375 -125.3125 C 47.03125 -137.953125 33.734375 -146.265625 15.953125 -149.921875 L 15.953125 -6.640625 C 15.953125 -2.328125 18.28125 0 22.609375 0 L 59.171875 0 C 63.484375 0 65.8125 -2.328125 65.8125 -6.640625 L 65.8125 -84.4375 C 67.640625 -101.546875 76.28125 -112.015625 91.40625 -112.015625 C 108.03125 -112.015625 113.6875 -100.71875 113.6875 -79.78125 L 113.6875 -6.640625 C 113.6875 -2.328125 116.015625 0 120.328125 0 L 156.890625 0 C 161.21875 0 163.546875 -2.328125 163.546875 -6.640625 L 163.546875 -79.78125 C 163.546875 -100.71875 171.1875 -112.015625 189.140625 -112.015625 C 207.09375 -112.015625 211.75 -100.71875 211.75 -79.78125 L 211.75 -6.640625 C 211.75 -2.328125 214.0625 0 218.390625 0 L 254.953125 0 C 259.28125 0 261.609375 -2.328125 261.609375 -6.640625 L 261.609375 -96.390625 C 261.609375 -127.640625 243.328125 -151.90625 205.09375 -151.90625 Z M 205.09375 -151.90625"/></g></g></g><g fill-opacity="1" fill="#dfafdb"><g transform="translate(796.97695, 400.163028)"><g><path d="M 141.4375 -122.828125 C 128.46875 -140.9375 107.859375 -151.90625 82.765625 -151.90625 C 39.5625 -151.90625 9.640625 -119.671875 9.640625 -73.46875 C 9.640625 -26.921875 39.5625 5.3125 82.765625 5.3125 C 107.859375 5.3125 128.46875 -5.65625 141.4375 -23.9375 C 149.578125 -7.640625 163.546875 1.328125 182.828125 3.328125 L 182.828125 -149.921875 C 163.546875 -147.921875 149.578125 -138.953125 141.4375 -122.828125 Z M 98.0625 -34.5625 C 77.78125 -34.5625 63.15625 -50.53125 63.15625 -73.125 C 63.15625 -95.734375 77.78125 -111.6875 98.0625 -111.6875 C 118.34375 -111.6875 132.96875 -95.734375 132.96875 -73.125 C 132.96875 -50.53125 118.34375 -34.5625 98.0625 -34.5625 Z M 98.0625 -34.5625"/></g></g></g><path fill-rule="evenodd" fill-opacity="1" d="M 209.34375 226.421875 C 171.101562 227.992188 143.355469 235.019531 106.183594 252.554688 C 75.359375 267.097656 47.492188 287.152344 47.492188 294.800781 C 47.492188 300.058594 51.992188 301.007812 59.046875 297.242188 C 80.421875 285.835938 108.460938 276.089844 136.589844 270.285156 C 188.566406 259.5625 257.992188 268.863281 271.96875 288.417969 C 289.296875 312.667969 244.582031 336.753906 195.84375 329.421875 C 186.207031 327.972656 184.667969 328.347656 184.667969 332.140625 C 184.667969 343.933594 234.890625 355.113281 270.238281 351.183594 C 308.488281 346.933594 348.445312 326.035156 359.09375 304.714844 C 380.042969 262.765625 303.175781 222.578125 209.34375 226.421875 M 210.714844 232.113281 C 188.976562 232.875 176.203125 234.328125 163.046875 237.539062 C 137.777344 243.699219 122.457031 249.585938 93.152344 264.402344 C 73.871094 274.15625 51.085938 290.800781 52.386719 294.1875 C 52.863281 295.433594 55.179688 294.765625 60.148438 291.9375 C 65.527344 288.878906 71.421875 286.144531 77.800781 283.75 C 80.109375 282.882812 85.535156 280.703125 89.851562 278.90625 C 133.21875 260.875 191.542969 255.617188 240.292969 265.34375 C 279.261719 273.117188 294.949219 297.402344 274.324219 318.027344 C 261.769531 330.582031 224.972656 338.222656 198.929688 333.683594 C 184.886719 331.234375 187.410156 335.75 202.722656 340.46875 C 238.585938 351.515625 277.761719 348.945312 315.339844 333.074219 C 327.496094 327.941406 341.996094 317.472656 348.960938 308.804688 C 366.988281 286.371094 349.855469 261.042969 306.570312 246.144531 C 273.925781 234.910156 246.289062 230.863281 210.714844 232.113281 M 175.113281 273.914062 C 97.769531 277.46875 59.746094 351.671875 116.03125 389.21875 C 157.578125 416.929688 210.21875 422.507812 274.984375 406.0625 C 319.113281 394.859375 377.746094 358.378906 389.652344 334.71875 C 393.890625 326.292969 388.203125 326.617188 373.003906 335.667969 C 344.609375 352.582031 321.066406 362.347656 288.675781 370.660156 C 265.21875 376.679688 227.230469 376.882812 196.109375 371.160156 C 115.855469 356.398438 108.6875 289.71875 186.324219 280.121094 C 192.414062 279.367188 193.554688 278.949219 193.554688 277.460938 C 193.554688 274.332031 188.238281 273.308594 175.113281 273.914062 M 171.828125 275.941406 C 160.804688 277.519531 154.300781 279.054688 147.824219 281.605469 C 121.328125 292.039062 104.195312 307.324219 96.546875 327.359375 C 86.179688 354.503906 102.320312 380.664062 139.8125 397.46875 C 200.722656 424.769531 292.84375 409.484375 356.605469 361.5 C 370.925781 350.71875 384.894531 337.582031 384.894531 334.894531 C 384.894531 333.136719 382.441406 334.230469 370.976562 341.101562 C 312.542969 376.132812 272.824219 385.320312 210.1875 378.292969 C 154.046875 371.996094 120.21875 344.386719 128.558594 311.671875 C 132.667969 295.542969 152.707031 282.949219 181.742188 278.25 C 186.996094 277.402344 187.714844 277.066406 185.65625 276.433594 C 184.257812 276.007812 173.945312 275.636719 171.828125 275.941406 M 213.273438 285.800781 C 195.785156 288.023438 185.753906 297.601562 190.648438 307.394531 C 198.628906 323.371094 239.058594 316.882812 238.996094 299.632812 C 238.964844 290.617188 226.8125 284.082031 213.273438 285.800781 M 210.285156 289.773438 C 197.660156 291.898438 190.71875 299.21875 194.773438 306.140625 C 200.59375 316.066406 229.242188 314.046875 234.421875 303.34375 C 238.90625 294.082031 226.410156 287.058594 210.285156 289.773438" fill="#fae8e0"/><path fill-rule="evenodd" fill-opacity="1" d="M 210.714844 232.113281 C 188.976562 232.875 176.203125 234.328125 163.046875 237.539062 C 137.777344 243.699219 122.457031 249.585938 93.152344 264.402344 C 73.871094 274.15625 51.085938 290.800781 52.386719 294.1875 C 52.863281 295.433594 55.179688 294.765625 60.148438 291.9375 C 65.527344 288.878906 71.421875 286.144531 77.800781 283.75 C 80.109375 282.882812 85.535156 280.703125 89.851562 278.90625 C 133.21875 260.875 191.542969 255.617188 240.292969 265.34375 C 279.261719 273.117188 294.949219 297.402344 274.324219 318.027344 C 261.769531 330.582031 224.972656 338.222656 198.929688 333.683594 C 184.886719 331.234375 187.410156 335.75 202.722656 340.46875 C 238.585938 351.515625 277.761719 348.945312 315.339844 333.074219 C 327.496094 327.941406 341.996094 317.472656 348.960938 308.804688 C 366.988281 286.371094 349.855469 261.042969 306.570312 246.144531 C 273.925781 234.910156 246.289062 230.863281 210.714844 232.113281 M 171.828125 275.941406 C 160.804688 277.519531 154.300781 279.054688 147.824219 281.605469 C 121.328125 292.039062 104.195312 307.324219 96.546875 327.359375 C 86.179688 354.503906 102.320312 380.664062 139.8125 397.46875 C 200.722656 424.769531 292.84375 409.484375 356.605469 361.5 C 370.925781 350.71875 384.894531 337.582031 384.894531 334.894531 C 384.894531 333.136719 382.441406 334.230469 370.976562 341.101562 C 312.542969 376.132812 272.824219 385.320312 210.1875 378.292969 C 154.046875 371.996094 120.21875 344.386719 128.558594 311.671875 C 132.667969 295.542969 152.707031 282.949219 181.742188 278.25 C 186.996094 277.402344 187.714844 277.066406 185.65625 276.433594 C 184.257812 276.007812 173.945312 275.636719 171.828125 275.941406 M 210.285156 289.773438 C 197.660156 291.898438 190.71875 299.21875 194.773438 306.140625 C 200.59375 316.066406 229.242188 314.046875 234.421875 303.34375 C 238.90625 294.082031 226.410156 287.058594 210.285156 289.773438" fill="#dfafdb"/></svg>