<svg xmlns="http://www.w3.org/2000/svg" xmlns:xlink="http://www.w3.org/1999/xlink" width="1366" zoomAndPan="magnify" viewBox="0 0 1024.5 576" height="768" preserveAspectRatio="xMidYMid meet" version="1.0"><defs><clipPath id="4882e749aa"><path d="M 229 6 L 796.742188 6 L 796.742188 575.859375 L 229 575.859375 Z M 229 6 " clip-rule="nonzero"/></clipPath></defs><g clip-path="url(#4882e749aa)"><path fill="#fae8e0" d="M 635.679688 575.828125 C 634.746094 575.828125 633.8125 575.78125 632.882812 575.691406 C 631.957031 575.597656 631.035156 575.460938 630.117188 575.28125 C 629.203125 575.097656 628.296875 574.871094 627.40625 574.601562 C 626.511719 574.328125 625.632812 574.015625 624.773438 573.660156 C 623.910156 573.300781 623.066406 572.902344 622.242188 572.460938 C 621.421875 572.023438 620.621094 571.542969 619.84375 571.023438 C 619.070312 570.507812 618.320312 569.953125 617.597656 569.359375 C 616.878906 568.765625 616.1875 568.140625 615.527344 567.480469 C 614.867188 566.820312 614.242188 566.128906 613.648438 565.410156 C 613.054688 564.6875 612.5 563.9375 611.984375 563.164062 C 611.464844 562.386719 610.984375 561.585938 610.546875 560.765625 C 610.105469 559.941406 609.707031 559.097656 609.347656 558.234375 C 608.992188 557.375 608.679688 556.496094 608.40625 555.601562 C 608.136719 554.710938 607.910156 553.804688 607.726562 552.890625 C 607.546875 551.972656 607.410156 551.050781 607.316406 550.125 C 607.226562 549.195312 607.179688 548.261719 607.179688 547.328125 L 607.179688 473.234375 C 607.402344 471.109375 607.511719 468.980469 607.507812 466.84375 C 607.507812 464.707031 607.390625 462.578125 607.167969 460.453125 C 606.941406 458.328125 606.605469 456.222656 606.160156 454.132812 C 605.714844 452.042969 605.164062 449.980469 604.503906 447.949219 C 603.84375 445.917969 603.078125 443.925781 602.207031 441.976562 C 601.339844 440.023438 600.371094 438.125 599.300781 436.273438 C 598.234375 434.421875 597.070312 432.632812 595.816406 430.90625 C 594.5625 429.175781 593.21875 427.519531 591.792969 425.929688 C 590.910156 424.972656 590.09375 423.957031 589.351562 422.890625 C 588.605469 421.820312 587.941406 420.707031 587.347656 419.546875 C 586.757812 418.386719 586.25 417.191406 585.820312 415.960938 C 585.394531 414.730469 585.054688 413.476562 584.796875 412.199219 C 584.542969 410.921875 584.375 409.632812 584.296875 408.332031 C 584.21875 407.03125 584.226562 405.734375 584.328125 404.433594 C 584.425781 403.136719 584.613281 401.851562 584.890625 400.578125 C 585.167969 399.304688 585.527344 398.058594 585.972656 396.835938 C 586.421875 395.609375 586.949219 394.421875 587.558594 393.273438 C 588.167969 392.121094 588.855469 391.019531 589.613281 389.960938 C 590.375 388.90625 591.203125 387.902344 592.101562 386.960938 C 593 386.019531 593.960938 385.140625 594.976562 384.328125 C 595.996094 383.515625 597.066406 382.777344 598.183594 382.113281 C 599.304688 381.449219 600.464844 380.863281 601.664062 380.355469 C 602.863281 379.847656 604.09375 379.425781 605.351562 379.089844 C 606.609375 378.75 607.882812 378.5 609.175781 378.339844 C 678.710938 370.074219 742.828125 347.84375 742.828125 227.300781 C 742.835938 221.703125 742.429688 216.136719 741.617188 210.597656 C 740.800781 205.058594 739.585938 199.613281 737.96875 194.253906 C 736.351562 188.894531 734.351562 183.683594 731.964844 178.621094 C 729.578125 173.554688 726.835938 168.695312 723.734375 164.035156 C 722.316406 161.902344 721 159.710938 719.796875 157.449219 C 718.589844 155.191406 717.496094 152.878906 716.515625 150.511719 C 715.539062 148.144531 714.675781 145.734375 713.933594 143.285156 C 713.191406 140.835938 712.566406 138.351562 712.070312 135.839844 C 711.570312 133.328125 711.191406 130.800781 710.941406 128.25 C 710.6875 125.703125 710.5625 123.148438 710.5625 120.585938 C 710.558594 118.023438 710.683594 115.46875 710.933594 112.921875 C 711.179688 110.371094 711.554688 107.839844 712.050781 105.328125 C 713.335938 98.695312 713.976562 91.996094 713.976562 85.238281 C 713.976562 78.480469 713.335938 71.78125 712.050781 65.148438 C 701.382812 68.753906 691.054688 73.164062 681.066406 78.371094 C 671.082031 83.578125 661.554688 89.523438 652.492188 96.210938 C 650.777344 97.425781 648.953125 98.441406 647.011719 99.253906 C 645.074219 100.066406 643.070312 100.660156 641 101.027344 C 638.933594 101.398438 636.847656 101.535156 634.746094 101.445312 C 632.648438 101.351562 630.582031 101.03125 628.554688 100.484375 C 615.757812 96.867188 602.773438 94.148438 589.601562 92.324219 C 576.429688 90.496094 563.195312 89.585938 549.898438 89.585938 C 536.601562 89.585938 523.367188 90.496094 510.195312 92.324219 C 497.023438 94.148438 484.042969 96.867188 471.246094 100.484375 C 469.214844 101.03125 467.152344 101.351562 465.050781 101.445312 C 462.953125 101.535156 460.867188 101.398438 458.796875 101.027344 C 456.726562 100.660156 454.722656 100.066406 452.785156 99.253906 C 450.847656 98.441406 449.019531 97.425781 447.308594 96.210938 C 438.1875 89.449219 428.582031 83.460938 418.496094 78.25 C 408.410156 73.039062 397.96875 68.671875 387.175781 65.148438 C 385.820312 71.777344 385.144531 78.472656 385.144531 85.238281 C 385.144531 92.003906 385.820312 98.699219 387.175781 105.328125 C 388.101562 110.429688 388.53125 115.574219 388.46875 120.761719 C 388.40625 125.945312 387.847656 131.078125 386.800781 136.15625 C 385.75 141.234375 384.226562 146.164062 382.226562 150.949219 C 380.230469 155.734375 377.796875 160.289062 374.921875 164.605469 C 371.835938 169.296875 369.101562 174.1875 366.726562 179.28125 C 364.347656 184.371094 362.351562 189.605469 360.734375 194.984375 C 359.117188 200.367188 357.898438 205.835938 357.078125 211.390625 C 356.253906 216.949219 355.839844 222.535156 355.828125 228.15625 C 355.828125 339.011719 409.40625 368.648438 489.769531 378.90625 C 491.078125 379.070312 492.367188 379.324219 493.640625 379.664062 C 494.914062 380.003906 496.160156 380.433594 497.371094 380.945312 C 498.585938 381.460938 499.757812 382.058594 500.890625 382.734375 C 502.023438 383.410156 503.101562 384.164062 504.128906 384.988281 C 505.15625 385.816406 506.121094 386.710938 507.023438 387.667969 C 507.925781 388.628906 508.757812 389.648438 509.519531 390.722656 C 510.28125 391.800781 510.964844 392.925781 511.570312 394.09375 C 512.175781 395.265625 512.699219 396.472656 513.136719 397.714844 C 513.550781 398.921875 513.878906 400.152344 514.125 401.402344 C 514.375 402.65625 514.535156 403.917969 514.613281 405.191406 C 514.691406 406.464844 514.683594 407.734375 514.59375 409.007812 C 514.5 410.28125 514.320312 411.539062 514.058594 412.789062 C 513.796875 414.035156 513.453125 415.261719 513.027344 416.460938 C 512.601562 417.664062 512.09375 418.832031 511.511719 419.964844 C 510.929688 421.101562 510.273438 422.191406 509.542969 423.238281 C 508.8125 424.28125 508.015625 425.273438 507.152344 426.214844 C 504.382812 429.175781 501.941406 432.390625 499.839844 435.859375 C 497.734375 439.328125 496.007812 442.972656 494.65625 446.800781 C 493.308594 450.625 492.367188 454.550781 491.832031 458.570312 C 491.296875 462.59375 491.179688 466.625 491.480469 470.671875 L 491.480469 547.328125 C 491.480469 548.261719 491.433594 549.195312 491.339844 550.125 C 491.25 551.050781 491.113281 551.972656 490.929688 552.890625 C 490.75 553.804688 490.523438 554.710938 490.25 555.601562 C 489.980469 556.496094 489.667969 557.375 489.308594 558.234375 C 488.953125 559.097656 488.554688 559.941406 488.113281 560.765625 C 487.675781 561.585938 487.195312 562.386719 486.675781 563.164062 C 486.15625 563.9375 485.601562 564.6875 485.011719 565.410156 C 484.417969 566.128906 483.792969 566.820312 483.132812 567.480469 C 482.472656 568.140625 481.78125 568.765625 481.058594 569.359375 C 480.339844 569.953125 479.589844 570.507812 478.8125 571.023438 C 478.039062 571.542969 477.238281 572.023438 476.414062 572.460938 C 475.589844 572.902344 474.75 573.300781 473.886719 573.660156 C 473.023438 574.015625 472.148438 574.328125 471.253906 574.601562 C 470.359375 574.871094 469.457031 575.097656 468.539062 575.28125 C 467.625 575.460938 466.703125 575.597656 465.773438 575.691406 C 464.84375 575.78125 463.914062 575.828125 462.980469 575.828125 C 462.046875 575.828125 461.117188 575.78125 460.1875 575.691406 C 459.257812 575.597656 458.335938 575.460938 457.421875 575.28125 C 456.507812 575.097656 455.601562 574.871094 454.707031 574.601562 C 453.816406 574.328125 452.9375 574.015625 452.074219 573.660156 C 451.214844 573.300781 450.371094 572.902344 449.546875 572.460938 C 448.722656 572.023438 447.925781 571.542969 447.148438 571.023438 C 446.371094 570.507812 445.625 569.953125 444.902344 569.359375 C 444.179688 568.765625 443.488281 568.140625 442.828125 567.480469 C 442.171875 566.820312 441.542969 566.128906 440.953125 565.410156 C 440.359375 564.6875 439.804688 563.9375 439.285156 563.164062 C 438.765625 562.386719 438.289062 561.585938 437.847656 560.765625 C 437.40625 559.941406 437.007812 559.097656 436.652344 558.234375 C 436.296875 557.375 435.980469 556.496094 435.710938 555.601562 C 435.4375 554.710938 435.210938 553.804688 435.03125 552.890625 C 434.847656 551.972656 434.710938 551.050781 434.621094 550.125 C 434.527344 549.195312 434.484375 548.261719 434.484375 547.328125 L 434.484375 531.085938 C 431 531.488281 427.507812 531.78125 424.003906 531.964844 C 420.503906 532.152344 417 532.230469 413.492188 532.199219 C 409.984375 532.171875 406.484375 532.03125 402.984375 531.785156 C 399.488281 531.542969 396 531.1875 392.523438 530.730469 C 389.046875 530.269531 385.585938 529.703125 382.144531 529.03125 C 378.703125 528.359375 375.285156 527.578125 371.894531 526.695312 C 368.5 525.8125 365.136719 524.828125 361.800781 523.738281 C 358.46875 522.648438 355.171875 521.457031 351.914062 520.164062 C 348.652344 518.871094 345.4375 517.480469 342.261719 515.988281 C 339.089844 514.496094 335.960938 512.910156 332.886719 511.226562 C 329.808594 509.542969 326.789062 507.769531 323.820312 505.898438 C 320.851562 504.03125 317.945312 502.070312 315.101562 500.023438 C 312.253906 497.976562 309.472656 495.84375 306.757812 493.625 C 304.039062 491.40625 301.394531 489.105469 298.820312 486.722656 C 296.25 484.34375 293.75 481.882812 291.328125 479.347656 C 288.90625 476.8125 286.5625 474.207031 284.300781 471.527344 C 279.625 466.34375 274.511719 461.648438 268.953125 457.429688 C 263.394531 453.214844 257.488281 449.554688 251.242188 446.449219 C 250.335938 446.214844 249.445312 445.9375 248.566406 445.617188 C 247.6875 445.296875 246.828125 444.933594 245.984375 444.527344 C 245.140625 444.121094 244.320312 443.675781 243.523438 443.191406 C 242.722656 442.707031 241.949219 442.179688 241.203125 441.621094 C 240.453125 441.058594 239.738281 440.460938 239.046875 439.828125 C 238.359375 439.195312 237.703125 438.53125 237.078125 437.832031 C 236.457031 437.136719 235.867188 436.410156 235.316406 435.65625 C 234.765625 434.902344 234.25 434.121094 233.777344 433.316406 C 233.300781 432.511719 232.867188 431.683594 232.472656 430.835938 C 232.078125 429.988281 231.726562 429.121094 231.417969 428.238281 C 231.105469 427.355469 230.839844 426.460938 230.621094 425.554688 C 230.398438 424.644531 230.222656 423.726562 230.09375 422.800781 C 229.960938 421.875 229.875 420.945312 229.835938 420.011719 C 229.796875 419.078125 229.804688 418.144531 229.855469 417.210938 C 229.90625 416.277344 230.003906 415.347656 230.148438 414.421875 C 230.292969 413.5 230.480469 412.582031 230.714844 411.679688 C 230.949219 410.773438 231.226562 409.878906 231.546875 409.003906 C 231.867188 408.125 232.230469 407.261719 232.636719 406.421875 C 233.042969 405.578125 233.488281 404.757812 233.972656 403.957031 C 234.460938 403.160156 234.984375 402.386719 235.546875 401.640625 C 236.109375 400.894531 236.707031 400.175781 237.339844 399.484375 C 237.972656 398.796875 238.636719 398.140625 239.332031 397.519531 C 240.03125 396.894531 240.757812 396.308594 241.511719 395.757812 C 242.265625 395.203125 243.046875 394.691406 243.851562 394.214844 C 244.65625 393.742188 245.484375 393.304688 246.332031 392.914062 C 247.179688 392.519531 248.046875 392.167969 248.929688 391.859375 C 249.8125 391.550781 250.707031 391.285156 251.617188 391.0625 C 252.523438 390.84375 253.441406 390.667969 254.367188 390.535156 C 255.292969 390.40625 256.222656 390.320312 257.160156 390.28125 C 258.09375 390.242188 259.027344 390.25 259.960938 390.300781 C 260.894531 390.355469 261.824219 390.453125 262.746094 390.597656 C 263.671875 390.738281 264.585938 390.929688 265.492188 391.160156 C 270.949219 393.152344 276.265625 395.46875 281.4375 398.117188 C 286.609375 400.765625 291.597656 403.722656 296.402344 406.992188 C 301.207031 410.257812 305.792969 413.808594 310.15625 417.644531 C 314.519531 421.480469 318.628906 425.574219 322.488281 429.917969 C 350.984375 458.417969 379.484375 483.496094 433.628906 473.234375 C 433.152344 465.585938 433.464844 457.96875 434.570312 450.382812 C 435.675781 442.796875 437.546875 435.40625 440.183594 428.210938 C 381.476562 413.390625 297.695312 371.214844 297.695312 228.722656 C 297.675781 220.332031 298.269531 211.984375 299.480469 203.679688 C 300.691406 195.375 302.503906 187.203125 304.917969 179.167969 C 307.332031 171.128906 310.320312 163.3125 313.886719 155.714844 C 317.449219 148.117188 321.550781 140.820312 326.191406 133.828125 C 327.050781 132.539062 327.777344 131.183594 328.378906 129.757812 C 328.976562 128.332031 329.433594 126.863281 329.75 125.351562 C 330.070312 123.835938 330.238281 122.308594 330.265625 120.761719 C 330.289062 119.214844 330.164062 117.679688 329.894531 116.160156 C 328.464844 108.507812 327.585938 100.792969 327.265625 93.015625 C 326.945312 85.242188 327.183594 77.480469 327.976562 69.738281 C 328.773438 61.996094 330.121094 54.351562 332.015625 46.800781 C 333.914062 39.253906 336.339844 31.878906 339.300781 24.679688 C 340.109375 22.75 341.117188 20.933594 342.324219 19.222656 C 343.535156 17.515625 344.914062 15.960938 346.464844 14.558594 C 348.019531 13.152344 349.703125 11.933594 351.523438 10.902344 C 353.34375 9.871094 355.253906 9.046875 357.253906 8.4375 C 366.945312 5.585938 401.710938 -0.113281 467.539062 42.632812 C 480.816406 39.4375 494.234375 37.039062 507.792969 35.429688 C 521.355469 33.820312 534.960938 33.015625 548.617188 33.015625 C 562.273438 33.015625 575.878906 33.820312 589.4375 35.429688 C 603 37.039062 616.417969 39.4375 629.691406 42.632812 C 695.523438 -0.113281 730.289062 5.300781 739.695312 8.4375 C 741.695312 9.046875 743.605469 9.871094 745.425781 10.902344 C 747.246094 11.933594 748.929688 13.152344 750.480469 14.558594 C 752.035156 15.960938 753.414062 17.515625 754.621094 19.222656 C 755.832031 20.933594 756.839844 22.75 757.648438 24.679688 C 760.613281 31.902344 763.046875 39.300781 764.945312 46.871094 C 766.84375 54.445312 768.191406 62.113281 768.988281 69.882812 C 769.785156 77.648438 770.019531 85.429688 769.695312 93.230469 C 769.371094 101.03125 768.492188 108.769531 767.050781 116.441406 C 766.761719 117.832031 766.609375 119.238281 766.597656 120.660156 C 766.585938 122.078125 766.714844 123.484375 766.984375 124.878906 C 767.253906 126.273438 767.65625 127.628906 768.195312 128.945312 C 768.734375 130.257812 769.398438 131.503906 770.1875 132.6875 C 774.839844 139.699219 778.953125 147.015625 782.523438 154.636719 C 786.09375 162.257812 789.089844 170.101562 791.503906 178.164062 C 793.917969 186.226562 795.726562 194.421875 796.929688 202.75 C 798.132812 211.082031 798.71875 219.453125 798.683594 227.871094 C 798.683594 372.355469 715.472656 414.246094 656.195312 427.355469 C 658.808594 435 660.640625 442.828125 661.695312 450.839844 C 662.75 458.847656 663.007812 466.882812 662.464844 474.945312 L 662.464844 547.328125 C 662.46875 548.230469 662.425781 549.125 662.34375 550.019531 C 662.261719 550.914062 662.132812 551.804688 661.96875 552.6875 C 661.800781 553.570312 661.589844 554.441406 661.339844 555.304688 C 661.089844 556.167969 660.800781 557.019531 660.472656 557.855469 C 660.140625 558.691406 659.773438 559.507812 659.363281 560.308594 C 658.957031 561.109375 658.511719 561.890625 658.03125 562.648438 C 657.550781 563.410156 657.03125 564.144531 656.480469 564.851562 C 655.929688 565.5625 655.347656 566.246094 654.730469 566.898438 C 654.117188 567.554688 653.472656 568.179688 652.796875 568.773438 C 652.121094 569.367188 651.421875 569.925781 650.695312 570.453125 C 649.964844 570.980469 649.214844 571.472656 648.441406 571.929688 C 647.667969 572.386719 646.871094 572.804688 646.058594 573.1875 C 645.246094 573.566406 644.414062 573.910156 643.570312 574.214844 C 642.722656 574.515625 641.863281 574.777344 640.992188 575 C 640.121094 575.222656 639.242188 575.402344 638.355469 575.539062 C 637.46875 575.679688 636.574219 575.773438 635.675781 575.828125 Z M 635.679688 575.828125 " fill-opacity="1" fill-rule="nonzero"/></g></svg>