<svg xmlns="http://www.w3.org/2000/svg" xmlns:xlink="http://www.w3.org/1999/xlink" width="1366" zoomAndPan="magnify" viewBox="0 0 1024.5 576" height="768" preserveAspectRatio="xMidYMid meet" version="1.0"><defs><clipPath id="777e7ad48e"><path d="M 224.140625 0.140625 L 799.859375 0.140625 L 799.859375 575.859375 L 224.140625 575.859375 Z M 224.140625 0.140625 " clip-rule="nonzero"/></clipPath></defs><g clip-path="url(#777e7ad48e)"><path fill="#ffffff" d="M 920.105469 526.222656 C 920.105469 603.402344 857.535156 665.972656 780.351562 665.972656 L 140.199219 665.972656 C 63.015625 665.972656 0.457031 603.402344 0.457031 526.222656 L 0.457031 -113.933594 C 0.457031 -191.117188 63.019531 -253.679688 140.199219 -253.679688 L 780.355469 -253.679688 C 857.539062 -253.679688 920.109375 -191.117188 920.109375 -113.933594 L 920.109375 526.222656 Z M 920.105469 526.222656 " fill-opacity="1" fill-rule="nonzero"/></g><path fill="#fae8e0" d="M 364.105469 74.425781 C 364.105469 75.550781 364.078125 76.675781 364.019531 77.796875 C 363.964844 78.921875 363.882812 80.042969 363.773438 81.160156 C 363.664062 82.277344 363.523438 83.394531 363.359375 84.507812 C 363.195312 85.617188 363.003906 86.726562 362.785156 87.828125 C 362.5625 88.933594 362.316406 90.027344 362.042969 91.117188 C 361.773438 92.210938 361.472656 93.292969 361.144531 94.367188 C 360.820312 95.445312 360.464844 96.511719 360.085938 97.570312 C 359.710938 98.628906 359.304688 99.679688 358.875 100.714844 C 358.445312 101.753906 357.988281 102.78125 357.507812 103.800781 C 357.027344 104.816406 356.523438 105.820312 355.992188 106.8125 C 355.460938 107.804688 354.90625 108.78125 354.328125 109.746094 C 353.75 110.710938 353.148438 111.660156 352.527344 112.59375 C 351.902344 113.527344 351.253906 114.449219 350.585938 115.351562 C 349.914062 116.253906 349.222656 117.140625 348.507812 118.007812 C 347.796875 118.878906 347.0625 119.730469 346.308594 120.5625 C 345.550781 121.394531 344.777344 122.210938 343.980469 123.003906 C 343.1875 123.800781 342.371094 124.574219 341.539062 125.328125 C 340.707031 126.085938 339.855469 126.820312 338.988281 127.53125 C 338.117188 128.246094 337.230469 128.9375 336.328125 129.605469 C 335.425781 130.277344 334.507812 130.925781 333.570312 131.546875 C 332.636719 132.171875 331.6875 132.773438 330.722656 133.351562 C 329.757812 133.929688 328.78125 134.484375 327.789062 135.015625 C 326.796875 135.542969 325.792969 136.050781 324.777344 136.53125 C 323.761719 137.011719 322.730469 137.46875 321.695312 137.898438 C 320.65625 138.328125 319.605469 138.730469 318.546875 139.109375 C 317.488281 139.488281 316.421875 139.84375 315.347656 140.167969 C 314.269531 140.496094 313.1875 140.792969 312.097656 141.066406 C 311.003906 141.339844 309.910156 141.585938 308.804688 141.808594 C 307.703125 142.027344 306.597656 142.21875 305.484375 142.382812 C 304.371094 142.546875 303.253906 142.6875 302.136719 142.796875 C 301.019531 142.90625 299.898438 142.988281 298.773438 143.042969 C 297.652344 143.097656 296.527344 143.125 295.402344 143.125 C 294.277344 143.125 293.15625 143.097656 292.03125 143.042969 C 290.910156 142.988281 289.789062 142.90625 288.667969 142.796875 C 287.550781 142.6875 286.433594 142.546875 285.324219 142.382812 C 284.210938 142.21875 283.101562 142.027344 282 141.808594 C 280.898438 141.585938 279.800781 141.339844 278.710938 141.066406 C 277.621094 140.792969 276.535156 140.496094 275.460938 140.167969 C 274.382812 139.84375 273.316406 139.488281 272.257812 139.109375 C 271.199219 138.730469 270.152344 138.328125 269.113281 137.898438 C 268.074219 137.46875 267.046875 137.011719 266.03125 136.53125 C 265.011719 136.050781 264.007812 135.542969 263.019531 135.015625 C 262.027344 134.484375 261.046875 133.929688 260.082031 133.351562 C 259.121094 132.773438 258.167969 132.171875 257.234375 131.546875 C 256.300781 130.925781 255.382812 130.277344 254.476562 129.605469 C 253.574219 128.9375 252.6875 128.246094 251.820312 127.53125 C 250.949219 126.820312 250.097656 126.085938 249.265625 125.328125 C 248.433594 124.574219 247.621094 123.800781 246.824219 123.003906 C 246.027344 122.210938 245.253906 121.394531 244.5 120.5625 C 243.742188 119.730469 243.011719 118.878906 242.296875 118.007812 C 241.582031 117.140625 240.890625 116.253906 240.222656 115.351562 C 239.550781 114.449219 238.90625 113.527344 238.28125 112.59375 C 237.65625 111.660156 237.054688 110.710938 236.476562 109.746094 C 235.898438 108.78125 235.34375 107.804688 234.8125 106.8125 C 234.285156 105.820312 233.777344 104.816406 233.296875 103.800781 C 232.816406 102.78125 232.363281 101.753906 231.933594 100.714844 C 231.5 99.679688 231.097656 98.628906 230.71875 97.570312 C 230.339844 96.511719 229.988281 95.445312 229.660156 94.367188 C 229.335938 93.292969 229.035156 92.210938 228.761719 91.117188 C 228.488281 90.027344 228.242188 88.933594 228.023438 87.828125 C 227.804688 86.726562 227.609375 85.617188 227.445312 84.507812 C 227.28125 83.394531 227.144531 82.277344 227.03125 81.160156 C 226.921875 80.042969 226.839844 78.921875 226.785156 77.796875 C 226.730469 76.675781 226.703125 75.550781 226.703125 74.425781 C 226.703125 73.300781 226.730469 72.179688 226.785156 71.054688 C 226.839844 69.933594 226.921875 68.8125 227.03125 67.691406 C 227.144531 66.574219 227.28125 65.457031 227.445312 64.34375 C 227.609375 63.234375 227.804688 62.125 228.023438 61.023438 C 228.242188 59.921875 228.488281 58.824219 228.761719 57.734375 C 229.035156 56.644531 229.335938 55.558594 229.660156 54.484375 C 229.988281 53.40625 230.339844 52.339844 230.71875 51.28125 C 231.097656 50.222656 231.5 49.175781 231.933594 48.136719 C 232.363281 47.097656 232.816406 46.070312 233.296875 45.050781 C 233.777344 44.035156 234.285156 43.03125 234.8125 42.039062 C 235.34375 41.050781 235.898438 40.070312 236.476562 39.105469 C 237.054688 38.140625 237.65625 37.191406 238.28125 36.257812 C 238.90625 35.324219 239.550781 34.402344 240.222656 33.5 C 240.890625 32.597656 241.582031 31.710938 242.296875 30.84375 C 243.011719 29.972656 243.742188 29.121094 244.5 28.289062 C 245.253906 27.457031 246.027344 26.640625 246.824219 25.847656 C 247.621094 25.050781 248.433594 24.277344 249.265625 23.523438 C 250.097656 22.765625 250.949219 22.03125 251.820312 21.320312 C 252.6875 20.605469 253.574219 19.914062 254.476562 19.246094 C 255.382812 18.574219 256.300781 17.929688 257.234375 17.304688 C 258.167969 16.679688 259.121094 16.078125 260.082031 15.5 C 261.046875 14.921875 262.027344 14.367188 263.019531 13.835938 C 264.007812 13.308594 265.011719 12.800781 266.03125 12.320312 C 267.046875 11.839844 268.074219 11.386719 269.113281 10.953125 C 270.152344 10.523438 271.199219 10.121094 272.257812 9.742188 C 273.316406 9.363281 274.382812 9.011719 275.460938 8.683594 C 276.535156 8.355469 277.621094 8.058594 278.710938 7.785156 C 279.800781 7.511719 280.898438 7.265625 282 7.046875 C 283.101562 6.824219 284.210938 6.632812 285.324219 6.46875 C 286.433594 6.304688 287.550781 6.167969 288.667969 6.054688 C 289.789062 5.945312 290.910156 5.863281 292.03125 5.808594 C 293.15625 5.753906 294.277344 5.726562 295.402344 5.726562 C 296.527344 5.726562 297.652344 5.753906 298.773438 5.808594 C 299.898438 5.863281 301.019531 5.945312 302.136719 6.054688 C 303.253906 6.167969 304.371094 6.304688 305.484375 6.46875 C 306.597656 6.632812 307.703125 6.824219 308.804688 7.046875 C 309.910156 7.265625 311.003906 7.511719 312.097656 7.785156 C 313.1875 8.058594 314.269531 8.355469 315.347656 8.683594 C 316.421875 9.011719 317.488281 9.363281 318.546875 9.742188 C 319.605469 10.121094 320.65625 10.523438 321.695312 10.953125 C 322.730469 11.386719 323.761719 11.839844 324.777344 12.320312 C 325.792969 12.800781 326.796875 13.308594 327.789062 13.835938 C 328.78125 14.367188 329.757812 14.921875 330.722656 15.5 C 331.6875 16.078125 332.636719 16.679688 333.570312 17.304688 C 334.507812 17.929688 335.425781 18.574219 336.328125 19.246094 C 337.230469 19.914062 338.117188 20.605469 338.988281 21.320312 C 339.855469 22.03125 340.707031 22.765625 341.539062 23.523438 C 342.371094 24.277344 343.1875 25.050781 343.980469 25.847656 C 344.777344 26.640625 345.550781 27.457031 346.308594 28.289062 C 347.0625 29.121094 347.796875 29.972656 348.507812 30.84375 C 349.222656 31.710938 349.914062 32.597656 350.582031 33.5 C 351.253906 34.402344 351.902344 35.324219 352.527344 36.257812 C 353.148438 37.191406 353.75 38.140625 354.328125 39.105469 C 354.90625 40.070312 355.460938 41.050781 355.992188 42.039062 C 356.523438 43.03125 357.027344 44.035156 357.507812 45.050781 C 357.988281 46.070312 358.445312 47.097656 358.875 48.136719 C 359.304688 49.175781 359.710938 50.222656 360.085938 51.28125 C 360.464844 52.339844 360.820312 53.40625 361.144531 54.484375 C 361.472656 55.558594 361.773438 56.644531 362.042969 57.734375 C 362.316406 58.824219 362.5625 59.921875 362.785156 61.023438 C 363.003906 62.125 363.195312 63.234375 363.359375 64.34375 C 363.523438 65.457031 363.664062 66.574219 363.773438 67.691406 C 363.882812 68.8125 363.964844 69.933594 364.019531 71.054688 C 364.078125 72.179688 364.105469 73.300781 364.105469 74.425781 Z M 364.105469 74.425781 " fill-opacity="1" fill-rule="nonzero"/><path fill="#fae8e0" d="M 236.179688 193.777344 L 354.203125 193.777344 L 354.203125 573.464844 L 236.179688 573.464844 Z M 236.179688 193.777344 " fill-opacity="1" fill-rule="nonzero"/><path fill="#fae8e0" d="M 428.433594 193.777344 L 540.773438 193.777344 L 540.773438 573.464844 L 428.433594 573.464844 Z M 428.433594 193.777344 " fill-opacity="1" fill-rule="nonzero"/><path fill="#fae8e0" d="M 433.292969 395.933594 L 545.625 395.933594 L 545.625 573.464844 L 433.292969 573.464844 Z M 433.292969 395.933594 " fill-opacity="1" fill-rule="nonzero"/><path fill="#fae8e0" d="M 545.625 395.933594 C 545.625 395.933594 543.867188 346.683594 556.855469 321.082031 C 556.855469 321.082031 569.84375 289.546875 610.671875 289.355469 C 610.671875 289.355469 658.550781 280.996094 672.28125 328.507812 C 672.28125 328.507812 677.476562 354.855469 677.476562 365.992188 C 677.476562 377.132812 677.847656 573.464844 677.847656 573.464844 L 795.5 573.464844 L 795.5 355.972656 C 795.5 355.972656 804.039062 233.117188 730.300781 199.464844 C 730.300781 199.464844 609.058594 145.03125 543.25 244.996094 C 543.25 244.996094 528.894531 254.890625 526.914062 227.175781 C 524.933594 199.464844 508.109375 269.738281 507.613281 271.226562 C 507.117188 272.710938 526.914062 411.273438 526.914062 411.273438 Z M 545.625 395.933594 " fill-opacity="1" fill-rule="nonzero"/></svg>