<svg xmlns="http://www.w3.org/2000/svg" xmlns:xlink="http://www.w3.org/1999/xlink" width="1366" zoomAndPan="magnify" viewBox="0 0 1024.5 576" height="768" preserveAspectRatio="xMidYMid meet" version="1.0"><defs><clipPath id="c3e3e98099"><path d="M 90 17 L 976.625 17 L 976.625 575.859375 L 90 575.859375 Z M 90 17 " clip-rule="nonzero"/></clipPath><clipPath id="db7e06c8c6"><path d="M 73 0.140625 L 960 0.140625 L 960 559 L 73 559 Z M 73 0.140625 " clip-rule="nonzero"/></clipPath><clipPath id="05a19d7461"><path d="M 57.570312 6 L 145 6 L 145 130 L 57.570312 130 Z M 57.570312 6 " clip-rule="nonzero"/></clipPath><clipPath id="09816eb2fa"><path d="M 57.570312 135 L 63 135 L 63 198 L 57.570312 198 Z M 57.570312 135 " clip-rule="nonzero"/></clipPath><clipPath id="52e6870407"><path d="M 57.570312 202 L 63 202 L 63 227 L 57.570312 227 Z M 57.570312 202 " clip-rule="nonzero"/></clipPath><clipPath id="44e6b53a98"><path d="M 57.570312 235 L 63 235 L 63 430 L 57.570312 430 Z M 57.570312 235 " clip-rule="nonzero"/></clipPath><clipPath id="e4daa83c19"><path d="M 57.570312 434 L 63 434 L 63 454 L 57.570312 454 Z M 57.570312 434 " clip-rule="nonzero"/></clipPath><clipPath id="2b4424ed84"><path d="M 57.570312 458 L 166 458 L 166 570 L 57.570312 570 Z M 57.570312 458 " clip-rule="nonzero"/></clipPath></defs><g clip-path="url(#c3e3e98099)"><path fill="#fd6d2f" d="M 90.390625 17.90625 L 976.855469 17.90625 L 976.855469 575.78125 L 90.390625 575.78125 Z M 90.390625 17.90625 " fill-opacity="1" fill-rule="nonzero"/></g><g clip-path="url(#db7e06c8c6)"><path fill="#f1f2f2" d="M 73.511719 0.21875 L 959.976562 0.21875 L 959.976562 558.09375 L 73.511719 558.09375 Z M 73.511719 0.21875 " fill-opacity="1" fill-rule="nonzero"/></g><path fill="#493931" d="M 226.867188 569.625 L 177.210938 569.625 C 175.726562 569.625 174.523438 568.421875 174.523438 566.9375 C 174.523438 565.453125 175.726562 564.246094 177.210938 564.246094 L 226.867188 564.246094 C 228.351562 564.246094 229.554688 565.453125 229.554688 566.9375 C 229.554688 568.421875 228.351562 569.625 226.867188 569.625 Z M 226.867188 569.625 " fill-opacity="1" fill-rule="nonzero"/><path fill="#493931" d="M 684.984375 569.625 L 241.457031 569.625 C 239.972656 569.625 238.765625 568.421875 238.765625 566.9375 C 238.765625 565.453125 239.972656 564.246094 241.457031 564.246094 L 684.984375 564.246094 C 686.46875 564.246094 687.675781 565.453125 687.675781 566.9375 C 687.675781 568.421875 686.46875 569.625 684.984375 569.625 Z M 684.984375 569.625 " fill-opacity="1" fill-rule="nonzero"/><path fill="#493931" d="M 709.390625 569.625 L 694.871094 569.625 C 693.386719 569.625 692.183594 568.421875 692.183594 566.9375 C 692.183594 565.453125 693.386719 564.246094 694.871094 564.246094 L 709.390625 564.246094 C 710.875 564.246094 712.082031 565.453125 712.082031 566.9375 C 712.082031 568.421875 710.875 569.625 709.390625 569.625 Z M 709.390625 569.625 " fill-opacity="1" fill-rule="nonzero"/><path fill="#493931" d="M 946.714844 569.625 L 716.96875 569.625 C 715.484375 569.625 714.277344 568.421875 714.277344 566.9375 C 714.277344 565.453125 715.484375 564.246094 716.96875 564.246094 L 944.03125 564.246094 L 944.03125 476.378906 C 944.03125 474.894531 945.234375 473.6875 946.71875 473.6875 C 948.203125 473.6875 949.410156 474.894531 949.410156 476.378906 L 949.410156 566.9375 C 949.402344 568.425781 948.199219 569.625 946.714844 569.625 Z M 946.714844 569.625 " fill-opacity="1" fill-rule="nonzero"/><path fill="#493931" d="M 946.714844 467.074219 C 945.230469 467.074219 944.027344 465.867188 944.027344 464.386719 L 944.027344 397.265625 C 944.027344 395.78125 945.230469 394.578125 946.714844 394.578125 C 948.199219 394.578125 949.40625 395.78125 949.40625 397.265625 L 949.40625 464.382812 C 949.402344 465.871094 948.199219 467.074219 946.714844 467.074219 Z M 946.714844 467.074219 " fill-opacity="1" fill-rule="nonzero"/><path fill="#493931" d="M 946.714844 387.753906 C 945.230469 387.753906 944.027344 386.546875 944.027344 385.066406 L 944.027344 365.078125 C 944.027344 363.59375 945.230469 362.386719 946.714844 362.386719 C 948.199219 362.386719 949.40625 363.59375 949.40625 365.078125 L 949.40625 385.066406 C 949.402344 386.546875 948.199219 387.753906 946.714844 387.753906 Z M 946.714844 387.753906 " fill-opacity="1" fill-rule="nonzero"/><path fill="#493931" d="M 946.714844 353.667969 C 945.230469 353.667969 944.027344 352.464844 944.027344 350.980469 L 944.027344 82.503906 C 944.027344 81.019531 945.230469 79.8125 946.714844 79.8125 C 948.199219 79.8125 949.40625 81.019531 949.40625 82.503906 L 949.40625 350.980469 C 949.402344 352.464844 948.199219 353.667969 946.714844 353.667969 Z M 946.714844 353.667969 " fill-opacity="1" fill-rule="nonzero"/><path fill="#493931" d="M 946.714844 74.882812 C 945.230469 74.882812 944.027344 73.679688 944.027344 72.195312 L 944.027344 59.988281 C 944.027344 58.503906 945.230469 57.300781 946.714844 57.300781 C 948.199219 57.300781 949.40625 58.503906 949.40625 59.988281 L 949.40625 72.195312 C 949.402344 73.679688 948.199219 74.882812 946.714844 74.882812 Z M 946.714844 74.882812 " fill-opacity="1" fill-rule="nonzero"/><path fill="#493931" d="M 946.714844 49.84375 C 945.230469 49.84375 944.027344 48.640625 944.027344 47.15625 L 944.027344 11.75 L 881.921875 11.75 C 880.4375 11.75 879.234375 10.542969 879.234375 9.058594 C 879.234375 7.574219 880.4375 6.371094 881.921875 6.371094 L 946.714844 6.371094 C 948.199219 6.371094 949.40625 7.574219 949.40625 9.058594 L 949.40625 47.15625 C 949.402344 48.640625 948.199219 49.84375 946.714844 49.84375 Z M 946.714844 49.84375 " fill-opacity="1" fill-rule="nonzero"/><path fill="#493931" d="M 868.457031 11.75 L 828.476562 11.75 C 826.992188 11.75 825.789062 10.542969 825.789062 9.058594 C 825.789062 7.574219 826.992188 6.371094 828.476562 6.371094 L 868.457031 6.371094 C 869.941406 6.371094 871.144531 7.574219 871.144531 9.058594 C 871.144531 10.542969 869.941406 11.75 868.457031 11.75 Z M 868.457031 11.75 " fill-opacity="1" fill-rule="nonzero"/><path fill="#493931" d="M 815.4375 11.75 L 552.011719 11.75 C 550.527344 11.75 549.320312 10.542969 549.320312 9.058594 C 549.320312 7.574219 550.527344 6.371094 552.011719 6.371094 L 815.4375 6.371094 C 816.917969 6.371094 818.125 7.574219 818.125 9.058594 C 818.125 10.542969 816.917969 11.75 815.4375 11.75 Z M 815.4375 11.75 " fill-opacity="1" fill-rule="nonzero"/><path fill="#493931" d="M 551.273438 11.75 L 516.746094 11.75 C 515.261719 11.75 514.058594 10.542969 514.058594 9.058594 C 514.058594 7.574219 515.261719 6.371094 516.746094 6.371094 L 551.273438 6.371094 C 552.757812 6.371094 553.964844 7.574219 553.964844 9.058594 C 553.964844 10.542969 552.757812 11.75 551.273438 11.75 Z M 551.273438 11.75 " fill-opacity="1" fill-rule="nonzero"/><path fill="#493931" d="M 516.746094 11.75 L 182.824219 11.75 C 181.339844 11.75 180.132812 10.542969 180.132812 9.058594 C 180.132812 7.574219 181.339844 6.371094 182.824219 6.371094 L 516.742188 6.371094 C 518.226562 6.371094 519.433594 7.574219 519.433594 9.058594 C 519.433594 10.542969 518.230469 11.75 516.746094 11.75 Z M 516.746094 11.75 " fill-opacity="1" fill-rule="nonzero"/><path fill="#493931" d="M 170.757812 11.75 L 152.246094 11.75 C 150.761719 11.75 149.554688 10.542969 149.554688 9.058594 C 149.554688 7.574219 150.761719 6.371094 152.246094 6.371094 L 170.757812 6.371094 C 172.242188 6.371094 173.449219 7.574219 173.449219 9.058594 C 173.449219 10.542969 172.246094 11.75 170.757812 11.75 Z M 170.757812 11.75 " fill-opacity="1" fill-rule="nonzero"/><g clip-path="url(#05a19d7461)"><path fill="#493931" d="M 60.25 129.796875 C 58.765625 129.796875 57.5625 128.59375 57.5625 127.109375 L 57.5625 9.058594 C 57.5625 7.574219 58.765625 6.371094 60.25 6.371094 L 141.585938 6.371094 C 143.070312 6.371094 144.277344 7.574219 144.277344 9.058594 C 144.277344 10.542969 143.070312 11.75 141.585938 11.75 L 62.9375 11.75 L 62.9375 127.109375 C 62.9375 128.59375 61.734375 129.796875 60.25 129.796875 Z M 60.25 129.796875 " fill-opacity="1" fill-rule="nonzero"/></g><g clip-path="url(#09816eb2fa)"><path fill="#493931" d="M 60.25 197.96875 C 58.765625 197.96875 57.5625 196.765625 57.5625 195.28125 L 57.5625 138.609375 C 57.5625 137.125 58.765625 135.921875 60.25 135.921875 C 61.734375 135.921875 62.941406 137.125 62.941406 138.609375 L 62.941406 195.28125 C 62.9375 196.765625 61.734375 197.96875 60.25 197.96875 Z M 60.25 197.96875 " fill-opacity="1" fill-rule="nonzero"/></g><g clip-path="url(#52e6870407)"><path fill="#493931" d="M 60.25 226.582031 C 58.765625 226.582031 57.5625 225.378906 57.5625 223.894531 L 57.5625 205.097656 C 57.5625 203.613281 58.765625 202.40625 60.25 202.40625 C 61.734375 202.40625 62.941406 203.613281 62.941406 205.097656 L 62.941406 223.894531 C 62.9375 225.378906 61.734375 226.582031 60.25 226.582031 Z M 60.25 226.582031 " fill-opacity="1" fill-rule="nonzero"/></g><g clip-path="url(#44e6b53a98)"><path fill="#493931" d="M 60.25 429.414062 C 58.765625 429.414062 57.5625 428.207031 57.5625 426.722656 L 57.5625 237.921875 C 57.5625 236.4375 58.765625 235.234375 60.25 235.234375 C 61.734375 235.234375 62.941406 236.4375 62.941406 237.921875 L 62.941406 426.722656 C 62.9375 428.207031 61.734375 429.414062 60.25 429.414062 Z M 60.25 429.414062 " fill-opacity="1" fill-rule="nonzero"/></g><g clip-path="url(#e4daa83c19)"><path fill="#493931" d="M 60.25 453.820312 C 58.765625 453.820312 57.5625 452.613281 57.5625 451.128906 L 57.5625 437.386719 C 57.5625 435.902344 58.765625 434.695312 60.25 434.695312 C 61.734375 434.695312 62.941406 435.902344 62.941406 437.386719 L 62.941406 451.128906 C 62.9375 452.613281 61.734375 453.820312 60.25 453.820312 Z M 60.25 453.820312 " fill-opacity="1" fill-rule="nonzero"/></g><g clip-path="url(#2b4424ed84)"><path fill="#493931" d="M 162.34375 569.625 L 60.25 569.625 C 58.765625 569.625 57.5625 568.421875 57.5625 566.9375 L 57.5625 461.652344 C 57.5625 460.167969 58.765625 458.960938 60.25 458.960938 C 61.734375 458.960938 62.941406 460.167969 62.941406 461.652344 L 62.941406 564.25 L 162.34375 564.25 C 163.828125 564.25 165.035156 565.457031 165.035156 566.941406 C 165.035156 568.425781 163.828125 569.625 162.34375 569.625 Z M 162.34375 569.625 " fill-opacity="1" fill-rule="nonzero"/></g><path fill="#fae8e0" d="M 353.808594 49.84375 L 328.984375 49.84375 C 327.5 49.84375 326.292969 48.640625 326.292969 47.15625 C 326.292969 45.671875 327.5 44.464844 328.984375 44.464844 L 353.808594 44.464844 C 355.292969 44.464844 356.5 45.671875 356.5 47.15625 C 356.5 48.640625 355.292969 49.84375 353.808594 49.84375 Z M 353.808594 49.84375 " fill-opacity="1" fill-rule="nonzero"/><path fill="#fae8e0" d="M 313.414062 49.84375 L 162.34375 49.84375 C 160.859375 49.84375 159.65625 48.640625 159.65625 47.15625 C 159.65625 45.671875 160.859375 44.464844 162.34375 44.464844 L 313.414062 44.464844 C 314.898438 44.464844 316.105469 45.671875 316.105469 47.15625 C 316.105469 48.640625 314.898438 49.84375 313.414062 49.84375 Z M 313.414062 49.84375 " fill-opacity="1" fill-rule="nonzero"/></svg>