<svg xmlns="http://www.w3.org/2000/svg" xmlns:xlink="http://www.w3.org/1999/xlink" width="1366" zoomAndPan="magnify" viewBox="0 0 1024.5 576" height="768" preserveAspectRatio="xMidYMid meet" version="1.0"><path fill="#fd6d2f" d="M 810.789062 252.785156 C 783.726562 224.785156 757.113281 198.25 731.707031 170.601562 C 714.8125 152.230469 703.3125 130.503906 704.316406 104.601562 C 704.652344 96.0625 707.019531 86.761719 711.222656 79.390625 C 719.59375 64.757812 731.199219 64.277344 742.429688 76.800781 C 747.273438 82.195312 751.625 88.050781 756.003906 93.851562 C 807.511719 162.011719 874.253906 212.15625 946.84375 255.46875 C 957.300781 261.703125 967.132812 269 977.34375 275.65625 C 980.347656 277.617188 983.511719 279.605469 986.890625 280.6875 C 1015.277344 289.78125 1023.992188 317.398438 1005.832031 341.097656 C 998.625 350.515625 988.292969 353.554688 977.277344 355.007812 C 926.257812 361.769531 876.859375 374.472656 830.144531 396.277344 C 796.527344 411.96875 767.136719 433.324219 744.675781 463.507812 C 736.015625 475.15625 726.492188 486.183594 717.003906 497.183594 C 705.96875 509.984375 688.9375 511.765625 675.089844 502.035156 C 656.042969 488.652344 651.71875 463.585938 665.207031 444.429688 C 691.175781 407.554688 724.316406 377.929688 760.023438 350.902344 C 763.375 348.367188 766.851562 346 770.808594 343.164062 C 758.558594 343.164062 747.28125 342.714844 736.039062 343.230469 C 563.027344 351.152344 389.90625 353.191406 216.738281 352.023438 C 173.128906 351.730469 129.5 353.027344 85.886719 352.863281 C 64.917969 352.789062 44.246094 349.3125 26.40625 337.234375 C 19.742188 332.726562 13.332031 326.898438 8.878906 320.28125 C 0 307.09375 3.828125 293.855469 18.484375 287.820312 C 27.441406 284.136719 37.53125 282.003906 47.222656 281.523438 C 81.863281 279.785156 116.554688 278.890625 151.234375 277.96875 C 213.332031 276.320312 275.453125 275.277344 337.539062 273.238281 C 416.789062 270.640625 496.007812 267.320312 575.238281 264.300781 C 615.511719 262.769531 655.796875 261.53125 696.050781 259.570312 C 734.578125 257.6875 773.0625 255.046875 810.78125 252.777344 Z M 810.789062 252.785156 " fill-opacity="1" fill-rule="nonzero"/></svg>