<svg xmlns="http://www.w3.org/2000/svg" xmlns:xlink="http://www.w3.org/1999/xlink" width="1366" zoomAndPan="magnify" viewBox="0 0 1024.5 576" height="768" preserveAspectRatio="xMidYMid meet" version="1.0"><defs><clipPath id="49e13ebf07"><path d="M 285 15 L 713 15 L 713 575.859375 L 285 575.859375 Z M 285 15 " clip-rule="nonzero"/></clipPath><clipPath id="55f71e3e72"><path d="M 297 0.140625 L 727 0.140625 L 727 563 L 297 563 Z M 297 0.140625 " clip-rule="nonzero"/></clipPath></defs><g clip-path="url(#49e13ebf07)"><path fill="#202020" d="M 712.21875 575.863281 L 285.777344 575.863281 L 285.777344 228.78125 C 285.777344 111.023438 381.242188 15.558594 499 15.558594 C 616.757812 15.558594 712.21875 111.023438 712.21875 228.78125 Z M 712.21875 575.863281 " fill-opacity="1" fill-rule="nonzero"/></g><path fill="#dfafdb" d="M 725.433594 561.546875 L 298.992188 561.546875 L 298.992188 214.464844 C 298.992188 96.707031 394.453125 1.246094 512.214844 1.246094 C 629.972656 1.246094 725.433594 96.707031 725.433594 214.464844 Z M 725.433594 561.546875 " fill-opacity="1" fill-rule="nonzero"/><g clip-path="url(#55f71e3e72)"><path fill="#202020" d="M 726.542969 562.660156 L 297.882812 562.660156 L 297.882812 214.464844 C 297.882812 185.535156 303.546875 157.464844 314.726562 131.039062 C 325.519531 105.519531 340.976562 82.59375 360.660156 62.914062 C 380.34375 43.230469 403.265625 27.777344 428.785156 16.980469 C 455.210938 5.800781 483.28125 0.136719 512.214844 0.136719 C 541.144531 0.136719 569.214844 5.800781 595.640625 16.980469 C 621.160156 27.777344 644.085938 43.230469 663.765625 62.914062 C 683.449219 82.597656 698.902344 105.519531 709.699219 131.039062 C 720.878906 157.464844 726.542969 185.535156 726.542969 214.464844 Z M 300.105469 560.4375 L 724.320312 560.4375 L 724.320312 214.464844 C 724.320312 97.507812 629.171875 2.359375 512.214844 2.359375 C 395.253906 2.359375 300.105469 97.507812 300.105469 214.464844 Z M 300.105469 560.4375 " fill-opacity="1" fill-rule="nonzero"/></g><path fill="#ffd18c" d="M 301.59375 213.339844 C 323.773438 251.757812 274.210938 251.757812 296.390625 213.339844 C 274.207031 251.757812 249.425781 208.832031 293.789062 208.832031 C 249.425781 208.832031 274.210938 165.90625 296.390625 204.324219 C 274.207031 165.90625 323.773438 165.90625 301.59375 204.324219 C 323.773438 165.90625 348.554688 208.832031 304.191406 208.832031 C 348.558594 208.835938 323.773438 251.757812 301.59375 213.339844 Z M 301.59375 213.339844 " fill-opacity="1" fill-rule="nonzero"/><path fill="#202020" d="M 298.992188 243.265625 C 297.027344 243.265625 295.0625 242.578125 293.421875 241.203125 C 289.910156 238.253906 287.941406 232.171875 290.800781 223.023438 C 285.875 228.371094 281.089844 230.429688 277.183594 230.429688 C 275.9375 230.429688 274.785156 230.222656 273.742188 229.84375 C 269.71875 228.378906 267.429688 224.410156 268.171875 220.195312 C 268.96875 215.679688 273.253906 210.9375 282.605469 208.835938 C 273.253906 206.734375 268.96875 201.988281 268.171875 197.476562 C 267.429688 193.261719 269.71875 189.292969 273.742188 187.828125 C 278.050781 186.261719 284.304688 187.597656 290.800781 194.644531 C 287.941406 185.496094 289.910156 179.414062 293.421875 176.46875 C 296.699219 173.71875 301.28125 173.71875 304.558594 176.46875 C 308.070312 179.414062 310.039062 185.5 307.183594 194.644531 C 313.675781 187.597656 319.929688 186.261719 324.238281 187.828125 C 328.261719 189.292969 330.550781 193.261719 329.808594 197.476562 C 329.011719 201.988281 324.726562 206.734375 315.375 208.835938 C 324.726562 210.9375 329.011719 215.679688 329.808594 220.195312 C 330.554688 224.410156 328.261719 228.378906 324.238281 229.84375 C 319.929688 231.410156 313.679688 230.074219 307.183594 223.023438 C 310.039062 232.171875 308.070312 238.257812 304.558594 241.203125 C 302.921875 242.582031 300.957031 243.265625 298.992188 243.265625 Z M 297.351562 213.894531 C 293.683594 220.25 291.710938 226.132812 291.648438 230.910156 C 291.597656 234.671875 292.734375 237.722656 294.851562 239.5 C 297.292969 241.542969 300.695312 241.542969 303.136719 239.5 C 305.25 237.722656 306.390625 234.671875 306.339844 230.910156 C 306.277344 226.136719 304.304688 220.25 300.632812 213.894531 L 302.558594 212.78125 C 306.230469 219.140625 310.339844 223.789062 314.441406 226.234375 C 317.671875 228.160156 320.886719 228.695312 323.484375 227.753906 C 326.472656 226.664062 328.175781 223.714844 327.621094 220.582031 C 327.140625 217.859375 325.070312 215.351562 321.789062 213.511719 C 317.617188 211.175781 311.535156 209.945312 304.199219 209.945312 L 304.199219 207.722656 C 311.535156 207.722656 317.621094 206.492188 321.789062 204.160156 C 325.074219 202.324219 327.144531 199.8125 327.621094 197.089844 C 328.175781 193.953125 326.472656 191.003906 323.484375 189.917969 C 320.886719 188.972656 317.675781 189.511719 314.441406 191.4375 C 310.339844 193.882812 306.230469 198.535156 302.558594 204.886719 L 300.632812 203.777344 C 304.304688 197.417969 306.277344 191.539062 306.339844 186.757812 C 306.390625 182.996094 305.25 179.945312 303.136719 178.171875 C 300.695312 176.125 297.292969 176.125 294.851562 178.171875 C 292.734375 179.945312 291.597656 182.996094 291.648438 186.757812 C 291.710938 191.535156 293.683594 197.417969 297.351562 203.777344 L 295.429688 204.886719 C 291.757812 198.53125 287.648438 193.878906 283.546875 191.4375 C 280.3125 189.511719 277.101562 188.972656 274.503906 189.917969 C 271.515625 191.007812 269.8125 193.953125 270.363281 197.089844 C 270.84375 199.8125 272.917969 202.320312 276.199219 204.160156 C 280.371094 206.492188 286.449219 207.722656 293.789062 207.722656 L 293.789062 209.945312 C 286.449219 209.945312 280.367188 211.179688 276.199219 213.511719 C 272.914062 215.347656 270.84375 217.859375 270.363281 220.582031 C 269.8125 223.714844 271.515625 226.667969 274.503906 227.753906 C 277.101562 228.695312 280.3125 228.160156 283.546875 226.234375 C 287.648438 223.789062 291.757812 219.136719 295.429688 212.78125 Z M 297.351562 213.894531 " fill-opacity="1" fill-rule="nonzero"/><path fill="#ffd18c" d="M 728.035156 360.640625 C 750.214844 399.058594 700.652344 399.058594 722.832031 360.640625 C 700.648438 399.058594 675.867188 356.136719 720.230469 356.136719 C 675.867188 356.136719 700.652344 313.210938 722.832031 351.628906 C 700.648438 313.210938 750.214844 313.210938 728.035156 351.628906 C 750.214844 313.210938 774.996094 356.136719 730.632812 356.136719 C 775 356.136719 750.214844 399.058594 728.035156 360.640625 Z M 728.035156 360.640625 " fill-opacity="1" fill-rule="nonzero"/><path fill="#202020" d="M 725.433594 390.570312 C 723.46875 390.570312 721.503906 389.878906 719.863281 388.503906 C 716.351562 385.558594 714.382812 379.472656 717.238281 370.328125 C 712.316406 375.671875 707.53125 377.734375 703.625 377.734375 C 702.378906 377.734375 701.226562 377.523438 700.183594 377.144531 C 696.160156 375.679688 693.871094 371.714844 694.613281 367.5 C 695.410156 362.984375 699.695312 358.238281 709.046875 356.136719 C 699.695312 354.039062 695.410156 349.292969 694.613281 344.777344 C 693.871094 340.5625 696.160156 336.59375 700.183594 335.132812 C 704.492188 333.5625 710.746094 334.902344 717.238281 341.949219 C 714.382812 332.800781 716.351562 326.714844 719.863281 323.769531 C 723.140625 321.019531 727.722656 321.019531 731 323.769531 C 734.511719 326.71875 736.480469 332.804688 733.625 341.949219 C 740.117188 334.902344 746.371094 333.5625 750.679688 335.132812 C 754.703125 336.59375 756.992188 340.5625 756.25 344.777344 C 755.453125 349.292969 751.167969 354.039062 741.816406 356.136719 C 751.167969 358.238281 755.453125 362.984375 756.25 367.5 C 756.996094 371.714844 754.703125 375.679688 750.679688 377.144531 C 746.371094 378.710938 740.121094 377.375 733.625 370.328125 C 736.480469 379.476562 734.511719 385.558594 731 388.503906 C 729.363281 389.878906 727.398438 390.570312 725.433594 390.570312 Z M 723.792969 361.195312 C 720.125 367.554688 718.152344 373.433594 718.085938 378.214844 C 718.039062 381.976562 719.175781 385.027344 721.292969 386.800781 C 723.734375 388.847656 727.136719 388.847656 729.574219 386.800781 C 731.691406 385.027344 732.832031 381.976562 732.78125 378.214844 C 732.71875 373.4375 730.746094 367.554688 727.074219 361.195312 L 729 360.085938 C 732.671875 366.441406 736.78125 371.09375 740.882812 373.535156 C 744.113281 375.460938 747.328125 376 749.925781 375.054688 C 752.914062 373.964844 754.617188 371.019531 754.0625 367.882812 C 753.582031 365.160156 751.511719 362.652344 748.230469 360.8125 C 744.058594 358.480469 737.976562 357.25 730.640625 357.25 L 730.640625 355.027344 C 737.976562 355.027344 744.0625 353.792969 748.230469 351.460938 C 751.511719 349.625 753.585938 347.113281 754.0625 344.390625 C 754.617188 341.257812 752.914062 338.308594 749.925781 337.21875 C 747.328125 336.277344 744.117188 336.816406 740.882812 338.738281 C 736.78125 341.183594 732.671875 345.835938 729 352.191406 L 727.074219 351.078125 C 730.746094 344.722656 732.71875 338.839844 732.78125 334.0625 C 732.832031 330.300781 731.691406 327.25 729.574219 325.472656 C 727.140625 323.429688 723.734375 323.429688 721.292969 325.472656 C 719.175781 327.25 718.039062 330.300781 718.085938 334.0625 C 718.152344 338.835938 720.125 344.722656 723.792969 351.078125 L 721.867188 352.191406 C 718.199219 345.832031 714.089844 341.183594 709.984375 338.738281 C 706.753906 336.816406 703.542969 336.277344 700.945312 337.21875 C 697.957031 338.308594 696.253906 341.257812 696.804688 344.390625 C 697.285156 347.113281 699.359375 349.621094 702.640625 351.460938 C 706.808594 353.796875 712.890625 355.027344 720.230469 355.027344 L 720.230469 357.25 C 712.890625 357.25 706.808594 358.484375 702.640625 360.8125 C 699.355469 362.648438 697.285156 365.160156 696.804688 367.882812 C 696.253906 371.019531 697.957031 373.96875 700.945312 375.054688 C 703.542969 376 706.753906 375.460938 709.984375 373.535156 C 714.089844 371.089844 718.199219 366.441406 721.867188 360.085938 Z M 723.792969 361.195312 " fill-opacity="1" fill-rule="nonzero"/></svg>