<svg xmlns="http://www.w3.org/2000/svg" xmlns:xlink="http://www.w3.org/1999/xlink" width="1366" zoomAndPan="magnify" viewBox="0 0 1024.5 576" height="768" preserveAspectRatio="xMidYMid meet" version="1.0"><defs><clipPath id="f00d4d37f2"><path d="M 76.261719 179 L 919 179 L 919 432 L 76.261719 432 Z M 76.261719 179 " clip-rule="nonzero"/></clipPath><clipPath id="469f3b6f18"><path d="M 88 160 L 934.589844 160 L 934.589844 416 L 88 416 Z M 88 160 " clip-rule="nonzero"/></clipPath><clipPath id="ae247fd582"><path d="M 219 378 L 290 378 L 290 448.722656 L 219 448.722656 Z M 219 378 " clip-rule="nonzero"/></clipPath><clipPath id="eb1a58fa44"><path d="M 742 127.128906 L 813 127.128906 L 813 198 L 742 198 Z M 742 127.128906 " clip-rule="nonzero"/></clipPath></defs><g clip-path="url(#f00d4d37f2)"><path fill="#493931" d="M 793.082031 431.128906 L 202.082031 431.128906 C 132.59375 431.128906 76.265625 374.796875 76.265625 305.308594 C 76.265625 235.820312 132.59375 179.492188 202.082031 179.492188 L 793.082031 179.492188 C 862.570312 179.492188 918.898438 235.820312 918.898438 305.308594 C 918.898438 374.800781 862.570312 431.128906 793.082031 431.128906 Z M 793.082031 431.128906 " fill-opacity="1" fill-rule="nonzero"/></g><path fill="#ffd18c" d="M 806.929688 413.816406 L 215.933594 413.816406 C 146.445312 413.816406 90.113281 357.484375 90.113281 287.996094 C 90.113281 218.507812 146.445312 162.179688 215.933594 162.179688 L 806.929688 162.179688 C 876.417969 162.179688 932.75 218.507812 932.75 287.996094 C 932.75 357.484375 876.417969 413.816406 806.929688 413.816406 Z M 806.929688 413.816406 " fill-opacity="1" fill-rule="nonzero"/><g clip-path="url(#469f3b6f18)"><path fill="#493931" d="M 806.929688 415.292969 L 215.933594 415.292969 C 181.933594 415.292969 149.964844 402.050781 125.921875 378.007812 C 101.878906 353.96875 88.640625 322.003906 88.640625 287.996094 C 88.640625 253.992188 101.878906 222.03125 125.921875 197.984375 C 149.960938 173.945312 181.929688 160.703125 215.933594 160.703125 L 806.929688 160.703125 C 840.929688 160.703125 872.898438 173.945312 896.941406 197.984375 C 920.984375 222.027344 934.226562 253.992188 934.226562 287.996094 C 934.226562 322.003906 920.984375 353.964844 896.941406 378.007812 C 872.902344 402.050781 840.933594 415.292969 806.929688 415.292969 Z M 215.933594 163.652344 C 147.371094 163.652344 91.589844 219.429688 91.589844 287.996094 C 91.589844 356.5625 147.367188 412.339844 215.933594 412.339844 L 806.929688 412.339844 C 875.492188 412.339844 931.273438 356.5625 931.273438 287.996094 C 931.273438 219.433594 875.496094 163.652344 806.929688 163.652344 Z M 215.933594 163.652344 " fill-opacity="1" fill-rule="nonzero"/></g><path fill="#fd6d2f" d="M 288.417969 413.75 L 288.417969 413.878906 C 270.621094 413.878906 255.007812 429.492188 255.007812 447.289062 L 254.878906 447.289062 C 254.878906 429.492188 239.265625 413.878906 221.46875 413.878906 L 221.46875 413.75 C 239.265625 413.75 254.878906 398.136719 254.878906 380.339844 L 255.007812 380.339844 C 255.007812 398.136719 270.621094 413.75 288.417969 413.75 Z M 288.417969 413.75 " fill-opacity="1" fill-rule="nonzero"/><g clip-path="url(#ae247fd582)"><path fill="#493931" d="M 256.484375 448.765625 L 253.402344 448.765625 L 253.402344 447.289062 C 253.402344 430.277344 238.480469 415.355469 221.46875 415.355469 L 219.992188 415.355469 L 219.992188 412.273438 L 221.46875 412.273438 C 238.480469 412.273438 253.402344 397.351562 253.402344 380.339844 L 253.402344 378.863281 L 256.484375 378.863281 L 256.484375 380.339844 C 256.484375 397.351562 271.40625 412.273438 288.417969 412.273438 L 289.894531 412.273438 L 289.894531 415.355469 L 288.417969 415.355469 C 271.40625 415.355469 256.484375 430.277344 256.484375 447.289062 Z M 230.902344 413.816406 C 242.214844 417.242188 251.519531 426.546875 254.945312 437.859375 C 258.371094 426.546875 267.671875 417.242188 278.984375 413.816406 C 267.671875 410.390625 258.371094 401.085938 254.945312 389.773438 C 251.519531 401.085938 242.214844 410.390625 230.902344 413.816406 Z M 230.902344 413.816406 " fill-opacity="1" fill-rule="nonzero"/></g><path fill="#fd6d2f" d="M 811.316406 162.117188 L 811.316406 162.246094 C 793.515625 162.246094 777.902344 177.855469 777.902344 195.65625 L 777.773438 195.65625 C 777.773438 177.855469 762.164062 162.246094 744.363281 162.246094 L 744.363281 162.117188 C 762.164062 162.117188 777.773438 146.503906 777.773438 128.703125 L 777.902344 128.703125 C 777.902344 146.503906 793.515625 162.117188 811.316406 162.117188 Z M 811.316406 162.117188 " fill-opacity="1" fill-rule="nonzero"/><g clip-path="url(#eb1a58fa44)"><path fill="#493931" d="M 779.378906 197.128906 L 776.300781 197.128906 L 776.300781 195.65625 C 776.300781 178.640625 761.378906 163.71875 744.363281 163.71875 L 742.890625 163.71875 L 742.890625 160.640625 L 744.363281 160.640625 C 761.378906 160.640625 776.300781 145.71875 776.300781 128.703125 L 776.300781 127.230469 L 779.378906 127.230469 L 779.378906 128.703125 C 779.378906 145.71875 794.300781 160.640625 811.316406 160.640625 L 812.789062 160.640625 L 812.789062 163.71875 L 811.316406 163.71875 C 794.300781 163.71875 779.378906 178.640625 779.378906 195.65625 Z M 753.796875 162.179688 C 765.109375 165.605469 774.414062 174.90625 777.835938 186.21875 C 781.261719 174.90625 790.566406 165.605469 801.878906 162.179688 C 790.566406 158.753906 781.257812 149.449219 777.835938 138.136719 C 774.414062 149.449219 765.109375 158.757812 753.796875 162.179688 Z M 753.796875 162.179688 " fill-opacity="1" fill-rule="nonzero"/></g></svg>