<svg xmlns="http://www.w3.org/2000/svg" xmlns:xlink="http://www.w3.org/1999/xlink" width="1366" zoomAndPan="magnify" viewBox="0 0 1024.5 576" height="768" preserveAspectRatio="xMidYMid meet" version="1.0"><path fill="#fae8e0" d="M 487.820312 68.960938 C 396.601562 72.699219 330.417969 89.464844 241.753906 131.289062 C 168.230469 165.976562 101.765625 213.816406 101.765625 232.054688 C 101.765625 244.59375 112.496094 246.859375 129.328125 237.878906 C 180.3125 210.675781 247.1875 187.429688 314.285156 173.585938 C 438.257812 148.003906 603.851562 170.183594 637.1875 216.835938 C 678.519531 274.671875 571.867188 332.121094 455.617188 314.636719 C 432.625 311.179688 428.964844 312.070312 428.964844 321.117188 C 428.964844 349.253906 548.757812 375.914062 633.0625 366.542969 C 724.300781 356.402344 819.609375 306.558594 845.003906 255.703125 C 894.972656 155.640625 711.628906 59.785156 487.820312 68.960938 M 491.09375 82.53125 C 439.234375 84.351562 408.773438 87.816406 377.390625 95.46875 C 317.113281 110.164062 280.574219 124.207031 210.675781 159.550781 C 164.679688 182.808594 110.335938 222.515625 113.433594 230.59375 C 114.574219 233.570312 120.097656 231.96875 131.953125 225.226562 C 144.785156 217.933594 158.84375 211.410156 174.058594 205.695312 C 179.566406 203.625 192.5 198.429688 202.800781 194.148438 C 306.238281 151.136719 445.363281 138.59375 561.640625 161.792969 C 654.589844 180.335938 692.003906 238.261719 642.8125 287.457031 C 612.867188 317.398438 525.101562 335.625 462.976562 324.796875 C 429.480469 318.960938 435.503906 329.726562 472.027344 340.980469 C 557.570312 367.335938 651.011719 361.203125 740.640625 323.347656 C 769.636719 311.101562 804.222656 286.132812 820.839844 265.457031 C 863.839844 211.945312 822.96875 151.539062 719.722656 116 C 641.859375 89.199219 575.9375 79.550781 491.09375 82.53125 M 406.171875 182.234375 C 221.683594 190.714844 130.996094 367.707031 265.25 457.261719 C 364.34375 523.359375 489.90625 536.667969 644.382812 497.445312 C 749.648438 470.714844 889.496094 383.707031 917.890625 327.273438 C 928.007812 307.167969 914.441406 307.941406 878.183594 329.535156 C 810.457031 369.875 754.304688 393.171875 677.046875 412.996094 C 621.089844 427.351562 530.480469 427.84375 456.253906 414.1875 C 264.828125 378.976562 247.730469 219.933594 432.910156 197.042969 C 447.4375 195.246094 450.15625 194.246094 450.15625 190.695312 C 450.15625 183.230469 437.480469 180.792969 406.171875 182.234375 M 398.332031 187.066406 C 372.039062 190.835938 356.527344 194.496094 341.082031 200.582031 C 277.882812 225.46875 237.015625 261.929688 218.769531 309.710938 C 194.039062 374.460938 232.542969 436.859375 321.96875 476.941406 C 467.253906 542.066406 686.988281 505.605469 839.070312 391.144531 C 873.230469 365.433594 906.546875 334.101562 906.546875 327.691406 C 906.546875 323.492188 900.691406 326.101562 873.347656 342.496094 C 733.972656 426.054688 639.234375 447.96875 489.828125 431.203125 C 355.925781 416.179688 275.238281 350.324219 295.125 272.292969 C 304.929688 233.828125 352.730469 203.789062 421.976562 192.582031 C 434.511719 190.554688 436.226562 189.757812 431.316406 188.25 C 427.984375 187.226562 403.378906 186.34375 398.332031 187.066406 M 497.1875 210.59375 C 455.476562 215.894531 431.546875 238.730469 443.21875 262.09375 C 462.265625 300.203125 558.691406 284.722656 558.550781 243.582031 C 558.472656 222.074219 529.484375 206.488281 497.1875 210.59375 M 490.066406 220.0625 C 459.949219 225.128906 443.394531 242.597656 453.070312 259.105469 C 466.945312 282.78125 535.277344 277.960938 547.636719 252.429688 C 558.328125 230.34375 528.527344 213.589844 490.066406 220.0625 " fill-opacity="1" fill-rule="evenodd"/><path fill="#dfafdb" d="M 491.09375 82.53125 C 439.234375 84.351562 408.773438 87.816406 377.390625 95.46875 C 317.113281 110.164062 280.574219 124.207031 210.675781 159.550781 C 164.679688 182.808594 110.335938 222.515625 113.433594 230.59375 C 114.574219 233.570312 120.097656 231.96875 131.953125 225.226562 C 144.785156 217.933594 158.84375 211.410156 174.058594 205.695312 C 179.566406 203.625 192.5 198.429688 202.800781 194.148438 C 306.238281 151.136719 445.363281 138.59375 561.640625 161.792969 C 654.589844 180.335938 692.003906 238.261719 642.8125 287.457031 C 612.867188 317.398438 525.101562 335.625 462.976562 324.796875 C 429.480469 318.960938 435.503906 329.726562 472.027344 340.980469 C 557.570312 367.335938 651.011719 361.203125 740.640625 323.347656 C 769.636719 311.101562 804.222656 286.132812 820.839844 265.457031 C 863.839844 211.945312 822.96875 151.539062 719.722656 116 C 641.859375 89.199219 575.9375 79.550781 491.09375 82.53125 M 398.332031 187.066406 C 372.039062 190.835938 356.527344 194.496094 341.082031 200.582031 C 277.882812 225.46875 237.015625 261.929688 218.769531 309.710938 C 194.039062 374.460938 232.542969 436.859375 321.96875 476.941406 C 467.253906 542.066406 686.988281 505.605469 839.070312 391.144531 C 873.230469 365.433594 906.546875 334.101562 906.546875 327.691406 C 906.546875 323.492188 900.691406 326.101562 873.347656 342.496094 C 733.972656 426.054688 639.234375 447.96875 489.828125 431.203125 C 355.925781 416.179688 275.238281 350.324219 295.125 272.292969 C 304.929688 233.828125 352.730469 203.789062 421.976562 192.582031 C 434.511719 190.554688 436.226562 189.757812 431.316406 188.25 C 427.984375 187.226562 403.378906 186.34375 398.332031 187.066406 M 490.066406 220.0625 C 459.949219 225.128906 443.394531 242.597656 453.070312 259.105469 C 466.945312 282.78125 535.277344 277.960938 547.636719 252.429688 C 558.328125 230.34375 528.527344 213.589844 490.066406 220.0625 " fill-opacity="1" fill-rule="evenodd"/></svg>