<svg version="1.0" preserveAspectRatio="xMidYMid meet" viewBox="74.90719910011249 0 879.2952755905512 576" zoomAndPan="magnify" xmlns:xlink="http://www.w3.org/1999/xlink" xmlns="http://www.w3.org/2000/svg" style="max-height: 500px" width="879.2952755905512" height="576"><defs><clipPath id="e78b1c7bc8"><path clip-rule="nonzero" d="M 172 69 L 932.691406 69 L 932.691406 547.109375 L 172 547.109375 Z M 172 69"/></clipPath><clipPath id="5718e295ee"><path clip-rule="nonzero" d="M 158 53.851562 L 919 53.851562 L 919 533 L 158 533 Z M 158 53.851562"/></clipPath><clipPath id="c657851c18"><path clip-rule="nonzero" d="M 144.824219 59 L 220 59 L 220 165 L 144.824219 165 Z M 144.824219 59"/></clipPath><clipPath id="2a6803e625"><path clip-rule="nonzero" d="M 144.824219 170 L 150 170 L 150 224 L 144.824219 224 Z M 144.824219 170"/></clipPath><clipPath id="d66225ede2"><path clip-rule="nonzero" d="M 144.824219 227 L 150 227 L 150 248 L 144.824219 248 Z M 144.824219 227"/></clipPath><clipPath id="b4bdebf995"><path clip-rule="nonzero" d="M 144.824219 255 L 150 255 L 150 422 L 144.824219 422 Z M 144.824219 255"/></clipPath><clipPath id="a3b36319ba"><path clip-rule="nonzero" d="M 144.824219 426 L 150 426 L 150 443 L 144.824219 443 Z M 144.824219 426"/></clipPath><clipPath id="9bd222b257"><path clip-rule="nonzero" d="M 144.824219 447 L 237 447 L 237 543 L 144.824219 543 Z M 144.824219 447"/></clipPath><clipPath id="f53fe84f3b"><path clip-rule="nonzero" d="M 841.648438 0.140625 L 884 0.140625 L 884 43 L 841.648438 43 Z M 841.648438 0.140625"/></clipPath><clipPath id="768fbd9a29"><path clip-rule="nonzero" d="M 895 16 L 947.347656 16 L 947.347656 75 L 895 75 Z M 895 16"/></clipPath><clipPath id="9a8b08f30a"><path clip-rule="nonzero" d="M 863 61 L 903 61 L 903 107.339844 L 863 107.339844 Z M 863 61"/></clipPath></defs><g clip-path="url(#e78b1c7bc8)"><path fill-rule="nonzero" fill-opacity="1" d="M 172.957031 69.078125 L 932.878906 69.078125 L 932.878906 547.316406 L 172.957031 547.316406 Z M 172.957031 69.078125" fill="#fd6d2f"/></g><g clip-path="url(#5718e295ee)"><path fill-rule="nonzero" fill-opacity="1" d="M 158.492188 53.914062 L 918.410156 53.914062 L 918.410156 532.152344 L 158.492188 532.152344 Z M 158.492188 53.914062" fill="#f1f2f2"/></g><path fill-rule="nonzero" fill-opacity="1" d="M 289.953125 542.039062 L 247.386719 542.039062 C 246.117188 542.039062 245.082031 541.003906 245.082031 539.730469 C 245.082031 538.460938 246.117188 537.425781 247.386719 537.425781 L 289.953125 537.425781 C 291.226562 537.425781 292.257812 538.460938 292.257812 539.730469 C 292.257812 541.003906 291.226562 542.039062 289.953125 542.039062 Z M 289.953125 542.039062" fill="#493931"/><path fill-rule="nonzero" fill-opacity="1" d="M 682.675781 542.039062 L 302.460938 542.039062 C 301.1875 542.039062 300.15625 541.003906 300.15625 539.730469 C 300.15625 538.460938 301.1875 537.425781 302.460938 537.425781 L 682.675781 537.425781 C 683.945312 537.425781 684.980469 538.460938 684.980469 539.730469 C 684.980469 541.003906 683.945312 542.039062 682.675781 542.039062 Z M 682.675781 542.039062" fill="#493931"/><path fill-rule="nonzero" fill-opacity="1" d="M 703.597656 542.039062 L 691.152344 542.039062 C 689.878906 542.039062 688.84375 541.003906 688.84375 539.730469 C 688.84375 538.460938 689.878906 537.425781 691.152344 537.425781 L 703.597656 537.425781 C 704.871094 537.425781 705.902344 538.460938 705.902344 539.730469 C 705.902344 541.003906 704.871094 542.039062 703.597656 542.039062 Z M 703.597656 542.039062" fill="#493931"/><path fill-rule="nonzero" fill-opacity="1" d="M 907.042969 542.039062 L 710.09375 542.039062 C 708.820312 542.039062 707.789062 541.003906 707.789062 539.730469 C 707.789062 538.460938 708.820312 537.425781 710.09375 537.425781 L 904.742188 537.425781 L 904.742188 462.101562 C 904.742188 460.828125 905.773438 459.796875 907.046875 459.796875 C 908.320312 459.796875 909.351562 460.828125 909.351562 462.101562 L 909.351562 539.730469 C 909.34375 541.007812 908.316406 542.039062 907.042969 542.039062 Z M 907.042969 542.039062" fill="#493931"/><path fill-rule="nonzero" fill-opacity="1" d="M 907.042969 454.125 C 905.769531 454.125 904.738281 453.09375 904.738281 451.820312 L 904.738281 394.28125 C 904.738281 393.007812 905.769531 391.976562 907.042969 391.976562 C 908.316406 391.976562 909.347656 393.007812 909.347656 394.28125 L 909.347656 451.820312 C 909.34375 453.09375 908.316406 454.125 907.042969 454.125 Z M 907.042969 454.125" fill="#493931"/><path fill-rule="nonzero" fill-opacity="1" d="M 907.042969 386.128906 C 905.769531 386.128906 904.738281 385.09375 904.738281 383.824219 L 904.738281 366.6875 C 904.738281 365.417969 905.769531 364.382812 907.042969 364.382812 C 908.316406 364.382812 909.347656 365.417969 909.347656 366.6875 L 909.347656 383.824219 C 909.34375 385.09375 908.316406 386.128906 907.042969 386.128906 Z M 907.042969 386.128906" fill="#493931"/><path fill-rule="nonzero" fill-opacity="1" d="M 907.042969 356.90625 C 905.769531 356.90625 904.738281 355.875 904.738281 354.601562 L 904.738281 124.453125 C 904.738281 123.179688 905.769531 122.148438 907.042969 122.148438 C 908.316406 122.148438 909.347656 123.179688 909.347656 124.453125 L 909.347656 354.601562 C 909.34375 355.875 908.316406 356.90625 907.042969 356.90625 Z M 907.042969 356.90625" fill="#493931"/><path fill-rule="nonzero" fill-opacity="1" d="M 907.042969 117.921875 C 905.769531 117.921875 904.738281 116.886719 904.738281 115.617188 L 904.738281 105.152344 C 904.738281 103.878906 905.769531 102.847656 907.042969 102.847656 C 908.316406 102.847656 909.347656 103.878906 909.347656 105.152344 L 909.347656 115.617188 C 909.34375 116.886719 908.316406 117.921875 907.042969 117.921875 Z M 907.042969 117.921875" fill="#493931"/><path fill-rule="nonzero" fill-opacity="1" d="M 907.042969 96.457031 C 905.769531 96.457031 904.738281 95.421875 904.738281 94.152344 L 904.738281 63.800781 L 851.5 63.800781 C 850.226562 63.800781 849.191406 62.765625 849.191406 61.492188 C 849.191406 60.222656 850.226562 59.1875 851.5 59.1875 L 907.042969 59.1875 C 908.316406 59.1875 909.347656 60.222656 909.347656 61.492188 L 909.347656 94.152344 C 909.34375 95.421875 908.316406 96.457031 907.042969 96.457031 Z M 907.042969 96.457031" fill="#493931"/><path fill-rule="nonzero" fill-opacity="1" d="M 839.953125 63.800781 L 805.683594 63.800781 C 804.410156 63.800781 803.378906 62.765625 803.378906 61.492188 C 803.378906 60.222656 804.410156 59.1875 805.683594 59.1875 L 839.953125 59.1875 C 841.226562 59.1875 842.261719 60.222656 842.261719 61.492188 C 842.261719 62.765625 841.226562 63.800781 839.953125 63.800781 Z M 839.953125 63.800781" fill="#493931"/><path fill-rule="nonzero" fill-opacity="1" d="M 794.503906 63.800781 L 568.683594 63.800781 C 567.410156 63.800781 566.378906 62.765625 566.378906 61.492188 C 566.378906 60.222656 567.410156 59.1875 568.683594 59.1875 L 794.503906 59.1875 C 795.777344 59.1875 796.808594 60.222656 796.808594 61.492188 C 796.808594 62.765625 795.777344 63.800781 794.503906 63.800781 Z M 794.503906 63.800781" fill="#493931"/><path fill-rule="nonzero" fill-opacity="1" d="M 568.050781 63.800781 L 538.453125 63.800781 C 537.179688 63.800781 536.148438 62.765625 536.148438 61.492188 C 536.148438 60.222656 537.179688 59.1875 538.453125 59.1875 L 568.050781 59.1875 C 569.324219 59.1875 570.359375 60.222656 570.359375 61.492188 C 570.359375 62.765625 569.324219 63.800781 568.050781 63.800781 Z M 568.050781 63.800781" fill="#493931"/><path fill-rule="nonzero" fill-opacity="1" d="M 538.453125 63.800781 L 252.195312 63.800781 C 250.925781 63.800781 249.890625 62.765625 249.890625 61.492188 C 249.890625 60.222656 250.925781 59.1875 252.195312 59.1875 L 538.449219 59.1875 C 539.722656 59.1875 540.753906 60.222656 540.753906 61.492188 C 540.753906 62.765625 539.726562 63.800781 538.453125 63.800781 Z M 538.453125 63.800781" fill="#493931"/><path fill-rule="nonzero" fill-opacity="1" d="M 241.855469 63.800781 L 225.984375 63.800781 C 224.710938 63.800781 223.679688 62.765625 223.679688 61.492188 C 223.679688 60.222656 224.710938 59.1875 225.984375 59.1875 L 241.855469 59.1875 C 243.128906 59.1875 244.160156 60.222656 244.160156 61.492188 C 244.160156 62.765625 243.128906 63.800781 241.855469 63.800781 Z M 241.855469 63.800781" fill="#493931"/><g clip-path="url(#c657851c18)"><path fill-rule="nonzero" fill-opacity="1" d="M 147.121094 164.996094 C 145.847656 164.996094 144.816406 163.960938 144.816406 162.691406 L 144.816406 61.492188 C 144.816406 60.222656 145.847656 59.1875 147.121094 59.1875 L 216.847656 59.1875 C 218.121094 59.1875 219.152344 60.222656 219.152344 61.492188 C 219.152344 62.765625 218.121094 63.800781 216.847656 63.800781 L 149.425781 63.800781 L 149.425781 162.691406 C 149.425781 163.960938 148.394531 164.996094 147.121094 164.996094 Z M 147.121094 164.996094" fill="#493931"/></g><g clip-path="url(#2a6803e625)"><path fill-rule="nonzero" fill-opacity="1" d="M 147.121094 223.4375 C 145.847656 223.4375 144.816406 222.402344 144.816406 221.128906 L 144.816406 172.550781 C 144.816406 171.277344 145.847656 170.246094 147.121094 170.246094 C 148.394531 170.246094 149.425781 171.277344 149.425781 172.550781 L 149.425781 221.128906 C 149.425781 222.402344 148.394531 223.4375 147.121094 223.4375 Z M 147.121094 223.4375" fill="#493931"/></g><g clip-path="url(#d66225ede2)"><path fill-rule="nonzero" fill-opacity="1" d="M 147.121094 247.964844 C 145.847656 247.964844 144.816406 246.933594 144.816406 245.660156 L 144.816406 229.546875 C 144.816406 228.273438 145.847656 227.242188 147.121094 227.242188 C 148.394531 227.242188 149.425781 228.273438 149.425781 229.546875 L 149.425781 245.660156 C 149.425781 246.933594 148.394531 247.964844 147.121094 247.964844 Z M 147.121094 247.964844" fill="#493931"/></g><g clip-path="url(#b4bdebf995)"><path fill-rule="nonzero" fill-opacity="1" d="M 147.121094 421.839844 C 145.847656 421.839844 144.816406 420.808594 144.816406 419.535156 L 144.816406 257.683594 C 144.816406 256.414062 145.847656 255.378906 147.121094 255.378906 C 148.394531 255.378906 149.425781 256.414062 149.425781 257.683594 L 149.425781 419.535156 C 149.425781 420.808594 148.394531 421.839844 147.121094 421.839844 Z M 147.121094 421.839844" fill="#493931"/></g><g clip-path="url(#a3b36319ba)"><path fill-rule="nonzero" fill-opacity="1" d="M 147.121094 442.761719 C 145.847656 442.761719 144.816406 441.730469 144.816406 440.457031 L 144.816406 428.675781 C 144.816406 427.402344 145.847656 426.367188 147.121094 426.367188 C 148.394531 426.367188 149.425781 427.402344 149.425781 428.675781 L 149.425781 440.457031 C 149.425781 441.730469 148.394531 442.761719 147.121094 442.761719 Z M 147.121094 442.761719" fill="#493931"/></g><g clip-path="url(#9bd222b257)"><path fill-rule="nonzero" fill-opacity="1" d="M 234.640625 542.039062 L 147.121094 542.039062 C 145.847656 542.039062 144.816406 541.003906 144.816406 539.730469 L 144.816406 449.476562 C 144.816406 448.203125 145.847656 447.171875 147.121094 447.171875 C 148.394531 447.171875 149.425781 448.203125 149.425781 449.476562 L 149.425781 537.429688 L 234.640625 537.429688 C 235.914062 537.429688 236.945312 538.460938 236.945312 539.734375 C 236.945312 541.007812 235.914062 542.039062 234.640625 542.039062 Z M 234.640625 542.039062" fill="#493931"/></g><path fill-rule="nonzero" fill-opacity="1" d="M 398.773438 96.457031 L 377.492188 96.457031 C 376.21875 96.457031 375.1875 95.421875 375.1875 94.152344 C 375.1875 92.878906 376.21875 91.84375 377.492188 91.84375 L 398.773438 91.84375 C 400.046875 91.84375 401.082031 92.878906 401.082031 94.152344 C 401.082031 95.421875 400.046875 96.457031 398.773438 96.457031 Z M 398.773438 96.457031" fill="#fae8e0"/><path fill-rule="nonzero" fill-opacity="1" d="M 364.148438 96.457031 L 234.640625 96.457031 C 233.371094 96.457031 232.335938 95.421875 232.335938 94.152344 C 232.335938 92.878906 233.371094 91.84375 234.640625 91.84375 L 364.148438 91.84375 C 365.417969 91.84375 366.453125 92.878906 366.453125 94.152344 C 366.453125 95.421875 365.417969 96.457031 364.148438 96.457031 Z M 364.148438 96.457031" fill="#fae8e0"/><g clip-path="url(#f53fe84f3b)"><path fill-rule="nonzero" fill-opacity="1" d="M 882.050781 19.757812 C 882.089844 19.730469 882.132812 19.703125 882.175781 19.675781 C 882.542969 19.4375 882.820312 19.128906 882.992188 18.71875 C 883.160156 18.324219 883.230469 17.839844 883.09375 17.417969 C 882.988281 17.089844 882.8125 16.789062 882.578125 16.535156 C 882.226562 16.152344 881.667969 15.96875 881.164062 15.949219 C 880.617188 15.929688 880.074219 15.882812 879.53125 15.808594 C 879.710938 15.832031 879.886719 15.855469 880.0625 15.882812 C 878.460938 15.664062 876.898438 15.222656 875.40625 14.597656 C 875.566406 14.664062 875.726562 14.730469 875.886719 14.796875 C 874.308594 14.128906 872.828125 13.253906 871.472656 12.207031 C 871.605469 12.3125 871.742188 12.414062 871.875 12.519531 C 870.523438 11.46875 869.300781 10.25 868.253906 8.898438 C 868.355469 9.03125 868.460938 9.167969 868.566406 9.300781 C 867.554688 7.992188 866.707031 6.5625 866.0625 5.039062 C 866.132812 5.195312 866.199219 5.355469 866.265625 5.515625 C 865.746094 4.273438 865.363281 2.980469 865.136719 1.652344 C 865.070312 1.492188 865.003906 1.332031 864.933594 1.171875 C 864.832031 1.039062 864.726562 0.902344 864.621094 0.769531 C 864.308594 0.457031 863.90625 0.277344 863.472656 0.21875 C 863.109375 0.167969 862.777344 0.210938 862.4375 0.355469 C 862.078125 0.507812 861.644531 0.796875 861.480469 1.171875 C 860.414062 3.632812 859.105469 5.988281 857.585938 8.195312 C 857.152344 8.824219 856.703125 9.4375 856.238281 10.039062 C 856.34375 9.902344 856.449219 9.769531 856.550781 9.632812 C 854.8125 11.882812 852.855469 13.960938 850.703125 15.820312 C 850.097656 16.34375 849.480469 16.851562 848.84375 17.339844 C 848.980469 17.238281 849.113281 17.132812 849.25 17.027344 C 847.648438 18.261719 845.960938 19.382812 844.199219 20.371094 C 843.691406 20.65625 843.179688 20.929688 842.664062 21.191406 C 842.527344 21.296875 842.394531 21.402344 842.257812 21.503906 C 842.152344 21.640625 842.050781 21.773438 841.945312 21.910156 C 841.71875 22.296875 841.648438 22.746094 841.707031 23.183594 C 841.757812 23.542969 841.878906 23.84375 842.101562 24.132812 C 842.347656 24.445312 842.734375 24.78125 843.140625 24.847656 C 844.851562 25.132812 846.523438 25.625 848.121094 26.296875 C 847.960938 26.230469 847.804688 26.160156 847.644531 26.09375 C 849.546875 26.898438 851.332031 27.953125 852.96875 29.214844 C 852.832031 29.113281 852.699219 29.007812 852.5625 28.902344 C 854.226562 30.191406 855.722656 31.6875 857.011719 33.351562 C 856.90625 33.21875 856.804688 33.082031 856.699219 32.949219 C 857.949219 34.566406 858.992188 36.339844 859.792969 38.222656 C 859.722656 38.0625 859.65625 37.90625 859.589844 37.746094 C 860.0625 38.867188 860.445312 40.023438 860.730469 41.207031 C 860.796875 41.367188 860.863281 41.523438 860.929688 41.683594 C 861.058594 41.917969 861.226562 42.105469 861.445312 42.246094 C 861.78125 42.507812 862.21875 42.695312 862.65625 42.675781 C 863.011719 42.660156 863.351562 42.570312 863.667969 42.402344 C 864.144531 42.148438 864.398438 41.683594 864.585938 41.207031 C 864.75 40.789062 864.917969 40.371094 865.09375 39.957031 C 865.027344 40.113281 864.960938 40.273438 864.890625 40.433594 C 866.136719 37.496094 867.679688 34.683594 869.484375 32.054688 C 869.992188 31.3125 870.523438 30.585938 871.074219 29.871094 C 870.96875 30.007812 870.863281 30.140625 870.761719 30.277344 C 872.710938 27.75 874.910156 25.417969 877.320312 23.324219 C 877.996094 22.734375 878.695312 22.164062 879.40625 21.613281 C 879.269531 21.71875 879.136719 21.820312 879 21.925781 C 879.988281 21.164062 881.003906 20.441406 882.050781 19.757812 C 882.484375 19.472656 882.828125 19.070312 882.96875 18.5625 C 883.101562 18.082031 883.039062 17.445312 882.765625 17.019531 C 882.492188 16.59375 882.082031 16.21875 881.570312 16.101562 C 881.0625 15.984375 880.484375 16.007812 880.03125 16.304688 C 876.65625 18.507812 873.53125 21.121094 870.785156 24.078125 C 868.058594 27.015625 865.65625 30.285156 863.703125 33.785156 C 862.558594 35.832031 861.578125 37.960938 860.730469 40.144531 C 862.015625 40.144531 863.300781 40.144531 864.585938 40.144531 C 863.664062 36.316406 861.765625 32.800781 859.25 29.789062 C 858.101562 28.414062 856.804688 27.171875 855.390625 26.074219 C 853.839844 24.871094 852.203125 23.804688 850.417969 22.976562 C 848.4375 22.054688 846.363281 21.351562 844.203125 20.992188 C 844.363281 22.207031 844.523438 23.425781 844.683594 24.644531 C 848.203125 22.859375 851.46875 20.554688 854.382812 17.890625 C 857.28125 15.242188 859.828125 12.179688 861.929688 8.863281 C 863.078125 7.054688 864.082031 5.15625 864.933594 3.191406 C 863.71875 3.03125 862.5 2.875 861.28125 2.714844 C 861.902344 6.363281 863.679688 9.738281 866.078125 12.53125 C 868.492188 15.335938 871.640625 17.464844 875.101562 18.753906 C 877.035156 19.476562 879.101562 19.871094 881.164062 19.949219 C 880.828125 18.707031 880.492188 17.464844 880.15625 16.222656 C 880.113281 16.25 880.074219 16.277344 880.03125 16.304688 C 879.597656 16.585938 879.253906 16.988281 879.113281 17.5 C 878.980469 17.976562 879.039062 18.613281 879.3125 19.039062 C 879.589844 19.46875 880 19.84375 880.507812 19.957031 C 881.019531 20.074219 881.597656 20.050781 882.050781 19.757812 Z M 882.050781 19.757812" fill="#dfafdb"/></g><g clip-path="url(#768fbd9a29)"><path fill-rule="nonzero" fill-opacity="1" d="M 925.21875 69.664062 C 923.644531 64.886719 921.039062 60.515625 917.660156 56.796875 C 914.410156 53.214844 910.398438 50.238281 905.992188 48.238281 C 903.4375 47.082031 900.78125 46.191406 898.019531 45.695312 C 898.3125 46.808594 898.605469 47.921875 898.902344 49.039062 C 902.527344 45.933594 905.875 42.511719 908.902344 38.824219 C 912 35.050781 914.796875 31.035156 917.210938 26.789062 C 918.53125 24.464844 919.738281 22.074219 920.828125 19.632812 C 919.675781 19.632812 918.527344 19.632812 917.375 19.632812 C 919.578125 23.738281 922.453125 27.519531 925.792969 30.769531 C 929.121094 34.011719 932.953125 36.789062 937.09375 38.902344 C 939.484375 40.121094 941.988281 41.144531 944.554688 41.925781 C 944.257812 40.8125 943.964844 39.699219 943.671875 38.585938 C 939.945312 42.324219 936.550781 46.390625 933.496094 50.695312 C 930.523438 54.886719 927.902344 59.328125 925.667969 63.957031 C 924.351562 66.6875 923.164062 69.488281 922.105469 72.332031 C 923.390625 72.332031 924.675781 72.332031 925.960938 72.332031 C 925.753906 71.429688 925.503906 70.542969 925.21875 69.664062 C 925.058594 69.171875 924.753906 68.734375 924.300781 68.46875 C 923.871094 68.21875 923.238281 68.113281 922.757812 68.265625 C 921.765625 68.589844 921.015625 69.664062 921.363281 70.726562 C 921.648438 71.605469 921.898438 72.496094 922.105469 73.394531 C 922.296875 74.214844 923.1875 74.898438 924.035156 74.863281 C 924.390625 74.847656 924.730469 74.753906 925.042969 74.589844 C 925.515625 74.339844 925.785156 73.871094 925.960938 73.394531 C 926.425781 72.152344 926.910156 70.921875 927.425781 69.703125 C 927.355469 69.863281 927.289062 70.023438 927.222656 70.179688 C 928.425781 67.332031 929.769531 64.542969 931.253906 61.828125 C 932.738281 59.117188 934.355469 56.476562 936.105469 53.925781 C 937.097656 52.480469 938.128906 51.058594 939.199219 49.671875 C 939.097656 49.804688 938.992188 49.941406 938.886719 50.078125 C 941.242188 47.03125 943.785156 44.136719 946.5 41.414062 C 947.582031 40.324219 947.046875 38.507812 945.617188 38.070312 C 944.207031 37.640625 942.824219 37.136719 941.464844 36.5625 C 941.625 36.632812 941.785156 36.699219 941.945312 36.765625 C 939.21875 35.609375 936.613281 34.183594 934.171875 32.507812 C 933.472656 32.03125 932.789062 31.53125 932.117188 31.011719 C 932.253906 31.117188 932.386719 31.222656 932.523438 31.324219 C 930.160156 29.496094 927.972656 27.441406 926.015625 25.183594 C 925.460938 24.542969 924.925781 23.886719 924.40625 23.214844 C 924.511719 23.351562 924.617188 23.484375 924.71875 23.621094 C 923.261719 21.726562 921.957031 19.71875 920.828125 17.613281 C 920.5 17 919.785156 16.621094 919.101562 16.621094 C 918.457031 16.621094 917.652344 16.988281 917.375 17.613281 C 915.289062 22.289062 912.765625 26.769531 909.851562 30.980469 C 909.03125 32.167969 908.175781 33.332031 907.296875 34.476562 C 907.398438 34.339844 907.503906 34.207031 907.609375 34.070312 C 904.941406 37.519531 902.003906 40.761719 898.824219 43.746094 C 897.925781 44.589844 897.007812 45.410156 896.074219 46.210938 C 895.542969 46.664062 895.382812 47.507812 895.558594 48.15625 C 895.730469 48.78125 896.289062 49.433594 896.957031 49.550781 C 899.269531 49.96875 901.527344 50.648438 903.691406 51.558594 C 903.53125 51.492188 903.371094 51.425781 903.210938 51.359375 C 905.886719 52.492188 908.402344 53.976562 910.703125 55.75 C 910.566406 55.644531 910.433594 55.539062 910.296875 55.4375 C 912.660156 57.265625 914.785156 59.386719 916.613281 61.75 C 916.511719 61.613281 916.40625 61.480469 916.300781 61.34375 C 918.054688 63.625 919.527344 66.113281 920.648438 68.761719 C 920.582031 68.605469 920.515625 68.445312 920.449219 68.285156 C 920.785156 69.085938 921.089844 69.902344 921.363281 70.726562 C 921.523438 71.222656 921.824219 71.65625 922.28125 71.921875 C 922.710938 72.171875 923.34375 72.28125 923.824219 72.125 C 924.8125 71.804688 925.570312 70.730469 925.21875 69.664062 Z M 925.21875 69.664062" fill="#dfafdb"/></g><g clip-path="url(#9a8b08f30a)"><path fill-rule="nonzero" fill-opacity="1" d="M 884.238281 103.457031 C 884.5625 102.554688 884.910156 101.664062 885.28125 100.78125 C 885.210938 100.941406 885.144531 101.097656 885.078125 101.257812 C 886.4375 98.039062 888.125 94.960938 890.101562 92.082031 C 890.65625 91.273438 891.230469 90.480469 891.828125 89.707031 C 891.726562 89.839844 891.621094 89.976562 891.515625 90.109375 C 893.605469 87.40625 895.957031 84.90625 898.535156 82.667969 C 899.265625 82.03125 900.015625 81.421875 900.78125 80.828125 C 900.644531 80.933594 900.511719 81.035156 900.375 81.140625 C 900.78125 80.828125 901.191406 80.519531 901.605469 80.222656 C 901.882812 80.019531 902.148438 79.804688 902.324219 79.503906 C 902.550781 79.113281 902.621094 78.667969 902.558594 78.226562 C 902.511719 77.867188 902.386719 77.570312 902.167969 77.28125 C 901.886719 76.921875 901.5625 76.722656 901.128906 76.566406 C 900.363281 76.292969 899.609375 75.996094 898.859375 75.683594 C 899.019531 75.75 899.179688 75.816406 899.339844 75.882812 C 896.558594 74.710938 893.898438 73.253906 891.40625 71.546875 C 890.699219 71.066406 890.007812 70.558594 889.332031 70.039062 C 889.464844 70.140625 889.601562 70.246094 889.734375 70.351562 C 887.445312 68.582031 885.324219 66.59375 883.414062 64.417969 C 882.871094 63.800781 882.347656 63.164062 881.839844 62.519531 C 881.589844 62.269531 881.296875 62.097656 880.957031 62.003906 C 880.605469 61.910156 880.25 61.910156 879.894531 62.003906 C 879.554688 62.097656 879.261719 62.269531 879.011719 62.519531 C 878.765625 62.765625 878.59375 63.0625 878.5 63.402344 C 878.425781 63.585938 878.347656 63.765625 878.273438 63.949219 C 878.339844 63.789062 878.40625 63.632812 878.472656 63.472656 C 877.503906 65.761719 876.304688 67.949219 874.894531 70 C 874.496094 70.582031 874.082031 71.148438 873.652344 71.707031 C 873.753906 71.570312 873.859375 71.4375 873.964844 71.300781 C 872.453125 73.25 870.757812 75.050781 868.894531 76.664062 C 868.363281 77.125 867.820312 77.570312 867.261719 78.003906 C 867.398438 77.898438 867.53125 77.792969 867.667969 77.691406 C 866.707031 78.429688 865.714844 79.121094 864.6875 79.761719 C 864.085938 80.136719 863.699219 80.765625 863.699219 81.488281 C 863.699219 82.175781 864.074219 82.878906 864.6875 83.214844 C 866.039062 83.953125 867.328125 84.800781 868.546875 85.738281 C 868.410156 85.636719 868.273438 85.53125 868.140625 85.425781 C 870.230469 87.042969 872.101562 88.929688 873.71875 91.019531 C 873.613281 90.882812 873.507812 90.75 873.40625 90.613281 C 874.703125 92.292969 875.832031 94.101562 876.769531 96.007812 C 877.035156 96.546875 877.285156 97.097656 877.519531 97.652344 C 877.453125 97.492188 877.386719 97.332031 877.320312 97.171875 C 878.128906 99.097656 878.75 101.101562 879.152344 103.152344 C 879.265625 103.734375 879.363281 104.320312 879.441406 104.90625 C 879.417969 104.730469 879.394531 104.550781 879.371094 104.375 C 879.417969 104.726562 879.457031 105.078125 879.492188 105.429688 C 879.542969 105.945312 879.675781 106.472656 880.078125 106.84375 C 880.40625 107.144531 880.777344 107.332031 881.226562 107.394531 C 882.214844 107.527344 883.132812 106.921875 883.417969 105.960938 C 883.671875 105.117188 883.945312 104.285156 884.238281 103.457031 C 884.40625 102.988281 884.28125 102.332031 884.039062 101.914062 C 883.796875 101.5 883.320312 101.105469 882.84375 100.996094 C 882.332031 100.878906 881.757812 100.902344 881.300781 101.195312 C 880.847656 101.492188 880.566406 101.878906 880.382812 102.390625 C 880.089844 103.21875 879.816406 104.054688 879.5625 104.898438 C 880.871094 105.074219 882.183594 105.25 883.492188 105.429688 C 883.285156 103.324219 882.90625 101.242188 882.296875 99.21875 C 881.691406 97.203125 880.882812 95.238281 879.914062 93.375 C 878.9375 91.5 877.765625 89.757812 876.46875 88.09375 C 875.269531 86.550781 873.925781 85.121094 872.460938 83.828125 C 870.695312 82.277344 868.769531 80.890625 866.707031 79.761719 C 866.707031 80.910156 866.707031 82.0625 866.707031 83.214844 C 869.421875 81.519531 871.945312 79.480469 874.164062 77.175781 C 876.378906 74.871094 878.335938 72.277344 879.933594 69.507812 C 880.867188 67.886719 881.65625 66.195312 882.355469 64.464844 C 881.242188 64.757812 880.128906 65.050781 879.015625 65.347656 C 881.046875 67.945312 883.371094 70.3125 885.929688 72.402344 C 888.59375 74.578125 891.460938 76.492188 894.53125 78.046875 C 896.324219 78.953125 898.175781 79.746094 900.066406 80.421875 C 899.90625 79.203125 899.746094 77.984375 899.585938 76.765625 C 896.175781 79.242188 893.046875 82.078125 890.308594 85.285156 C 887.582031 88.480469 885.199219 91.96875 883.277344 95.703125 C 882.167969 97.863281 881.199219 100.105469 880.382812 102.390625 C 880.214844 102.859375 880.339844 103.515625 880.585938 103.933594 C 880.828125 104.347656 881.304688 104.742188 881.78125 104.851562 C 882.292969 104.96875 882.867188 104.945312 883.320312 104.652344 C 883.777344 104.355469 884.054688 103.96875 884.238281 103.457031 Z M 884.238281 103.457031" fill="#dfafdb"/></g><path fill-rule="nonzero" fill-opacity="1" d="M 246.257812 505.917969 C 246.257812 507.011719 246.230469 508.109375 246.179688 509.207031 C 246.125 510.300781 246.042969 511.394531 245.9375 512.488281 C 245.828125 513.578125 245.695312 514.667969 245.535156 515.75 C 245.371094 516.835938 245.183594 517.917969 244.972656 518.992188 C 244.757812 520.070312 244.515625 521.140625 244.25 522.203125 C 243.984375 523.265625 243.691406 524.324219 243.371094 525.375 C 243.054688 526.421875 242.710938 527.464844 242.339844 528.496094 C 241.972656 529.53125 241.578125 530.554688 241.15625 531.566406 C 240.738281 532.582031 240.292969 533.582031 239.824219 534.574219 C 239.355469 535.566406 238.863281 536.546875 238.34375 537.511719 C 237.828125 538.480469 237.285156 539.433594 236.722656 540.375 C 236.160156 541.316406 235.570312 542.242188 234.960938 543.15625 C 234.351562 544.066406 233.722656 544.964844 233.070312 545.84375 C 232.414062 546.726562 231.742188 547.589844 231.042969 548.4375 C 230.347656 549.285156 229.632812 550.117188 228.894531 550.929688 C 228.160156 551.742188 227.402344 552.535156 226.628906 553.3125 C 225.851562 554.085938 225.058594 554.84375 224.246094 555.582031 C 223.433594 556.316406 222.601562 557.035156 221.753906 557.730469 C 220.90625 558.425781 220.039062 559.101562 219.160156 559.753906 C 218.277344 560.40625 217.382812 561.039062 216.46875 561.648438 C 215.558594 562.257812 214.632812 562.84375 213.691406 563.40625 C 212.75 563.972656 211.796875 564.511719 210.828125 565.027344 C 209.859375 565.546875 208.882812 566.039062 207.890625 566.507812 C 206.898438 566.976562 205.894531 567.421875 204.882812 567.839844 C 203.867188 568.261719 202.84375 568.65625 201.8125 569.027344 C 200.78125 569.394531 199.738281 569.738281 198.6875 570.058594 C 197.640625 570.375 196.582031 570.667969 195.519531 570.933594 C 194.453125 571.203125 193.382812 571.441406 192.308594 571.65625 C 191.230469 571.871094 190.152344 572.058594 189.066406 572.21875 C 187.980469 572.378906 186.894531 572.511719 185.800781 572.621094 C 184.710938 572.726562 183.617188 572.808594 182.519531 572.863281 C 181.425781 572.917969 180.328125 572.945312 179.230469 572.945312 C 178.136719 572.945312 177.039062 572.917969 175.941406 572.863281 C 174.847656 572.808594 173.753906 572.726562 172.660156 572.621094 C 171.570312 572.511719 170.480469 572.378906 169.398438 572.21875 C 168.3125 572.058594 167.230469 571.871094 166.15625 571.65625 C 165.078125 571.441406 164.007812 571.203125 162.945312 570.933594 C 161.882812 570.667969 160.824219 570.375 159.773438 570.058594 C 158.726562 569.738281 157.683594 569.394531 156.652344 569.027344 C 155.617188 568.65625 154.59375 568.261719 153.582031 567.839844 C 152.566406 567.421875 151.566406 566.976562 150.574219 566.507812 C 149.582031 566.039062 148.601562 565.546875 147.636719 565.027344 C 146.667969 564.511719 145.714844 563.972656 144.773438 563.40625 C 143.832031 562.84375 142.90625 562.257812 141.992188 561.648438 C 141.082031 561.039062 140.183594 560.40625 139.304688 559.753906 C 138.421875 559.101562 137.558594 558.425781 136.710938 557.730469 C 135.863281 557.035156 135.03125 556.316406 134.21875 555.582031 C 133.40625 554.84375 132.613281 554.085938 131.835938 553.3125 C 131.0625 552.535156 130.304688 551.742188 129.566406 550.929688 C 128.832031 550.117188 128.113281 549.285156 127.417969 548.4375 C 126.722656 547.589844 126.046875 546.726562 125.394531 545.84375 C 124.742188 544.964844 124.109375 544.066406 123.5 543.15625 C 122.890625 542.242188 122.304688 541.316406 121.742188 540.375 C 121.175781 539.433594 120.636719 538.480469 120.121094 537.511719 C 119.601562 536.546875 119.109375 535.566406 118.640625 534.574219 C 118.171875 533.582031 117.726562 532.582031 117.308594 531.566406 C 116.886719 530.554688 116.492188 529.53125 116.121094 528.496094 C 115.753906 527.464844 115.410156 526.421875 115.089844 525.375 C 114.773438 524.324219 114.480469 523.265625 114.214844 522.203125 C 113.945312 521.140625 113.707031 520.070312 113.492188 518.992188 C 113.277344 517.917969 113.089844 516.835938 112.929688 515.75 C 112.769531 514.667969 112.636719 513.578125 112.527344 512.488281 C 112.417969 511.394531 112.339844 510.300781 112.285156 509.207031 C 112.230469 508.109375 112.203125 507.011719 112.203125 505.917969 C 112.203125 504.820312 112.230469 503.722656 112.285156 502.628906 C 112.339844 501.53125 112.417969 500.4375 112.527344 499.347656 C 112.636719 498.253906 112.769531 497.167969 112.929688 496.082031 C 113.089844 494.996094 113.277344 493.917969 113.492188 492.839844 C 113.707031 491.765625 113.945312 490.695312 114.214844 489.628906 C 114.480469 488.566406 114.773438 487.507812 115.089844 486.460938 C 115.410156 485.410156 115.753906 484.367188 116.121094 483.335938 C 116.492188 482.304688 116.886719 481.28125 117.308594 480.265625 C 117.726562 479.253906 118.171875 478.25 118.640625 477.257812 C 119.109375 476.265625 119.601562 475.289062 120.121094 474.320312 C 120.636719 473.351562 121.175781 472.398438 121.742188 471.457031 C 122.304688 470.515625 122.890625 469.589844 123.5 468.679688 C 124.109375 467.765625 124.742188 466.871094 125.394531 465.988281 C 126.046875 465.109375 126.722656 464.242188 127.417969 463.394531 C 128.113281 462.546875 128.832031 461.714844 129.566406 460.902344 C 130.304688 460.089844 131.0625 459.296875 131.835938 458.519531 C 132.613281 457.746094 133.40625 456.988281 134.21875 456.253906 C 135.03125 455.515625 135.863281 454.800781 136.710938 454.105469 C 137.558594 453.40625 138.421875 452.734375 139.304688 452.078125 C 140.183594 451.425781 141.082031 450.796875 141.992188 450.183594 C 142.90625 449.574219 143.832031 448.988281 144.773438 448.425781 C 145.714844 447.863281 146.667969 447.320312 147.636719 446.804688 C 148.601562 446.285156 149.582031 445.792969 150.574219 445.324219 C 151.566406 444.855469 152.566406 444.410156 153.582031 443.992188 C 154.59375 443.570312 155.617188 443.175781 156.652344 442.808594 C 157.683594 442.4375 158.726562 442.09375 159.773438 441.777344 C 160.824219 441.457031 161.882812 441.164062 162.945312 440.898438 C 164.007812 440.632812 165.078125 440.390625 166.15625 440.175781 C 167.230469 439.964844 168.3125 439.777344 169.398438 439.613281 C 170.480469 439.453125 171.570312 439.320312 172.660156 439.210938 C 173.753906 439.105469 174.847656 439.023438 175.941406 438.96875 C 177.039062 438.917969 178.136719 438.890625 179.230469 438.890625 C 180.328125 438.890625 181.425781 438.917969 182.519531 438.96875 C 183.617188 439.023438 184.710938 439.105469 185.800781 439.210938 C 186.894531 439.320312 187.980469 439.453125 189.066406 439.613281 C 190.152344 439.777344 191.230469 439.964844 192.308594 440.175781 C 193.382812 440.390625 194.453125 440.632812 195.519531 440.898438 C 196.582031 441.164062 197.640625 441.457031 198.6875 441.777344 C 199.738281 442.09375 200.78125 442.4375 201.8125 442.808594 C 202.84375 443.175781 203.867188 443.570312 204.882812 443.992188 C 205.894531 444.410156 206.898438 444.855469 207.890625 445.324219 C 208.882812 445.792969 209.859375 446.285156 210.828125 446.804688 C 211.796875 447.320312 212.75 447.863281 213.691406 448.425781 C 214.632812 448.988281 215.558594 449.574219 216.46875 450.183594 C 217.382812 450.796875 218.277344 451.425781 219.160156 452.078125 C 220.039062 452.734375 220.90625 453.40625 221.753906 454.105469 C 222.601562 454.800781 223.433594 455.515625 224.246094 456.253906 C 225.058594 456.988281 225.851562 457.746094 226.628906 458.519531 C 227.402344 459.296875 228.160156 460.089844 228.894531 460.902344 C 229.632812 461.714844 230.347656 462.546875 231.042969 463.394531 C 231.742188 464.242188 232.414062 465.109375 233.070312 465.988281 C 233.722656 466.871094 234.351562 467.765625 234.960938 468.679688 C 235.570312 469.589844 236.160156 470.515625 236.722656 471.457031 C 237.285156 472.398438 237.828125 473.351562 238.34375 474.320312 C 238.863281 475.289062 239.355469 476.265625 239.824219 477.257812 C 240.292969 478.25 240.738281 479.253906 241.15625 480.265625 C 241.578125 481.28125 241.972656 482.304688 242.339844 483.335938 C 242.710938 484.367188 243.054688 485.410156 243.371094 486.460938 C 243.691406 487.507812 243.984375 488.566406 244.25 489.628906 C 244.515625 490.695312 244.757812 491.765625 244.972656 492.839844 C 245.183594 493.917969 245.371094 494.996094 245.535156 496.082031 C 245.695312 497.167969 245.828125 498.253906 245.9375 499.347656 C 246.042969 500.4375 246.125 501.53125 246.179688 502.628906 C 246.230469 503.722656 246.257812 504.820312 246.257812 505.917969 Z M 246.257812 505.917969" fill="#dfafdb"/><path fill-rule="nonzero" fill-opacity="1" d="M 179.230469 573.429688 C 170.117188 573.429688 161.277344 571.644531 152.953125 568.121094 C 144.914062 564.722656 137.695312 559.855469 131.496094 553.652344 C 125.296875 547.453125 120.425781 540.234375 117.027344 532.195312 C 113.507812 523.871094 111.722656 515.03125 111.722656 505.917969 C 111.722656 496.804688 113.507812 487.960938 117.027344 479.640625 C 120.425781 471.601562 125.292969 464.378906 131.496094 458.179688 C 137.695312 451.980469 144.914062 447.113281 152.953125 443.710938 C 161.277344 440.191406 170.117188 438.40625 179.230469 438.40625 C 188.34375 438.40625 197.1875 440.191406 205.511719 443.710938 C 213.550781 447.113281 220.769531 451.980469 226.96875 458.179688 C 233.167969 464.378906 238.035156 471.601562 241.4375 479.640625 C 244.957031 487.960938 246.742188 496.804688 246.742188 505.917969 C 246.742188 515.03125 244.957031 523.871094 241.4375 532.195312 C 238.035156 540.234375 233.167969 547.453125 226.96875 553.652344 C 220.769531 559.855469 213.550781 564.722656 205.511719 568.121094 C 197.1875 571.640625 188.34375 573.429688 179.230469 573.429688 Z M 179.230469 439.375 C 142.539062 439.375 112.6875 469.226562 112.6875 505.917969 C 112.6875 542.609375 142.539062 572.460938 179.230469 572.460938 C 215.921875 572.460938 245.777344 542.609375 245.777344 505.917969 C 245.777344 469.226562 215.921875 439.375 179.230469 439.375 Z M 179.230469 439.375" fill="#493931"/><path fill-rule="nonzero" fill-opacity="1" d="M 174.578125 439.054688 C 168.039062 439.53125 156.472656 441.296875 144.492188 448.585938 C 124.601562 460.683594 117.367188 479.605469 115.371094 485.511719 C 117.441406 488.410156 120.363281 491.351562 124.457031 492.875 C 131.820312 495.617188 137.414062 491.710938 142.425781 495.421875 C 145.089844 497.394531 146.570312 500.765625 146.683594 503.226562 C 147.035156 511.011719 134.15625 519.707031 114.835938 524.570312 C 116.324219 530.070312 119.414062 538.644531 126.171875 547.25 C 130.53125 552.796875 135.132812 556.726562 138.828125 559.398438 C 146.289062 558.429688 182.765625 552.953125 198.96875 523.777344 C 200.074219 521.789062 212.917969 498.089844 203.6875 486.636719 C 194.804688 475.609375 173.425781 485.78125 165.9375 475.675781 C 162.582031 471.140625 161.359375 461.636719 174.578125 439.054688 Z M 174.578125 439.054688" fill="#f1f2f2"/><path fill-rule="nonzero" fill-opacity="1" d="M 138.828125 559.882812 C 138.730469 559.882812 138.628906 559.851562 138.546875 559.789062 C 133.726562 556.308594 129.4375 552.1875 125.789062 547.546875 C 120.484375 540.789062 116.640625 533.101562 114.367188 524.695312 C 114.335938 524.570312 114.351562 524.4375 114.417969 524.324219 C 114.484375 524.210938 114.59375 524.132812 114.71875 524.097656 C 133.59375 519.347656 146.539062 510.773438 146.199219 503.25 C 146.097656 501.039062 144.785156 497.769531 142.136719 495.808594 C 139.628906 493.949219 136.945312 494.109375 133.839844 494.296875 C 131.035156 494.464844 127.851562 494.65625 124.289062 493.328125 C 120.742188 492.007812 117.609375 489.472656 114.976562 485.792969 C 114.886719 485.664062 114.859375 485.503906 114.910156 485.355469 C 116.828125 479.679688 119.488281 474.214844 122.816406 469.105469 C 128.464844 460.421875 135.675781 453.378906 144.238281 448.171875 C 153.269531 442.675781 163.75 439.355469 174.542969 438.570312 C 174.722656 438.554688 174.894531 438.644531 174.992188 438.796875 C 175.085938 438.949219 175.089844 439.140625 174.996094 439.296875 C 164.628906 457.011719 161.710938 469.152344 166.328125 475.386719 C 169.847656 480.140625 176.632812 480.226562 183.820312 480.320312 C 191.472656 480.421875 199.386719 480.523438 204.066406 486.332031 C 206.246094 489.042969 207.398438 492.625 207.484375 496.984375 C 207.554688 500.472656 206.941406 504.480469 205.667969 508.890625 C 203.484375 516.460938 200.058594 522.816406 199.394531 524.011719 C 195.632812 530.785156 190.480469 536.800781 184.085938 541.894531 C 178.828125 546.082031 172.675781 549.6875 165.808594 552.609375 C 155.261719 557.097656 145.351562 559.039062 138.890625 559.878906 C 138.871094 559.882812 138.851562 559.882812 138.828125 559.882812 Z M 115.433594 524.917969 C 117.6875 533.011719 121.425781 540.421875 126.550781 546.949219 C 130.101562 551.46875 134.277344 555.488281 138.957031 558.894531 C 152.082031 557.164062 183.703125 550.269531 198.546875 523.542969 C 199.203125 522.363281 202.582031 516.09375 204.738281 508.621094 C 207.546875 498.894531 207.066406 491.601562 203.3125 486.9375 C 198.917969 481.484375 191.234375 481.386719 183.804688 481.289062 C 176.375 481.191406 169.355469 481.101562 165.550781 475.964844 C 163.421875 473.09375 162.753906 469.085938 163.5625 464.054688 C 164.589844 457.691406 167.996094 449.46875 173.695312 439.609375 C 163.378906 440.503906 153.386719 443.738281 144.742188 449 C 126.808594 459.910156 118.996094 476.40625 115.910156 485.429688 C 118.394531 488.84375 121.328125 491.195312 124.628906 492.421875 C 128 493.679688 130.9375 493.503906 133.78125 493.332031 C 136.941406 493.144531 139.921875 492.964844 142.714844 495.03125 C 145.617188 497.179688 147.054688 500.773438 147.167969 503.207031 C 147.347656 507.210938 144.320312 511.425781 138.40625 515.398438 C 132.679688 519.242188 124.742188 522.53125 115.433594 524.917969 Z M 115.433594 524.917969" fill="#493931"/><path fill-rule="nonzero" fill-opacity="1" d="M 245.757812 497.675781 C 232.15625 508.042969 216.007812 518.902344 198.238281 529.398438 C 177.109375 541.878906 156.632812 552.101562 138.828125 559.398438 C 134.167969 555.875 129.984375 551.757812 126.390625 547.15625 C 141.640625 540.667969 164.433594 528.832031 189.25 514.175781 C 209.917969 501.96875 228.199219 490.042969 241.265625 480.492188 C 243.488281 485.902344 245.019531 491.664062 245.757812 497.675781 Z M 245.757812 497.675781" fill="#fd6d2f"/><path fill-rule="nonzero" fill-opacity="1" d="M 138.828125 559.882812 C 138.726562 559.882812 138.621094 559.851562 138.535156 559.785156 C 133.847656 556.238281 129.632812 552.089844 126.007812 547.453125 C 125.917969 547.335938 125.882812 547.179688 125.921875 547.035156 C 125.960938 546.886719 126.0625 546.769531 126.199219 546.710938 C 142.109375 539.945312 165 527.933594 189.003906 513.757812 C 208.9375 501.984375 227.398438 490.03125 240.984375 480.101562 C 241.101562 480.011719 241.257812 479.984375 241.398438 480.023438 C 241.542969 480.066406 241.660156 480.167969 241.71875 480.308594 C 243.988281 485.839844 245.507812 491.664062 246.238281 497.617188 C 246.257812 497.789062 246.1875 497.957031 246.050781 498.0625 C 232.089844 508.703125 215.644531 519.683594 198.488281 529.816406 C 178.03125 541.898438 157.464844 552.28125 139.011719 559.847656 C 138.953125 559.871094 138.890625 559.882812 138.828125 559.882812 Z M 127.160156 547.351562 C 130.585938 551.648438 134.53125 555.515625 138.898438 558.847656 C 157.246094 551.308594 177.671875 540.984375 197.992188 528.980469 C 215.027344 518.921875 231.359375 508.027344 245.242188 497.460938 C 244.535156 491.890625 243.128906 486.441406 241.050781 481.246094 C 227.492188 491.125 209.214844 502.945312 189.496094 514.589844 C 165.75 528.617188 143.082031 540.527344 127.160156 547.351562 Z M 127.160156 547.351562" fill="#493931"/><path fill-rule="nonzero" fill-opacity="1" d="M 243.007812 526.582031 C 239.75 527.113281 234.835938 527.769531 228.804688 527.988281 C 220.203125 528.296875 219.050781 527.367188 216.167969 528.566406 C 208.464844 531.773438 211.054688 540.78125 203.535156 546.558594 C 195.78125 552.515625 188.324219 546.558594 179.890625 551.835938 C 175.839844 554.371094 171.222656 559.714844 169.410156 572.226562 C 165.59375 571.664062 160.992188 570.652344 155.972656 568.796875 C 148.515625 566.039062 142.800781 562.402344 138.828125 559.398438 C 144.046875 556.324219 196.460938 525.132812 201.457031 506.828125 C 201.957031 505.007812 203.160156 500.59375 201.203125 496.328125 C 198.199219 489.78125 189.671875 487.738281 184.421875 486.558594 C 167.742188 482.796875 159.539062 489.265625 153.195312 483.65625 C 148.828125 479.792969 148.816406 473.277344 148.8125 470.574219 C 148.789062 458.117188 159.128906 446.113281 174.578125 439.050781 C 177.1875 438.871094 180.125 438.816406 183.335938 439.011719 C 187.800781 439.285156 191.738281 439.972656 195.023438 440.761719 C 185.242188 441.332031 178.4375 444.402344 177.582031 448.65625 C 177 451.5625 179.339844 454.324219 180.167969 455.277344 C 190.816406 467.5 215.28125 456.125 221.042969 465.476562 C 223.898438 470.113281 218.3125 473.617188 221.117188 483.667969 C 221.738281 485.898438 224.089844 493.84375 231.925781 498.507812 C 237.894531 502.0625 243.878906 501.828125 246.257812 501.601562 C 246.421875 505.011719 246.371094 509.046875 245.828125 513.539062 C 245.21875 518.628906 244.136719 523.023438 243.007812 526.582031 Z M 243.007812 526.582031" fill="#fae8e0"/><path fill-rule="nonzero" fill-opacity="1" d="M 169.410156 572.710938 C 169.386719 572.710938 169.363281 572.707031 169.339844 572.703125 C 164.722656 572.027344 160.167969 570.863281 155.804688 569.25 C 149.632812 566.96875 143.824219 563.78125 138.539062 559.785156 C 138.410156 559.6875 138.339844 559.53125 138.347656 559.371094 C 138.355469 559.210938 138.445312 559.0625 138.585938 558.980469 C 144.457031 555.523438 196.085938 524.671875 200.992188 506.699219 C 201.488281 504.886719 202.648438 500.636719 200.761719 496.527344 C 197.800781 490.070312 189.03125 488.089844 184.316406 487.027344 C 176.378906 485.238281 170.386719 485.789062 165.566406 486.226562 C 160.203125 486.71875 156.332031 487.074219 152.878906 484.019531 C 148.347656 480.011719 148.335938 473.402344 148.332031 470.578125 C 148.320312 464.425781 150.804688 458.167969 155.523438 452.480469 C 160.113281 446.949219 166.632812 442.152344 174.378906 438.613281 C 174.433594 438.589844 174.488281 438.574219 174.546875 438.570312 C 177.472656 438.367188 180.4375 438.351562 183.363281 438.53125 C 187.316406 438.769531 191.28125 439.363281 195.136719 440.292969 C 195.371094 440.347656 195.527344 440.566406 195.507812 440.808594 C 195.488281 441.046875 195.292969 441.234375 195.054688 441.246094 C 185.53125 441.796875 178.863281 444.746094 178.058594 448.75 C 177.695312 450.566406 178.527344 452.65625 180.535156 454.960938 C 186.074219 461.316406 195.644531 461.113281 204.089844 460.9375 C 207.875 460.855469 211.457031 460.78125 214.460938 461.277344 C 217.925781 461.847656 220.148438 463.101562 221.453125 465.222656 C 222.886719 467.550781 222.34375 469.65625 221.714844 472.089844 C 221.003906 474.847656 220.117188 478.277344 221.585938 483.535156 C 223.390625 490.007812 227.050781 495.042969 232.171875 498.089844 C 237.667969 501.363281 243.328125 501.394531 246.214844 501.121094 C 246.347656 501.109375 246.476562 501.152344 246.578125 501.238281 C 246.675781 501.324219 246.738281 501.449219 246.742188 501.578125 C 246.933594 505.582031 246.789062 509.625 246.3125 513.597656 C 245.777344 518.039062 244.824219 522.457031 243.472656 526.726562 C 243.417969 526.898438 243.269531 527.027344 243.089844 527.058594 C 238.410156 527.820312 233.613281 528.296875 228.824219 528.472656 C 225.308594 528.597656 223.035156 528.519531 221.371094 528.460938 C 218.964844 528.375 217.96875 528.339844 216.355469 529.011719 C 212.515625 530.613281 211.378906 533.6875 210.058594 537.25 C 208.871094 540.464844 207.523438 544.105469 203.832031 546.941406 C 199.707031 550.109375 195.597656 550.015625 191.625 549.925781 C 187.933594 549.84375 184.121094 549.757812 180.148438 552.246094 C 174.78125 555.605469 171.332031 562.351562 169.890625 572.292969 C 169.875 572.421875 169.804688 572.535156 169.703125 572.613281 C 169.617188 572.675781 169.515625 572.710938 169.410156 572.710938 Z M 139.699219 559.445312 C 144.753906 563.183594 150.28125 566.175781 156.140625 568.34375 C 160.289062 569.878906 164.613281 571 169.003906 571.675781 C 170.527344 561.699219 174.101562 554.886719 179.632812 551.425781 C 183.851562 548.785156 187.8125 548.875 191.644531 548.960938 C 195.628906 549.050781 199.386719 549.136719 203.242188 546.175781 C 206.710938 543.511719 207.953125 540.160156 209.152344 536.917969 C 210.488281 533.300781 211.753906 529.882812 215.984375 528.121094 C 217.792969 527.367188 219 527.410156 221.40625 527.496094 C 223.050781 527.554688 225.304688 527.632812 228.789062 527.507812 C 233.433594 527.339844 238.09375 526.882812 242.636719 526.152344 C 243.921875 522.027344 244.835938 517.769531 245.351562 513.484375 C 245.800781 509.730469 245.953125 505.914062 245.796875 502.128906 C 242.671875 502.355469 237.101562 502.152344 231.675781 498.925781 C 226.335938 495.746094 222.523438 490.515625 220.652344 483.796875 C 219.113281 478.289062 220.035156 474.71875 220.777344 471.851562 C 221.398438 469.445312 221.847656 467.710938 220.628906 465.730469 C 218.089844 461.609375 211.613281 461.746094 204.109375 461.90625 C 195.453125 462.085938 185.640625 462.296875 179.804688 455.597656 C 177.589844 453.054688 176.683594 450.6875 177.109375 448.5625 C 177.558594 446.316406 179.511719 444.355469 182.757812 442.890625 C 185.195312 441.785156 188.28125 440.996094 191.8125 440.566406 C 189 440.027344 186.148438 439.671875 183.304688 439.496094 C 180.449219 439.324219 177.554688 439.335938 174.699219 439.53125 C 159.007812 446.726562 149.277344 458.617188 149.296875 470.574219 C 149.300781 473.269531 149.3125 479.574219 153.515625 483.292969 C 156.65625 486.070312 160.355469 485.734375 165.476562 485.265625 C 170.363281 484.816406 176.441406 484.261719 184.53125 486.085938 C 189.40625 487.183594 198.476562 489.230469 201.640625 496.125 C 203.671875 500.550781 202.445312 505.039062 201.925781 506.957031 C 199.800781 514.730469 189.234375 525.585938 170.511719 539.21875 C 157.128906 548.960938 143.574219 557.148438 139.699219 559.445312 Z M 243.007812 526.582031 L 243.011719 526.582031 Z M 243.007812 526.582031" fill="#493931"/><path fill-rule="nonzero" fill-opacity="1" d="M 288.554688 445.292969 C 283.542969 436.804688 258.0625 441.863281 224.4375 456.425781 C 228.429688 460.078125 231.980469 464.203125 234.996094 468.71875 C 250.34375 461.605469 260.542969 458.3125 261.867188 460.550781 C 263.207031 462.820312 255.199219 470.308594 241.269531 480.488281 C 228.199219 490.042969 209.917969 501.96875 189.25 514.175781 C 164.4375 528.828125 141.644531 540.667969 126.390625 547.152344 C 115.394531 551.832031 108.320312 553.722656 107.230469 551.882812 C 106.160156 550.070312 111.070312 544.914062 120.210938 537.710938 C 117.710938 533.082031 115.742188 528.125 114.382812 522.921875 C 89.945312 542.914062 76.40625 560.140625 80.984375 567.890625 C 85.679688 575.84375 108.339844 571.902344 138.828125 559.398438 C 156.632812 552.101562 177.113281 541.878906 198.242188 529.398438 C 216.011719 518.902344 232.15625 508.042969 245.757812 497.675781 C 276.027344 474.605469 293.6875 453.984375 288.554688 445.292969 Z M 288.554688 445.292969" fill="#fd6d2f"/><path fill-rule="nonzero" fill-opacity="1" d="M 92.160156 572.496094 C 90.488281 572.496094 88.976562 572.382812 87.632812 572.152344 C 84.171875 571.566406 81.792969 570.214844 80.566406 568.136719 C 78.21875 564.160156 80.1875 557.960938 86.414062 549.703125 C 92.261719 541.957031 101.824219 532.566406 114.074219 522.546875 C 114.203125 522.441406 114.375 522.410156 114.53125 522.460938 C 114.6875 522.511719 114.808594 522.636719 114.847656 522.796875 C 116.179688 527.894531 118.128906 532.832031 120.636719 537.476562 C 120.746094 537.683594 120.695312 537.941406 120.511719 538.089844 C 106.957031 548.769531 107.417969 551.246094 107.648438 551.636719 C 107.882812 552.03125 109.871094 553.652344 126.199219 546.707031 C 142.109375 539.941406 165 527.933594 189.003906 513.757812 C 208.9375 501.984375 227.398438 490.027344 240.980469 480.097656 C 262.167969 464.613281 261.75 461.304688 261.453125 460.796875 C 261.15625 460.296875 258.503906 458.355469 235.199219 469.15625 C 234.984375 469.257812 234.726562 469.183594 234.59375 468.984375 C 231.613281 464.519531 228.082031 460.414062 224.109375 456.785156 C 223.988281 456.671875 223.933594 456.507812 223.960938 456.347656 C 223.988281 456.183594 224.09375 456.046875 224.246094 455.980469 C 241.070312 448.695312 255.90625 443.769531 267.140625 441.738281 C 272.859375 440.703125 277.59375 440.429688 281.214844 440.921875 C 285.054688 441.445312 287.664062 442.832031 288.972656 445.046875 C 290.3125 447.3125 290.230469 450.351562 288.742188 454.078125 C 287.332031 457.597656 284.664062 461.742188 280.804688 466.398438 C 273.210938 475.574219 261.191406 486.519531 246.050781 498.0625 C 232.089844 508.699219 215.644531 519.679688 198.488281 529.8125 C 178.03125 541.894531 157.464844 552.28125 139.011719 559.847656 C 123.738281 566.113281 110.351562 570.242188 100.308594 571.792969 C 97.277344 572.261719 94.554688 572.496094 92.160156 572.496094 Z M 114.105469 523.769531 C 102.195312 533.566406 92.894531 542.722656 87.1875 550.289062 C 81.300781 558.089844 79.300781 564.089844 81.398438 567.644531 C 83.554688 571.296875 90.042969 572.398438 100.15625 570.839844 C 110.128906 569.300781 123.4375 565.1875 138.644531 558.953125 C 157.054688 551.40625 177.578125 541.042969 197.992188 528.984375 C 215.117188 518.867188 231.53125 507.910156 245.460938 497.292969 C 260.546875 485.796875 272.507812 474.902344 280.058594 465.785156 C 287.710938 456.546875 290.503906 449.546875 288.136719 445.539062 C 285.828125 441.632812 278.628906 440.648438 267.3125 442.691406 C 256.300781 444.683594 241.789062 449.480469 225.308594 456.578125 C 229.015625 460.039062 232.328125 463.914062 235.167969 468.105469 C 242.800781 464.578125 248.984375 462.074219 253.546875 460.667969 C 258.710938 459.070312 261.484375 458.957031 262.285156 460.308594 C 262.792969 461.167969 262.859375 462.886719 257.628906 467.902344 C 254.046875 471.335938 248.640625 475.703125 241.550781 480.882812 C 227.945312 490.832031 209.457031 502.804688 189.492188 514.59375 C 165.457031 528.789062 142.523438 540.820312 126.578125 547.601562 C 120.980469 549.984375 116.484375 551.609375 113.210938 552.433594 C 109.519531 553.367188 107.484375 553.269531 106.8125 552.128906 C 106.148438 551.007812 107.015625 549.214844 109.535156 546.488281 C 111.714844 544.136719 115.097656 541.140625 119.59375 537.582031 C 117.257812 533.195312 115.414062 528.554688 114.105469 523.769531 Z M 114.105469 523.769531" fill="#493931"/><path fill-rule="nonzero" fill-opacity="1" d="M 108.96875 553.070312 C 108.003906 553.070312 106.433594 552.859375 104.933594 551.746094 C 103.402344 550.609375 102.765625 549.117188 102.519531 548.332031 C 102.441406 548.074219 102.585938 547.804688 102.839844 547.726562 C 103.09375 547.648438 103.367188 547.789062 103.445312 548.042969 C 103.652344 548.71875 104.199219 549.996094 105.511719 550.972656 C 107.003906 552.078125 108.617188 552.125 109.238281 552.09375 C 109.507812 552.082031 109.730469 552.289062 109.746094 552.554688 C 109.757812 552.820312 109.554688 553.050781 109.285156 553.0625 C 109.1875 553.066406 109.082031 553.070312 108.96875 553.070312 Z M 108.96875 553.070312" fill="#493931"/><path fill-rule="nonzero" fill-opacity="1" d="M 261.964844 462.019531 C 261.871094 462.019531 261.78125 461.996094 261.699219 461.941406 C 261.476562 461.796875 261.414062 461.496094 261.558594 461.273438 C 261.921875 460.714844 263.054688 458.710938 262.417969 456.4375 C 262.207031 455.679688 261.828125 454.976562 261.289062 454.351562 C 261.113281 454.148438 261.136719 453.84375 261.339844 453.667969 C 261.542969 453.496094 261.847656 453.519531 262.019531 453.71875 C 262.652344 454.453125 263.101562 455.28125 263.351562 456.179688 C 264.09375 458.84375 262.789062 461.15625 262.367188 461.800781 C 262.277344 461.941406 262.121094 462.019531 261.964844 462.019531 Z M 261.964844 462.019531" fill="#493931"/></svg>