<svg xmlns="http://www.w3.org/2000/svg" xmlns:xlink="http://www.w3.org/1999/xlink" width="1366" zoomAndPan="magnify" viewBox="0 0 1024.5 576" height="768" preserveAspectRatio="xMidYMid meet" version="1.0"><defs><clipPath id="04cb418825"><path d="M 83.015625 179 L 926 179 L 926 432 L 83.015625 432 Z M 83.015625 179 " clip-rule="nonzero"/></clipPath><clipPath id="8efd762fb8"><path d="M 226 378 L 297 378 L 297 448.722656 L 226 448.722656 Z M 226 378 " clip-rule="nonzero"/></clipPath><clipPath id="3f961a72af"><path d="M 749 127.128906 L 820 127.128906 L 820 198 L 749 198 Z M 749 127.128906 " clip-rule="nonzero"/></clipPath></defs><g clip-path="url(#04cb418825)"><path fill="#493931" d="M 799.835938 431.128906 L 208.835938 431.128906 C 139.351562 431.128906 83.019531 374.796875 83.019531 305.308594 C 83.019531 235.820312 139.351562 179.492188 208.835938 179.492188 L 799.835938 179.492188 C 869.324219 179.492188 925.65625 235.820312 925.65625 305.308594 C 925.65625 374.800781 869.324219 431.128906 799.835938 431.128906 Z M 799.835938 431.128906 " fill-opacity="1" fill-rule="nonzero"/></g><path fill="#ffb74a" d="M 813.683594 413.816406 L 222.6875 413.816406 C 153.199219 413.816406 96.867188 357.484375 96.867188 287.996094 C 96.867188 218.507812 153.199219 162.179688 222.6875 162.179688 L 813.683594 162.179688 C 883.171875 162.179688 939.503906 218.507812 939.503906 287.996094 C 939.503906 357.484375 883.171875 413.816406 813.683594 413.816406 Z M 813.683594 413.816406 " fill-opacity="1" fill-rule="nonzero"/><path fill="#493931" d="M 813.683594 415.292969 L 222.6875 415.292969 C 188.6875 415.292969 156.722656 402.050781 132.675781 378.007812 C 108.632812 353.96875 95.394531 322.003906 95.394531 287.996094 C 95.394531 253.992188 108.632812 222.03125 132.675781 197.984375 C 156.71875 173.945312 188.683594 160.703125 222.6875 160.703125 L 813.683594 160.703125 C 847.6875 160.703125 879.652344 173.945312 903.695312 197.984375 C 927.738281 222.027344 940.980469 253.992188 940.980469 287.996094 C 940.980469 322.003906 927.738281 353.964844 903.695312 378.007812 C 879.65625 402.050781 847.691406 415.292969 813.683594 415.292969 Z M 222.6875 163.652344 C 154.125 163.652344 98.34375 219.429688 98.34375 287.996094 C 98.34375 356.5625 154.121094 412.339844 222.6875 412.339844 L 813.683594 412.339844 C 882.246094 412.339844 938.03125 356.5625 938.03125 287.996094 C 938.03125 219.433594 882.25 163.652344 813.683594 163.652344 Z M 222.6875 163.652344 " fill-opacity="1" fill-rule="nonzero"/><path fill="#fd6d2f" d="M 295.171875 413.75 L 295.171875 413.878906 C 277.375 413.878906 261.761719 429.492188 261.761719 447.289062 L 261.632812 447.289062 C 261.632812 429.492188 246.019531 413.878906 228.222656 413.878906 L 228.222656 413.75 C 246.019531 413.75 261.632812 398.136719 261.632812 380.339844 L 261.761719 380.339844 C 261.761719 398.136719 277.375 413.75 295.171875 413.75 Z M 295.171875 413.75 " fill-opacity="1" fill-rule="nonzero"/><g clip-path="url(#8efd762fb8)"><path fill="#493931" d="M 263.238281 448.765625 L 260.15625 448.765625 L 260.15625 447.289062 C 260.15625 430.277344 245.234375 415.355469 228.222656 415.355469 L 226.746094 415.355469 L 226.746094 412.273438 L 228.222656 412.273438 C 245.234375 412.273438 260.15625 397.351562 260.15625 380.339844 L 260.15625 378.863281 L 263.238281 378.863281 L 263.238281 380.339844 C 263.238281 397.351562 278.160156 412.273438 295.171875 412.273438 L 296.648438 412.273438 L 296.648438 415.355469 L 295.171875 415.355469 C 278.160156 415.355469 263.238281 430.277344 263.238281 447.289062 Z M 237.65625 413.816406 C 248.972656 417.242188 258.273438 426.546875 261.699219 437.859375 C 265.125 426.546875 274.429688 417.242188 285.742188 413.816406 C 274.429688 410.390625 265.125 401.085938 261.699219 389.773438 C 258.273438 401.085938 248.972656 410.390625 237.65625 413.816406 Z M 237.65625 413.816406 " fill-opacity="1" fill-rule="nonzero"/></g><path fill="#fd6d2f" d="M 818.070312 162.117188 L 818.070312 162.246094 C 800.269531 162.246094 784.660156 177.855469 784.660156 195.65625 L 784.53125 195.65625 C 784.53125 177.855469 768.917969 162.246094 751.117188 162.246094 L 751.117188 162.117188 C 768.917969 162.117188 784.53125 146.503906 784.53125 128.703125 L 784.660156 128.703125 C 784.660156 146.503906 800.269531 162.117188 818.070312 162.117188 Z M 818.070312 162.117188 " fill-opacity="1" fill-rule="nonzero"/><g clip-path="url(#3f961a72af)"><path fill="#493931" d="M 786.132812 197.128906 L 783.054688 197.128906 L 783.054688 195.65625 C 783.054688 178.640625 768.132812 163.71875 751.117188 163.71875 L 749.644531 163.71875 L 749.644531 160.640625 L 751.117188 160.640625 C 768.132812 160.640625 783.054688 145.71875 783.054688 128.703125 L 783.054688 127.230469 L 786.132812 127.230469 L 786.132812 128.703125 C 786.132812 145.71875 801.054688 160.640625 818.070312 160.640625 L 819.542969 160.640625 L 819.542969 163.71875 L 818.070312 163.71875 C 801.054688 163.71875 786.132812 178.640625 786.132812 195.65625 Z M 760.550781 162.179688 C 771.863281 165.605469 781.167969 174.90625 784.59375 186.21875 C 788.019531 174.90625 797.320312 165.605469 808.632812 162.179688 C 797.320312 158.753906 788.015625 149.449219 784.59375 138.136719 C 781.171875 149.449219 771.863281 158.757812 760.550781 162.179688 Z M 760.550781 162.179688 " fill-opacity="1" fill-rule="nonzero"/></g></svg>