<svg xmlns="http://www.w3.org/2000/svg" xmlns:xlink="http://www.w3.org/1999/xlink" width="1366" zoomAndPan="magnify" viewBox="0 0 1024.5 576" height="768" preserveAspectRatio="xMidYMid meet" version="1.0"><path fill="#dfafdb" d="M 765.421875 286.304688 C 765.421875 290.847656 765.3125 295.386719 765.089844 299.921875 C 764.867188 304.457031 764.53125 308.984375 764.085938 313.503906 C 763.640625 318.023438 763.085938 322.53125 762.421875 327.023438 C 761.753906 331.515625 760.976562 335.988281 760.089844 340.441406 C 759.207031 344.898438 758.210938 349.328125 757.105469 353.734375 C 756.003906 358.136719 754.792969 362.515625 753.472656 366.859375 C 752.15625 371.207031 750.730469 375.515625 749.203125 379.792969 C 747.671875 384.070312 746.039062 388.304688 744.300781 392.5 C 742.5625 396.695312 740.722656 400.847656 738.78125 404.953125 C 736.839844 409.058594 734.796875 413.113281 732.65625 417.121094 C 730.515625 421.125 728.277344 425.074219 725.941406 428.96875 C 723.609375 432.867188 721.179688 436.703125 718.65625 440.476562 C 716.132812 444.253906 713.519531 447.964844 710.8125 451.613281 C 708.109375 455.261719 705.3125 458.839844 702.433594 462.351562 C 699.550781 465.863281 696.585938 469.300781 693.535156 472.664062 C 690.488281 476.03125 687.355469 479.316406 684.144531 482.53125 C 680.933594 485.742188 677.644531 488.871094 674.28125 491.921875 C 670.914062 494.972656 667.476562 497.9375 663.964844 500.816406 C 660.457031 503.699219 656.875 506.492188 653.230469 509.199219 C 649.582031 511.902344 645.867188 514.515625 642.09375 517.039062 C 638.316406 519.5625 634.480469 521.992188 630.585938 524.328125 C 626.691406 526.664062 622.738281 528.898438 618.734375 531.039062 C 614.730469 533.183594 610.671875 535.222656 606.566406 537.164062 C 602.460938 539.105469 598.3125 540.945312 594.117188 542.683594 C 589.921875 544.421875 585.683594 546.054688 581.410156 547.585938 C 577.132812 549.117188 572.820312 550.539062 568.476562 551.859375 C 564.128906 553.175781 559.753906 554.386719 555.347656 555.492188 C 550.941406 556.59375 546.511719 557.589844 542.058594 558.476562 C 537.605469 559.363281 533.132812 560.136719 528.636719 560.804688 C 524.144531 561.472656 519.640625 562.027344 515.121094 562.472656 C 510.601562 562.917969 506.074219 563.25 501.535156 563.472656 C 497 563.695312 492.460938 563.808594 487.921875 563.808594 C 483.378906 563.808594 478.839844 563.695312 474.304688 563.472656 C 469.769531 563.25 465.238281 562.917969 460.71875 562.472656 C 456.199219 562.027344 451.695312 561.472656 447.203125 560.804688 C 442.710938 560.136719 438.238281 559.363281 433.78125 558.476562 C 429.328125 557.589844 424.898438 556.59375 420.492188 555.492188 C 416.085938 554.386719 411.710938 553.175781 407.367188 551.859375 C 403.019531 550.539062 398.707031 549.117188 394.433594 547.585938 C 390.15625 546.054688 385.921875 544.421875 381.722656 542.683594 C 377.527344 540.945312 373.378906 539.105469 369.273438 537.164062 C 365.167969 535.222656 361.113281 533.183594 357.105469 531.042969 C 353.101562 528.898438 349.152344 526.664062 345.253906 524.328125 C 341.359375 521.992188 337.523438 519.5625 333.746094 517.039062 C 329.972656 514.515625 326.257812 511.902344 322.613281 509.199219 C 318.964844 506.492188 315.386719 503.699219 311.875 500.816406 C 308.363281 497.9375 304.925781 494.972656 301.5625 491.921875 C 298.195312 488.871094 294.90625 485.742188 291.695312 482.53125 C 288.484375 479.316406 285.355469 476.03125 282.304688 472.664062 C 279.253906 469.300781 276.289062 465.863281 273.40625 462.351562 C 270.527344 458.839844 267.734375 455.261719 265.027344 451.613281 C 262.324219 447.964844 259.707031 444.253906 257.183594 440.476562 C 254.660156 436.703125 252.234375 432.867188 249.898438 428.96875 C 247.5625 425.074219 245.324219 421.125 243.183594 417.121094 C 241.042969 413.113281 239.003906 409.058594 237.058594 404.953125 C 235.117188 400.847656 233.277344 396.695312 231.539062 392.5 C 229.804688 388.304688 228.167969 384.070312 226.640625 379.792969 C 225.109375 375.515625 223.683594 371.207031 222.367188 366.859375 C 221.046875 362.515625 219.835938 358.136719 218.734375 353.734375 C 217.628906 349.328125 216.636719 344.898438 215.75 340.441406 C 214.863281 335.988281 214.085938 331.515625 213.421875 327.023438 C 212.753906 322.53125 212.199219 318.023438 211.753906 313.503906 C 211.308594 308.984375 210.972656 304.457031 210.75 299.921875 C 210.527344 295.386719 210.417969 290.847656 210.417969 286.304688 C 210.417969 281.761719 210.527344 277.226562 210.75 272.6875 C 210.972656 268.152344 211.308594 263.625 211.753906 259.105469 C 212.199219 254.585938 212.753906 250.078125 213.421875 245.585938 C 214.085938 241.09375 214.863281 236.621094 215.75 232.167969 C 216.636719 227.710938 217.628906 223.28125 218.734375 218.878906 C 219.835938 214.472656 221.046875 210.097656 222.367188 205.75 C 223.683594 201.402344 225.109375 197.09375 226.640625 192.816406 C 228.167969 188.542969 229.804688 184.304688 231.539062 180.109375 C 233.277344 175.914062 235.117188 171.761719 237.058594 167.65625 C 239.003906 163.550781 241.042969 159.496094 243.183594 155.492188 C 245.324219 151.484375 247.5625 147.535156 249.898438 143.640625 C 252.234375 139.746094 254.660156 135.910156 257.183594 132.132812 C 259.707031 128.355469 262.324219 124.644531 265.027344 120.996094 C 267.734375 117.347656 270.527344 113.769531 273.40625 110.257812 C 276.289062 106.75 279.253906 103.308594 282.304688 99.945312 C 285.355469 96.582031 288.484375 93.292969 291.695312 90.082031 C 294.90625 86.871094 298.195312 83.738281 301.5625 80.6875 C 304.925781 77.640625 308.363281 74.671875 311.875 71.792969 C 315.386719 68.910156 318.964844 66.117188 322.613281 63.414062 C 326.257812 60.707031 329.972656 58.09375 333.746094 55.570312 C 337.523438 53.046875 341.359375 50.617188 345.253906 48.28125 C 349.152344 45.949219 353.101562 43.710938 357.105469 41.570312 C 361.113281 39.429688 365.167969 37.386719 369.273438 35.445312 C 373.378906 33.503906 377.527344 31.664062 381.722656 29.925781 C 385.921875 28.1875 390.15625 26.554688 394.433594 25.023438 C 398.707031 23.492188 403.019531 22.070312 407.367188 20.75 C 411.710938 19.433594 416.085938 18.222656 420.492188 17.117188 C 424.898438 16.015625 429.328125 15.019531 433.78125 14.132812 C 438.238281 13.25 442.710938 12.472656 447.203125 11.804688 C 451.695312 11.140625 456.199219 10.582031 460.71875 10.136719 C 465.238281 9.691406 469.769531 9.359375 474.304688 9.136719 C 478.839844 8.914062 483.378906 8.800781 487.921875 8.800781 C 492.460938 8.800781 497 8.914062 501.535156 9.136719 C 506.074219 9.359375 510.601562 9.691406 515.121094 10.136719 C 519.640625 10.582031 524.144531 11.140625 528.636719 11.804688 C 533.132812 12.472656 537.605469 13.25 542.058594 14.132812 C 546.511719 15.019531 550.941406 16.015625 555.347656 17.117188 C 559.753906 18.222656 564.128906 19.433594 568.476562 20.75 C 572.820312 22.070312 577.132812 23.492188 581.410156 25.023438 C 585.683594 26.554688 589.921875 28.1875 594.117188 29.925781 C 598.3125 31.664062 602.460938 33.503906 606.566406 35.445312 C 610.671875 37.386719 614.730469 39.429688 618.734375 41.570312 C 622.738281 43.710938 626.691406 45.949219 630.585938 48.28125 C 634.480469 50.617188 638.316406 53.046875 642.09375 55.570312 C 645.867188 58.09375 649.582031 60.707031 653.230469 63.414062 C 656.875 66.117188 660.457031 68.910156 663.964844 71.792969 C 667.476562 74.671875 670.914062 77.640625 674.28125 80.6875 C 677.644531 83.738281 680.933594 86.871094 684.144531 90.082031 C 687.355469 93.292969 690.488281 96.582031 693.535156 99.945312 C 696.585938 103.308594 699.550781 106.75 702.433594 110.257812 C 705.3125 113.769531 708.109375 117.347656 710.8125 120.996094 C 713.519531 124.644531 716.132812 128.355469 718.65625 132.132812 C 721.179688 135.910156 723.609375 139.746094 725.941406 143.640625 C 728.277344 147.535156 730.515625 151.484375 732.65625 155.492188 C 734.796875 159.496094 736.839844 163.550781 738.78125 167.65625 C 740.722656 171.761719 742.5625 175.914062 744.300781 180.109375 C 746.039062 184.304688 747.671875 188.542969 749.203125 192.816406 C 750.730469 197.09375 752.15625 201.402344 753.472656 205.75 C 754.792969 210.097656 756.003906 214.472656 757.105469 218.878906 C 758.210938 223.28125 759.207031 227.710938 760.089844 232.167969 C 760.976562 236.621094 761.753906 241.09375 762.421875 245.585938 C 763.085938 250.078125 763.640625 254.585938 764.085938 259.105469 C 764.53125 263.625 764.867188 268.152344 765.089844 272.6875 C 765.3125 277.226562 765.421875 281.761719 765.421875 286.304688 Z M 765.421875 286.304688 " fill-opacity="1" fill-rule="nonzero"/><path fill="#493931" d="M 487.921875 565.8125 C 450.1875 565.8125 413.582031 558.421875 379.125 543.847656 C 345.839844 529.769531 315.949219 509.617188 290.28125 483.945312 C 264.613281 458.277344 244.460938 428.386719 230.382812 395.105469 C 215.804688 360.644531 208.414062 324.039062 208.414062 286.308594 C 208.414062 248.578125 215.804688 211.972656 230.382812 177.511719 C 244.460938 144.226562 264.609375 114.335938 290.28125 88.667969 C 315.949219 63 345.839844 42.847656 379.125 28.769531 C 413.585938 14.191406 450.1875 6.804688 487.921875 6.804688 C 525.652344 6.804688 562.257812 14.191406 596.714844 28.769531 C 630 42.847656 659.890625 63 685.558594 88.667969 C 711.226562 114.335938 731.382812 144.226562 745.460938 177.511719 C 760.035156 211.972656 767.425781 248.578125 767.425781 286.308594 C 767.425781 324.039062 760.035156 360.644531 745.460938 395.105469 C 731.382812 428.386719 711.230469 458.277344 685.558594 483.945312 C 659.890625 509.613281 630 529.769531 596.714844 543.847656 C 562.257812 558.421875 525.652344 565.8125 487.921875 565.8125 Z M 487.921875 10.808594 C 336.011719 10.808594 212.421875 134.394531 212.421875 286.304688 C 212.421875 438.214844 336.011719 561.808594 487.921875 561.808594 C 639.832031 561.808594 763.421875 438.21875 763.421875 286.304688 C 763.421875 134.394531 639.832031 10.808594 487.921875 10.808594 Z M 487.921875 10.808594 " fill-opacity="1" fill-rule="nonzero"/><path fill="#f1f2f2" d="M 468.660156 9.480469 C 441.574219 11.457031 393.695312 18.761719 344.085938 48.941406 C 261.738281 99.035156 231.789062 177.367188 223.519531 201.824219 C 232.105469 213.824219 244.191406 226.003906 261.148438 232.320312 C 291.628906 243.667969 314.792969 227.488281 335.539062 242.851562 C 346.570312 251.019531 352.699219 264.984375 353.164062 275.175781 C 354.625 307.398438 301.304688 343.402344 221.3125 363.535156 C 227.464844 386.300781 240.265625 421.8125 268.238281 457.425781 C 286.285156 480.402344 305.347656 496.671875 320.648438 507.734375 C 351.535156 503.71875 502.546875 481.039062 569.636719 360.253906 C 574.210938 352.019531 627.386719 253.910156 589.175781 206.480469 C 552.402344 160.835938 463.875 202.949219 432.882812 161.105469 C 418.980469 142.332031 413.917969 102.976562 468.660156 9.480469 Z M 468.660156 9.480469 " fill-opacity="1" fill-rule="nonzero"/><path fill="#493931" d="M 320.648438 509.734375 C 320.230469 509.734375 319.820312 509.601562 319.476562 509.355469 C 299.527344 494.933594 281.757812 477.878906 266.664062 458.660156 C 244.695312 430.691406 228.785156 398.859375 219.375 364.050781 C 219.238281 363.53125 219.3125 362.980469 219.582031 362.515625 C 219.851562 362.050781 220.300781 361.71875 220.820312 361.585938 C 298.980469 341.917969 352.574219 306.421875 351.15625 275.257812 C 350.746094 266.113281 345.304688 252.570312 334.34375 244.453125 C 323.957031 236.761719 312.847656 237.425781 299.984375 238.199219 C 288.371094 238.890625 275.207031 239.683594 260.449219 234.1875 C 245.761719 228.71875 232.789062 218.21875 221.890625 202.984375 C 221.515625 202.460938 221.414062 201.785156 221.621094 201.175781 C 229.5625 177.6875 240.574219 155.054688 254.34375 133.898438 C 277.738281 97.957031 307.585938 68.796875 343.042969 47.226562 C 380.429688 24.480469 423.816406 10.738281 468.515625 7.476562 C 469.257812 7.421875 469.96875 7.785156 470.363281 8.417969 C 470.753906 9.050781 470.765625 9.847656 470.390625 10.492188 C 427.453125 83.828125 415.375 134.097656 434.492188 159.910156 C 449.066406 179.585938 477.164062 179.949219 506.914062 180.335938 C 538.597656 180.75 571.363281 181.171875 590.734375 205.222656 C 599.765625 216.4375 604.53125 231.273438 604.886719 249.320312 C 605.175781 263.773438 602.648438 280.359375 597.375 298.621094 C 588.328125 329.96875 574.140625 356.273438 571.390625 361.222656 C 555.816406 389.261719 534.496094 414.167969 508.023438 435.253906 C 486.242188 452.605469 460.785156 467.53125 432.351562 479.625 C 388.683594 498.199219 347.644531 506.242188 320.910156 509.71875 C 320.824219 509.726562 320.738281 509.734375 320.648438 509.734375 Z M 223.78125 364.972656 C 233.113281 398.492188 248.589844 429.167969 269.8125 456.1875 C 284.515625 474.90625 301.792969 491.539062 321.183594 505.640625 C 375.511719 498.472656 506.429688 469.925781 567.886719 359.277344 C 570.601562 354.390625 584.597656 328.4375 593.527344 297.507812 C 605.152344 257.238281 603.164062 227.035156 587.617188 207.734375 C 569.425781 185.15625 537.621094 184.742188 506.859375 184.34375 C 476.09375 183.941406 447.027344 183.566406 431.273438 162.296875 C 422.46875 150.410156 419.703125 133.824219 423.054688 112.996094 C 427.292969 86.640625 441.402344 52.601562 465.007812 11.78125 C 422.285156 15.480469 380.914062 28.886719 345.128906 50.652344 C 270.875 95.824219 238.539062 164.128906 225.75 201.492188 C 236.050781 215.617188 248.1875 225.355469 261.851562 230.441406 C 275.8125 235.640625 287.980469 234.914062 299.75 234.207031 C 312.824219 233.421875 325.175781 232.683594 336.734375 241.242188 C 348.746094 250.136719 354.707031 265.019531 355.164062 275.082031 C 355.914062 291.660156 343.378906 309.113281 318.898438 325.554688 C 295.179688 341.484375 262.320312 355.097656 223.78125 364.972656 Z M 223.78125 364.972656 " fill-opacity="1" fill-rule="nonzero"/><path fill="#fd6d2f" d="M 763.34375 252.1875 C 707.035156 295.105469 640.183594 340.070312 566.613281 383.523438 C 479.128906 435.195312 394.355469 477.511719 320.640625 507.734375 C 301.347656 493.144531 284.027344 476.089844 269.144531 457.039062 C 332.289062 430.191406 426.65625 381.171875 529.390625 320.496094 C 614.964844 269.957031 690.648438 220.59375 744.757812 181.039062 C 753.953125 203.4375 760.292969 227.300781 763.34375 252.1875 Z M 763.34375 252.1875 " fill-opacity="1" fill-rule="nonzero"/><path fill="#493931" d="M 320.644531 509.738281 C 320.214844 509.738281 319.789062 509.597656 319.4375 509.332031 C 300.019531 494.644531 282.566406 477.46875 267.570312 458.273438 C 267.1875 457.78125 267.054688 457.140625 267.210938 456.539062 C 267.363281 455.933594 267.792969 455.441406 268.363281 455.195312 C 334.234375 427.1875 429.003906 377.460938 528.378906 318.773438 C 610.914062 270.023438 687.339844 220.535156 743.582031 179.421875 C 744.078125 179.058594 744.714844 178.941406 745.308594 179.109375 C 745.902344 179.277344 746.382812 179.707031 746.617188 180.277344 C 756.019531 203.179688 762.316406 227.296875 765.339844 251.949219 C 765.425781 252.65625 765.128906 253.355469 764.566406 253.785156 C 706.761719 297.839844 638.667969 343.300781 567.640625 385.253906 C 482.957031 435.273438 397.808594 478.269531 321.410156 509.59375 C 321.15625 509.6875 320.898438 509.738281 320.644531 509.738281 Z M 272.339844 457.851562 C 286.515625 475.652344 302.851562 491.648438 320.941406 505.445312 C 396.890625 474.230469 481.464844 431.492188 565.597656 381.800781 C 636.113281 340.148438 703.734375 295.039062 761.214844 251.292969 C 758.289062 228.238281 752.457031 205.675781 743.863281 184.167969 C 687.726562 225.058594 612.046875 274.003906 530.410156 322.21875 C 432.097656 380.285156 338.25 429.601562 272.339844 457.851562 Z M 272.339844 457.851562 " fill-opacity="1" fill-rule="nonzero"/><path fill="#fae8e0" d="M 751.972656 371.859375 C 738.46875 374.070312 718.121094 376.785156 693.160156 377.683594 C 657.539062 378.96875 652.78125 375.109375 640.847656 380.082031 C 608.957031 393.363281 619.679688 430.648438 588.542969 454.574219 C 556.4375 479.238281 525.5625 454.566406 490.648438 476.417969 C 473.882812 486.914062 454.757812 509.035156 447.261719 560.835938 C 431.453125 558.515625 412.40625 554.328125 391.621094 546.640625 C 360.75 535.226562 337.085938 520.167969 320.648438 507.730469 C 342.246094 495.003906 559.253906 365.867188 579.9375 290.082031 C 582 282.539062 586.984375 264.269531 578.878906 246.601562 C 566.449219 219.507812 531.136719 211.050781 509.410156 206.152344 C 440.347656 190.582031 406.390625 217.367188 380.132812 194.144531 C 362.050781 178.152344 362 151.167969 361.980469 139.988281 C 361.886719 88.40625 404.6875 38.707031 468.65625 9.476562 C 479.449219 8.722656 491.621094 8.503906 504.90625 9.3125 C 523.402344 10.4375 539.691406 13.28125 553.304688 16.558594 C 512.804688 18.910156 484.625 31.632812 481.089844 49.238281 C 478.675781 61.277344 488.367188 72.707031 491.804688 76.652344 C 535.886719 127.253906 637.171875 80.160156 661.019531 118.875 C 672.84375 138.078125 649.726562 152.578125 661.335938 194.1875 C 663.910156 203.429688 673.632812 236.316406 706.078125 255.628906 C 730.792969 270.34375 755.574219 269.371094 765.421875 268.441406 C 766.09375 282.554688 765.882812 299.261719 763.644531 317.871094 C 761.117188 338.941406 756.632812 357.125 751.972656 371.859375 Z M 751.972656 371.859375 " fill-opacity="1" fill-rule="nonzero"/><path fill="#493931" d="M 447.261719 562.839844 C 447.167969 562.839844 447.070312 562.832031 446.972656 562.816406 C 427.847656 560.011719 408.992188 555.203125 390.929688 548.519531 C 365.378906 539.070312 341.324219 525.882812 319.441406 509.328125 C 318.910156 508.925781 318.613281 508.28125 318.652344 507.613281 C 318.691406 506.945312 319.058594 506.339844 319.636719 506.003906 C 343.945312 491.683594 557.707031 363.953125 578.011719 289.554688 C 580.0625 282.039062 584.867188 264.441406 577.0625 247.4375 C 564.792969 220.695312 528.484375 212.507812 508.976562 208.105469 C 476.113281 200.699219 451.292969 202.96875 431.34375 204.792969 C 409.144531 206.820312 393.105469 208.289062 378.8125 195.644531 C 360.054688 179.058594 360.007812 151.6875 359.984375 139.996094 C 359.9375 114.523438 370.234375 88.613281 389.757812 65.074219 C 408.757812 42.167969 435.753906 22.3125 467.832031 7.660156 C 468.050781 7.558594 468.28125 7.5 468.523438 7.480469 C 480.632812 6.636719 492.917969 6.582031 505.03125 7.3125 C 521.398438 8.308594 537.800781 10.765625 553.777344 14.613281 C 554.742188 14.84375 555.390625 15.75 555.304688 16.742188 C 555.21875 17.726562 554.417969 18.503906 553.425781 18.5625 C 514.007812 20.847656 486.390625 33.046875 483.0625 49.632812 C 481.554688 57.140625 485.007812 65.789062 493.320312 75.335938 C 516.25 101.652344 555.871094 100.816406 590.832031 100.078125 C 606.515625 99.746094 621.332031 99.433594 633.777344 101.488281 C 648.128906 103.859375 657.324219 109.050781 662.730469 117.824219 C 668.664062 127.464844 666.414062 136.175781 663.808594 146.261719 C 660.863281 157.671875 657.195312 171.871094 663.269531 193.648438 C 670.742188 220.445312 685.898438 241.285156 707.109375 253.910156 C 729.847656 267.449219 753.292969 267.578125 765.238281 266.453125 C 765.789062 266.398438 766.328125 266.574219 766.742188 266.933594 C 767.152344 267.289062 767.402344 267.804688 767.429688 268.347656 C 768.21875 284.914062 767.617188 301.660156 765.640625 318.109375 C 763.429688 336.5 759.476562 354.785156 753.886719 372.460938 C 753.660156 373.179688 753.042969 373.714844 752.300781 373.832031 C 732.929688 376.996094 713.0625 378.964844 693.238281 379.683594 C 678.679688 380.210938 669.265625 379.878906 662.390625 379.636719 C 652.425781 379.289062 648.300781 379.144531 641.625 381.921875 C 625.722656 388.546875 621.011719 401.285156 615.554688 416.035156 C 610.632812 429.335938 605.054688 444.414062 589.769531 456.15625 C 572.699219 469.269531 555.683594 468.882812 539.226562 468.515625 C 523.953125 468.171875 508.167969 467.816406 491.71875 478.109375 C 469.5 492.019531 455.210938 519.949219 449.25 561.117188 C 449.175781 561.640625 448.894531 562.117188 448.46875 562.4375 C 448.113281 562.699219 447.691406 562.839844 447.261719 562.839844 Z M 324.257812 507.925781 C 345.179688 523.40625 368.0625 535.792969 392.316406 544.765625 C 409.496094 551.117188 427.402344 555.757812 445.574219 558.558594 C 451.886719 517.257812 466.6875 489.058594 489.585938 474.722656 C 507.050781 463.789062 523.449219 464.160156 539.3125 464.519531 C 555.800781 464.890625 571.371094 465.242188 587.324219 452.988281 C 601.6875 441.949219 606.824219 428.074219 611.789062 414.65625 C 617.332031 399.679688 622.566406 385.53125 640.078125 378.238281 C 647.5625 375.117188 652.5625 375.292969 662.523438 375.644531 C 669.335938 375.882812 678.667969 376.210938 693.085938 375.691406 C 712.328125 374.996094 731.609375 373.109375 750.429688 370.089844 C 755.75 353.015625 759.527344 335.378906 761.660156 317.640625 C 763.527344 302.09375 764.152344 286.289062 763.515625 270.621094 C 750.566406 271.566406 727.503906 270.726562 705.054688 257.359375 C 682.945312 244.195312 667.15625 222.539062 659.402344 194.730469 C 653.042969 171.921875 656.859375 157.140625 659.925781 145.269531 C 662.496094 135.316406 664.355469 128.121094 659.3125 119.933594 C 648.804688 102.867188 621.976562 103.433594 590.914062 104.089844 C 555.070312 104.847656 514.453125 105.707031 490.296875 77.972656 C 481.121094 67.445312 477.363281 57.644531 479.128906 48.851562 C 480.996094 39.558594 489.078125 31.433594 502.511719 25.359375 C 512.605469 20.796875 525.394531 17.527344 540 15.742188 C 528.359375 13.519531 516.5625 12.035156 504.785156 11.316406 C 492.964844 10.601562 480.984375 10.644531 469.160156 11.457031 C 404.1875 41.246094 363.894531 90.472656 363.984375 139.988281 C 364.003906 151.140625 364.050781 177.25 381.457031 192.644531 C 394.457031 204.144531 409.773438 202.746094 430.972656 200.804688 C 451.199219 198.953125 476.371094 196.652344 509.851562 204.203125 C 530.035156 208.753906 567.605469 217.226562 580.699219 245.769531 C 589.109375 264.097656 584.035156 282.679688 581.875 290.613281 C 573.085938 322.804688 529.328125 367.742188 451.820312 424.179688 C 396.417969 464.511719 340.289062 498.410156 324.257812 507.925781 Z M 751.972656 371.859375 L 751.976562 371.859375 Z M 751.972656 371.859375 " fill-opacity="1" fill-rule="nonzero"/><path fill="#fd6d2f" d="M 940.539062 35.316406 C 919.785156 0.167969 814.296875 21.113281 675.074219 81.414062 C 691.613281 96.523438 706.308594 113.605469 718.796875 132.296875 C 782.328125 102.847656 824.566406 89.207031 830.050781 98.488281 C 835.59375 107.875 802.4375 138.882812 744.761719 181.035156 C 690.65625 220.589844 614.96875 269.953125 529.398438 320.492188 C 426.664062 381.167969 332.296875 430.1875 269.148438 457.035156 C 223.625 476.398438 194.328125 484.238281 189.828125 476.617188 C 185.386719 469.101562 205.722656 447.757812 243.570312 417.933594 C 233.222656 398.769531 225.0625 378.246094 219.433594 356.703125 C 118.257812 439.472656 62.210938 510.804688 81.15625 542.882812 C 100.605469 575.808594 194.40625 559.503906 320.648438 507.734375 C 394.363281 477.511719 479.144531 435.195312 566.621094 383.523438 C 640.191406 340.070312 707.042969 295.105469 763.355469 252.1875 C 888.675781 156.671875 961.785156 71.296875 940.539062 35.316406 Z M 940.539062 35.316406 " fill-opacity="1" fill-rule="nonzero"/><path fill="#493931" d="M 127.429688 561.953125 C 120.507812 561.953125 114.253906 561.480469 108.6875 560.535156 C 94.355469 558.101562 84.507812 552.503906 79.425781 543.898438 C 69.707031 527.441406 77.855469 501.769531 103.644531 467.59375 C 127.847656 435.519531 167.445312 396.636719 218.160156 355.152344 C 218.683594 354.71875 219.398438 354.585938 220.046875 354.796875 C 220.695312 355.007812 221.191406 355.535156 221.363281 356.195312 C 226.878906 377.296875 234.9375 397.746094 245.324219 416.976562 C 245.785156 417.832031 245.566406 418.898438 244.800781 419.5 C 188.699219 463.71875 190.59375 473.984375 191.546875 475.59375 C 192.515625 477.230469 200.761719 483.941406 268.363281 455.191406 C 334.230469 427.179688 429 377.457031 528.375 318.765625 C 610.910156 270.019531 687.335938 220.527344 743.578125 179.414062 C 831.296875 115.304688 829.558594 101.601562 828.324219 99.507812 C 827.101562 97.4375 816.117188 89.390625 719.640625 134.109375 C 718.746094 134.527344 717.679688 134.226562 717.132812 133.40625 C 704.78125 114.917969 690.175781 97.921875 673.722656 82.886719 C 673.222656 82.429688 672.988281 81.75 673.101562 81.078125 C 673.214844 80.40625 673.65625 79.839844 674.28125 79.570312 C 743.945312 49.394531 805.359375 29 851.875 20.59375 C 875.546875 16.316406 895.152344 15.179688 910.152344 17.222656 C 926.046875 19.382812 936.851562 25.128906 942.265625 34.292969 C 947.804688 43.671875 947.480469 56.25 941.304688 71.6875 C 935.476562 86.253906 924.421875 103.417969 908.457031 122.699219 C 877.003906 160.679688 827.246094 206.003906 764.566406 253.78125 C 706.761719 297.832031 638.667969 343.292969 567.640625 385.246094 C 482.957031 435.265625 397.808594 478.257812 321.410156 509.582031 C 258.160156 535.523438 202.746094 552.625 161.160156 559.046875 C 148.621094 560.984375 137.34375 561.953125 127.429688 561.953125 Z M 218.292969 360.226562 C 168.980469 400.773438 130.472656 438.695312 106.839844 470.011719 C 82.46875 502.304688 74.183594 527.152344 82.875 541.867188 C 91.804688 556.984375 118.660156 561.554688 160.539062 555.09375 C 201.816406 548.71875 256.917969 531.703125 319.878906 505.882812 C 396.105469 474.632812 481.070312 431.726562 565.59375 381.804688 C 636.488281 339.929688 704.449219 294.558594 762.128906 250.601562 C 824.570312 203.007812 874.101562 157.898438 905.363281 120.152344 C 937.039062 81.902344 948.601562 52.921875 938.808594 36.339844 C 929.253906 20.15625 899.4375 16.078125 852.582031 24.546875 C 806.992188 32.785156 746.914062 52.652344 678.6875 82.035156 C 694.035156 96.371094 707.75 112.410156 719.5 129.765625 C 751.109375 115.160156 776.707031 104.796875 795.59375 98.960938 C 816.96875 92.351562 828.464844 91.882812 831.769531 97.476562 C 833.871094 101.03125 834.15625 108.160156 812.496094 128.925781 C 797.675781 143.132812 775.28125 161.210938 745.9375 182.65625 C 689.597656 223.847656 613.054688 273.414062 530.40625 322.222656 C 430.890625 381 335.949219 430.8125 269.925781 458.886719 C 246.75 468.746094 228.128906 475.476562 214.589844 478.890625 C 199.300781 482.753906 190.878906 482.351562 188.097656 477.640625 C 185.347656 472.984375 188.925781 465.5625 199.367188 454.285156 C 208.390625 444.535156 222.394531 432.132812 241.003906 417.40625 C 231.34375 399.242188 223.710938 380.027344 218.292969 360.226562 Z M 218.292969 360.226562 " fill-opacity="1" fill-rule="nonzero"/><path fill="#493931" d="M 197.011719 481.527344 C 193.03125 481.527344 186.527344 480.664062 180.316406 476.054688 C 173.972656 471.34375 171.332031 465.167969 170.320312 461.90625 C 169.996094 460.851562 170.585938 459.730469 171.640625 459.402344 C 172.699219 459.078125 173.820312 459.667969 174.148438 460.722656 C 175.011719 463.519531 177.277344 468.808594 182.707031 472.839844 C 188.882812 477.421875 195.558594 477.621094 198.136719 477.492188 C 199.242188 477.433594 200.179688 478.292969 200.234375 479.394531 C 200.289062 480.5 199.4375 481.441406 198.332031 481.492188 C 197.933594 481.515625 197.492188 481.527344 197.011719 481.527344 Z M 197.011719 481.527344 " fill-opacity="1" fill-rule="nonzero"/><path fill="#493931" d="M 830.441406 104.566406 C 830.066406 104.566406 829.6875 104.460938 829.351562 104.242188 C 828.425781 103.640625 828.160156 102.398438 828.761719 101.472656 C 830.261719 99.160156 834.960938 90.871094 832.328125 81.457031 C 831.453125 78.3125 829.875 75.40625 827.644531 72.820312 C 826.921875 71.980469 827.015625 70.714844 827.855469 69.992188 C 828.695312 69.269531 829.960938 69.367188 830.679688 70.203125 C 833.292969 73.242188 835.148438 76.664062 836.1875 80.378906 C 839.269531 91.410156 833.851562 100.980469 832.121094 103.652344 C 831.738281 104.242188 831.097656 104.566406 830.441406 104.566406 Z M 830.441406 104.566406 " fill-opacity="1" fill-rule="nonzero"/></svg>