<svg xmlns="http://www.w3.org/2000/svg" xmlns:xlink="http://www.w3.org/1999/xlink" width="1366" zoomAndPan="magnify" viewBox="0 0 1024.5 576" height="768" preserveAspectRatio="xMidYMid meet" version="1.0"><defs><clipPath id="be851a06c1"><path d="M 250.082031 0.234375 L 773.902344 0.234375 L 773.902344 575.765625 L 250.082031 575.765625 Z M 250.082031 0.234375 " clip-rule="nonzero"/></clipPath><clipPath id="ae873aa511"><path d="M 260 0.234375 L 745 0.234375 L 745 563 L 260 563 Z M 260 0.234375 " clip-rule="nonzero"/></clipPath></defs><g clip-path="url(#be851a06c1)"><path fill="#fae8e0" d="M 507.09375 4.089844 C 518.976562 35.039062 496.628906 224.414062 561.425781 254.40625 C 618.820312 280.96875 643.097656 276.910156 704.875 281.476562 C 719.308594 282.542969 773.894531 282.179688 773.902344 289.929688 C 773.910156 298.902344 708.492188 298.15625 700.980469 298.5625 C 659.933594 300.785156 591.539062 294.449219 561.691406 317.570312 C 527.527344 344.03125 517.117188 462.265625 511.765625 503.628906 C 510.652344 512.238281 504.019531 572.207031 497.390625 575.671875 C 493.773438 577.5625 490.355469 550.480469 490.003906 548.140625 C 487.601562 532.1875 485.351562 516.21875 483.980469 500.125 C 479.578125 448.460938 489.644531 374.40625 457.308594 330.558594 C 426.796875 289.175781 357.585938 300.953125 314.523438 300.398438 C 294.859375 300.140625 273.746094 301.882812 254.324219 297.992188 C 253.308594 297.789062 250.011719 297.328125 250.070312 295.625 C 250.253906 290.191406 288.800781 286.417969 293.628906 285.980469 C 339.398438 281.859375 392.660156 281.550781 435.265625 261.566406 C 498.996094 231.675781 483.113281 126.378906 490.125 68.722656 C 492.140625 52.175781 499.132812 -16.640625 507.09375 4.089844 Z M 437.886719 238.683594 C 427.652344 244.3125 420.375 232.921875 419.375 231.269531 C 416.695312 226.835938 396.738281 191.996094 389.472656 174.824219 C 387.359375 169.839844 382.3125 154.804688 383.34375 154.453125 C 384.316406 154.121094 394.667969 167.738281 398.488281 172.171875 C 405.644531 180.476562 434.535156 209.136719 438.695312 215.796875 C 444.34375 224.832031 446.472656 233.957031 437.886719 238.683594 Z M 572.1875 206.234375 C 574.304688 203.359375 618.222656 148.972656 622.382812 145.25 C 625.671875 142.308594 630.226562 137.511719 632 139 C 633.164062 139.980469 630.519531 145.601562 628.902344 149.363281 C 621.480469 166.597656 601.050781 205.808594 591.652344 222.402344 C 589.109375 226.890625 577.535156 250.035156 566.171875 243.652344 C 549.988281 234.570312 565.136719 215.8125 572.1875 206.234375 Z M 440.246094 333.195312 C 447.949219 340.761719 443.070312 352.679688 438.449219 358.246094 C 427.039062 371.980469 405.195312 387.046875 391.933594 398.875 C 384.097656 405.867188 365.359375 420.265625 363.988281 416.765625 C 361.875 411.371094 374.304688 394.566406 376.835938 390.480469 C 388.460938 371.703125 397.753906 353.574219 413.339844 337.699219 C 418.417969 332.53125 432.480469 325.570312 440.246094 333.195312 Z M 598.480469 342.53125 C 610.597656 359.304688 621.277344 376.929688 634.484375 392.976562 C 640.070312 399.757812 656.28125 420.433594 654.382812 421.171875 C 652.609375 421.863281 638.246094 411.25 633.347656 407.34375 C 614.953125 392.675781 589.324219 378.8125 577.414062 357.976562 C 573.394531 350.945312 571.265625 343.679688 577.925781 338.523438 C 584.199219 333.667969 596.203125 339.382812 598.480469 342.53125 Z M 598.480469 342.53125 " fill-opacity="1" fill-rule="evenodd"/></g><g clip-path="url(#ae873aa511)"><path fill="#fd6d2f" d="M 337.679688 282.535156 C 361.007812 278.996094 386.828125 275.585938 410.75 268.359375 C 427.796875 263.210938 443.875 256.132812 457.234375 245.480469 C 476.101562 230.433594 485.757812 205.066406 491.054688 176.902344 C 498.898438 135.210938 496.953125 87.359375 497.808594 54.738281 C 498.003906 47.289062 496.609375 32.289062 496.761719 20.195312 C 496.847656 13.398438 497.476562 7.429688 498.789062 3.726562 C 499.699219 1.320312 502.242188 -0.0976562 504.816406 0.371094 C 507.390625 0.835938 509.25 3.050781 509.21875 5.617188 C 509.21875 5.617188 507.816406 91.449219 525.074219 163.558594 C 534.492188 202.90625 549.195312 238.285156 573.40625 252.242188 C 586.460938 259.761719 600.496094 265.1875 614.996094 269.257812 C 637 275.429688 660.0625 278.492188 682.425781 280.960938 L 727.984375 286.550781 C 729.046875 286.695312 736.03125 287.089844 739.722656 288.277344 C 742.882812 289.296875 744.261719 291.433594 744.320312 293.050781 C 744.378906 294.59375 743.597656 296.441406 741.058594 297.371094 C 737.789062 298.566406 728.140625 298.269531 727.097656 298.265625 C 717.851562 298.230469 708.570312 298.277344 699.308594 298 C 693.078125 297.8125 686.855469 297.480469 680.660156 296.878906 C 655.167969 294.40625 630.792969 291.4375 608.007812 296.496094 C 593.421875 299.738281 579.503906 306.308594 566.375 318.488281 C 547.636719 335.890625 535.027344 357.640625 526.308594 381.3125 C 513.1875 416.925781 508.828125 456.855469 505.546875 493.015625 C 505.25 496.535156 504.851562 500.183594 504.414062 503.910156 C 504.351562 509.183594 504.238281 514.457031 504.0625 519.726562 C 503.847656 526.222656 503.546875 532.710938 503.140625 539.195312 L 502.195312 553.726562 C 502.082031 555.226562 501.910156 558.933594 501.738281 559.925781 C 501.101562 563.648438 497.34375 562.675781 496.695312 562.199219 C 496.492188 562.046875 495.539062 561.441406 495.335938 559.667969 C 494.582031 553.132812 494.589844 546.203125 495 539.128906 C 495.335938 533.308594 495.953125 527.386719 496.671875 521.503906 C 496.675781 520.867188 496.679688 520.234375 496.679688 519.597656 C 496.699219 513.167969 496.625 506.738281 496.472656 500.308594 C 496.011719 480.882812 494.808594 461.496094 492.648438 442.214844 C 490.492188 422.996094 487.371094 403.902344 483.101562 384.984375 C 480.878906 375.019531 478.023438 364.640625 474.023438 354.792969 C 470.164062 345.304688 465.21875 336.316406 458.53125 328.792969 C 448.070312 316.882812 432.945312 309.554688 416.402344 304.796875 C 390.78125 297.429688 361.703125 296.339844 339.429688 296.070312 C 338.449219 296.054688 337.347656 296.03125 336.148438 296.003906 C 335.226562 296.152344 334.308594 296.296875 333.394531 296.445312 C 325.820312 297.671875 318.222656 298.800781 310.601562 299.761719 C 302.945312 300.726562 295.265625 301.519531 287.566406 302.078125 L 273.765625 302.804688 C 273.691406 302.804688 269.949219 302.765625 267.699219 302.410156 C 266.074219 302.152344 264.824219 301.625 264.136719 301.214844 C 261.726562 299.773438 260.949219 297.726562 260.765625 295.996094 C 260.582031 294.253906 260.714844 291.546875 264.023438 289.40625 C 269.023438 286.171875 277.785156 284.058594 287.996094 283.054688 C 305.113281 281.367188 326.601562 282.316406 337.679688 282.535156 Z M 503.59375 459.867188 C 506.855469 432.820312 511.820312 405.050781 521.160156 379.441406 C 530.109375 354.910156 543.0625 332.351562 562.378906 314.246094 C 576.304688 301.175781 591.117188 294.101562 606.65625 290.550781 C 630.027344 285.207031 655.078125 287.960938 681.277344 290.328125 C 687.332031 290.878906 693.40625 291.164062 699.492188 291.304688 C 702.382812 291.371094 705.277344 291.40625 708.171875 291.421875 L 681.628906 288.367188 C 658.828125 286.03125 635.3125 283.058594 612.847656 276.953125 C 597.648438 272.820312 582.933594 267.253906 569.21875 259.503906 C 543.25 244.828125 526.425781 207.65625 516.007812 165.75 C 512.789062 152.792969 510.15625 139.394531 508.011719 126.117188 C 507.304688 143.816406 505.824219 161.929688 502.726562 179.035156 C 497.058594 210.335938 485.855469 238.246094 465.023438 255.082031 C 450.515625 266.804688 433.066406 274.761719 414.492188 280.488281 C 407.464844 282.652344 400.277344 284.5 393.035156 286.117188 C 402.226562 287.457031 411.402344 289.308594 420.1875 291.871094 C 439.269531 297.4375 456.492188 306.371094 468.472656 320.214844 C 474.5 327.257812 479.304688 335.320312 483.097656 343.921875 C 488.566406 356.324219 492 369.808594 494.5 382.625 C 498.238281 402.054688 500.792969 421.625 502.375 441.285156 C 502.875 447.472656 503.277344 453.667969 503.59375 459.867188 Z M 386.277344 155.898438 C 387.472656 155.039062 388.707031 154.71875 389.753906 155.640625 C 389.910156 155.644531 390 155.648438 390.011719 155.652344 C 389.980469 155.617188 389.953125 155.578125 389.921875 155.542969 L 389.921875 155.492188 L 421.898438 198.871094 C 425.574219 203.546875 429.839844 208.140625 433.152344 213.214844 C 435.527344 216.851562 437.453125 220.714844 438.324219 225.066406 C 439.464844 229.378906 438.671875 233.238281 436.964844 235.75 C 434.886719 238.808594 431.132812 240.183594 424.9375 238.300781 C 418.5 236.351562 412.742188 232.023438 407.996094 225.964844 C 404.398438 221.371094 401.761719 215.65625 399.355469 209.972656 C 395.707031 201.351562 393.164062 192.417969 390.691406 185.898438 L 384.449219 169.203125 L 382.292969 164.117188 C 382.097656 163.691406 381.378906 162.101562 381.074219 161.433594 C 379.410156 157.738281 383.136719 156.382812 386.277344 155.898438 Z M 405.84375 190.296875 C 408.792969 197.722656 412.222656 206.273438 416.261719 213.875 C 417.664062 216.511719 419.070312 219.046875 420.570312 221.40625 C 422.9375 225.117188 425.070312 228.582031 428.40625 230.703125 C 430.191406 231.808594 431.371094 232.753906 432.210938 231.894531 C 433.359375 230.722656 433.53125 228.53125 433.144531 226.15625 C 432.328125 222.519531 430.648438 219.300781 428.535156 216.328125 C 425.128906 211.53125 420.65625 207.367188 416.84375 203.023438 C 416.84375 203.023438 411.96875 197.386719 405.84375 190.296875 Z M 635.652344 144.742188 L 635.652344 144.777344 L 601.257812 212.886719 C 599.101562 216.851562 596.496094 221.976562 593.34375 226.335938 C 590.980469 229.609375 588.300781 232.460938 585.117188 234.167969 C 581.914062 236.1875 579.511719 235.757812 577.871094 235.007812 C 576.261719 234.265625 575.265625 232.597656 574.5625 230.332031 C 572.785156 224.601562 575.425781 212.550781 576.15625 210.269531 C 577.339844 207.054688 578.558594 203.871094 580.125 200.800781 C 582.410156 196.308594 585.25 192.078125 588.148438 187.898438 C 595.203125 177.738281 603.355469 168.246094 610.890625 158.753906 L 622.445312 144.332031 C 623.089844 143.511719 625.328125 139.871094 626.824219 138.738281 C 628.070312 137.792969 629.285156 137.359375 630.296875 137.304688 C 632.199219 137.144531 634.050781 137.988281 635.152344 139.519531 C 636.253906 141.050781 636.445312 143.039062 635.652344 144.742188 Z M 632.46875 147.675781 C 633.386719 147.550781 634.316406 147.3125 633.71875 146.816406 C 633.246094 146.425781 632.828125 146.917969 632.46875 147.675781 Z M 581.679688 229.257812 C 581.957031 229.257812 582.265625 229.25 582.511719 229.152344 C 585.019531 227.914062 587.1875 225.769531 589.027344 223.238281 C 592.03125 219.101562 594.203125 214.050781 596.144531 210.226562 C 597.433594 207.601562 602.46875 196.121094 607.96875 183.179688 C 605.042969 187.234375 602.152344 191.332031 599.367188 195.480469 C 596.738281 199.394531 594.3125 203.414062 591.824219 207.371094 C 590.160156 210.015625 588.363281 212.523438 586.804688 215.214844 C 586.042969 216.40625 583.203125 221.65625 582.140625 226.148438 C 581.90625 227.140625 581.648438 228.039062 581.648438 228.851562 C 581.648438 228.980469 581.671875 229.128906 581.679688 229.257812 Z M 653.179688 409.421875 C 653.722656 409.765625 654.019531 409.957031 654.011719 409.957031 C 656.382812 411.613281 657.011719 414.875 655.425781 417.308594 C 653.839844 419.738281 650.621094 420.445312 648.183594 418.898438 L 648.183594 418.828125 C 648.113281 418.789062 648.046875 418.75 647.980469 418.707031 L 647.941406 418.769531 L 647.28125 418.261719 C 646.671875 417.851562 646.070312 417.390625 645.476562 416.882812 L 611.828125 391.144531 C 604.324219 384.835938 594.910156 378.699219 587.449219 371.359375 C 584.015625 367.980469 580.945312 364.382812 578.675781 360.347656 C 576.433594 356.6875 575.851562 353.738281 575.945312 351.492188 C 576.074219 348.417969 577.742188 346.394531 580.15625 344.835938 C 585.578125 341.335938 596.699219 342.574219 603.519531 346.417969 C 606.210938 348.117188 608.851562 349.921875 611.308594 352.039062 C 614.828125 355.066406 617.964844 358.617188 621 362.261719 C 628.308594 371.03125 634.574219 380.890625 640.660156 389.859375 C 642.972656 393.339844 645.617188 398.8125 648.625 403.570312 C 650.078125 405.867188 651.511719 408.046875 653.179688 409.421875 Z M 627.960938 393.214844 C 622.527344 385.847656 616.792969 378.125 610.625 370.957031 C 607.863281 367.746094 604.941406 364.726562 602.058594 361.75 C 600.117188 359.75 598.328125 357.683594 596.296875 355.851562 C 592.957031 352.519531 586.792969 349.460938 583.121094 350.777344 C 582.613281 350.957031 582.058594 351.066406 581.847656 351.542969 C 581.238281 352.917969 581.773438 354.910156 583.269531 357.714844 C 586.085938 362.421875 590.097656 366.453125 594.59375 370.082031 C 601.613281 375.734375 609.757812 380.414062 616.433594 385.40625 C 618.632812 387.027344 622.980469 389.945312 627.960938 393.214844 Z M 372.722656 415.757812 C 371.125 417.269531 369.523438 417.136719 368.84375 417.125 C 367.414062 417.109375 366.265625 416.484375 365.277344 415.546875 C 364.585938 414.894531 363.683594 413.601562 363.726562 411.441406 C 363.746094 410.621094 364.789062 407.363281 365.265625 406.0625 L 368.089844 398.929688 L 376.71875 380.503906 C 382.660156 369.414062 391.457031 353.730469 403.273438 343.714844 C 405.820312 341.554688 408.488281 339.613281 411.347656 338.171875 C 418.621094 334.507812 426.378906 333.042969 434.414062 334.859375 C 441.257812 336.222656 445.1875 339.792969 446.636719 344.28125 C 448.003906 348.507812 447.359375 353.707031 443.511719 358.605469 C 440.800781 362.234375 437.5625 365.433594 434.078125 368.425781 C 426.359375 375.050781 417.277344 380.492188 409.445312 386.507812 L 372.527344 415.96875 Z M 374.640625 411.210938 C 374.210938 411.871094 373.839844 412.558594 374.257812 412.683594 C 375.148438 412.957031 375 412.113281 374.640625 411.210938 Z M 382.40625 396.125 L 405.042969 380.503906 C 411.992188 375.75 419.882812 371.535156 427.007812 366.476562 C 431.582031 363.230469 435.820312 359.632812 439.261719 355.351562 C 441.679688 352.179688 442.605469 348.832031 441.457031 346.230469 C 440.402344 343.824219 437.488281 342.746094 433.597656 342.714844 C 428.5 342.824219 424.234375 344.988281 420.035156 347.640625 C 417.285156 349.378906 414.734375 351.527344 412.179688 353.84375 C 401.855469 363.207031 393.199219 376.613281 387.601562 386.453125 Z M 382.40625 396.125 " fill-opacity="1" fill-rule="evenodd"/></g></svg>