<svg xmlns="http://www.w3.org/2000/svg" xmlns:xlink="http://www.w3.org/1999/xlink" width="1366" zoomAndPan="magnify" viewBox="0 0 1024.5 576" height="768" preserveAspectRatio="xMidYMid meet" version="1.0"><defs><clipPath id="de604f4cee"><path d="M 234.574219 159 L 365 159 L 365 270 L 234.574219 270 Z M 234.574219 159 " clip-rule="nonzero"/></clipPath><clipPath id="2c14463f35"><path d="M 441 0.140625 L 645 0.140625 L 645 169 L 441 169 Z M 441 0.140625 " clip-rule="nonzero"/></clipPath><clipPath id="a6c7ba093f"><path d="M 607 200 L 789.304688 200 L 789.304688 355 L 607 355 Z M 607 200 " clip-rule="nonzero"/></clipPath><clipPath id="df17db04e5"><path d="M 514 410 L 699 410 L 699 575.859375 L 514 575.859375 Z M 514 410 " clip-rule="nonzero"/></clipPath></defs><g clip-path="url(#de604f4cee)"><path fill="#fd6d2f" d="M 250.386719 266.582031 C 257.628906 260.625 264.871094 254.667969 272.109375 248.710938 C 279.351562 242.757812 286.59375 236.800781 293.832031 230.84375 C 301.070312 224.886719 308.3125 218.929688 315.554688 212.972656 C 322.792969 207.015625 330.035156 201.0625 337.277344 195.105469 C 344.515625 189.148438 351.757812 183.191406 358.996094 177.234375 C 359.882812 176.503906 360.769531 175.773438 361.660156 175.046875 C 362.554688 174.210938 363.1875 173.226562 363.558594 172.085938 C 364.136719 170.992188 364.398438 169.8125 364.351562 168.546875 C 364.398438 167.28125 364.136719 166.101562 363.558594 165.003906 C 363.1875 163.867188 362.554688 162.878906 361.660156 162.046875 C 359.90625 160.4375 357.605469 159.246094 355.15625 159.355469 C 354.34375 159.464844 353.527344 159.574219 352.714844 159.683594 C 351.15625 160.121094 349.804688 160.90625 348.65625 162.046875 C 341.414062 168.003906 334.171875 173.960938 326.933594 179.917969 C 319.695312 185.875 312.453125 191.828125 305.210938 197.785156 C 297.972656 203.742188 290.730469 209.699219 283.488281 215.65625 C 276.25 221.613281 269.007812 227.570312 261.769531 233.527344 C 254.527344 239.480469 247.285156 245.4375 240.046875 251.394531 C 239.160156 252.125 238.273438 252.855469 237.386719 253.585938 C 236.488281 254.417969 235.855469 255.402344 235.484375 256.542969 C 234.90625 257.636719 234.644531 258.820312 234.691406 260.085938 C 234.644531 261.351562 234.90625 262.53125 235.484375 263.625 C 235.855469 264.765625 236.488281 265.753906 237.386719 266.585938 C 239.136719 268.195312 241.4375 269.386719 243.886719 269.277344 C 244.699219 269.167969 245.515625 269.058594 246.332031 268.949219 C 247.886719 268.507812 249.242188 267.722656 250.386719 266.582031 Z M 250.386719 266.582031 " fill-opacity="1" fill-rule="nonzero"/></g><path fill="#fd6d2f" d="M 288.734375 370.660156 C 295.097656 365.847656 301.578125 361.1875 308.167969 356.691406 C 314.757812 352.191406 321.457031 347.851562 328.253906 343.675781 C 335.082031 339.484375 342.011719 335.457031 349.035156 331.601562 C 356.03125 327.761719 363.113281 324.089844 370.285156 320.59375 C 377.457031 317.09375 384.710938 313.769531 392.042969 310.621094 C 392.949219 310.234375 393.859375 309.847656 394.773438 309.460938 C 394.039062 309.769531 393.308594 310.082031 392.574219 310.390625 C 394.964844 309.382812 397.355469 308.394531 399.761719 307.425781 C 400.957031 307.140625 402 306.589844 402.886719 305.777344 C 403.886719 305.128906 404.675781 304.269531 405.253906 303.199219 C 405.925781 302.144531 406.292969 301.003906 406.34375 299.78125 C 406.617188 298.558594 406.566406 297.335938 406.179688 296.113281 C 405.460938 293.890625 404.082031 291.742188 401.957031 290.621094 C 401.222656 290.3125 400.488281 290.003906 399.757812 289.695312 C 398.128906 289.253906 396.5 289.253906 394.871094 289.695312 C 386.292969 293.15625 377.792969 296.816406 369.40625 300.714844 C 361.707031 304.292969 354.101562 308.070312 346.597656 312.039062 C 339.09375 316.007812 331.6875 320.171875 324.398438 324.519531 C 317.078125 328.886719 309.871094 333.441406 302.785156 338.179688 C 295.726562 342.902344 288.792969 347.804688 281.988281 352.878906 C 281.140625 353.511719 280.296875 354.148438 279.453125 354.785156 C 278.378906 355.363281 277.519531 356.148438 276.871094 357.152344 C 276.0625 358.039062 275.511719 359.082031 275.226562 360.277344 C 274.84375 361.5 274.789062 362.722656 275.0625 363.945312 C 275.117188 365.167969 275.480469 366.308594 276.152344 367.363281 C 277.414062 369.324219 279.300781 371.054688 281.644531 371.585938 C 282.457031 371.695312 283.273438 371.804688 284.089844 371.914062 C 285.753906 371.910156 287.300781 371.492188 288.734375 370.660156 Z M 288.734375 370.660156 " fill-opacity="1" fill-rule="nonzero"/><path fill="#fd6d2f" d="M 296.640625 495.417969 C 313.769531 492.738281 330.902344 490.058594 348.03125 487.382812 C 365.160156 484.703125 382.289062 482.023438 399.417969 479.347656 C 409.023438 477.847656 418.625 476.34375 428.226562 474.84375 C 429.421875 474.558594 430.464844 474.011719 431.351562 473.195312 C 432.351562 472.546875 433.144531 471.691406 433.722656 470.617188 C 434.394531 469.5625 434.757812 468.425781 434.8125 467.199219 C 435.085938 465.980469 435.03125 464.757812 434.644531 463.535156 C 433.925781 461.308594 432.546875 459.164062 430.421875 458.039062 C 429.691406 457.730469 428.957031 457.421875 428.226562 457.113281 C 426.59375 456.675781 424.96875 456.675781 423.335938 457.113281 C 406.207031 459.789062 389.078125 462.472656 371.949219 465.148438 C 354.820312 467.824219 337.6875 470.503906 320.558594 473.183594 C 310.957031 474.683594 301.355469 476.1875 291.75 477.6875 C 290.554688 477.972656 289.511719 478.519531 288.625 479.332031 C 287.625 479.980469 286.835938 480.839844 286.257812 481.910156 C 285.585938 482.964844 285.222656 484.105469 285.167969 485.328125 C 284.894531 486.550781 284.949219 487.773438 285.332031 488.996094 C 286.050781 491.21875 287.433594 493.367188 289.558594 494.488281 C 290.289062 494.800781 291.023438 495.109375 291.753906 495.417969 C 293.382812 495.855469 295.011719 495.855469 296.640625 495.417969 Z M 296.640625 495.417969 " fill-opacity="1" fill-rule="nonzero"/><g clip-path="url(#2c14463f35)"><path fill="#fd6d2f" d="M 524.378906 149.042969 C 521.84375 148.332031 519.359375 147.449219 516.933594 146.425781 C 517.664062 146.734375 518.398438 147.042969 519.128906 147.351562 C 511.933594 144.285156 505.3125 140.046875 499.125 135.289062 C 499.742188 135.769531 500.363281 136.246094 500.984375 136.726562 C 491.914062 129.714844 483.574219 121.679688 476.546875 112.609375 C 477.023438 113.230469 477.503906 113.851562 477.980469 114.46875 C 472.8125 107.765625 468.398438 100.496094 465.09375 92.695312 C 465.402344 93.425781 465.710938 94.160156 466.019531 94.890625 C 463.28125 88.378906 461.382812 81.550781 460.441406 74.546875 C 460.546875 75.359375 460.660156 76.175781 460.769531 76.992188 C 459.941406 70.671875 459.894531 64.269531 460.734375 57.949219 C 460.625 58.761719 460.511719 59.578125 460.40625 60.390625 C 461.148438 54.992188 462.535156 49.707031 464.640625 44.675781 C 464.328125 45.40625 464.019531 46.140625 463.710938 46.871094 C 465.539062 42.558594 467.863281 38.507812 470.726562 34.800781 C 470.246094 35.421875 469.765625 36.042969 469.289062 36.664062 C 472.105469 33.054688 475.359375 29.820312 478.980469 27.023438 C 478.359375 27.5 477.738281 27.980469 477.117188 28.457031 C 480.664062 25.742188 484.519531 23.464844 488.625 21.710938 C 487.894531 22.019531 487.160156 22.328125 486.429688 22.636719 C 490.34375 20.988281 494.445312 19.832031 498.65625 19.261719 C 497.84375 19.367188 497.027344 19.480469 496.210938 19.589844 C 499.914062 19.109375 503.65625 19.09375 507.359375 19.582031 C 506.542969 19.476562 505.726562 19.363281 504.914062 19.253906 C 508.222656 19.714844 511.441406 20.621094 514.519531 21.90625 C 513.785156 21.597656 513.054688 21.289062 512.320312 20.980469 C 515.632812 22.390625 518.730469 24.222656 521.582031 26.414062 C 520.960938 25.9375 520.34375 25.457031 519.722656 24.980469 C 522.554688 27.183594 525.105469 29.71875 527.316406 32.550781 C 526.839844 31.929688 526.359375 31.308594 525.882812 30.691406 C 528.003906 33.4375 529.78125 36.421875 531.140625 39.617188 C 530.832031 38.886719 530.523438 38.152344 530.210938 37.421875 C 531.410156 40.292969 532.253906 43.289062 532.679688 46.371094 C 532.570312 45.554688 532.457031 44.738281 532.351562 43.925781 C 532.90625 48.207031 532.375 52.375 531.917969 56.632812 C 532.027344 57.445312 532.136719 58.261719 532.246094 59.074219 C 532.554688 59.808594 532.863281 60.539062 533.171875 61.273438 C 534.183594 63 535.746094 64.261719 537.570312 65.035156 C 540.882812 66.429688 545.054688 65.808594 547.613281 63.132812 C 552.546875 57.972656 557.308594 52.574219 562.960938 48.175781 C 562.339844 48.652344 561.71875 49.132812 561.097656 49.613281 C 565.527344 46.191406 570.351562 43.316406 575.5 41.125 C 574.769531 41.433594 574.035156 41.746094 573.304688 42.054688 C 577.902344 40.125 582.710938 38.761719 587.65625 38.089844 C 586.84375 38.199219 586.027344 38.308594 585.214844 38.417969 C 589.433594 37.871094 593.695312 37.832031 597.914062 38.398438 C 597.101562 38.289062 596.285156 38.179688 595.46875 38.070312 C 599.585938 38.648438 603.597656 39.757812 607.421875 41.375 C 606.691406 41.066406 605.957031 40.753906 605.226562 40.445312 C 608.789062 41.972656 612.148438 43.917969 615.21875 46.277344 C 614.597656 45.800781 613.980469 45.320312 613.359375 44.839844 C 616.121094 46.992188 618.613281 49.449219 620.75 52.21875 C 620.273438 51.601562 619.792969 50.980469 619.316406 50.359375 C 621.191406 52.820312 622.765625 55.492188 623.984375 58.335938 C 623.675781 57.605469 623.367188 56.871094 623.058594 56.140625 C 624.402344 59.339844 625.296875 62.691406 625.769531 66.128906 C 625.660156 65.3125 625.550781 64.496094 625.441406 63.683594 C 625.960938 67.6875 625.910156 71.730469 625.390625 75.730469 C 625.5 74.917969 625.609375 74.101562 625.71875 73.285156 C 625.035156 78.308594 623.632812 83.195312 621.671875 87.863281 C 621.980469 87.132812 622.289062 86.398438 622.597656 85.667969 C 620.3125 91.039062 617.28125 96.011719 613.722656 100.636719 C 614.199219 100.015625 614.679688 99.394531 615.160156 98.777344 C 607.875 108.167969 598.75 115.878906 589.394531 123.117188 C 590.015625 122.636719 590.632812 122.160156 591.253906 121.679688 C 581.664062 129.085938 571.984375 136.632812 561.402344 142.589844 C 558.472656 144.242188 555.457031 145.75 552.359375 147.066406 C 553.089844 146.757812 553.824219 146.449219 554.554688 146.140625 C 549.621094 148.214844 544.480469 149.757812 539.175781 150.484375 C 539.988281 150.375 540.804688 150.265625 541.617188 150.15625 C 537.429688 150.703125 533.210938 150.714844 529.019531 150.171875 C 529.832031 150.28125 530.648438 150.390625 531.460938 150.5 C 529.070312 150.175781 526.707031 149.683594 524.378906 149.042969 C 522.078125 148.410156 519.355469 148.765625 517.292969 149.972656 C 515.386719 151.085938 513.570312 153.273438 513.070312 155.464844 C 512.535156 157.820312 512.648438 160.460938 513.996094 162.550781 C 515.296875 164.5625 517.132812 166.125 519.492188 166.773438 C 530.722656 169.863281 542.597656 169.574219 553.683594 166.019531 C 563.742188 162.796875 572.992188 157.523438 581.648438 151.554688 C 590.386719 145.527344 598.886719 139.03125 607.15625 132.378906 C 610.996094 129.289062 614.746094 126.082031 618.300781 122.664062 C 622.414062 118.707031 626.125 114.449219 629.597656 109.925781 C 632.503906 106.140625 635.089844 102.136719 637.167969 97.839844 C 639.550781 92.914062 641.550781 87.742188 642.710938 82.382812 C 643.835938 77.199219 644.460938 71.777344 644.105469 66.46875 C 643.902344 63.429688 643.488281 60.367188 642.792969 57.398438 C 642.113281 54.507812 641.039062 51.785156 639.859375 49.0625 C 635.957031 40.03125 628.621094 32.542969 620.253906 27.507812 C 611.734375 22.375 601.625 19.578125 591.679688 19.601562 C 580.902344 19.625 570.296875 22.726562 560.859375 27.832031 C 556.167969 30.371094 551.816406 33.53125 547.742188 36.96875 C 544.957031 39.316406 542.453125 41.929688 539.9375 44.558594 C 538.164062 46.417969 536.382812 48.277344 534.609375 50.136719 C 539.839844 52.304688 545.070312 54.46875 550.300781 56.636719 C 550.730469 52.636719 551.273438 48.6875 550.824219 44.660156 C 550.515625 41.894531 550.117188 39.140625 549.335938 36.460938 C 548.566406 33.820312 547.488281 31.25 546.308594 28.769531 C 544.238281 24.425781 541.308594 20.421875 538.0625 16.886719 C 534.785156 13.320312 530.871094 10.203125 526.722656 7.714844 C 518.253906 2.632812 508.125 0.152344 498.265625 0.984375 C 488.152344 1.835938 478.3125 5.222656 469.957031 11.03125 C 461.566406 16.859375 454.382812 24.492188 449.683594 33.621094 C 444.59375 43.507812 442.007812 54.433594 441.742188 65.539062 C 441.246094 86.542969 449.253906 107 461.917969 123.523438 C 468.246094 131.773438 475.332031 139.269531 483.300781 145.960938 C 487.714844 149.667969 492.304688 153.21875 497.132812 156.367188 C 502.039062 159.566406 507.191406 162.15625 512.601562 164.390625 C 514.847656 165.320312 517.144531 166.117188 519.480469 166.773438 C 521.769531 167.417969 524.519531 167.046875 526.566406 165.847656 C 528.472656 164.730469 530.289062 162.542969 530.789062 160.351562 C 531.324219 158 531.210938 155.359375 529.863281 153.269531 C 528.570312 151.246094 526.734375 149.707031 524.378906 149.042969 Z M 524.378906 149.042969 " fill-opacity="1" fill-rule="nonzero"/></g><g clip-path="url(#a6c7ba093f)"><path fill="#fd6d2f" d="M 705.140625 244.875 C 705.066406 244.886719 704.996094 244.898438 704.917969 244.910156 C 705.734375 244.800781 706.550781 244.691406 707.363281 244.582031 C 707 244.625 706.640625 244.625 706.277344 244.578125 C 707.089844 244.6875 707.90625 244.796875 708.71875 244.90625 C 708.332031 244.847656 707.957031 244.742188 707.589844 244.589844 C 708.320312 244.902344 709.054688 245.210938 709.785156 245.519531 C 709.242188 245.289062 708.742188 244.972656 708.273438 244.613281 C 708.890625 245.089844 709.511719 245.570312 710.132812 246.050781 C 709.183594 245.300781 708.378906 244.390625 707.640625 243.4375 C 708.121094 244.054688 708.597656 244.675781 709.078125 245.296875 C 705.941406 241.203125 703.714844 236.421875 701.28125 231.898438 C 697.984375 225.789062 694.425781 219.921875 690.011719 214.542969 C 685.289062 208.792969 679.109375 204.148438 671.953125 201.929688 C 669.671875 201.222656 667.261719 200.910156 664.894531 200.683594 C 663.128906 200.511719 661.34375 200.53125 659.578125 200.707031 C 655.035156 201.15625 650.703125 202.097656 646.488281 203.855469 C 642.074219 205.699219 637.921875 207.816406 634.050781 210.644531 C 630.066406 213.554688 626.308594 216.730469 623.027344 220.425781 C 616.292969 228.015625 611.292969 236.910156 608.941406 246.824219 C 606.375 257.632812 606.582031 268.835938 608.964844 279.65625 C 610.152344 285.054688 612.050781 290.1875 614.25 295.246094 C 616.175781 299.671875 618.535156 303.898438 621.277344 307.867188 C 627.054688 316.230469 634.015625 323.636719 642.042969 329.871094 C 650.101562 336.125 658.6875 341.4375 667.976562 345.667969 C 673.222656 348.054688 678.585938 350.3125 684.121094 351.929688 C 686.683594 352.679688 689.292969 353.285156 691.933594 353.683594 C 695.203125 354.171875 698.484375 354.582031 701.796875 354.480469 C 708.335938 354.277344 714.628906 352.636719 720.359375 349.46875 C 725.15625 346.816406 729.417969 343.140625 733.382812 339.382812 C 737.003906 335.957031 740.515625 332.433594 744.222656 329.097656 C 748.128906 325.578125 752.121094 322.160156 756.046875 318.664062 C 763.972656 311.597656 771.398438 304.101562 777.511719 295.382812 C 780.1875 291.570312 782.535156 287.523438 784.371094 283.238281 C 785.597656 280.375 786.769531 277.511719 787.566406 274.496094 C 788.375 271.457031 788.847656 268.304688 789.097656 265.175781 C 789.359375 261.910156 789.035156 258.75 788.570312 255.515625 C 788.277344 253.476562 787.800781 251.472656 787.113281 249.535156 C 785.71875 245.597656 783.886719 241.8125 781.429688 238.433594 C 778.917969 234.976562 776.167969 231.757812 772.929688 228.957031 C 769.6875 226.15625 766.1875 223.578125 762.464844 221.449219 C 758.792969 219.351562 754.871094 217.625 750.878906 216.242188 C 747.039062 214.90625 743.140625 214.179688 739.117188 213.675781 C 735.351562 213.203125 731.742188 213.441406 728 214.019531 C 726.667969 214.222656 725.347656 214.539062 724.078125 214.992188 C 722.179688 215.671875 720.222656 216.460938 718.515625 217.558594 C 714.5 220.140625 711.1875 223.789062 709.070312 228.070312 C 707.28125 231.683594 706.035156 235.480469 705.035156 239.375 C 704.359375 242.011719 703.789062 244.71875 702.738281 247.238281 C 703.046875 246.507812 703.359375 245.773438 703.667969 245.042969 C 703.324219 245.84375 702.925781 246.621094 702.398438 247.320312 C 702.875 246.699219 703.355469 246.078125 703.835938 245.457031 C 703.554688 245.8125 703.246094 246.136719 702.894531 246.421875 C 703.511719 245.941406 704.132812 245.460938 704.753906 244.984375 C 704.460938 245.207031 704.15625 245.390625 703.816406 245.539062 C 704.550781 245.230469 705.28125 244.921875 706.015625 244.613281 C 705.734375 244.730469 705.441406 244.816406 705.140625 244.875 C 702.976562 245.292969 700.726562 247.253906 699.648438 249.101562 C 698.492188 251.070312 698.003906 253.972656 698.71875 256.183594 C 699.4375 258.410156 700.820312 260.554688 702.945312 261.679688 C 703.675781 261.988281 704.410156 262.296875 705.140625 262.605469 C 706.769531 263.042969 708.398438 263.042969 710.027344 262.605469 C 710.28125 262.554688 710.523438 262.484375 710.765625 262.398438 C 711.710938 262.066406 712.714844 261.6875 713.589844 261.171875 C 714.4375 260.667969 715.238281 260 715.976562 259.363281 C 716.1875 259.183594 716.386719 258.996094 716.566406 258.789062 C 718.546875 256.5625 719.503906 254.566406 720.597656 251.820312 C 721.792969 248.824219 722.386719 245.605469 723.230469 242.503906 C 723.78125 240.503906 724.398438 238.523438 725.207031 236.613281 C 724.898438 237.34375 724.589844 238.078125 724.28125 238.808594 C 725.050781 237.011719 725.988281 235.289062 727.1875 233.738281 C 726.707031 234.359375 726.226562 234.980469 725.75 235.597656 C 726.566406 234.5625 727.488281 233.621094 728.523438 232.804688 C 727.902344 233.28125 727.28125 233.761719 726.664062 234.242188 C 727.769531 233.386719 728.972656 232.691406 730.257812 232.148438 C 729.527344 232.457031 728.792969 232.765625 728.0625 233.074219 C 729.75 232.375 731.523438 231.933594 733.332031 231.683594 C 732.519531 231.792969 731.703125 231.90625 730.890625 232.011719 C 733.707031 231.640625 736.554688 231.726562 739.367188 232.097656 C 738.554688 231.988281 737.738281 231.875 736.925781 231.769531 C 741.160156 232.34375 745.28125 233.5625 749.21875 235.210938 C 748.488281 234.902344 747.753906 234.589844 747.023438 234.28125 C 751.515625 236.179688 755.757812 238.640625 759.617188 241.621094 C 758.996094 241.144531 758.378906 240.664062 757.757812 240.183594 C 760.9375 242.660156 763.84375 245.480469 766.308594 248.667969 C 765.832031 248.046875 765.351562 247.425781 764.875 246.808594 C 766.769531 249.277344 768.382812 251.949219 769.609375 254.8125 C 769.300781 254.082031 768.992188 253.347656 768.679688 252.617188 C 769.765625 255.199219 770.5 257.894531 770.878906 260.671875 C 770.769531 259.859375 770.660156 259.042969 770.550781 258.230469 C 770.921875 261.15625 770.890625 264.097656 770.515625 267.019531 C 770.621094 266.203125 770.734375 265.390625 770.84375 264.574219 C 770.3125 268.484375 769.1875 272.277344 767.667969 275.917969 C 767.976562 275.1875 768.289062 274.453125 768.597656 273.722656 C 766.222656 279.339844 762.957031 284.539062 759.234375 289.359375 C 759.714844 288.738281 760.195312 288.117188 760.671875 287.496094 C 750.296875 300.855469 736.378906 310.8125 724.347656 322.546875 C 721.160156 325.65625 717.992188 328.792969 714.472656 331.535156 C 715.089844 331.054688 715.710938 330.574219 716.332031 330.097656 C 713.808594 332.039062 711.117188 333.75 708.1875 335.011719 C 708.917969 334.703125 709.652344 334.394531 710.382812 334.085938 C 707.914062 335.125 705.332031 335.804688 702.679688 336.164062 C 703.496094 336.054688 704.3125 335.945312 705.125 335.835938 C 701.78125 336.257812 698.417969 336.167969 695.082031 335.730469 C 695.894531 335.839844 696.710938 335.949219 697.527344 336.058594 C 690.964844 335.15625 684.667969 332.980469 678.582031 330.414062 C 679.316406 330.722656 680.046875 331.03125 680.78125 331.34375 C 671.015625 327.207031 661.691406 322 653.289062 315.519531 C 653.90625 315.996094 654.527344 316.476562 655.148438 316.953125 C 648.902344 312.113281 643.207031 306.582031 638.351562 300.335938 C 638.832031 300.957031 639.308594 301.578125 639.789062 302.199219 C 635.765625 296.984375 632.394531 291.316406 629.816406 285.253906 C 630.125 285.984375 630.4375 286.71875 630.746094 287.449219 C 628.28125 281.59375 626.554688 275.441406 625.695312 269.144531 C 625.800781 269.957031 625.914062 270.773438 626.023438 271.589844 C 625.285156 266.03125 625.230469 260.402344 625.964844 254.847656 C 625.855469 255.660156 625.746094 256.476562 625.636719 257.289062 C 626.277344 252.613281 627.457031 248 629.273438 243.636719 C 628.964844 244.367188 628.65625 245.101562 628.347656 245.832031 C 630.050781 241.800781 632.316406 238.039062 634.980469 234.574219 C 634.503906 235.191406 634.023438 235.8125 633.542969 236.433594 C 636.582031 232.519531 640.105469 229.003906 644.019531 225.96875 C 643.402344 226.449219 642.78125 226.925781 642.160156 227.40625 C 645.648438 224.726562 649.425781 222.4375 653.472656 220.707031 C 652.742188 221.015625 652.007812 221.324219 651.273438 221.632812 C 654.40625 220.3125 657.679688 219.339844 661.054688 218.882812 C 660.242188 218.992188 659.425781 219.101562 658.613281 219.210938 C 661.007812 218.902344 663.425781 218.867188 665.820312 219.183594 C 665.007812 219.074219 664.191406 218.964844 663.378906 218.855469 C 665.347656 219.128906 667.261719 219.644531 669.101562 220.40625 C 668.367188 220.097656 667.636719 219.789062 666.902344 219.480469 C 669.011719 220.371094 670.972656 221.554688 672.78125 222.953125 C 672.160156 222.472656 671.539062 221.996094 670.917969 221.515625 C 673.601562 223.609375 675.921875 226.113281 678 228.796875 C 677.519531 228.175781 677.039062 227.554688 676.5625 226.933594 C 680.648438 232.238281 683.800781 238.175781 686.945312 244.0625 C 688.304688 246.613281 689.660156 249.171875 691.183594 251.628906 C 691.816406 252.644531 692.476562 253.632812 693.203125 254.582031 C 694.25 255.960938 695.289062 257.429688 696.585938 258.601562 C 698.574219 260.390625 700.34375 261.488281 702.839844 262.382812 C 705.226562 263.242188 707.597656 263.03125 710.027344 262.609375 C 712.171875 262.238281 714.464844 260.191406 715.519531 258.386719 C 716.675781 256.414062 717.164062 253.511719 716.449219 251.300781 C 715.726562 249.074219 714.347656 246.929688 712.222656 245.804688 C 711.492188 245.496094 710.757812 245.1875 710.027344 244.878906 C 708.398438 244.4375 706.769531 244.4375 705.140625 244.875 Z M 705.140625 244.875 " fill-opacity="1" fill-rule="nonzero"/></g><g clip-path="url(#df17db04e5)"><path fill="#fd6d2f" d="M 608.992188 452.132812 C 608.582031 452.070312 608.1875 451.960938 607.804688 451.800781 C 608.535156 452.109375 609.269531 452.417969 610 452.726562 C 609.628906 452.5625 609.285156 452.355469 608.960938 452.109375 C 609.582031 452.589844 610.203125 453.066406 610.824219 453.546875 C 610.378906 453.195312 609.992188 452.785156 609.648438 452.339844 C 610.125 452.960938 610.605469 453.582031 611.085938 454.203125 C 610.402344 453.300781 609.894531 452.285156 609.453125 451.246094 C 609.761719 451.976562 610.070312 452.710938 610.378906 453.441406 C 609.316406 450.902344 608.621094 448.21875 607.886719 445.570312 C 607.023438 442.453125 606.140625 439.339844 604.984375 436.316406 C 603.507812 432.457031 601.839844 428.582031 599.359375 425.25 C 597.882812 423.269531 596.375 421.3125 594.527344 419.660156 C 592.644531 417.980469 590.574219 416.398438 588.351562 415.183594 C 578.921875 410.023438 567.726562 409.605469 557.425781 412.015625 C 547.726562 414.285156 538.558594 419.40625 531.761719 426.710938 C 524.472656 434.546875 519.410156 444.390625 516.882812 454.773438 C 515.601562 460.03125 514.886719 465.507812 514.761719 470.921875 C 514.625 477.035156 515.304688 483.167969 516.398438 489.175781 C 518.449219 500.445312 522.65625 511.300781 527.675781 521.558594 C 531.964844 530.332031 537.277344 538.496094 543.445312 546.0625 C 549.460938 553.441406 556.621094 559.976562 564.671875 565.082031 C 568.921875 567.777344 573.492188 569.921875 578.203125 571.6875 C 583.242188 573.578125 588.449219 574.582031 593.789062 575.191406 C 599.832031 575.878906 605.796875 575.4375 611.800781 574.597656 C 617.054688 573.863281 622.210938 572.554688 627.226562 570.828125 C 637.429688 567.308594 647.269531 562.410156 656.195312 556.332031 C 664.726562 550.527344 672.699219 543.726562 679.15625 535.648438 C 684.015625 529.5625 688.234375 523.132812 691.324219 515.972656 C 693.199219 511.628906 694.890625 507.242188 696.027344 502.640625 C 697.3125 497.425781 698.070312 491.976562 698.125 486.605469 C 698.242188 475.53125 695.210938 464.585938 689.710938 454.996094 C 687.234375 450.679688 684.210938 446.628906 680.929688 442.886719 C 678.195312 439.769531 675.167969 436.921875 671.894531 434.378906 C 668.210938 431.519531 664.445312 428.859375 660.214844 426.863281 C 656.378906 425.050781 652.363281 423.441406 648.164062 422.753906 C 645.8125 422.363281 643.40625 422.019531 641.011719 422.054688 C 638.703125 422.085938 636.351562 422.386719 634.097656 422.894531 C 629.421875 423.953125 625.429688 426.390625 621.753906 429.363281 C 618.714844 431.816406 616.273438 434.988281 614.035156 438.152344 C 612.21875 440.714844 610.640625 443.425781 609.058594 446.132812 C 607.753906 448.367188 606.464844 450.632812 604.886719 452.6875 C 605.367188 452.066406 605.84375 451.445312 606.324219 450.828125 C 605.617188 451.738281 604.851562 452.605469 603.9375 453.316406 C 604.558594 452.835938 605.175781 452.359375 605.796875 451.878906 C 605.351562 452.214844 604.878906 452.507812 604.367188 452.726562 C 605.101562 452.417969 605.832031 452.109375 606.566406 451.800781 C 606.164062 451.964844 605.753906 452.078125 605.320312 452.140625 C 606.136719 452.03125 606.953125 451.921875 607.765625 451.8125 C 607.355469 451.859375 606.953125 451.855469 606.546875 451.804688 C 605.277344 451.757812 604.097656 452.019531 603.003906 452.597656 C 601.867188 452.964844 600.878906 453.601562 600.046875 454.496094 C 598.453125 456.09375 597.25 458.707031 597.355469 461 C 597.460938 463.375 598.242188 465.84375 600.046875 467.5 C 600.667969 467.980469 601.289062 468.457031 601.90625 468.9375 C 603.34375 469.769531 604.890625 470.1875 606.546875 470.191406 C 609.140625 470.53125 612.269531 469.535156 614.457031 468.1875 C 616.339844 467.03125 617.972656 465.558594 619.328125 463.832031 C 620.90625 461.820312 622.335938 459.792969 623.648438 457.601562 C 624.726562 455.800781 625.761719 453.976562 626.84375 452.179688 C 628.148438 450.015625 629.523438 447.886719 631.0625 445.878906 C 630.582031 446.5 630.101562 447.121094 629.625 447.742188 C 631.234375 445.660156 633.027344 443.722656 635.097656 442.097656 C 634.480469 442.574219 633.859375 443.054688 633.238281 443.53125 C 634.679688 442.417969 636.238281 441.476562 637.910156 440.757812 C 637.179688 441.066406 636.445312 441.375 635.714844 441.683594 C 637.324219 441.007812 639 440.558594 640.726562 440.316406 C 639.914062 440.421875 639.097656 440.535156 638.285156 440.644531 C 640.488281 440.351562 642.710938 440.394531 644.910156 440.691406 C 644.097656 440.582031 643.28125 440.472656 642.464844 440.363281 C 645.570312 440.796875 648.578125 441.707031 651.464844 442.921875 C 650.734375 442.613281 650 442.304688 649.269531 441.996094 C 653.382812 443.746094 657.214844 446.097656 660.757812 448.820312 C 660.136719 448.34375 659.515625 447.863281 658.894531 447.386719 C 663.25 450.757812 667.148438 454.691406 670.523438 459.046875 C 670.042969 458.425781 669.566406 457.804688 669.085938 457.183594 C 672.226562 461.269531 674.886719 465.710938 676.90625 470.453125 C 676.597656 469.71875 676.289062 468.988281 675.980469 468.253906 C 677.742188 472.449219 678.960938 476.835938 679.589844 481.34375 C 679.480469 480.53125 679.371094 479.714844 679.261719 478.898438 C 679.921875 483.800781 679.875 488.753906 679.226562 493.648438 C 679.332031 492.835938 679.445312 492.019531 679.554688 491.207031 C 678.746094 497.074219 677.089844 502.792969 674.800781 508.253906 C 675.109375 507.519531 675.417969 506.789062 675.726562 506.054688 C 673.09375 512.285156 669.660156 518.125 665.53125 523.480469 C 666.007812 522.859375 666.488281 522.238281 666.96875 521.617188 C 662.183594 527.785156 656.558594 533.242188 650.394531 538.027344 C 651.015625 537.546875 651.636719 537.066406 652.257812 536.589844 C 644.398438 542.652344 635.710938 547.675781 626.578125 551.558594 C 627.308594 551.246094 628.042969 550.9375 628.773438 550.628906 C 621.679688 553.621094 614.261719 555.871094 606.625 556.914062 C 607.4375 556.804688 608.253906 556.695312 609.066406 556.585938 C 603.613281 557.308594 598.097656 557.394531 592.636719 556.667969 C 593.449219 556.777344 594.265625 556.886719 595.082031 556.996094 C 590.191406 556.320312 585.433594 555 580.882812 553.089844 C 581.617188 553.398438 582.347656 553.707031 583.082031 554.015625 C 577.886719 551.8125 573.042969 548.882812 568.578125 545.441406 C 569.199219 545.917969 569.816406 546.398438 570.4375 546.875 C 564.53125 542.289062 559.335938 536.859375 554.761719 530.949219 C 555.242188 531.570312 555.722656 532.191406 556.199219 532.8125 C 549.65625 524.316406 544.425781 514.894531 540.246094 505.035156 C 540.558594 505.765625 540.867188 506.5 541.175781 507.230469 C 537.546875 498.617188 534.761719 489.625 533.5 480.34375 C 533.609375 481.160156 533.71875 481.976562 533.828125 482.789062 C 532.996094 476.484375 532.875 470.101562 533.707031 463.792969 C 533.601562 464.605469 533.488281 465.421875 533.378906 466.234375 C 534.109375 460.894531 535.488281 455.660156 537.566406 450.683594 C 537.257812 451.417969 536.949219 452.148438 536.636719 452.882812 C 538.421875 448.664062 540.695312 444.675781 543.496094 441.050781 C 543.015625 441.671875 542.539062 442.292969 542.058594 442.914062 C 544.292969 440.054688 546.828125 437.421875 549.6875 435.183594 C 549.066406 435.664062 548.449219 436.140625 547.828125 436.621094 C 550.667969 434.425781 553.800781 432.65625 557.097656 431.25 C 556.367188 431.558594 555.632812 431.867188 554.902344 432.175781 C 558.613281 430.617188 562.511719 429.535156 566.5 428.992188 C 565.6875 429.101562 564.871094 429.210938 564.058594 429.320312 C 567.359375 428.886719 570.695312 428.832031 574 429.257812 C 573.1875 429.148438 572.371094 429.035156 571.558594 428.929688 C 574.148438 429.28125 576.679688 429.929688 579.089844 430.945312 C 578.359375 430.636719 577.625 430.328125 576.894531 430.019531 C 578.78125 430.832031 580.558594 431.859375 582.1875 433.109375 C 581.566406 432.632812 580.945312 432.152344 580.324219 431.675781 C 581.941406 432.941406 583.375 434.40625 584.636719 436.027344 C 584.15625 435.40625 583.675781 434.785156 583.199219 434.164062 C 584.984375 436.496094 586.382812 439.082031 587.527344 441.78125 C 587.21875 441.046875 586.910156 440.316406 586.601562 439.582031 C 588.339844 443.722656 589.472656 448.058594 590.6875 452.371094 C 591.199219 454.175781 591.71875 455.984375 592.402344 457.734375 C 592.964844 459.167969 593.535156 460.625 594.261719 461.988281 C 594.9375 463.261719 595.863281 464.417969 596.777344 465.515625 C 597.691406 466.609375 598.882812 467.511719 600.070312 468.265625 C 600.992188 468.851562 602.082031 469.25 603.09375 469.613281 C 603.425781 469.730469 603.761719 469.820312 604.109375 469.871094 C 605.332031 470.253906 606.554688 470.308594 607.773438 470.035156 C 609 469.980469 610.136719 469.617188 611.191406 468.945312 C 613.097656 467.832031 614.917969 465.644531 615.417969 463.453125 C 615.953125 461.097656 615.839844 458.457031 614.492188 456.367188 C 613.277344 454.484375 611.300781 452.476562 608.992188 452.132812 Z M 608.992188 452.132812 " fill-opacity="1" fill-rule="nonzero"/></g></svg>