<svg xmlns="http://www.w3.org/2000/svg" xmlns:xlink="http://www.w3.org/1999/xlink" width="1366" zoomAndPan="magnify" viewBox="0 0 1024.5 576" height="768" preserveAspectRatio="xMidYMid meet" version="1.0"><defs><clipPath id="21a34dbb27"><path d="M 261.003906 33.503906 L 458 33.503906 L 458 236 L 261.003906 236 Z M 261.003906 33.503906 " clip-rule="nonzero"/></clipPath></defs><g clip-path="url(#21a34dbb27)"><path fill="#dfafdb" d="M 452.449219 126.46875 C 452.644531 126.339844 452.839844 126.210938 453.039062 126.085938 C 454.796875 124.945312 456.097656 123.496094 456.914062 121.554688 C 457.710938 119.671875 458.039062 117.382812 457.394531 115.382812 C 456.886719 113.816406 456.066406 112.410156 454.957031 111.199219 C 453.296875 109.390625 450.636719 108.515625 448.257812 108.421875 C 445.667969 108.324219 443.089844 108.101562 440.519531 107.757812 C 441.359375 107.875 442.199219 107.984375 443.039062 108.097656 C 435.445312 107.066406 428.03125 104.984375 420.972656 102.011719 C 421.726562 102.332031 422.480469 102.648438 423.238281 102.96875 C 415.769531 99.796875 408.746094 95.648438 402.324219 90.691406 C 402.964844 91.183594 403.605469 91.675781 404.242188 92.171875 C 397.828125 87.1875 392.042969 81.421875 387.066406 75.003906 C 387.558594 75.640625 388.054688 76.28125 388.546875 76.921875 C 383.757812 70.714844 379.75 63.933594 376.695312 56.714844 C 377.015625 57.46875 377.332031 58.222656 377.652344 58.976562 C 375.183594 53.09375 373.371094 46.957031 372.300781 40.667969 C 371.984375 39.914062 371.667969 39.160156 371.347656 38.402344 C 370.855469 37.761719 370.359375 37.121094 369.867188 36.484375 C 368.382812 35.003906 366.476562 34.152344 364.425781 33.875 C 362.691406 33.644531 361.128906 33.84375 359.515625 34.523438 C 357.804688 35.246094 355.753906 36.625 354.984375 38.402344 C 349.925781 50.0625 343.726562 61.214844 336.511719 71.679688 C 334.46875 74.648438 332.34375 77.558594 330.140625 80.414062 C 330.636719 79.773438 331.128906 79.132812 331.625 78.496094 C 323.386719 89.15625 314.097656 98.992188 303.914062 107.8125 C 301.042969 110.296875 298.105469 112.695312 295.101562 115.015625 C 295.742188 114.523438 296.382812 114.027344 297.019531 113.535156 C 289.433594 119.378906 281.4375 124.691406 273.085938 129.382812 C 270.6875 130.726562 268.257812 132.023438 265.808594 133.269531 C 265.167969 133.761719 264.527344 134.257812 263.890625 134.75 C 263.394531 135.386719 262.902344 136.027344 262.40625 136.667969 C 261.328125 138.511719 261.003906 140.621094 261.285156 142.710938 C 261.511719 144.414062 262.097656 145.832031 263.152344 147.191406 C 264.304688 148.6875 266.140625 150.265625 268.074219 150.589844 C 276.179688 151.941406 284.097656 154.269531 291.675781 157.453125 C 290.921875 157.136719 290.164062 156.816406 289.410156 156.5 C 298.421875 160.3125 306.894531 165.3125 314.640625 171.285156 C 314 170.792969 313.359375 170.296875 312.722656 169.804688 C 320.605469 175.914062 327.695312 183.003906 333.800781 190.886719 C 333.308594 190.25 332.8125 189.609375 332.320312 188.972656 C 338.238281 196.648438 343.191406 205.042969 346.972656 213.972656 C 346.65625 213.21875 346.335938 212.464844 346.019531 211.707031 C 348.253906 217.023438 350.070312 222.503906 351.417969 228.109375 C 351.738281 228.863281 352.054688 229.617188 352.375 230.375 C 352.96875 231.480469 353.78125 232.367188 354.8125 233.035156 C 356.410156 234.269531 358.480469 235.160156 360.554688 235.070312 C 362.238281 234.992188 363.851562 234.5625 365.339844 233.773438 C 367.601562 232.578125 368.8125 230.378906 369.695312 228.109375 C 370.46875 226.125 371.269531 224.148438 372.101562 222.179688 C 371.78125 222.9375 371.464844 223.691406 371.144531 224.445312 C 377.042969 210.523438 384.347656 197.203125 392.90625 184.738281 C 395.320312 181.21875 397.832031 177.773438 400.4375 174.394531 C 399.941406 175.03125 399.449219 175.671875 398.953125 176.3125 C 408.199219 164.34375 418.609375 153.285156 430.03125 143.371094 C 433.25 140.574219 436.550781 137.875 439.921875 135.265625 C 439.28125 135.757812 438.640625 136.25 438.003906 136.746094 C 442.675781 133.128906 447.496094 129.699219 452.449219 126.46875 C 454.507812 125.121094 456.140625 123.21875 456.804688 120.804688 C 457.429688 118.535156 457.148438 115.515625 455.847656 113.5 C 454.546875 111.476562 452.601562 109.699219 450.183594 109.144531 C 447.765625 108.597656 445.023438 108.703125 442.882812 110.101562 C 426.886719 120.546875 412.082031 132.9375 399.078125 146.9375 C 386.148438 160.855469 374.765625 176.359375 365.5 192.949219 C 360.089844 202.636719 355.445312 212.730469 351.417969 223.066406 C 357.507812 223.066406 363.601562 223.066406 369.691406 223.066406 C 365.324219 204.933594 356.324219 188.269531 344.410156 174.007812 C 338.96875 167.496094 332.824219 161.59375 326.121094 156.398438 C 318.765625 150.691406 311.019531 145.648438 302.558594 141.71875 C 293.164062 137.351562 283.34375 134.015625 273.109375 132.308594 C 273.863281 138.082031 274.617188 143.855469 275.375 149.632812 C 292.0625 141.160156 307.542969 130.242188 321.351562 117.621094 C 335.085938 105.066406 347.152344 90.554688 357.113281 74.839844 C 362.546875 66.269531 367.308594 57.277344 371.347656 47.96875 C 365.574219 47.214844 359.800781 46.460938 354.027344 45.703125 C 356.96875 62.992188 365.40625 78.996094 376.773438 92.214844 C 388.210938 105.515625 403.128906 115.597656 419.53125 121.71875 C 428.695312 125.140625 438.488281 126.996094 448.257812 127.378906 C 446.660156 121.492188 445.070312 115.605469 443.472656 109.71875 C 443.273438 109.84375 443.078125 109.972656 442.882812 110.101562 C 440.824219 111.441406 439.191406 113.351562 438.527344 115.765625 C 437.902344 118.035156 438.183594 121.050781 439.480469 123.066406 C 440.785156 125.089844 442.730469 126.871094 445.144531 127.421875 C 447.566406 127.972656 450.304688 127.863281 452.449219 126.46875 Z M 452.449219 126.46875 " fill-opacity="1" fill-rule="nonzero"/></g><path fill="#dfafdb" d="M 657.015625 362.960938 C 649.5625 340.324219 637.210938 319.613281 621.203125 301.984375 C 605.800781 285.019531 586.785156 270.898438 565.902344 261.425781 C 553.804688 255.941406 541.214844 251.726562 528.125 249.378906 C 529.519531 254.660156 530.910156 259.9375 532.304688 265.222656 C 549.480469 250.511719 565.347656 234.296875 579.699219 216.820312 C 594.378906 198.945312 607.632812 179.902344 619.066406 159.785156 C 625.328125 148.765625 631.046875 137.445312 636.210938 125.871094 C 630.753906 125.871094 625.300781 125.871094 619.84375 125.871094 C 630.28125 145.335938 643.90625 163.242188 659.730469 178.644531 C 675.511719 194.003906 693.660156 207.171875 713.285156 217.183594 C 724.613281 222.960938 736.476562 227.804688 748.636719 231.523438 C 747.242188 226.242188 745.851562 220.964844 744.457031 215.683594 C 726.796875 233.40625 710.707031 252.667969 696.238281 273.070312 C 682.15625 292.9375 669.730469 313.980469 659.152344 335.914062 C 652.902344 348.859375 647.273438 362.121094 642.265625 375.597656 C 648.355469 375.597656 654.449219 375.597656 660.542969 375.597656 C 659.550781 371.335938 658.375 367.121094 657.015625 362.960938 C 656.257812 360.625 654.816406 358.558594 652.660156 357.296875 C 650.628906 356.109375 647.636719 355.605469 645.359375 356.34375 C 640.660156 357.863281 637.09375 362.953125 638.742188 368 C 640.097656 372.160156 641.273438 376.371094 642.265625 380.636719 C 643.167969 384.515625 647.394531 387.773438 651.402344 387.589844 C 653.085938 387.515625 654.695312 387.085938 656.183594 386.296875 C 658.414062 385.117188 659.703125 382.890625 660.542969 380.632812 C 662.726562 374.753906 665.035156 368.925781 667.46875 363.144531 C 667.148438 363.902344 666.832031 364.65625 666.511719 365.410156 C 672.210938 351.910156 678.585938 338.695312 685.613281 325.835938 C 692.640625 312.976562 700.316406 300.46875 708.601562 288.378906 C 713.300781 281.523438 718.195312 274.804688 723.273438 268.222656 C 722.78125 268.859375 722.285156 269.5 721.792969 270.140625 C 732.945312 255.71875 744.988281 242 757.855469 229.085938 C 762.996094 223.929688 760.445312 215.316406 753.671875 213.246094 C 747 211.203125 740.4375 208.820312 734.003906 206.109375 C 734.757812 206.429688 735.511719 206.746094 736.269531 207.066406 C 723.355469 201.59375 711.011719 194.824219 699.445312 186.894531 C 696.132812 184.625 692.886719 182.257812 689.707031 179.804688 C 690.34375 180.300781 690.984375 180.792969 691.621094 181.285156 C 680.421875 172.625 670.070312 162.875 660.796875 152.175781 C 658.164062 149.140625 655.625 146.03125 653.167969 142.855469 C 653.664062 143.492188 654.15625 144.132812 654.648438 144.773438 C 647.742188 135.800781 641.5625 126.285156 636.210938 116.304688 C 634.648438 113.394531 631.269531 111.609375 628.027344 111.609375 C 624.972656 111.609375 621.160156 113.351562 619.84375 116.304688 C 609.957031 138.46875 598.011719 159.699219 584.199219 179.652344 C 580.304688 185.277344 576.261719 190.800781 572.082031 196.214844 C 572.574219 195.574219 573.070312 194.933594 573.5625 194.296875 C 560.921875 210.644531 547.003906 226 531.933594 240.144531 C 527.679688 244.136719 523.335938 248.027344 518.90625 251.820312 C 516.394531 253.96875 515.625 257.976562 516.46875 261.039062 C 517.28125 263.996094 519.921875 267.089844 523.085938 267.65625 C 534.046875 269.621094 544.742188 272.84375 555 277.167969 C 554.246094 276.851562 553.492188 276.535156 552.734375 276.214844 C 565.402344 281.59375 577.320312 288.628906 588.222656 297.019531 C 587.585938 296.527344 586.941406 296.035156 586.304688 295.539062 C 597.5 304.199219 607.574219 314.261719 616.242188 325.457031 C 615.746094 324.820312 615.253906 324.179688 614.757812 323.539062 C 623.074219 334.335938 630.046875 346.136719 635.363281 358.691406 C 635.042969 357.9375 634.726562 357.183594 634.40625 356.425781 C 636.007812 360.226562 637.453125 364.085938 638.742188 368 C 639.511719 370.339844 640.9375 372.398438 643.101562 373.664062 C 645.128906 374.851562 648.125 375.359375 650.402344 374.621094 C 655.085938 373.101562 658.679688 368.003906 657.015625 362.960938 Z M 657.015625 362.960938 " fill-opacity="1" fill-rule="nonzero"/><path fill="#dfafdb" d="M 462.828125 523.089844 C 464.351562 518.820312 465.996094 514.59375 467.757812 510.414062 C 467.4375 511.171875 467.121094 511.925781 466.800781 512.679688 C 473.246094 497.429688 481.234375 482.839844 490.597656 469.183594 C 493.226562 465.359375 495.957031 461.609375 498.792969 457.933594 C 498.300781 458.570312 497.804688 459.210938 497.3125 459.851562 C 507.210938 447.042969 518.347656 435.199219 530.570312 424.582031 C 534.035156 421.574219 537.582031 418.667969 541.210938 415.863281 C 540.574219 416.355469 539.933594 416.851562 539.292969 417.34375 C 541.214844 415.863281 543.15625 414.410156 545.121094 412.988281 C 546.433594 412.035156 547.6875 411.011719 548.519531 409.585938 C 549.597656 407.746094 549.925781 405.632812 549.644531 403.542969 C 549.414062 401.839844 548.828125 400.421875 547.777344 399.0625 C 546.457031 397.351562 544.910156 396.402344 542.855469 395.664062 C 539.238281 394.367188 535.65625 392.972656 532.113281 391.484375 C 532.867188 391.800781 533.621094 392.117188 534.378906 392.4375 C 521.199219 386.867188 508.589844 379.976562 496.789062 371.890625 C 493.445312 369.597656 490.164062 367.207031 486.949219 364.734375 C 487.589844 365.226562 488.230469 365.71875 488.867188 366.214844 C 478.015625 357.824219 467.957031 348.414062 458.914062 338.097656 C 456.34375 335.167969 453.863281 332.164062 451.460938 329.097656 C 450.277344 327.921875 448.882812 327.109375 447.277344 326.660156 C 445.597656 326.210938 443.917969 326.210938 442.238281 326.660156 C 440.632812 327.109375 439.238281 327.925781 438.054688 329.097656 C 436.882812 330.277344 436.070312 331.671875 435.621094 333.28125 C 435.269531 334.148438 434.910156 335.015625 434.546875 335.882812 C 434.867188 335.128906 435.183594 334.375 435.503906 333.617188 C 430.914062 344.46875 425.222656 354.84375 418.550781 364.550781 C 416.660156 367.300781 414.691406 369.996094 412.652344 372.632812 C 413.144531 371.996094 413.640625 371.355469 414.132812 370.71875 C 406.980469 379.949219 398.9375 388.480469 390.117188 396.132812 C 387.597656 398.320312 385.015625 400.433594 382.375 402.472656 C 383.015625 401.980469 383.65625 401.484375 384.292969 400.992188 C 379.75 404.492188 375.042969 407.765625 370.179688 410.804688 C 367.320312 412.589844 365.484375 415.570312 365.484375 418.988281 C 365.484375 422.257812 367.273438 425.578125 370.179688 427.171875 C 376.574219 430.675781 382.679688 434.6875 388.453125 439.136719 C 387.816406 438.644531 387.175781 438.152344 386.535156 437.65625 C 396.4375 445.320312 405.304688 454.253906 412.96875 464.15625 C 412.472656 463.515625 411.980469 462.875 411.488281 462.238281 C 417.625 470.203125 422.980469 478.765625 427.421875 487.789062 C 428.683594 490.351562 429.871094 492.953125 430.984375 495.585938 C 430.664062 494.832031 430.347656 494.078125 430.03125 493.320312 C 433.871094 502.441406 436.816406 511.9375 438.722656 521.652344 C 439.261719 524.40625 439.714844 527.179688 440.089844 529.960938 C 439.976562 529.125 439.863281 528.28125 439.75 527.445312 C 439.972656 529.105469 440.164062 530.769531 440.324219 532.4375 C 440.5625 534.894531 441.191406 537.386719 443.101562 539.140625 C 444.667969 540.578125 446.429688 541.460938 448.542969 541.746094 C 453.226562 542.375 457.574219 539.519531 458.941406 534.960938 C 460.132812 530.96875 461.429688 527.011719 462.828125 523.089844 C 463.613281 520.875 463.027344 517.761719 461.871094 515.789062 C 460.722656 513.820312 458.46875 511.949219 456.207031 511.433594 C 453.78125 510.882812 451.058594 511 448.90625 512.386719 C 446.746094 513.78125 445.414062 515.621094 444.550781 518.050781 C 443.15625 521.972656 441.859375 525.929688 440.664062 529.917969 C 446.871094 530.757812 453.074219 531.597656 459.28125 532.4375 C 458.308594 522.46875 456.507812 512.597656 453.621094 503.003906 C 450.75 493.464844 446.914062 484.15625 442.324219 475.320312 C 437.710938 466.433594 432.15625 458.175781 426.011719 450.285156 C 420.324219 442.980469 413.957031 436.199219 407.003906 430.082031 C 398.644531 422.726562 389.515625 416.160156 379.75 410.804688 C 379.75 416.261719 379.75 421.714844 379.75 427.171875 C 392.609375 419.140625 404.570312 409.484375 415.078125 398.550781 C 425.585938 387.628906 434.855469 375.351562 442.421875 362.214844 C 446.839844 354.535156 450.589844 346.527344 453.902344 338.316406 C 448.621094 339.710938 443.34375 341.105469 438.0625 342.5 C 447.703125 354.816406 458.71875 366.035156 470.832031 375.933594 C 483.457031 386.246094 497.039062 395.324219 511.597656 402.683594 C 520.082031 406.972656 528.867188 410.730469 537.820312 413.9375 C 537.066406 408.164062 536.3125 402.390625 535.554688 396.617188 C 519.386719 408.34375 504.558594 421.796875 491.585938 436.992188 C 478.667969 452.121094 467.371094 468.65625 458.269531 486.351562 C 453.003906 496.585938 448.425781 507.207031 444.550781 518.050781 C 443.761719 520.261719 444.355469 523.382812 445.507812 525.351562 C 446.65625 527.316406 448.910156 529.191406 451.171875 529.707031 C 453.597656 530.257812 456.320312 530.140625 458.472656 528.753906 C 460.632812 527.359375 461.957031 525.519531 462.828125 523.089844 Z M 462.828125 523.089844 " fill-opacity="1" fill-rule="nonzero"/></svg>